<?xml version="1.0" encoding="utf-8"?>
<!-- Generator: Adobe Illustrator 28.1.0, SVG Export Plug-In . SVG Version: 6.00 Build 0)  -->
<svg version="1.1" id="Layer_1" xmlns="http://www.w3.org/2000/svg" xmlns:xlink="http://www.w3.org/1999/xlink" x="0px" y="0px"
	 viewBox="0 0 154 98" style="enable-background:new 0 0 154 98;" xml:space="preserve">
<style type="text/css">
	.st0{fill-rule:evenodd;clip-rule:evenodd;fill:#ADFFFF;}
	.st1{fill-rule:evenodd;clip-rule:evenodd;fill:#00C8FF;}
	.st2{fill:#ADFFFF;}
</style>
<polygon class="st0" points="15.7,46.34 41.68,46.34 50.7,65.84 41.68,85.34 15.7,85.34 24.71,65.84 "/>
<polygon class="st1" points="52.2,46.34 78.18,46.34 87.2,65.84 78.18,85.34 52.2,85.34 61.21,65.84 "/>
<polygon class="st1" points="81.2,46.34 107.18,46.34 116.2,65.84 107.18,85.34 81.2,85.34 90.21,65.84 "/>
<polygon class="st1" points="110.2,46.34 136.18,46.34 145.2,65.84 136.18,85.34 110.2,85.34 119.21,65.84 "/>
<path class="st1" d="M52.25,43.9l-3.57-6.7l-1.1-2.08L46.31,24.6l-1.11,1.25c-0.53,0.6-1.15,1.11-1.84,1.51
	c-3.73,2.14-8.48,0.85-10.62-2.87c-2.14-3.72-0.86-8.48,2.87-10.62c3.71-2.13,8.45-0.87,10.6,2.83c0.3,0.59,0.55,1.21,0.77,1.84
	l4.25,10.07l0.68,1.59l0.02,0.04l3.1,7.31l9.31,22.19l-0.71,5.67l-9.44-17.9L52.25,43.9z M40.22,65.42l-0.71-5.67l8.58-20.46
	l2.98,5.6L40.22,65.42z M56.88,18.5c0.2-0.6,0.44-1.18,0.73-1.75c2.16-3.71,6.9-4.99,10.63-2.87l0.1,0.06
	c1.79,1.04,3.08,2.74,3.6,4.74c1.09,4.15-1.4,8.41-5.55,9.5c-2,0.52-4.12,0.23-5.9-0.81c-0.69-0.4-1.32-0.92-1.85-1.52l-1.1-1.25
	l-1.28,10.51l-0.36,0.68l-3.16-7.47L56.88,18.5z M65.86,59.54L56.7,37.69l-0.05-0.11l1.06-2.01l0.93-7.65
	c0.34,0.27,0.71,0.52,1.09,0.74c4.43,2.59,10.11,1.1,12.7-3.33c2.59-4.42,1.1-10.1-3.33-12.69l-0.12-0.07
	c-4.46-2.53-10.13-0.98-12.69,3.46c-0.32,0.62-0.59,1.27-0.81,1.93l-3.56,8.44l-3.54-8.39c-0.23-0.69-0.52-1.37-0.85-2.02
	c-2.55-4.44-8.23-5.98-12.67-3.43c-4.45,2.55-5.98,8.22-3.43,12.66c2.55,4.44,8.23,5.98,12.67,3.43c0,0,0,0,0.01,0
	c0.38-0.22,0.74-0.47,1.09-0.74l0.93,7.65l1.06,2.01l-9.21,21.96l1.35,10.8l11.67-22.12l0.93-1.74l12.59,23.86L65.86,59.54z"/>
<path class="st1" d="M62.43,23.79c-1.66-1.03-2.23-3.25-1.3-5.01c0.95-1.76,3.09-2.38,4.78-1.38c0.81,0.48,1.4,1.27,1.65,2.2
	c0.09,0.32,0.13,0.65,0.13,0.98c0,0.64-0.16,1.27-0.47,1.83l-0.01,0.03C66.24,24.19,64.11,24.79,62.43,23.79z M68.51,23.21
	l0.03-0.06c1.37-2.51,0.53-5.7-1.87-7.13c-2.4-1.43-5.45-0.56-6.82,1.95c-0.43,0.79-0.66,1.68-0.66,2.59c0,1.89,0.96,3.64,2.51,4.59
	C64.1,26.58,67.14,25.71,68.51,23.21z"/>
<path class="st1" d="M36.16,22.42c-0.99-1.75-0.43-4.01,1.24-5.04c1.67-1.03,3.83-0.45,4.81,1.3c0.32,0.57,0.49,1.22,0.49,1.87
	c0,1.32-0.66,2.55-1.75,3.23C39.27,24.79,37.13,24.18,36.16,22.42z M43.56,17.98c-1.38-2.51-4.44-3.38-6.84-1.94
	c-2.4,1.44-3.23,4.65-1.85,7.17c1.38,2.51,4.44,3.38,6.84,1.94c0,0,0,0,0,0l0.01,0C44.07,23.67,44.89,20.49,43.56,17.98z"/>
<circle class="st1" cx="51.2" cy="36.34" r="1.5"/>
<rect x="51.2" y="54.34" class="st2" width="1.5" height="5.5"/>
<rect x="51.2" y="62.84" class="st2" width="1.5" height="5"/>
<rect x="51.2" y="70.84" class="st2" width="1.5" height="5.5"/>
<rect x="51.2" y="78.84" class="st2" width="1.5" height="5.5"/>
</svg>
