<?xml version="1.0" encoding="UTF-8"?>
<svg id="Pictograms" xmlns="http://www.w3.org/2000/svg" viewBox="0 0 160 160">
  <defs>
    <style>
      .cls-1 {
        fill: #adedff;
      }

      .cls-2 {
        fill: #2954ff;
      }

      .cls-3 {
        fill: #0e0a7f;
      }

      .cls-4 {
        fill: #00c8ff;
      }
    </style>
  </defs>
  <path class="cls-4" d="M91.27,36.76c.14-.68.21-1.38.21-2.09h0c0-5.81-4.71-10.52-10.52-10.52h-15.97c-5.81,0-10.52,4.71-10.52,10.52h0c0,4.3,2.58,7.99,6.28,9.62-2.21,1.31-3.7,3.71-3.7,6.47,0,4.15,3.37,7.52,7.52,7.52h10.18c4.15,0,7.52-3.37,7.52-7.52,0-.25-.01-.5-.04-.74h7.06c3.74,0,6.77-3.03,6.77-6.77h0c0-3.05-2.02-5.64-4.8-6.48Z"/>
  <polygon class="cls-2" points="59.01 85.81 59.01 98.65 53.2 90.98 59.01 85.81"/>
  <path class="cls-2" d="M47.18,59.55l18.68,61.7c.39,1.28-.57,2.58-1.91,2.58H26.59c-1.34,0-2.3-1.3-1.91-2.58l18.68-61.7c.57-1.89,3.25-1.89,3.83,0Z"/>
  <path class="cls-1" d="M93.2,55.37l-34.2,30.44v48.8h68.39v-48.79l-34.19-30.45ZM102.1,121.85h-17.79v-25.52h17.79v25.52Z"/>
  <g>
    <path class="cls-3" d="M59.25,45.79c.29.15.61.22.92.22.72,0,1.42-.39,1.78-1.08.51-.98.12-2.19-.86-2.69-2.84-1.47-4.61-4.37-4.61-7.57,0-4.7,3.82-8.52,8.51-8.52h9.11c1.1,0,2-.9,2-2s-.9-2-2-2h-9.11c-6.9,0-12.51,5.61-12.51,12.52,0,4.7,2.6,8.96,6.77,11.12Z"/>
    <path class="cls-3" d="M84.31,94.33c-1.1,0-2,.9-2,2v25.52c0,1.1.9,2,2,2h17.79c1.1,0,2-.9,2-2v-25.52c0-1.1-.9-2-2-2h-17.79ZM100.1,107.09h-4.9v-8.44c0-.11-.02-.22-.03-.32h4.93v8.76ZM91.23,98.33c-.02.11-.03.21-.03.32v8.44h-4.89v-8.76h4.92ZM86.31,111.09h4.89v8.43c0,.11.02.22.03.32h-4.92v-8.76ZM95.16,119.85c.02-.11.03-.21.03-.32v-8.43h4.9v8.76h-4.93Z"/>
    <path class="cls-3" d="M115.78,83.57c0-1.1-.9-2-2-2h-41.16c-1.1,0-2,.9-2,2s.9,2,2,2h41.16c1.1,0,2-.9,2-2Z"/>
    <path class="cls-3" d="M100.1,72.81c1.1,0,2-.9,2-2s-.9-2-2-2h-13.79c-1.1,0-2,.9-2,2s.9,2,2,2h13.79Z"/>
    <path class="cls-3" d="M126.86,107.09h-14.98c-1.1,0-2,.9-2,2s.9,2,2,2h14.98c1.1,0,2-.9,2-2s-.9-2-2-2Z"/>
    <path class="cls-3" d="M126.86,94.33h-14.98c-1.1,0-2,.9-2,2s.9,2,2,2h14.98c1.1,0,2-.9,2-2s-.9-2-2-2Z"/>
    <path class="cls-3" d="M126.86,119.85h-14.98c-1.1,0-2,.9-2,2s.9,2,2,2h14.98c1.1,0,2-.9,2-2s-.9-2-2-2Z"/>
    <path class="cls-3" d="M74.52,123.85c1.1,0,2-.9,2-2s-.9-2-2-2h-13.52v-8.76h13.52c1.1,0,2-.9,2-2s-.9-2-2-2h-13.52v-8.76h13.52c1.1,0,2-.9,2-2s-.9-2-2-2h-14.98c-.09,0-.18.02-.27.03-.09-.01-.18-.03-.27-.03-1.1,0-2,.9-2,2v16.3l-9.74-7.34v-23.92c0-1.1-.9-2-2-2s-2,.9-2,2v23.92l-11.11,8.38c-.88.67-1.06,1.92-.39,2.8.39.52.99.8,1.6.8.42,0,.84-.13,1.2-.4l8.7-6.56v22.3h-13.74c-1.1,0-2,.9-2,2s.9,2,2,2h29.48c1.1,0,2-.9,2-2v-10.76h13.52ZM47.27,132.61v-22.3l9.74,7.34v14.96h-9.74Z"/>
    <path class="cls-3" d="M135.42,132.61h-66.51c-1.1,0-2,.9-2,2s.9,2,2,2h66.51c1.1,0,2-.9,2-2s-.9-2-2-2Z"/>
    <path class="cls-3" d="M54.53,92.47l38.67-34.43,40.89,36.41c.38.34.86.51,1.33.51.55,0,1.1-.23,1.5-.67.73-.83.66-2.09-.16-2.82l-42.22-37.59c-.76-.67-1.9-.67-2.66,0l-25.46,22.67v-16.26h10.31c1.1,0,2-.9,2-2s-.9-2-2-2h-12.31c-1.1,0-2,.9-2,2v21.83l-10.54,9.38c-.83.74-.9,2-.16,2.82.73.82,2,.9,2.82.16Z"/>
  </g>
</svg>