<?xml version="1.0" encoding="UTF-8"?>
<svg id="Pictograms" xmlns="http://www.w3.org/2000/svg" viewBox="0 0 160 160">
  <defs>
    <style>
      .cls-1 {
        fill: #adedff;
      }

      .cls-2 {
        fill: #2954ff;
      }

      .cls-3 {
        fill: #0e0a7f;
      }
    </style>
  </defs>
  <polygon class="cls-2" points="47.59 85.81 47.59 98.65 41.78 90.98 47.59 85.81"/>
  <path class="cls-2" d="M35.77,59.55l18.68,61.7c.39,1.28-.57,2.58-1.91,2.58H15.17c-1.34,0-2.3-1.3-1.91-2.58l18.68-61.7c.57-1.89,3.25-1.89,3.83,0Z"/>
  <path class="cls-1" d="M81.79,55.37l-34.2,30.44v48.8h68.39v-48.79l-34.19-30.45ZM90.68,121.85h-17.79v-25.52h17.79v25.52Z"/>
  <path class="cls-2" d="M121.56,77.95c-2.21,0-4-1.79-4-4s1.79-4,4-4,4,1.79,4,4-1.79,4-4,4ZM121.56,73.92l.03.03s-.01-.03-.03-.03Z"/>
  <g>
    <path class="cls-3" d="M72.89,94.33c-1.1,0-2,.9-2,2v25.52c0,1.1.9,2,2,2h17.79c1.1,0,2-.9,2-2v-25.52c0-1.1-.9-2-2-2h-17.79ZM88.68,107.09h-4.9v-8.44c0-.11-.02-.22-.03-.32h4.93v8.76ZM79.81,98.33c-.02.11-.03.21-.03.32v8.44h-4.89v-8.76h4.92ZM74.89,111.09h4.89v8.43c0,.11.02.22.03.32h-4.92v-8.76ZM83.75,119.85c.02-.11.03-.21.03-.32v-8.43h4.9v8.76h-4.93Z"/>
    <path class="cls-3" d="M115.44,107.09h-14.98c-1.1,0-2,.9-2,2s.9,2,2,2h14.98c1.1,0,2-.9,2-2s-.9-2-2-2Z"/>
    <path class="cls-3" d="M115.44,94.33h-14.98c-1.1,0-2,.9-2,2s.9,2,2,2h14.98c1.1,0,2-.9,2-2s-.9-2-2-2Z"/>
    <path class="cls-3" d="M115.44,119.85h-14.98c-1.1,0-2,.9-2,2s.9,2,2,2h14.98c1.1,0,2-.9,2-2s-.9-2-2-2Z"/>
    <path class="cls-3" d="M63.11,123.85c1.1,0,2-.9,2-2s-.9-2-2-2h-13.52v-8.76h13.52c1.1,0,2-.9,2-2s-.9-2-2-2h-13.52v-8.76h13.52c1.1,0,2-.9,2-2s-.9-2-2-2h-14.98c-.09,0-.18.02-.27.03-.09-.01-.18-.03-.27-.03-1.1,0-2,.9-2,2v16.3l-9.74-7.34v-23.92c0-1.1-.9-2-2-2s-2,.9-2,2v23.92l-11.11,8.38c-.88.67-1.06,1.92-.39,2.8.39.52.99.8,1.6.8.42,0,.84-.13,1.2-.4l8.7-6.56v22.3h-13.74c-1.1,0-2,.9-2,2s.9,2,2,2h29.48c1.1,0,2-.9,2-2v-10.76h13.52ZM35.85,110.3l9.74,7.34v14.96h-9.74v-22.3Z"/>
    <path class="cls-3" d="M124,132.61H57.49c-1.1,0-2,.9-2,2s.9,2,2,2h66.51c1.1,0,2-.9,2-2s-.9-2-2-2Z"/>
    <path class="cls-3" d="M43.11,92.47l38.67-34.43,40.89,36.41c.38.34.86.51,1.33.51.55,0,1.1-.23,1.5-.67.73-.83.66-2.09-.16-2.82l-42.22-37.59c-.76-.67-1.9-.67-2.66,0l-25.46,22.67v-16.26h10.31c1.1,0,2-.9,2-2s-.9-2-2-2h-12.31c-1.1,0-2,.9-2,2v21.83l-10.54,9.38c-.83.74-.9,2-.16,2.82.73.82,2,.9,2.82.16Z"/>
    <path class="cls-3" d="M111.16,62.68c-.78.78-.78,2.05,0,2.83s2.05.78,2.83,0c4.03-4.03,10.58-4.03,14.61,0,.39.39.9.59,1.41.59s1.02-.2,1.41-.59c.78-.78.78-2.05,0-2.83-5.59-5.59-14.68-5.59-20.27,0Z"/>
    <path class="cls-3" d="M102.44,54.96c-.78.78-.78,2.05,0,2.83s2.05.78,2.83,0c4.28-4.28,9.97-6.64,16.03-6.64s11.75,2.36,16.03,6.64c.39.39.9.59,1.41.59s1.02-.2,1.41-.59c.78-.78.78-2.05,0-2.83-10.4-10.4-27.31-10.4-37.71,0Z"/>
    <path class="cls-3" d="M148.25,47.86c-14.87-14.86-39.05-14.86-53.91,0-.78.78-.78,2.05,0,2.83s2.05.78,2.83,0c13.3-13.3,34.94-13.3,48.25,0,.39.39.9.58,1.41.58s1.02-.2,1.42-.59c.78-.78.78-2.05,0-2.83Z"/>
  </g>
  <path class="cls-3" d="M104.37,83.57c0-1.1-.9-2-2-2h-41.16c-1.1,0-2,.9-2,2s.9,2,2,2h41.16c1.1,0,2-.9,2-2Z"/>
  <path class="cls-3" d="M88.68,72.81c1.1,0,2-.9,2-2s-.9-2-2-2h-13.79c-1.1,0-2,.9-2,2s.9,2,2,2h13.79Z"/>
</svg>