<?xml version="1.0" encoding="UTF-8"?>
<svg id="Pictograms" xmlns="http://www.w3.org/2000/svg" viewBox="0 0 160 160">
  <defs>
    <style>
      .cls-1 {
        fill: #adedff;
      }

      .cls-2 {
        fill: #2954ff;
      }

      .cls-3 {
        fill: #ffffff;
      }
    </style>
  </defs>
  <polygon class="cls-1" points="52.48 142.16 107.5 142.16 79.99 61.14 52.48 142.16"/>
  <path class="cls-3" d="M69.51,69.21c-.69,0-1.36-.36-1.73-1-1.24-2.14-1.89-4.58-1.89-7.06,0-7.78,6.33-14.1,14.1-14.1s14.1,6.33,14.1,14.1c0,2.43-.63,4.82-1.82,6.93-.54.96-1.76,1.3-2.72.76-.96-.54-1.3-1.76-.76-2.72.85-1.51,1.3-3.22,1.3-4.96,0-5.57-4.53-10.1-10.1-10.1s-10.1,4.53-10.1,10.1c0,1.78.47,3.53,1.36,5.06.55.96.23,2.18-.73,2.73-.32.18-.66.27-1,.27Z"/>
  <path class="cls-3" d="M102.19,82.64c-.47,0-.94-.16-1.32-.5-.83-.73-.91-1.99-.18-2.82,4.41-5.02,6.84-11.48,6.84-18.17,0-9.69-5.19-18.78-13.54-23.72-.95-.56-1.27-1.79-.7-2.74.56-.95,1.79-1.26,2.74-.7,9.56,5.66,15.5,16.07,15.5,27.16,0,7.67-2.78,15.06-7.84,20.81-.39.45-.95.68-1.5.68Z"/>
  <path class="cls-3" d="M57.79,82.63c-.56,0-1.11-.23-1.5-.68-5.05-5.75-7.84-13.14-7.84-20.81,0-11.1,5.94-21.5,15.5-27.16.95-.56,2.18-.25,2.74.7.56.95.25,2.18-.7,2.74-8.35,4.94-13.54,14.03-13.54,23.72,0,6.69,2.43,13.15,6.84,18.17.73.83.65,2.09-.18,2.82-.38.33-.85.5-1.32.5Z"/>
  <path class="cls-3" d="M125.97,72.89c-.14,0-.28-.01-.42-.04-1.08-.23-1.77-1.29-1.54-2.37.64-3.04.97-6.18.97-9.33,0-1.1.9-2,2-2s2,.9,2,2c0,3.42-.35,6.84-1.05,10.16-.2.94-1.03,1.59-1.96,1.59Z"/>
  <path class="cls-3" d="M126.11,54.14c-.94,0-1.78-.66-1.96-1.62-2.44-12.58-10.2-23.56-21.28-30.12-.95-.56-1.27-1.79-.7-2.74.56-.95,1.79-1.27,2.74-.7,12.07,7.14,20.51,19.1,23.17,32.8.21,1.08-.5,2.13-1.58,2.34-.13.03-.26.04-.38.04Z"/>
  <path class="cls-3" d="M48.39,28.37c-.54,0-1.09-.22-1.48-.65-.74-.82-.68-2.08.13-2.83,2.46-2.24,5.17-4.24,8.03-5.93.95-.56,2.18-.25,2.74.7.56.95.25,2.18-.7,2.74-2.63,1.56-5.11,3.39-7.37,5.45-.38.35-.87.52-1.34.52Z"/>
  <path class="cls-3" d="M37.15,43.82c-.28,0-.56-.06-.82-.18-1.01-.45-1.45-1.64-1-2.65,1.55-3.43,3.5-6.68,5.8-9.68.67-.88,1.93-1.04,2.8-.37.88.67,1.04,1.93.37,2.8-2.11,2.75-3.91,5.74-5.33,8.89-.33.74-1.06,1.18-1.82,1.18Z"/>
  <path class="cls-2" d="M33,60.24c-3.31,0-6-2.69-6-6s2.69-6,6-6,6,2.69,6,6-2.69,6-6,6ZM33,54.2"/>
  <path class="cls-2" d="M122.75,89.24c-3.23.65-6.44-1.46-7.18-4.71s1.29-6.41,4.52-7.05c3.23-.65,6.44,1.46,7.18,4.71.73,3.25-1.29,6.41-4.52,7.05ZM121.41,83.31l.05.04s-.02-.04-.05-.04Z"/>
  <path class="cls-3" d="M116.21,140.16h-8.03l-25.1-19.38,11.89-9.29,3.38,9.94c.28.83,1.06,1.36,1.89,1.36.21,0,.43-.04.64-.11,1.05-.35,1.61-1.49,1.25-2.54l-20.25-59.64c-.35-1.04-1.49-1.61-2.54-1.25-1.05.35-1.61,1.49-1.25,2.54l15.51,45.69-13.78,10.77c-8.05-6.45-10.88-11.17-11.87-13.74,5.91-.76,11.27-4.04,14.18-8.93,1.5-2.52,2.31-6.12.09-8.67-2.14-2.45-5.7-2.25-8.33-1.24-6.09,2.34-10.29,8.46-10.53,14.9-3.61-.43-7.29-1.91-10.96-4.41-9.4-6.41-15.93-17.57-17.03-29.13-.1-1.1-1.09-1.91-2.18-1.8-1.1.1-1.91,1.08-1.8,2.18,1.21,12.72,8.4,25,18.76,32.06,4.27,2.91,8.63,4.63,12.95,5.1.22.02.44.04.67.06,1.26,4.71,5.73,10.34,12.81,16.16l-20.07,15.68,6.05-17.81c.36-1.05-.2-2.18-1.25-2.54-1.05-.36-2.18.21-2.54,1.25l-7.74,22.8h-7.28c-1.1,0-2,.9-2,2s.9,2,2,2h8.7s0,0,0,0c0,0,0,0,0,0h14.7c1.1,0,2-.9,2-2s-.9-2-2-2h-8.9l21.54-16.84,21.81,16.84h-8.85c-1.1,0-2,.9-2,2s.9,2,2,2h23.42c1.1,0,2-.9,2-2s-.9-2-2-2ZM75.34,89.39c.69-.26,1.49-.44,2.21-.44s1.31.17,1.67.58c.76.87.27,2.68-.51,4-2.3,3.86-6.58,6.44-11.32,7.02.26-4.79,3.47-9.43,7.96-11.16Z"/>
</svg>