<?xml version="1.0" encoding="UTF-8"?>
<svg id="Pictograms" xmlns="http://www.w3.org/2000/svg" viewBox="0 0 160 160">
  <defs>
    <style>
      .cls-1 {
        fill: #adedff;
      }

      .cls-2 {
        fill: #2954ff;
      }

      .cls-3 {
        fill: #0e0a7f;
      }

      .cls-4 {
        fill: #00c8ff;
      }
    </style>
  </defs>
  <path class="cls-4" d="M106,111.03h0c.69-2.31,4.07-1.94,4.25.46h0c.13,1.72,2.11,2.61,3.49,1.57h0c1.92-1.46,4.43.82,3.17,2.87h0c-.91,1.47.17,3.36,1.9,3.32h0c2.41-.05,3.1,3.27.87,4.19h0c-1.6.65-1.83,2.82-.41,3.8h0c1.98,1.37.59,4.47-1.75,3.9h0c-1.68-.41-3.14,1.2-2.57,2.83h0c.8,2.28-2.15,3.96-3.71,2.12h0c-1.12-1.32-3.25-.87-3.74.78h0c-.69,2.31-4.07,1.94-4.25-.46h0c-.13-1.72-2.11-2.61-3.49-1.57h0c-1.92,1.46-4.43-.82-3.17-2.87h0c.91-1.47-.17-3.36-1.9-3.32h0c-2.41.05-3.1-3.27-.87-4.19h0c1.6-.65,1.83-2.82.41-3.8h0c-1.98-1.37-.59-4.47,1.75-3.9h0c1.68.41,3.14-1.2,2.57-2.83h0c-.8-2.28,2.15-3.96,3.71-2.12h0c1.12,1.32,3.25.87,3.74-.78Z"/>
  <g>
    <rect class="cls-2" x="13.62" y="81.25" width="64.17" height="39.9" transform="translate(-16.88 9.47) rotate(-10)"/>
    <polygon class="cls-2" points="20.31 141.95 17.57 126.42 31.57 123.95 20.31 141.95"/>
  </g>
  <path class="cls-3" d="M61.3,120.04c-.95,0-1.8-.68-1.97-1.65-.19-1.09.54-2.12,1.62-2.32l7.48-1.31c1.09-.19,2.12.54,2.32,1.62.19,1.09-.54,2.12-1.62,2.32l-7.48,1.31c-.12.02-.23.03-.35.03Z"/>
  <path class="cls-3" d="M20.31,143.22c-.13,0-.25-.01-.38-.04-.81-.16-1.44-.8-1.59-1.61l-2.74-15.49c-.19-1.09.53-2.12,1.62-2.32,1.1-.19,2.13.53,2.32,1.62l1.83,10.38,8.5-13.55c.3-.48.79-.81,1.35-.91l21.33-3.75c1.1-.19,2.12.54,2.32,1.62.19,1.09-.54,2.12-1.62,2.32l-20.45,3.6-10.79,17.2c-.37.59-1.01.94-1.69.94Z"/>
  <circle class="cls-1" cx="31.24" cy="105.74" r="4"/>
  <polygon class="cls-1" points="64.92 32.9 56.56 80.35 116.51 90.93 130.54 110.03 133.38 93.9 141.75 46.44 64.92 32.9"/>
  <path class="cls-4" d="M118.07,52.78l-33.07-5.83c-7.52-1.33-14.68,3.69-16.01,11.21-1.33,7.52,3.69,14.68,11.21,16.01,4.23.75,8.35-.52,11.38-3.1l12.06,2.13c1.96,3.47,5.4,6.06,9.63,6.81,7.52,1.33,14.68-3.69,16.01-11.21,1.33-7.52-3.69-14.68-11.21-16.01Z"/>
  <path class="cls-3" d="M115.68,81.66c-.91,0-1.83-.08-2.75-.24-4.35-.76-8.13-3.27-10.52-6.94l-10.28-1.81c-3.5,2.63-7.92,3.7-12.26,2.94-4.17-.73-7.8-3.04-10.22-6.5-2.42-3.45-3.34-7.63-2.61-11.77.19-1.09,1.23-1.82,2.32-1.62,1.09.19,1.81,1.23,1.62,2.32-.55,3.09.14,6.21,1.95,8.78,1.81,2.59,4.52,4.31,7.64,4.86,3.48.61,7.04-.35,9.73-2.65.45-.39,1.06-.55,1.64-.45l12.06,2.12c.59.1,1.1.46,1.39.98,1.75,3.07,4.75,5.19,8.24,5.8,6.42,1.13,12.56-3.16,13.69-9.55.55-3.1-.15-6.22-1.96-8.8-1.81-2.58-4.52-4.3-7.63-4.85l-33.07-5.81c-1.09-.19-1.81-1.23-1.62-2.32.19-1.09,1.22-1.82,2.32-1.62l33.07,5.81c4.16.73,7.79,3.03,10.21,6.49,2.42,3.45,3.36,7.64,2.62,11.79-1.35,7.64-8.04,13.04-15.57,13.04Z"/>
  <circle class="cls-3" cx="87.36" cy="58.95" r="4.5"/>
  <circle class="cls-3" cx="110.89" cy="63.1" r="4.5"/>
  <g>
    <path class="cls-3" d="M82.73,114.28s0,0,0,0c0,0,0,0,0,0l-5.77-31.58s0-.03-.01-.04c-.02-.07-.04-.14-.06-.22-.02-.06-.03-.11-.06-.17-.03-.06-.06-.12-.09-.17-.03-.06-.06-.11-.09-.17-.04-.05-.08-.1-.12-.15-.04-.05-.08-.1-.13-.15-.05-.05-.1-.09-.15-.13-.05-.04-.09-.08-.15-.12-.05-.04-.11-.06-.17-.09-.06-.03-.12-.07-.18-.09-.05-.02-.11-.04-.16-.05-.07-.02-.15-.05-.22-.06-.01,0-.03,0-.04-.01l-14.58-2.56c-.51-.09-.95-.37-1.24-.79-.29-.42-.4-.92-.31-1.42l7.01-39.62c.18-1.04,1.18-1.73,2.22-1.55l34.55,6.08c1.09.19,2.12-.54,2.32-1.62,0-.03,0-.05,0-.08,0-.03.02-.06.02-.09l1.64-9.29c3.14-.33,5.81-2.69,6.39-5.94h0c.34-1.9-.09-3.82-1.2-5.41-1.11-1.59-2.78-2.65-4.69-2.98-3.94-.69-7.71,1.94-8.41,5.87-.34,1.91.09,3.83,1.2,5.41.72,1.02,1.67,1.82,2.76,2.35l-1.33,7.49-32.59-5.73c-3.21-.57-6.29,1.58-6.86,4.79l-1.49,8.41c-5.56.02-10.47,3.99-11.47,9.66-1,5.66,2.26,11.08,7.47,13l-1.51,8.56c-.27,1.55.07,3.12.98,4.41.91,1.3,2.26,2.16,3.82,2.43l13.21,2.32,5.16,28.23-2.02.35c-1.09.19-1.82,1.23-1.62,2.32.17.97,1.01,1.65,1.97,1.65.11,0,.23-.01.35-.03l4-.7s0,0,0,0c0,0,0,0,0,0,.04,0,.08-.03.13-.04.09-.02.18-.04.26-.07.05-.02.09-.05.14-.07.07-.04.14-.07.21-.11.05-.03.09-.07.14-.11.06-.04.11-.08.16-.13.04-.04.08-.09.12-.14.04-.05.09-.1.13-.15.04-.05.06-.11.1-.17.03-.06.07-.11.09-.17.03-.06.04-.13.07-.2.02-.06.04-.11.06-.17.02-.08.02-.15.03-.23,0-.05.02-.1.02-.16,0-.09,0-.18-.02-.27,0-.04,0-.09,0-.13ZM103.02,22.37c.28-1.57,1.65-2.68,3.21-2.68.19,0,.38.02.57.05.86.15,1.61.63,2.11,1.34.5.71.69,1.57.54,2.42-.31,1.76-2.01,2.94-3.77,2.63-.86-.15-1.6-.62-2.1-1.33-.5-.71-.69-1.57-.54-2.42Z"/>
    <path class="cls-3" d="M141.55,58.62l1.49-8.42c.27-1.55-.07-3.12-.98-4.41-.91-1.29-2.26-2.16-3.82-2.43l-12.87-2.26c-1.09-.19-2.12.54-2.32,1.62-.19,1.09.54,2.12,1.62,2.32l12.87,2.26c.51.09.95.37,1.24.79.29.42.4.92.31,1.42l-9.72,54.95-11.26-15.29c-.3-.41-.76-.69-1.26-.78l-18.63-3.27c-1.09-.19-2.12.54-2.32,1.62-.19,1.09.54,2.12,1.62,2.32l17.84,3.14,13.55,18.4s.04.04.06.06c.07.09.15.17.23.24.04.04.08.07.12.1.07.06.15.11.23.15.05.03.1.05.15.08.08.04.17.07.26.09.05.02.1.03.16.05.02,0,.04.01.06.02.12.02.24.03.35.03.2,0,.38-.04.56-.09.02,0,.05-.01.07-.02.18-.06.35-.15.51-.26.01,0,.03-.01.04-.02.01,0,.02-.02.04-.03.07-.05.14-.12.2-.18.03-.03.05-.05.08-.08.07-.09.14-.18.2-.27,0,0,.01-.02.02-.02.06-.11.12-.22.16-.34.01-.03.02-.07.03-.11.02-.07.05-.15.06-.23l5.03-28.42c5.63.07,10.64-3.93,11.65-9.65,1.01-5.72-2.33-11.19-7.63-13.05Z"/>
  </g>
  <path class="cls-3" d="M76.23,135.51c-9.2,0-18.33-2.26-26.4-6.54-.98-.52-1.35-1.73-.83-2.7.52-.98,1.72-1.35,2.7-.83,7.5,3.98,15.98,6.08,24.53,6.08,3.8,0,7.6-.41,11.28-1.21,1.07-.24,2.15.45,2.38,1.53s-.45,2.15-1.53,2.38c-3.96.87-8.04,1.31-12.14,1.31Z"/>
  <path class="cls-3" d="M49.69,32.07c-.58-.94-1.81-1.24-2.75-.67-16.92,10.29-27.02,28.22-27.02,47.96,0,1.35.06,2.71.16,4.06l-9.53,1.68c-1.08.19-1.81,1.22-1.63,2.3l2.98,17.77c.16.98,1.01,1.67,1.97,1.67.11,0,.22,0,.33-.03,1.09-.18,1.83-1.21,1.64-2.3l-2.65-15.82,18.72-3.29c1.09-.19,1.81-1.23,1.62-2.32-.19-1.09-1.22-1.82-2.32-1.62l-7.18,1.26c-.07-1.12-.12-2.25-.12-3.37,0-18.33,9.38-34.98,25.1-44.55.94-.57,1.24-1.8.67-2.75Z"/>
  <circle class="cls-1" cx="46.16" cy="103.27" r="4"/>
  <circle class="cls-1" cx="60.89" cy="100.5" r="4"/>
</svg>