<?xml version="1.0" encoding="UTF-8"?>
<svg id="Pictograms" xmlns="http://www.w3.org/2000/svg" viewBox="0 0 160 160">
  <defs>
    <style>
      .cls-1 {
        fill: #adedff;
      }

      .cls-2 {
        fill: #2954ff;
      }

      .cls-3 {
        fill: #0e0a7f;
      }

      .cls-4 {
        fill: #00c8ff;
      }
    </style>
  </defs>
  <path class="cls-2" d="M82.13,108.58l-26.21,14.59,18.55,23.74,2.72-10.63s56.82,4.51,64.82-27.32c0,0-50.97,11.98-58.63,7.04"/>
  <path class="cls-3" d="M42.71,123.24c-.17,0-.34-.02-.52-.07-3.08-.82-5.99-1.75-8.65-2.77-1.03-.39-1.55-1.55-1.16-2.58.39-1.03,1.55-1.55,2.58-1.16,2.53.96,5.3,1.85,8.25,2.64,1.07.29,1.7,1.38,1.42,2.45-.24.89-1.05,1.48-1.93,1.48Z"/>
  <path class="cls-3" d="M28.06,117.78c-.31,0-.63-.07-.92-.23-8.38-4.36-12.8-9.68-12.8-15.39,0-8.63,10.15-16.28,27.86-21.01,1.07-.29,2.16.35,2.45,1.42.28,1.07-.35,2.16-1.42,2.45-15.35,4.1-24.89,10.67-24.89,17.14,0,4.07,3.78,8.27,10.65,11.85.98.51,1.36,1.72.85,2.7-.36.69-1.05,1.08-1.78,1.08Z"/>
  <path class="cls-3" d="M144.75,100.22c-.73-5.1-4.82-15.32-25.29-20-1.07-.24-2.15.43-2.4,1.5-.25,1.08.43,2.15,1.5,2.4,17.56,4.01,21.39,12,22.15,16.19,0,.14.02.28.05.42,0,.02.02.09.04.17.06.49.08.92.08,1.26,0,10.81-29.6,13.15-56.4,13.85l1.87-9.75c.15-.76-.16-1.54-.79-1.99-.63-.46-1.46-.51-2.14-.14l-30.06,16.44c-.51.28-.87.76-.99,1.32-.12.56,0,1.15.34,1.62l20.32,27.8c.38.52.98.82,1.61.82.13,0,.26-.01.39-.04.76-.15,1.37-.73,1.56-1.48l2.56-10.32c30.75-1.52,51.12-8.69,60.56-21.33,6.41-8.58,5.39-16.75,5.02-18.72ZM136.44,116.65c-6.11,8.09-21.29,18.08-58.95,19.7-.89.04-1.64.66-1.86,1.52l-1.89,7.62-16.45-22.5,24.34-13.31-1.42,7.37c-.01.08-.01.15-.02.23-.11.26-.18.54-.17.84.02,1.09.91,1.95,2,1.95.02,0,.03,0,.05,0,27.42-.62,48.17-2.58,57.46-8.86-.69,1.73-1.68,3.57-3.09,5.44Z"/>
  <polyline class="cls-1" points="50.2 87.78 51.33 94.58 63.7 76.9 47.76 69.09 48.51 75.72"/>
  <path class="cls-3" d="M51.33,96.58c-.18,0-.36-.02-.54-.07-.75-.21-1.31-.83-1.44-1.6l-1.13-6.8c-.18-1.09.55-2.12,1.64-2.3,1.09-.18,2.12.55,2.3,1.64l.43,2.58,8.47-9.87-10.84-7.07.27,2.42c.12,1.1-.67,2.09-1.76,2.21-1.09.12-2.09-.67-2.21-1.76l-.75-6.64c-.09-.77.28-1.52.94-1.93.66-.41,1.49-.4,2.14.03l16.31,10.64c.48.31.81.82.89,1.39.08.57-.09,1.15-.46,1.58l-12.74,14.85c-.39.45-.94.7-1.52.7Z"/>
  <path class="cls-4" d="M112.42,63.74c-10.99,7.12-27.7.87-27.7.87,0,0,0,0,0,0,0,0,1.12-17.8,12.11-24.93,10.99-7.12,27.7-.87,27.7-.87,0,0-1.12,17.8-12.11,24.93Z"/>
  <path class="cls-3" d="M92.54,59.75c-.55,0-1.1-.23-1.5-.67-.73-.83-.65-2.09.17-2.82,4.68-4.14,11.1-7.95,16.75-9.94,1.04-.37,2.18.18,2.55,1.22.37,1.04-.18,2.18-1.22,2.55-5.2,1.83-11.11,5.34-15.43,9.16-.38.34-.85.5-1.32.5Z"/>
  <path class="cls-3" d="M98.16,68.56c-1.02,0-1.62-.07-1.65-.07-1.1-.13-1.88-1.13-1.74-2.23.13-1.09,1.13-1.87,2.22-1.74h0c.59.07,14.47,1.5,21.74-12.89.5-.99,1.7-1.38,2.69-.88.99.5,1.38,1.7.88,2.69-6.98,13.82-19.62,15.12-24.13,15.12Z"/>
  <path class="cls-3" d="M38.18,37.88c-.95,0-1.8-.68-1.97-1.65-2.17-12.28.14-24.07.24-24.57.18-.91.97-1.58,1.9-1.61.61-.02,15.16-.4,27.98,5.47,1,.46,1.45,1.65.99,2.65-.46,1-1.65,1.45-2.65.99-9.56-4.37-20.5-5.02-24.56-5.1-.53,3.56-1.53,12.51.05,21.48.19,1.09-.53,2.12-1.62,2.32-.12.02-.23.03-.35.03Z"/>
  <path class="cls-3" d="M103.12,84.23c-2.56-4.02-9.93-6.21-17.97-7.17-.05-2.32.15-4.88.38-7.86l.05-.64c.17-1.22,2.08-15.76.2-28.63-.83-5.67-3.5-11.3-7.53-15.86-3.03-3.44-7.05-6.31-11.93-8.55-1-.46-2.19-.02-2.65.99-.46,1-.02,2.19.99,2.65,4.37,2,7.93,4.54,10.59,7.56,3.51,3.98,5.85,8.88,6.57,13.79.44,3.01.66,6.15.74,9.19-3.5-5.44-9.4-9.39-16.72-10.92-1.08-.22-2.14.47-2.37,1.55-.23,1.08.47,2.14,1.55,2.37,7,1.46,15.08,6.35,16.75,15.7.24,1.32.28,2.76.16,4.37-5.78.17-24.95-.16-34.83-11.35-3.44-3.9-5.78-9.24-6.95-15.88-.19-1.09-1.23-1.81-2.32-1.62-1.09.19-1.81,1.23-1.62,2.32,1.3,7.37,3.95,13.37,7.89,17.83,5.42,6.14,14.06,10.26,24.98,11.93,4.32.66,8.17.82,10.87.82.69,0,1.3-.01,1.83-.03-.09.8-.16,1.27-.16,1.29,0,.04-.01.08-.01.12l-.05.69c-.22,2.83-.42,5.4-.41,7.8-2.8-.2-5.59-.26-8.21-.21-1.1.02-1.98.93-1.96,2.04.02,1.1.93,2.01,2.04,1.96,3.01-.05,5.83.03,8.42.23.66,4.48,2.63,8.54,7.47,13.02,1.9,1.7,4.62,2.88,7.36,2.88,1.66,0,3.33-.43,4.82-1.43,1.66-1.05,2.81-2.68,3.23-4.59.47-2.1.04-4.41-1.19-6.34ZM100.41,89.7c-.14.61-.5,1.47-1.52,2.11-2.27,1.53-5.47.59-7.3-1.05-3.59-3.32-5.29-6.29-6-9.63,7.76,1.05,12.83,3.16,14.16,5.24.66,1.04.9,2.25.66,3.32Z"/>
</svg>