<?xml version="1.0" encoding="UTF-8"?>
<svg id="Pictograms" xmlns="http://www.w3.org/2000/svg" viewBox="0 0 160 160">
  <defs>
    <style>
      .cls-1 {
        fill: #adedff;
      }

      .cls-1, .cls-2 {
        fill-rule: evenodd;
      }

      .cls-3 {
        fill: #0e0a7f;
      }

      .cls-4 {
        fill: #00c8ff;
      }

      .cls-2 {
        fill: #2954ff;
      }
    </style>
  </defs>
  <polyline class="cls-1" points="75.53 54.19 82.03 41.4 131.29 112.43 125.89 130.19 119.29 122.39 114.54 136.54 104.54 112.32 75.41 112.87"/>
  <circle class="cls-4" cx="35.56" cy="121.03" r="15"/>
  <path class="cls-4" d="M35.67,40.7h0c5.02,0,9.1,4.08,9.1,9.1v59.87h-18.2v-59.87c0-5.02,4.08-9.1,9.1-9.1Z"/>
  <path class="cls-3" d="M35.56,138.03c-9.37,0-17-7.63-17-17,0-5.66,2.8-10.93,7.49-14.1.92-.62,2.16-.38,2.78.54s.38,2.16-.54,2.78c-3.59,2.43-5.73,6.46-5.73,10.78,0,7.17,5.83,13,13,13,3.9,0,7.56-1.73,10.04-4.74.7-.85,1.96-.97,2.82-.27.85.7.97,1.96.27,2.82-3.24,3.94-8.03,6.19-13.12,6.19Z"/>
  <path class="cls-3" d="M115.88,142.97c-.8,0-1.54-.48-1.85-1.24l-10.92-26.55h-27.61c-1.1,0-2-.9-2-2v-16.27c0-1.1.9-2,2-2s2,.9,2,2v14.27h26.95c.81,0,1.54.49,1.85,1.24l8.58,20.87,1.72-12.92c.11-.83.72-1.5,1.54-1.69.81-.19,1.66.15,2.12.85l4.88,7.45,4.32-13.3-4.92-7.23c-.62-.91-.38-2.16.53-2.78.91-.62,2.16-.38,2.78.53l5.47,8.04c.35.51.44,1.15.25,1.74l-5.91,18.2c-.24.73-.87,1.26-1.64,1.37-.76.1-1.52-.24-1.94-.89l-4.22-6.45-2,15.01c-.12.9-.83,1.6-1.73,1.72-.09.01-.17.02-.26.02Z"/>
  <g>
    <path class="cls-3" d="M112.36,46.86c-.51,0-1.02-.19-1.41-.58-.79-.78-.79-2.04-.02-2.83l3.62-3.66c.78-.79,2.04-.79,2.83-.02.79.78.79,2.04.02,2.83l-3.62,3.66c-.39.4-.91.59-1.42.59Z"/>
    <path class="cls-3" d="M114.46,37.68c-.17,0-.33-.02-.5-.06l-13.51-3.5c-1.07-.28-1.71-1.37-1.43-2.44.28-1.07,1.36-1.71,2.44-1.43l13.51,3.5c1.07.28,1.71,1.37,1.43,2.44-.23.9-1.05,1.5-1.94,1.5Z"/>
    <path class="cls-3" d="M118.48,33.61c-.88,0-1.68-.58-1.93-1.47l-3.71-13.42c-.29-1.06.33-2.17,1.39-2.46,1.06-.29,2.17.33,2.46,1.39l3.71,13.42c.29,1.06-.33,2.17-1.39,2.46-.18.05-.36.07-.53.07Z"/>
    <path class="cls-3" d="M124.03,35.05c-.51,0-1.03-.2-1.42-.59-.78-.78-.77-2.05,0-2.83l10.03-9.97c.78-.78,2.05-.78,2.83,0,.78.78.77,2.05,0,2.83l-10.03,9.97c-.39.39-.9.58-1.41.58Z"/>
    <path class="cls-3" d="M139.07,44.06c-.17,0-.33-.02-.5-.06l-13.51-3.5c-1.07-.28-1.71-1.37-1.43-2.44.28-1.07,1.36-1.71,2.44-1.43l13.51,3.5c1.07.28,1.71,1.37,1.43,2.44-.23.9-1.05,1.5-1.94,1.5Z"/>
    <path class="cls-3" d="M125.24,58.05c-.88,0-1.68-.58-1.93-1.47l-3.71-13.42c-.29-1.06.33-2.17,1.39-2.46,1.07-.3,2.17.33,2.46,1.39l3.71,13.42c.29,1.06-.33,2.17-1.39,2.46-.18.05-.36.07-.53.07Z"/>
  </g>
  <path class="cls-3" d="M112.98,82.35l-14.31-21.03,8.24-8.26c.78-.78.78-2.05,0-2.83s-2.05-.78-2.83,0l-7.7,7.71-12.34-18.13c-.4-.59-1.07-.92-1.79-.87-.71.05-1.34.47-1.65,1.11l-9.62,19.37c-.49.99-.09,2.19.9,2.68.99.49,2.19.09,2.68-.9l8.1-16.31,10.84,15.94-9.63,9.65c-.78.78-.78,2.05,0,2.83.39.39.9.58,1.41.58s1.03-.2,1.42-.59l9.09-9.11,13.88,20.4c.39.57,1.02.88,1.66.88.39,0,.78-.11,1.12-.35.91-.62,1.15-1.87.53-2.78Z"/>
  <path class="cls-3" d="M68.61,67.6c-.99-.48-2.19-.06-2.67.94-.56,1.17-1.61,3.04-2.83,5.21-1.9,3.38-3.77,6.77-5.43,10.06-.78-.53-1.6-1.01-2.46-1.44-2.64-1.34-5.38-2.12-8.26-2.59v-31.74c0-6.12-4.98-11.1-11.1-11.1s-11.1,4.98-11.1,11.1v46.24c0,1.03.79,1.88,1.8,1.98.17.05.36.09.55.09h8.21c1.1,0,2-.9,2-2s-.9-2-2-2h-6.55v-9.22h1.72c1.1,0,2-.9,2-2s-.9-2-2-2h-1.72v-9.33h6.55c1.1,0,2-.9,2-2s-.9-2-2-2h-6.55v-9.83h6.55c1.1,0,2-.9,2-2s-.9-2-2-2h-6.55v-3.92c0-3.92,3.19-7.1,7.1-7.1s7.1,3.19,7.1,7.1v31.26c-1.79-.15-3.62-.24-5.52-.31-1.13-.03-2.03.83-2.07,1.93-.04,1.1.83,2.03,1.93,2.07,1.96.07,3.84.16,5.66.32v24.6c0,1.1.9,2,2,2s2-.9,2-2v-24.06c2.28.43,4.44,1.07,6.47,2.09.88.43,1.71.94,2.48,1.51-3.51,7.58-5.45,14.32-3.44,18.58.69,1.46,2.2,3.33,5.45,3.91.12.02.23.03.35.03.03,0,.07,0,.1,0,4.81-.24,8.05-5.49,8.06-10.2.1-4.85-2.02-9.69-5.6-13.33,2.01-4.07,4.2-7.95,5.76-10.73,1.31-2.32,2.34-4.16,2.96-5.44.48-1,.06-2.19-.94-2.67ZM62.43,99.72c0,2.45-1.54,5.93-4.05,6.23-1.52-.33-2.04-1.09-2.3-1.63-1.31-2.79.38-8.27,2.9-13.97,2.23,2.71,3.51,6.04,3.44,9.37Z"/>
  <path class="cls-2" d="M30.59,116.33c-2.73,2.73-2.73,7.17,0,9.9,2.73,2.73,7.17,2.73,9.9,0,2.73-2.73,2.73-7.17,0-9.9s-7.17-2.73-9.9,0Z"/>
</svg>