<?xml version="1.0" encoding="UTF-8"?>
<svg id="Pictograms" xmlns="http://www.w3.org/2000/svg" viewBox="0 0 160 160">
  <defs>
    <style>
      .cls-1 {
        fill: none;
      }

      .cls-2 {
        fill: #adedff;
      }

      .cls-3 {
        fill: #2954ff;
      }

      .cls-4 {
        fill: #0e0a7f;
      }

      .cls-5 {
        fill: #00c8ff;
      }
    </style>
  </defs>
  <g>
    <path class="cls-2" d="M114.19,123.05h13.7c2.21,0,4-1.79,4-4v-58.97c0-2.21-1.79-4-4-4H30.46c-2.21,0-4,1.79-4,4v58.97c0,2.21,1.79,4,4,4h41.82"/>
    <path class="cls-1" d="M66.72,137.06c-.52.9-.18,1.7,0,2,.17.3.69,1,1.73,1h25.57c1.04,0,1.56-.7,1.73-1,.17-.3.52-1.1,0-2l-6.86-11.84h-15.31l-6.86,11.84Z"/>
  </g>
  <path class="cls-4" d="M99.21,135.06l-5.7-9.84h3.12c1.1,0,2-.9,2-2s-.9-2-2-2H31.45c-1.1,0-2-.89-2-1.99v-43.25h28.42v-17.54h12.45c1.1,0,2-.9,2-2s-.9-2-2-2h-12.45v-10.46H12.87v32h12.58v43.25c0,3.3,2.69,5.99,6,5.99h37.5l-5.7,9.84c-1.09,1.88-1.09,4.12,0,6,1.08,1.88,3.03,3,5.2,3h25.57c2.17,0,4.11-1.12,5.2-3,1.08-1.88,1.08-4.13,0-6ZM95.75,139.06c-.17.3-.69,1-1.73,1h-25.57c-1.04,0-1.56-.7-1.73-1-.17-.3-.52-1.1,0-2l6.86-11.84h15.31l6.86,11.84c.52.9.18,1.7,0,2Z"/>
  <path class="cls-4" d="M138.73,49.06c-.77-.79-2.03-.81-2.83-.05-.79.77-.81,2.03-.05,2.83,6.96,7.2,8.21,16.9,5.38,22.12-1.34,2.47-3.52,3.89-6.39,4.26v-17.53c0-3.3-2.69-5.99-6-5.99h-12.45c-1.1,0-2,.9-2,2s.9,2,2,2h12.45c1.1,0,2,.89,2,1.99v17.43c-.2-.03-.38-.04-.58-.08-14.99-2.87-30.94-15.33-31.1-15.45-.05-.04-.1-.07-.15-.11-5.14-3.33-9.31-6.19-12.68-8.63,1.07-15.26-3.98-20.11-7.14-21.65-3-1.46-6.48-.96-8.89,1.28-2.42,2.26-3.11,5.68-1.79,8.95.51,1.28,1.83,4.54,13.59,13.28-.84,4.56-5.93,22.96-35.46,47.05l4.5-13.29c.3-.9-.18-1.87-1.07-2.17-.9-.31-1.87.18-2.17,1.07l-6.21,18.31c-.19.55-.08,1.17.29,1.62.33.41.82.64,1.34.64.06,0,.12,0,.19,0l.93-.1c.09.01.19.03.28.03.24,0,.47-.05.7-.14l17.95-1.96c.94-.1,1.62-.95,1.52-1.89-.1-.94-.95-1.62-1.89-1.52l-12.45,1.36c26.44-21.96,33.32-39.32,35.1-46.44,3.1,2.2,6.77,4.69,11.12,7.52,1.37,1.07,17.17,13.2,32.75,16.18.45.09.89.16,1.33.21v37.32c0,1.1-.9,1.99-2,1.99h-11.26c-1.1,0-2,.9-2,2s.9,2,2,2h11.26c3.31,0,6-2.69,6-5.99v-37.24c4.39-.42,7.87-2.62,9.91-6.39,4.07-7.52,1.47-19.05-6.03-26.8ZM82.47,50.96c-7.5-5.76-9.68-8.66-10.24-10.04-1-2.47.24-3.99.81-4.53.73-.68,1.66-1.03,2.62-1.03.6,0,1.21.14,1.78.42,1.32.65,5.29,3.57,5.02,15.18Z"/>
  <circle class="cls-5" cx="136.32" cy="54.94" r="10"/>
  <circle class="cls-3" cx="111.66" cy="54.94" r="10"/>
  <circle class="cls-5" cx="111.66" cy="30.97" r="10"/>
  <path class="cls-5" d="M21.11,114.62l-7.1,2.63,7.1,2.63c4.11,1.52,7.34,4.76,8.86,8.86l2.63,7.1,2.63-7.1c1.52-4.11,4.76-7.34,8.86-8.86l7.1-2.63-7.1-2.63c-4.11-1.52-7.34-4.76-8.86-8.86l-2.63-7.1-2.63,7.1c-1.52,4.11-4.76,7.34-8.86,8.86Z"/>
</svg>