<?xml version="1.0" encoding="UTF-8"?>
<svg id="Pictograms" xmlns="http://www.w3.org/2000/svg" viewBox="0 0 160 160">
  <defs>
    <style>
      .cls-1 {
        fill: #adedff;
      }

      .cls-2 {
        fill: #0e0a7f;
      }

      .cls-3 {
        fill: #00c8ff;
      }

      .cls-4 {
        fill: #2954ff;
        fill-rule: evenodd;
      }
    </style>
  </defs>
  <polyline class="cls-1" points="30.95 69.39 32.85 143.22 55.48 127.66 96.15 142.71 126.67 124.48 126.52 56.5 96.43 77.68 53.77 56.73"/>
  <path class="cls-2" d="M32.79,144.14c-.32,0-.63-.07-.92-.23-.65-.34-1.07-1.01-1.08-1.74l-.16-10.78c-.02-1.1.87-2.01,1.97-2.03,1.12.03,2.01.86,2.03,1.97l.11,7.06,19.01-12.94c.54-.36,1.21-.45,1.82-.22l14.65,5.4c1.04.38,1.57,1.53,1.18,2.57-.38,1.04-1.53,1.57-2.57,1.18l-13.68-5.04-21.23,14.45c-.34.23-.73.35-1.13.35Z"/>
  <path class="cls-2" d="M96.43,79.67c-.3,0-.6-.07-.87-.2l-15.06-7.3c-.99-.48-1.41-1.68-.93-2.67.48-.99,1.68-1.41,2.67-.93l14,6.78,29.13-20.44c.61-.43,1.41-.48,2.07-.14.66.34,1.08,1.02,1.08,1.77l.04,10.85c0,1.1-.89,2-1.99,2.01h0c-1.1,0-2-.89-2-1.99l-.03-7.02-26.96,18.91c-.34.24-.74.36-1.15.36Z"/>
  <path class="cls-2" d="M95.55,103.59c-1.1,0-2-.9-2-2v-6.2c0-1.1.9-2,2-2s2,.9,2,2v6.2c0,1.1-.9,2-2,2Z"/>
  <path class="cls-2" d="M32.93,98.53c-.68,0-1.35-.35-1.72-.98-.56-.95-.25-2.18.7-2.74l7.65-4.55c.95-.56,2.18-.25,2.74.7.56.95.25,2.18-.7,2.74l-7.65,4.55c-.32.19-.67.28-1.02.28Z"/>
  <path class="cls-3" d="M59.3,102.17l10.7,11.61,4.95-4.54,5.43-7.86c7.53-10.58,2.66-28.13-10.27-26.87l-.35.76c-4.65.45-7.99,2.48-10.42,6.23-4.05,6.23-3.88,14.32-.04,20.68Z"/>
  <path class="cls-2" d="M25.79,115.77c-.42,0-.85-.13-1.21-.41l-4.18-3.19c-.88-.67-1.05-1.93-.38-2.8.67-.88,1.92-1.05,2.8-.38l4.18,3.19c.88.67,1.05,1.93.38,2.8-.39.52-.99.79-1.59.79Z"/>
  <path class="cls-2" d="M98.72,45.13c-.51,0-1.02-.19-1.41-.58-.78-.78-.79-2.04,0-2.83,5.15-5.18,5.34-13.49.44-18.91l-.5-.55c-.74-.82-.68-2.08.13-2.83.82-.74,2.08-.68,2.83.13l.5.55c6.33,7,6.09,17.72-.56,24.42-.39.39-.91.59-1.42.59Z"/>
  <g>
    <path class="cls-2" d="M126.75,113.47c-1.1,0-2,.9-2,2v8.24l-27.2,15.01v-14.48c1.39-.18,2.77-.45,4.13-.82,8.1-2.18,26.93-11.18,26.93-47.64,0-1.1-.9-2-2-2s-2,.9-2,2c0,33.7-16.76,41.84-23.97,43.78-1.02.27-2.05.48-3.09.64v-11.18c0-1.1-.9-2-2-2s-2,.9-2,2v11.5c-7.24.07-14.66-2.5-21.08-7.11,3.25-2.45,6.07-5.58,8.2-9.33l.2-.35c7.14-12.71,3.68-20.56.98-24.11-3.29-4.33-8.95-6.34-14.77-5.24-5.87,1.11-10.14,5.35-12.01,11.94-.27.97-.48,1.95-.62,2.92-.15,1.09.61,2.1,1.7,2.26,1.09.16,2.11-.61,2.26-1.7.11-.79.28-1.59.51-2.38,1.48-5.2,4.48-8.26,8.91-9.1,4.32-.82,8.48.61,10.84,3.73,2.1,2.77,4.74,9.02-1.28,19.73l-.19.34c-2.04,3.58-4.79,6.51-7.97,8.72-3.47-3.05-6.54-6.73-9-10.96-.55-.96-1.78-1.28-2.73-.73-.96.55-1.28,1.78-.73,2.73,2.44,4.21,5.45,7.92,8.84,11.07-6.08,2.91-13.21,3.43-19.92,1-4.3-1.56-8.21-3.77-11.63-6.08l-.8-37.88,20.41-11.38,14.5,7.45c.16.08.33.13.5.17.02,0,.04,0,.06.01.09.02.19.03.28.03.05,0,.1.02.15.02.71,0,1.4-.38,1.76-1.05l5.21-9.64c.09.08.19.16.3.23,2.6,1.65,5.65,1.82,6.77,1.82.25,0,.41,0,.44-.01,1.1-.07,1.93-1.01,1.87-2.11s-1-1.92-2.1-1.89c-.02,0-2.75.13-4.83-1.19-.19-.12-.39-.2-.6-.25l8.61-15.91s.05,0,.07,0c2.67,0,4.83-2.16,4.83-4.83s-2.16-4.83-4.83-4.83-4.83,2.16-4.83,4.83c0,1.18.44,2.25,1.15,3.09l-14.65,27.07-13.77-7.08c-.59-.31-1.3-.29-1.89.03l-22.4,12.49c-.65.36-1.04,1.05-1.03,1.79l.76,36.07c-1.75-1.34-3.33-2.63-4.69-3.75-1.14-.94-2.13-1.75-2.97-2.38-.89-.66-2.14-.48-2.8.4-.66.88-.48,2.14.4,2.8.77.58,1.73,1.36,2.83,2.27,2.03,1.66,4.49,3.68,7.34,5.71l.26,12.27c.02,1.09.91,1.96,2,1.96.01,0,.03,0,.04,0,1.1-.02,1.98-.94,1.96-2.04l-.2-9.48c3.06,1.9,6.46,3.67,10.17,5.01,3.33,1.2,6.75,1.78,10.12,1.78,5.08,0,10.05-1.32,14.46-3.76,7.3,5.62,15.92,8.81,24.39,8.81.08,0,.17,0,.25,0v17.61s0,.06,0,.09c0,.07.01.14.02.22,0,.06.02.12.04.18.02.06.03.12.06.18.02.07.05.13.08.2.01.03.02.06.04.09.01.02.03.03.04.05.08.13.17.25.27.36,0,0,.02.02.03.03.11.11.24.2.37.29.04.02.08.04.12.07.1.06.21.1.33.14.04.01.08.03.12.04.15.04.3.06.46.06,0,0,0,0,0,0,0,0,.02,0,.03,0,.15,0,.29-.02.42-.05.04,0,.08-.03.12-.04.11-.03.22-.08.32-.13.02-.01.05-.02.07-.03l31.2-17.22c.64-.35,1.03-1.02,1.03-1.75v-9.42c0-1.1-.9-2-2-2Z"/>
    <path class="cls-2" d="M70.84,44.23c.39.43.94.66,1.48.66.48,0,.96-.17,1.34-.52.82-.74.88-2.01.14-2.83l-.5-.55c-4.9-5.42-4.71-13.72.44-18.91.78-.78.77-2.05,0-2.83-.78-.78-2.05-.77-2.83,0-6.65,6.69-6.89,17.42-.56,24.41l.5.55Z"/>
  </g>
  <path class="cls-2" d="M109.66,53.35c-.4,0-.8-.12-1.15-.37-.9-.64-1.12-1.88-.48-2.79l.84-1.19c7.64-10.85,7.36-25.22-.7-35.77-.67-.88-.5-2.13.38-2.8.88-.67,2.13-.5,2.8.38,9.13,11.94,9.44,28.22.79,40.51l-.84,1.19c-.39.55-1.01.85-1.64.85Z"/>
  <path class="cls-2" d="M102.9,67.42c-.71,0-1.41-.38-1.77-1.06l-9.73-18.24c-.52-.97-.15-2.19.82-2.71.98-.52,2.19-.15,2.71.82l9.73,18.24c.52.97.15,2.19-.82,2.71-.3.16-.62.24-.94.24Z"/>
  <path class="cls-4" d="M64.62,85.69c-2.73,2.73-2.73,7.17,0,9.9s7.17,2.73,9.9,0c2.73-2.73,2.73-7.17,0-9.9-2.73-2.73-7.17-2.73-9.9,0Z"/>
</svg>