<?xml version="1.0" encoding="UTF-8"?>
<svg id="Pictograms" xmlns="http://www.w3.org/2000/svg" viewBox="0 0 160 160">
  <defs>
    <style>
      .cls-1 {
        fill: #adedff;
      }

      .cls-2 {
        fill: #2954ff;
      }

      .cls-3 {
        fill: #ffffff;
      }

      .cls-4 {
        fill: #00c8ff;
      }
    </style>
  </defs>
  <path class="cls-4" d="M122.53,38.27l19.18-.06.06,20.39-26.01.08-7.47,8.31-.07-24.54c0-2.19,1.74-3.97,3.93-4.01l10.39-.18Z"/>
  <path class="cls-1" d="M31.29,48.2c1.94-12.2,11.4-22.38,24.25-24.65h0c12.15-2.14,23.88,3.41,30.19,13.15,0,0,2.67,3.51,4.94,10.31l-8.13,1.26.68,3.87-4.33.99c-2.81.64-5.72.71-8.56.2l-.37-.07c-2.73-.49-5.34-1.5-7.68-2.99h0c-2.24-1.42-4.19-3.24-5.77-5.37l-2.48-3.35-1.39.36s.69,11.05-13.34,17.97l-.68-3.87-7.84,1.51.51-9.32Z"/>
  <path class="cls-1" d="M22.55,113.81l5.38,2.56,7.87-7.48,20.22-1.78v-10.76l-1.63-1.03c-7.11-2.85-10.06-7.01-11.53-15.34l-6.49,1.14-4.5.79-3.43,7.69-8.14,17.65,2.26,6.56Z"/>
  <path class="cls-1" d="M117.88,98.17s5.97,8.05,5.03,16.11c-.91,7.81-9.43,10.29-9.43,10.29l-8.87-14.26-22.92-3.2v-15.37l-.51-1.14c5.7-5.11,6.43-12.92,5.59-18.36l9.66-2.11,8.14,8.52,4.18,12.01,9.12,7.51Z"/>
  <path class="cls-3" d="M42.89,81.97c-.9,0-1.71-.61-1.94-1.52-.13-.54-.25-1.09-.35-1.64l-3.28-18.58c-.19-1.09.53-2.12,1.62-2.32,1.09-.19,2.12.54,2.32,1.62l3.28,18.58c.08.47.18.93.29,1.38.27,1.07-.39,2.16-1.46,2.42-.16.04-.32.06-.48.06Z"/>
  <circle class="cls-3" cx="133.14" cy="48.59" r="2.95"/>
  <circle class="cls-3" cx="124.98" cy="48.62" r="2.95"/>
  <circle class="cls-3" cx="116.81" cy="48.64" r="2.95"/>
  <path class="cls-3" d="M108.51,68.92c-.24,0-.48-.04-.71-.13-.77-.29-1.28-1.03-1.29-1.86l-.07-14.9c0-1.1.89-2,1.99-2.01h0c1.1,0,2,.89,2,1.99l.04,9.72,4.01-4.46c.38-.42.92-.66,1.48-.66l24.02-.07.03-16.39-17.27.05h0c-1.1,0-2-.89-2-1.99,0-1.1.89-2,1.99-2.01l19.28-.06c.52-.01,1.04.21,1.42.58s.59.89.59,1.42l-.04,20.39c0,1.1-.89,1.99-1.99,2l-25.12.08-6.88,7.65c-.39.43-.93.66-1.49.66Z"/>
  <path class="cls-2" d="M34.25,57.08h6.59v24.34h-6.59c-4.33,0-7.85-3.52-7.85-7.85v-8.64c0-4.33,3.52-7.85,7.85-7.85Z" transform="translate(-11.51 6.89) rotate(-10)"/>
  <path class="cls-2" d="M92.39,46.83h6.59v24.34h-6.59c-4.33,0-7.85-3.52-7.85-7.85v-8.64c0-4.33,3.52-7.85,7.85-7.85Z" transform="translate(192.37 101.16) rotate(170)"/>
  <path class="cls-3" d="M31.29,50.2c-.1,0-.21,0-.32-.02-1.09-.17-1.83-1.2-1.66-2.29,2.13-13.38,12.53-23.95,25.88-26.3,9.37-1.65,18.91.95,26.16,7.13.84.72.94,1.98.22,2.82-.72.84-1.98.94-2.82.22-6.34-5.41-14.68-7.68-22.87-6.24-11.67,2.06-20.76,11.3-22.62,22.99-.16.98-1.01,1.69-1.97,1.69Z"/>
  <path class="cls-3" d="M122.76,111.9c-1.02,0-1.89-.78-1.99-1.82-.36-3.94-1.93-7.71-4.41-10.61-2.09-2.45-4.86-4.31-7.9-5.41-.3.84-.68,1.65-1.13,2.43-1.48,2.56-4.69,5.49-8.24,5.87-1.84.2-3.67-.46-5.04-1.8-1.4-1.36-2.11-3.23-1.96-5.12.33-4.12,4.71-6.26,8.64-6.49,1.56-.1,3.13-.02,4.67.22.2-3.32-.82-6.83-2.95-9.53-.69-.87-.54-2.12.33-2.81.87-.69,2.12-.54,2.81.33,2.93,3.71,4.22,8.48,3.76,12.98,3.87,1.32,7.4,3.64,10.05,6.73,3.02,3.53,4.92,8.09,5.36,12.85.1,1.1-.71,2.07-1.81,2.17-.06,0-.12,0-.18,0ZM102.03,92.9c-.35,0-.71.01-1.06.03-2.3.14-4.76,1.23-4.89,2.82-.06.7.22,1.4.77,1.93.52.5,1.18.75,1.83.68,1.76-.19,4.05-1.9,5.2-3.89.26-.45.49-.92.68-1.4-.83-.12-1.68-.18-2.52-.18Z"/>
  <path class="cls-3" d="M118.23,136.46l-2.8-12.34c-2.54-11.2-12.33-19.02-23.81-19.02h-9.94c-1.1,0-2,.9-2,2v1.49c0,5.98-4.86,10.84-10.84,10.84s-10.84-4.86-10.84-10.84v-1.49c0-1.1-.9-2-2-2h-9.94c-7.83,0-14.86,3.64-19.36,9.5l-1.44-.99c-2.43-1.7-3.31-4.9-2.08-7.6l2.08-4.59c.46-1.01,0-2.19-1-2.65-1.01-.46-2.19,0-2.65,1l-2.08,4.59c-2.02,4.45-.57,9.72,3.44,12.54l1.56,1.08c-1.01,1.9-1.79,3.96-2.29,6.15l-.84,3.73c-.24,1.08.43,2.15,1.51,2.39,1.08.25,2.15-.43,2.39-1.51l.84-3.73c.53-2.33,1.43-4.49,2.64-6.42.02-.03.04-.04.06-.07.03-.04.04-.08.06-.12,3.66-5.69,10.01-9.3,17.13-9.3h7.95c.27,7.95,6.82,14.33,14.83,14.33s14.56-6.38,14.83-14.33h7.95c9.6,0,17.78,6.54,19.91,15.9l2.8,12.34c.21.93,1.04,1.56,1.95,1.56.15,0,.29-.02.44-.05,1.08-.24,1.75-1.31,1.51-2.39Z"/>
  <path class="cls-3" d="M26.96,94.97c-.28,0-.56-.06-.82-.18-1.01-.46-1.45-1.64-1-2.65l2.1-4.63c.46-1.01,1.64-1.45,2.65-1,1.01.46,1.45,1.64,1,2.65l-2.1,4.63c-.33.74-1.06,1.18-1.82,1.18Z"/>
  <path class="cls-3" d="M74.86,82.39c-.26-1.49-1.09-2.79-2.33-3.66-1.24-.87-2.75-1.2-4.24-.94l-6.89,1.22c-1.49.26-2.79,1.09-3.66,2.33-.47.67-.77,1.43-.92,2.21-.02,0-.03,0-.05,0l-14.69,2.59c-1.5.26-2.94-.74-3.2-2.24l-.2-1.15,4.52-.8c.52-.09.99-.39,1.29-.82s.42-.97.33-1.5l-4.23-23.97c-.19-1.09-1.23-1.81-2.32-1.62l-6.49,1.14c-2.59.46-4.85,1.9-6.36,4.05-1.51,2.16-2.09,4.77-1.63,7.36l1.5,8.51c.46,2.59,1.9,4.85,4.05,6.36,1.6,1.12,3.45,1.72,5.35,1.77l.24,1.36c.58,3.28,3.44,5.59,6.66,5.59.39,0,.78-.03,1.18-.1l14.69-2.59s.03-.01.05-.01c.41.69.94,1.29,1.62,1.76.96.67,2.09,1.03,3.24,1.03.33,0,.67-.03,1-.09l6.89-1.22c1.49-.26,2.79-1.09,3.66-2.33.87-1.24,1.2-2.75.94-4.24ZM29.23,74.41l-1.5-8.51c-.27-1.54.07-3.09.97-4.37s2.24-2.13,3.78-2.41l4.52-.8,3.53,20.03-4.52.8c-1.54.27-3.09-.07-4.37-.97-1.28-.9-2.13-2.24-2.41-3.78ZM70.65,84.34c-.26.37-.64.61-1.08.69h0l-6.9,1.22c-.44.08-.88-.02-1.25-.28-.37-.26-.61-.64-.69-1.08-.08-.44.02-.88.28-1.25.26-.37.64-.61,1.08-.69l6.9-1.22c.1-.02.2-.03.29-.03.34,0,.67.1.96.3.37.26.61.64.69,1.08.08.44-.02.88-.28,1.25Z"/>
  <path class="cls-3" d="M101.59,61.65l-1.5-8.51c-.94-5.35-6.06-8.93-11.41-7.99l-6.49,1.14c-.52.09-.99.39-1.29.82s-.42.97-.33,1.5l.4,2.25c-9.88,3.57-21.03-1.02-25.4-10.76-.45-1.01-1.64-1.46-2.64-1-1.01.45-1.46,1.64-1,2.64,4.04,9,12.92,14.34,22.2,14.34,2.52,0,5.06-.4,7.55-1.22l3.06,17.36c.94,5.34-.25,10.72-3.36,15.17-3.11,4.44-7.76,7.41-13.1,8.35-3.83.68-7.75.24-11.32-1.25-1.02-.43-2.19.06-2.62,1.08-.43,1.02.06,2.19,1.08,2.62,2.97,1.24,6.13,1.87,9.32,1.87,1.41,0,2.83-.12,4.24-.37,6.39-1.13,11.96-4.68,15.69-9.99,3.27-4.67,4.77-10.21,4.32-15.82l4.63-.82c5.35-.94,8.93-6.06,7.99-11.41ZM92.91,69.12h0l-4.52.8-.23-1.29-2.97-16.85s0,0,0,0l-.33-1.9,4.52-.8c3.18-.56,6.22,1.57,6.78,4.75l1.5,8.51c.56,3.18-1.57,6.22-4.75,6.78Z"/>
</svg>