<?xml version="1.0" encoding="UTF-8"?>
<svg id="Pictograms" xmlns="http://www.w3.org/2000/svg" viewBox="0 0 160 160">
  <defs>
    <style>
      .cls-1 {
        fill: #adedff;
      }

      .cls-2 {
        fill: #ffffff;
      }

      .cls-3 {
        fill: #00c8ff;
      }
    </style>
  </defs>
  <path class="cls-3" d="M95.88,66.61l-3.98-31.95c-.22-1.78-1.84-3.04-3.62-2.82l-31.85,3.97c-.85.11-1.63.55-2.15,1.22L11.62,91.69c-1.1,1.41-.85,3.45.56,4.55l35.83,27.97c1.41,1.1,3.45.85,4.55-.56l9.54-12.23,1.02-5.86,4.02-.59,28.08-35.97c.53-.68.77-1.54.66-2.4ZM76.99,56.45c-3.4,0-6.16-2.76-6.16-6.16s2.76-6.16,6.16-6.16,6.16,2.76,6.16,6.16-2.76,6.16-6.16,6.16Z"/>
  <path class="cls-1" d="M110.67,64.4h0c3.03-5.57,11.52-2.81,10.7,3.48h0c-.59,4.5,4.04,7.86,8.13,5.91h0c5.72-2.73,10.98,4.5,6.61,9.1h0c-3.12,3.29-1.35,8.73,3.11,9.56h0c6.24,1.16,6.24,10.09,0,11.25h0c-4.46.83-6.23,6.27-3.11,9.56h0c4.37,4.6-.89,11.83-6.61,9.1h0c-4.1-1.95-8.73,1.41-8.13,5.91h0c.83,6.29-7.67,9.05-10.7,3.48h0c-2.16-3.99-7.89-3.99-10.05,0h0c-3.03,5.57-11.52,2.81-10.7-3.48h0c.59-4.5-4.04-7.86-8.13-5.91h0c-5.72,2.73-10.98-4.5-6.61-9.1h0c3.12-3.29,1.35-8.73-3.11-9.56h0c-6.24-1.16-6.24-10.09,0-11.25h0c4.46-.83,6.23-6.27,3.11-9.56h0c-4.37-4.6.89-11.83,6.61-9.1h0c4.1,1.95,8.73-1.41,8.13-5.91h0c-.83-6.29,7.67-9.05,10.7-3.48h0c2.16,3.99,7.89,3.99,10.05,0Z"/>
  <path class="cls-2" d="M93.41,48.05c-.99,0-1.86-.74-1.98-1.75l-1.07-8.59c-.26-2.07-2.15-3.54-4.22-3.29l-28.07,3.5c-1,.12-1.89.63-2.51,1.43l-4.69,6c-.68.87-1.94,1.03-2.81.35-.87-.68-1.03-1.94-.35-2.81l4.69-6c1.28-1.64,3.11-2.68,5.17-2.93l28.07-3.5c4.26-.54,8.16,2.5,8.69,6.76l1.07,8.59c.14,1.1-.64,2.09-1.74,2.23-.08.01-.17.02-.25.02Z"/>
  <path class="cls-2" d="M39.37,58.3c-.43,0-.86-.14-1.23-.42-.87-.68-1.03-1.94-.35-2.81l4.26-5.46c.68-.87,1.94-1.03,2.81-.35.87.68,1.03,1.94.35,2.81l-4.26,5.46c-.39.5-.98.77-1.58.77Z"/>
  <path class="cls-2" d="M21.51,105.06c-.43,0-.86-.14-1.23-.42l-6.97-5.44c-3.38-2.64-3.99-7.54-1.35-10.93l15.37-19.69c.68-.87,1.94-1.03,2.81-.35.87.68,1.03,1.94.35,2.81l-15.37,19.69c-1.28,1.65-.99,4.03.65,5.31l6.97,5.44c.87.68,1.03,1.94.35,2.81-.39.51-.98.77-1.58.77Z"/>
  <path class="cls-2" d="M72.63,56.64c-.51,0-1.02-.2-1.41-.59-3.18-3.18-3.18-8.36,0-11.54.57-.57,1.21-1.04,1.91-1.42.97-.52,2.19-.16,2.71.82.52.97.16,2.19-.82,2.71-.36.19-.68.43-.97.72-.79.79-1.22,1.83-1.22,2.94s.43,2.16,1.22,2.94.78,2.05,0,2.83c-.39.39-.9.59-1.41.59Z"/>
  <path class="cls-2" d="M94.2,136.45c-.2,0-.41-.03-.62-.1-3.04-.99-5.85-3.95-5.27-8.35.18-1.37-.38-2.68-1.5-3.5-1.12-.81-2.54-.95-3.79-.35-4,1.91-7.69.15-9.57-2.43-1.88-2.58-2.41-6.63.64-9.85.95-1,1.27-2.39.84-3.71-.43-1.32-1.5-2.26-2.86-2.51-.03,0-.29-.04-.96-.01-1.1.06-2.03-.82-2.08-1.92-.04-1.1.82-2.03,1.92-2.08.77-.03,1.35,0,1.81.07,2.86.53,5.08,2.48,5.97,5.21.89,2.74.24,5.61-1.74,7.7-1.57,1.66-1.15,3.59-.31,4.75.84,1.15,2.55,2.15,4.61,1.17,2.6-1.24,5.54-.97,7.86.72,2.33,1.69,3.49,4.4,3.12,7.25-.3,2.26,1.18,3.58,2.54,4.02,1.05.34,1.62,1.47,1.28,2.52-.28.84-1.06,1.38-1.9,1.38Z"/>
  <path class="cls-2" d="M95.07,99.64c-3.82,0-6.92-3.1-6.92-6.92v-3.98c0-3.82,3.1-6.92,6.92-6.92s6.92,3.1,6.92,6.92v3.98c0,3.82-3.1,6.92-6.92,6.92ZM95.07,85.82c-1.61,0-2.92,1.31-2.92,2.92v3.98c0,1.61,1.31,2.92,2.92,2.92s2.92-1.31,2.92-2.92v-3.98c0-1.61-1.31-2.92-2.92-2.92Z"/>
  <path class="cls-2" d="M116.98,114.32c-3.82,0-6.92-3.1-6.92-6.92v-3.98c0-3.82,3.1-6.92,6.92-6.92s6.92,3.1,6.92,6.92v3.98c0,3.82-3.1,6.92-6.92,6.92ZM116.98,100.5c-1.61,0-2.92,1.31-2.92,2.92v3.98c0,1.61,1.31,2.92,2.92,2.92s2.92-1.31,2.92-2.92v-3.98c0-1.61-1.31-2.92-2.92-2.92Z"/>
  <path class="cls-2" d="M97.75,114.32c-.33,0-.66-.08-.96-.25-.97-.53-1.32-1.75-.79-2.72l15.71-28.5c.53-.97,1.75-1.32,2.72-.79.97.53,1.32,1.75.79,2.72l-15.71,28.5c-.37.66-1.05,1.03-1.75,1.03Z"/>
  <path class="cls-2" d="M88.62,121.15c-2.31-1.59-5.3-1.61-7.88-.52-1.98.84-3.61-.13-4.43-1.25-.82-1.12-1.24-2.98.18-4.6,1.84-2.11,2.74-4.96,1.94-7.65-.84-2.84-3.1-4.87-6-5.41-.27-.05-.54-.04-.8.01-.22-.07-.45-.1-.69-.09-.74.04-1.49.09-2.25.13-1.33.08-2.7.17-4.08.22-.08-1.07-.27-2.09-.57-3.09-1.09-3.72-3.73-7.09-6.88-8.79-2.44-1.31-5.04-1.61-7.52-.85-.05.02-.1.03-.15.05-3.26,1.29-5.11,3.95-4.94,7.13.2,3.72,3.08,7.08,7.01,8.19,2.79.94,5.79,1.31,8.8,1.39-.12.59-.27,1.21-.46,1.85-.77,2.63-5.12,9.49-6.79,11.99l-.2.26c-1.29,1.64-3.67,1.94-5.31.65l-7.54-5.88c-.95-.75-2.38-.49-2.99.63-.48.88-.17,1.98.62,2.6l7.45,5.81c1.38,1.08,3.05,1.65,4.77,1.65.94,0,1.9-.17,2.88-.53,1.31-.48,2.43-1.39,3.29-2.5l.23-.29s.06-.08.09-.12c.64-.95,6.24-9.43,7.33-13.14.31-1.04.54-2.04.69-3.01,1.54-.05,3.05-.15,4.51-.24.75-.05,1.49-.09,2.22-.13.11,0,.22-.03.33-.05.07.02.14.05.22.06.7.13,1.4.36,1.89.88,1.55,1.68,1.49,3.9.13,5.33-3.05,3.22-2.52,7.27-.64,9.85s5.45,4.28,9.38,2.52c1.29-.58,2.83-.57,3.98.26,1.08.79,1.64,2.03,1.52,3.35-.1,1.12.57,2.23,1.69,2.39.09.01.19.02.28.02.99,0,1.85-.73,1.98-1.74.38-2.92-.84-5.69-3.28-7.37ZM52.8,100.85s-.08-.02-.11-.04c-2.6-.72-4.05-2.84-4.14-4.56-.08-1.42.73-2.51,2.34-3.17,1.43-.42,2.9-.22,4.38.57,2.25,1.21,4.14,3.66,4.94,6.4.19.65.33,1.31.4,1.99-2.74-.07-5.42-.39-7.8-1.2Z"/>
  <path class="cls-2" d="M139.58,105.66c4.36-.81,6.31-4.4,6.31-7.59s-1.95-6.78-6.31-7.59c-1.36-.25-2.43-1.19-2.86-2.51s-.11-2.7.84-3.71c3.05-3.22,2.52-7.27.64-9.85-1.88-2.58-5.56-4.34-9.57-2.43-1.25.59-2.67.47-3.79-.35-1.12-.81-1.68-2.12-1.5-3.5.58-4.4-2.23-7.36-5.27-8.35-3.04-.99-7.05-.24-9.17,3.66-.37.68-.89,1.19-1.54,1.53,0,0,0,0,0,0-1.6.82-3.9.48-4.99-1.53-2.12-3.9-6.13-4.64-9.17-3.66-3.04.99-5.85,3.95-5.27,8.35.19,1.42-.41,2.75-1.59,3.55-.91.62-1.14,1.87-.52,2.78.39.57,1.01.87,1.65.87.39,0,.78-.11,1.13-.35,2.41-1.65,3.67-4.48,3.29-7.38-.3-2.26,1.18-3.58,2.54-4.02,1.36-.44,3.33-.24,4.42,1.76,2.02,3.73,6.56,5.12,10.33,3.18,0,0,0,0,0,0,1.36-.7,2.48-1.8,3.23-3.18,1.09-2.01,3.05-2.2,4.42-1.76,1.36.44,2.84,1.76,2.54,4.02-.38,2.85.79,5.56,3.12,7.25,2.33,1.69,5.27,1.96,7.86.72,2.06-.98,3.77.02,4.61,1.17.84,1.15,1.26,3.09-.31,4.75-1.98,2.09-2.63,4.96-1.74,7.7.89,2.73,3.11,4.68,5.94,5.21,2.25.42,3.04,2.23,3.04,3.66s-.8,3.24-3.04,3.66c-2.83.52-5.05,2.47-5.94,5.21-.89,2.74-.24,5.61,1.74,7.7,1.57,1.66,1.15,3.59.31,4.75-.84,1.15-2.55,2.15-4.61,1.17-1.31-.62-2.75-.87-4.16-.72-1.1.12-1.89,1.11-1.77,2.21s1.11,1.88,2.21,1.77c.68-.07,1.35.04,2,.35,0,0,0,0,0,0,1.18.56,2.33.81,3.41.81,2.6,0,4.83-1.41,6.16-3.24,1.88-2.58,2.41-6.63-.64-9.85-.95-1-1.27-2.39-.84-3.71s1.5-2.26,2.86-2.51Z"/>
  <g>
    <g>
      <path class="cls-2" d="M117.16,29.35c-1.1,0-2-.9-2-2v-7.63c0-1.1.9-2,2-2s2,.9,2,2v7.63c0,1.1-.9,2-2,2Z"/>
      <path class="cls-2" d="M117.16,53.25c-1.1,0-2-.9-2-2v-7.63c0-1.1.9-2,2-2s2,.9,2,2v7.63c0,1.1-.9,2-2,2Z"/>
    </g>
    <g>
      <path class="cls-2" d="M110.11,33.42c-.34,0-.68-.09-1-.27l-6.61-3.81c-.96-.55-1.28-1.78-.73-2.73.55-.96,1.78-1.29,2.73-.73l6.61,3.81c.96.55,1.28,1.78.73,2.73-.37.64-1.04,1-1.73,1Z"/>
      <path class="cls-2" d="M130.81,45.37c-.34,0-.68-.09-1-.27l-6.61-3.81c-.96-.55-1.28-1.78-.73-2.73.55-.96,1.77-1.29,2.73-.73l6.61,3.81c.96.55,1.28,1.78.73,2.73-.37.64-1.04,1-1.73,1Z"/>
    </g>
    <g>
      <path class="cls-2" d="M103.51,45.37c-.69,0-1.36-.36-1.73-1-.55-.96-.22-2.18.73-2.73l6.61-3.81c.95-.55,2.18-.22,2.73.73.55.96.22,2.18-.73,2.73l-6.61,3.81c-.31.18-.66.27-1,.27Z"/>
      <path class="cls-2" d="M124.21,33.42c-.69,0-1.36-.36-1.73-1-.55-.96-.22-2.18.73-2.73l6.61-3.81c.96-.55,2.18-.22,2.73.73.55.96.22,2.18-.73,2.73l-6.61,3.81c-.31.18-.66.27-1,.27Z"/>
    </g>
  </g>
</svg>