<?xml version="1.0" encoding="UTF-8"?>
<svg id="Pictograms" xmlns="http://www.w3.org/2000/svg" viewBox="0 0 160 160">
  <defs>
    <style>
      .cls-1 {
        fill: #adedff;
      }

      .cls-2 {
        fill: #2954ff;
      }

      .cls-3 {
        fill: #0e0a7f;
      }

      .cls-4 {
        fill: #00c8ff;
      }
    </style>
  </defs>
  <path class="cls-2" d="M31.98,82.63l.9.33-.9.33c-3.39,1.26-6.07,3.93-7.33,7.33l-.33.9-.33-.9c-1.26-3.39-3.93-6.07-7.33-7.33l-.9-.33.9-.33c3.39-1.26,6.07-3.93,7.33-7.33l.33-.9.33.9c1.26,3.39,3.93,6.07,7.33,7.33Z"/>
  <path class="cls-1" d="M49.4,26.73h43.27c3.86,0,7,3.14,7,7v91.87c0,3.86-3.14,7-7,7h-40.27c-3.86,0-7-3.14-7-7V30.73c0-2.21,1.79-4,4-4Z" transform="translate(166.11 133.07) rotate(162.03)"/>
  <path class="cls-3" d="M52.16,40.55c-.86,0-1.66-.55-1.94-1.41-.35-1.07.24-2.22,1.31-2.57l13.04-4.21c1.07-.35,2.22.24,2.57,1.31.35,1.07-.24,2.22-1.31,2.57l-13.04,4.21c-.21.07-.42.1-.63.1Z"/>
  <path class="cls-3" d="M67.54,138.58c-1.4,0-2.79-.33-4.08-.99-2.14-1.09-3.73-2.95-4.47-5.24l-5.74-17.7c-.34-1.05.23-2.18,1.29-2.52,1.05-.34,2.18.24,2.52,1.29l5.74,17.7c.41,1.27,1.29,2.3,2.48,2.91,1.19.61,2.55.71,3.82.3l31.28-10.14c1.05-.34,2.18.24,2.52,1.29.34,1.05-.23,2.18-1.29,2.52l-31.28,10.14c-.91.3-1.85.44-2.79.44Z"/>
  <path class="cls-3" d="M42.63,77.41c-.84,0-1.63-.54-1.9-1.38l-2.06-6.34c-.34-1.05.23-2.18,1.29-2.52,1.05-.34,2.18.24,2.52,1.29l2.06,6.34c.34,1.05-.23,2.18-1.29,2.52-.21.07-.41.1-.62.1Z"/>
  <path class="cls-3" d="M37.42,61.34c-.84,0-1.63-.54-1.9-1.38l-4.86-15c-1.53-4.72,1.06-9.81,5.78-11.34l38.31-12.42c2.29-.74,4.73-.55,6.87.54,2.14,1.09,3.73,2.95,4.47,5.24l.84,2.6c.34,1.05-.23,2.18-1.29,2.52-1.05.34-2.18-.23-2.52-1.29l-.84-2.6c-.41-1.27-1.29-2.3-2.48-2.91-1.19-.61-2.54-.71-3.81-.3l-38.31,12.42c-2.62.85-4.06,3.68-3.21,6.3l4.86,15c.34,1.05-.24,2.18-1.29,2.52-.21.07-.41.1-.62.1Z"/>
  <path class="cls-4" d="M109.49,40.23h0c2.86-5.28,10.91-2.66,10.12,3.29h0c-.56,4.26,3.82,7.44,7.7,5.59h0c5.42-2.58,10.39,4.26,6.26,8.61h0c-2.96,3.11-1.28,8.27,2.94,9.05h0c5.9,1.09,5.9,9.55,0,10.65h0c-4.22.78-5.9,5.93-2.94,9.05h0c4.13,4.35-.84,11.2-6.26,8.61h0c-3.88-1.85-8.26,1.34-7.7,5.59h0c.78,5.95-7.26,8.57-10.12,3.29h0c-2.05-3.77-7.47-3.77-9.51,0h0c-2.86,5.28-10.91,2.66-10.12-3.29h0c.56-4.26-3.82-7.44-7.7-5.59h0c-5.42,2.58-10.39-4.26-6.26-8.61h0c2.96-3.11,1.28-8.27-2.94-9.05h0c-5.9-1.09-5.9-9.55,0-10.65h0c4.22-.78,5.9-5.93,2.94-9.05h0c-4.13-4.35.84-11.2,6.26-8.61h0c3.88,1.85,8.26-1.34,7.7-5.59h0c-.78-5.95,7.26-8.57,10.12-3.29h0c2.05,3.77,7.47,3.77,9.51,0Z"/>
  <path class="cls-3" d="M94.36,73.69c-3.67,0-6.66-2.99-6.66-6.66v-3.76c0-3.67,2.99-6.66,6.66-6.66s6.66,2.99,6.66,6.66v3.76c0,3.67-2.99,6.66-6.66,6.66ZM94.36,60.61c-1.46,0-2.66,1.19-2.66,2.66v3.76c0,1.46,1.19,2.66,2.66,2.66s2.66-1.19,2.66-2.66v-3.76c0-1.46-1.19-2.66-2.66-2.66Z"/>
  <path class="cls-3" d="M115.11,87.58c-3.67,0-6.66-2.99-6.66-6.66v-3.76c0-3.67,2.99-6.66,6.66-6.66s6.66,2.99,6.66,6.66v3.76c0,3.67-2.99,6.66-6.66,6.66ZM115.11,74.5c-1.46,0-2.66,1.19-2.66,2.66v3.76c0,1.46,1.19,2.66,2.66,2.66s2.66-1.19,2.66-2.66v-3.76c0-1.46-1.19-2.66-2.66-2.66Z"/>
  <path class="cls-3" d="M96.91,87.58c-.33,0-.66-.08-.96-.25-.97-.53-1.32-1.75-.79-2.72l14.87-26.97c.53-.97,1.75-1.32,2.72-.79.97.53,1.32,1.75.79,2.72l-14.87,26.97c-.37.66-1.05,1.03-1.75,1.03Z"/>
  <path class="cls-2" d="M52.37,98.65l5.71,2.11-5.71,2.11c-4.11,1.52-7.34,4.76-8.86,8.86l-2.11,5.71-2.11-5.71c-1.52-4.11-4.76-7.34-8.86-8.86l-5.71-2.11,5.71-2.11c4.11-1.52,7.34-4.76,8.86-8.86l2.11-5.71,2.11,5.71c1.52,4.11,4.76,7.34,8.86,8.86Z"/>
  <path class="cls-3" d="M95.32,108.81c-.83,0-1.64-.13-2.39-.38-2.92-.95-5.62-3.79-5.06-8.02.17-1.26-.35-2.46-1.38-3.21-1.03-.75-2.33-.87-3.48-.32-3.85,1.83-7.39.15-9.19-2.33-1.8-2.48-2.31-6.37.62-9.46.88-.92,1.16-2.2.77-3.4-.39-1.21-1.37-2.07-2.62-2.3-1.09-.2-1.8-1.25-1.6-2.33s1.25-1.8,2.33-1.6c2.72.5,4.85,2.37,5.7,5,.85,2.63.23,5.39-1.67,7.39-1.44,1.52-1.09,3.25-.29,4.36.81,1.11,2.34,1.98,4.23,1.07,2.49-1.19,5.31-.93,7.55.69,2.23,1.62,3.35,4.23,2.99,6.96-.27,2.08,1.03,3.27,2.33,3.69,1.3.42,3.06.22,4.05-1.62,1.32-2.43,3.75-3.88,6.52-3.88s5.2,1.45,6.51,3.88c.53.97.17,2.18-.8,2.71-.97.53-2.19.17-2.71-.8-.61-1.12-1.73-1.79-3-1.79s-2.39.67-3,1.79c-1.51,2.78-4.02,3.89-6.41,3.89Z"/>
  <path class="cls-3" d="M136.51,79.42c-.95,0-1.79-.67-1.96-1.64-.2-1.09.52-2.13,1.6-2.33,2.06-.38,2.79-1.98,2.79-3.36s-.73-2.97-2.79-3.36c-2.72-.5-4.85-2.37-5.7-5s-.23-5.39,1.67-7.39c1.44-1.52,1.09-3.25.29-4.36-.81-1.11-2.34-1.98-4.23-1.07-2.49,1.19-5.31.93-7.55-.69-2.23-1.62-3.35-4.23-2.99-6.96.27-2.08-1.02-3.27-2.33-3.69-1.31-.42-3.06-.22-4.06,1.62-1.32,2.43-3.75,3.88-6.51,3.88s-5.2-1.45-6.52-3.88c-1-1.84-2.75-2.04-4.05-1.62s-2.6,1.62-2.33,3.69c.14,1.09-.63,2.1-1.72,2.24-1.09.14-2.1-.63-2.24-1.72-.56-4.22,2.14-7.07,5.06-8.02,2.92-.95,6.77-.23,8.81,3.51.61,1.12,1.73,1.78,3,1.78s2.39-.67,3-1.78c2.03-3.74,5.89-4.46,8.81-3.51,2.92.95,5.61,3.8,5.06,8.02-.17,1.26.35,2.46,1.38,3.21,1.03.75,2.33.87,3.48.32,3.85-1.83,7.39-.15,9.19,2.33,1.8,2.48,2.31,6.37-.62,9.46-.88.92-1.16,2.19-.77,3.4.39,1.21,1.37,2.07,2.62,2.3,4.19.78,6.06,4.22,6.06,7.29s-1.88,6.51-6.06,7.29c-.12.02-.25.03-.37.03Z"/>
</svg>