<?xml version="1.0" encoding="UTF-8"?>
<svg id="Pictograms" xmlns="http://www.w3.org/2000/svg" viewBox="0 0 160 160">
  <defs>
    <style>
      .cls-1 {
        fill: #adedff;
      }

      .cls-2 {
        fill: #2954ff;
      }

      .cls-3 {
        fill: #ffffff;
      }

      .cls-4 {
        fill: #00c8ff;
      }
    </style>
  </defs>
  <rect class="cls-4" x="99.64" y="47.72" width="48.45" height="16.41" transform="translate(-3.27 103.97) rotate(-45)"/>
  <g>
    <path class="cls-1" d="M80,123H24c-2.21,0-4-1.79-4-4V53.47l22.47-22.47h41.53v88c0,2.21-1.79,4-4,4Z"/>
    <polygon class="cls-2" points="43.3 53.5 20 53.5 43.3 31.03 43.3 53.5"/>
  </g>
  <g>
    <path class="cls-3" d="M43.22,54.96c1.1,0,2-.9,2-2v-10.42c0-1.1-.9-2-2-2s-2,.9-2,2v8.42l-16.31.04,18.37-18h38.71v23.77c0,1.1.9,2,2,2s2-.9,2-2v-10.2h12v8.94c0,1.1.9,2,2,2s2-.9,2-2v-10.94c0-1.1-.9-2-2-2h-14v-11.57c0-1.1-.9-2-2-2h-41.53c-.52,0-1.03.21-1.4.57l-22.47,22.01s0,0,0,0c-.08.08-.15.16-.21.25-.01.02-.03.03-.04.05-.18.26-.28.56-.32.89,0,.08-.02.15-.02.23v19.47c0,1.1.9,2,2,2s2-.9,2-2v-17.48l21.23-.05Z"/>
    <path class="cls-3" d="M148.91,41.82l-10.66-10.63c-.78-.78-2.04-.78-2.82,0l-35.08,34.97s-.02.03-.03.04c-.05.05-.09.11-.14.17-.04.05-.07.09-.1.14-.04.06-.06.12-.09.18-.03.06-.06.12-.08.19,0,.02-.02.04-.03.06l-5.22,15.43c-.24.71-.06,1.49.46,2.03.38.4.9.61,1.44.61.19,0,.39-.03.58-.09l15.88-4.8s.05-.02.08-.03c.07-.02.13-.05.2-.08.06-.03.11-.06.17-.09.05-.03.11-.07.16-.11.06-.04.11-.09.16-.13.02-.02.05-.03.07-.05l21.23-21.17c.78-.78.78-2.05,0-2.83-.78-.78-2.04-.78-2.83,0l-19.82,19.76-2.5-2.49,8.41-8.38c.78-.78.78-2.05,0-2.83-.78-.78-2.05-.78-2.83,0l-8.41,8.39-2.5-2.49,32.25-32.15,7.83,7.81-3.87,3.86-4.17-4.16c-.78-.78-2.05-.78-2.83,0-.78.78-.78,2.05,0,2.83l5.59,5.57c.78.78,2.04.78,2.82,0l6.7-6.68c.38-.38.59-.89.59-1.42s-.21-1.04-.59-1.42ZM108.64,77.26l-8.96,2.71,2.94-8.7,6.01,6Z"/>
    <path class="cls-3" d="M127.72,49.5l-4.85,4.83c-.78.78-.78,2.05,0,2.83.39.39.9.59,1.42.59s1.02-.19,1.41-.58l4.85-4.83c.78-.78.78-2.05,0-2.83-.78-.78-2.04-.78-2.83,0Z"/>
    <path class="cls-3" d="M61,69.49c0-1.1-.9-2-2-2h-24c-1.1,0-2,.9-2,2s.9,2,2,2h24c1.1,0,2-.9,2-2Z"/>
    <path class="cls-3" d="M61,88.44c0-1.1-.9-2-2-2h-24c-1.1,0-2,.9-2,2s.9,2,2,2h24c1.1,0,2-.9,2-2Z"/>
    <path class="cls-3" d="M35,76.96c-1.1,0-2,.9-2,2s.9,2,2,2h16c1.1,0,2-.9,2-2s-.9-2-2-2h-16Z"/>
    <path class="cls-3" d="M84,74.69c1.1,0,2-.9,2-2v-7c0-1.1-.9-2-2-2s-2,.9-2,2v7c0,1.1.9,2,2,2Z"/>
    <path class="cls-3" d="M82,94.83c-8.58,9.3-10.98,12.46-13.02,15.88-2.22,3.72-2.11,7.52.28,10.45,1.89,2.3,4.87,3.61,7.83,3.61,1.06,0,2.12-.17,3.11-.52,3.63-1.29,5.73-4.67,5.76-9.29.01-2.2.03-5.08.04-8.36v-10.16l5.83-5.57c.8-.76.83-2.03.06-2.83-.76-.8-2.03-.83-2.83-.06l-3.07,2.93v-9.16c0-1.1-.9-2-2-2s-2,.9-2,2v13.08ZM82,106.59c0,3.27-.02,6.14-.04,8.34-.02,2.92-1.09,4.84-3.09,5.55-2.17.77-5.03-.05-6.51-1.85-1.3-1.59-1.28-3.62.06-5.86,1.61-2.71,3.63-5.42,9.58-12v5.83Z"/>
    <path class="cls-3" d="M100,96.26c-1.1,0-2,.9-2,2v32.05h-54.7c-1.1,0-2,.9-2,2s.9,2,2,2h56.7c1.1,0,2-.9,2-2v-34.05c0-1.1-.9-2-2-2Z"/>
  </g>
</svg>