<?xml version="1.0" encoding="UTF-8"?>
<svg id="Pictograms" xmlns="http://www.w3.org/2000/svg" viewBox="0 0 160 160">
  <defs>
    <style>
      .cls-1 {
        fill: #adedff;
      }

      .cls-2 {
        fill: #2954ff;
      }

      .cls-3 {
        fill: #0e0a7f;
      }

      .cls-4 {
        fill: #00c8ff;
      }
    </style>
  </defs>
  <path class="cls-4" d="M130.54,123.97c-1.29-3.18-4.76-4.87-8.06-3.94l-10.52,2.98,1.78-1.06c3.62-1.55,5.89-3.99,4.04-7.47h0c-1.62-3.02-5.25-4.35-8.43-3.08l-3.22,1.54c.26-1.43.06-2.96-.68-4.35-1.62-3.02-5.25-4.35-8.43-3.08l-15.66,7.49-21.5-14.7-39.7,13.33,22.15,29.08,7.79-4.67c1.01-.6,2.23-.73,3.34-.36l21.08,7.13c6.45,2.18,13.44,2.19,19.9.02l1.09-.39.04.06,30.97-10.79c3.77-1.17,5.53-4.09,4.04-7.75Z"/>
  <path class="cls-3" d="M117.83,116.23c-.9,0-1.71-.61-1.94-1.51-.32-1.28-.91-2.12-1.79-2.56-1.84-.93-4.74-.11-5.61.25-.04.02-.08.03-.11.04l-9.98,3.44c-1.04.36-2.18-.2-2.54-1.24-.36-1.04.2-2.18,1.24-2.54l9.93-3.42c.75-.3,5.21-1.94,8.87-.1,1.34.68,3.11,2.12,3.87,5.16.27,1.07-.38,2.16-1.45,2.43-.16.04-.33.06-.49.06Z"/>
  <g>
    <path class="cls-1" d="M104.05,117.06l-16.22.24-28.23-18-15.55,4.75v-56.52l22.47-22.47h41.53v88c0,2.21-1.79,4-4,4Z"/>
    <polygon class="cls-2" points="67.05 47.56 44.05 47.56 67.05 25.09 67.05 47.56"/>
  </g>
  <polygon class="cls-4" points="111.16 50.01 126.96 55.1 129.1 70.92 144.04 41.25 111.16 50.01"/>
  <path class="cls-3" d="M84.57,133.46c-1.61,0-3.22-.41-4.64-1.2l-14.77-8.25c-.96-.54-1.31-1.76-.77-2.72.54-.96,1.76-1.31,2.72-.77l14.77,8.25c1.34.75,2.89.9,4.35.44,1.46-.46,2.63-1.48,3.29-2.85,1.22-2.55.32-5.57-2.11-7.04l-28.13-17.71-5.95,1.82c-1.05.32-2.17-.27-2.5-1.33-.32-1.06.27-2.17,1.33-2.5l6.82-2.09c.56-.17,1.16-.09,1.65.22l28.87,18.18c4.17,2.51,5.74,7.76,3.62,12.17-1.13,2.35-3.2,4.15-5.69,4.94-.93.3-1.9.44-2.87.44Z"/>
  <path class="cls-3" d="M102.18,127.34c-.9,0-1.72-.61-1.94-1.53-.26-1.07.4-2.15,1.47-2.41l19.68-4.76c2.5-.61,5.08-.2,7.09,1.1,1.77,1.15,2.92,2.83,3.33,4.88.22,1.08-.49,2.14-1.57,2.35-1.08.22-2.14-.49-2.35-1.57-.2-.99-.71-1.75-1.58-2.31-1.09-.71-2.54-.91-3.98-.57l-19.68,4.76c-.16.04-.32.06-.47.06Z"/>
  <path class="cls-3" d="M34.46,108.89c-.86,0-1.65-.55-1.91-1.42-.32-1.06.27-2.17,1.33-2.5l9.5-2.9c1.05-.32,2.17.27,2.5,1.33.32,1.06-.27,2.17-1.33,2.5l-9.5,2.9c-.19.06-.39.09-.58.09Z"/>
  <g>
    <path class="cls-3" d="M120.15,61.23c-.78-.78-2.04-.79-2.83-.01-1.41,1.4-8.13,6.79-10.85,8.63-.92.62-1.16,1.86-.54,2.78.39.57,1.02.88,1.66.88.39,0,.78-.11,1.12-.34,2.98-2.02,9.85-7.54,11.42-9.1.78-.78.79-2.04.01-2.83Z"/>
    <path class="cls-3" d="M96.02,76.42c-1.33.78-2.84,1.71-4.49,2.73-7.8,4.82-20.83,12.88-26.26,10.27-2.99-2.01-.14-7.16.23-7.8.89-1.66,2.14-3.28,3.47-4.99,2.09-2.7,4.26-5.49,5.18-8.79.6-2.17.28-4.2-.9-5.72-1.25-1.61-3.31-2.49-5.84-2.43-6.11.31-13.65,3.64-21.37,8.2v-18.76h20.97c1.1,0,2-.89,2-1.99l.03-9.47c0-1.1-.89-2-1.99-2.01h0c-1.1,0-2,.89-2,1.99l-.02,7.48h-16.14l18.46-18.43h38.71l.02,15.95c0,1.1.9,2,2,2h0c1.1,0,2-.9,2-2l-.02-17.95c0-1.1-.9-2-2-2h-41.53c-.53,0-1.04.21-1.41.58l-22.47,22.43s0,0,0,0c-.09.09-.17.19-.25.3-.02.03-.04.07-.06.11-.05.08-.09.15-.13.24-.02.04-.03.09-.04.14-.03.08-.06.16-.07.24-.03.13-.04.26-.04.4v23.21c-8.61,5.47-17.2,12.08-24.08,17.37-2.35,1.81-4.38,3.37-6.09,4.63-.89.66-1.08,1.91-.42,2.8.39.53,1,.81,1.61.81.41,0,.83-.13,1.19-.39,1.74-1.29,3.78-2.86,6.15-4.68,5.94-4.57,13.73-10.57,21.64-15.76v10.39c0,1.1.9,2,2,2s2-.9,2-2v-12.94c7.92-4.88,15.66-8.59,21.5-8.88,1.17,0,2.09.31,2.54.89.5.64.38,1.56.21,2.2-.71,2.54-2.55,4.91-4.49,7.41-1.37,1.77-2.79,3.59-3.8,5.5-3.18,5.52-2.71,10.69,1.2,13.17.05.03.11.06.16.09,7.38,3.75,20.61-4.42,30.26-10.39,1.62-1,3.1-1.92,4.4-2.68.95-.56,1.27-1.78.71-2.74-.56-.95-1.79-1.27-2.74-.71Z"/>
  </g>
</svg>