<?xml version="1.0" encoding="UTF-8"?>
<svg id="Pictograms" xmlns="http://www.w3.org/2000/svg" viewBox="0 0 160 160">
  <defs>
    <style>
      .cls-1 {
        fill: #adedff;
      }

      .cls-2 {
        fill: #2954ff;
      }

      .cls-3 {
        fill: #0e0a7f;
      }

      .cls-4 {
        fill: #00c8ff;
      }
    </style>
  </defs>
  <g>
    <path class="cls-1" d="M95,124h-56c-2.21,0-4-1.79-4-4V54.5l22.5-22.5h20.5s0,22.5,0,22.5h21v65.5c0,2.21-1.79,4-4,4Z"/>
    <polygon class="cls-2" points="35 54.5 57.5 54.5 57.5 32 35 54.5"/>
  </g>
  <path class="cls-3" d="M73.5,71.98h-24c-1.1,0-2-.9-2-2s.9-2,2-2h24c1.1,0,2,.9,2,2s-.9,2-2,2Z"/>
  <path class="cls-3" d="M73.5,90.93h-24c-1.1,0-2-.9-2-2s.9-2,2-2h24c1.1,0,2,.9,2,2s-.9,2-2,2Z"/>
  <path class="cls-3" d="M65.5,81.45h-16c-1.1,0-2-.9-2-2s.9-2,2-2h16c1.1,0,2,.9,2,2s-.9,2-2,2Z"/>
  <g>
    <path class="cls-3" d="M99,65.49c-1.1,0-2,.9-2,2v27.92c0,1.1.9,2,2,2s2-.9,2-2v-27.92c0-1.1-.9-2-2-2Z"/>
    <path class="cls-3" d="M69.98,29.6h-12.48c-.53,0-1.04.21-1.41.58l-22.5,22.43s0,0,0,0c-.11.11-.2.23-.28.36-.02.03-.04.07-.05.1h0c-.03.06-.07.12-.1.18,0,0,0,0,0,0-.02.05-.04.11-.05.16-.02.07-.05.14-.06.21,0,0,0,0,0,0-.03.13-.04.26-.04.39h0v4.14l-2.44.63c-5.26,1.2-9.34,4.98-10.93,10.12-1.58,5.12-.35,10.53,3.3,14.46,2.42,2.61,4.98,5.34,7.52,8.05.85.9,1.7,1.81,2.55,2.72v20.22c.03,5.17,2.37,8.95,6.42,10.38,1.12.4,2.3.59,3.49.59,3.31,0,6.66-1.47,8.78-4.05,2.66-3.25,2.76-7.49.28-11.63-1.61-2.7-7.6-9.21-14.97-17.09v-36.53h20.5c1.1,0,2-.9,2-2v-12.46c0-1.1-.9-2-2-2s-2,.9-2,2v10.46h-15.66l18.49-18.43h11.66c1.1,0,2-.9,2-2s-.9-2-2-2ZM33,88.3c-2.42-2.57-4.84-5.16-7.14-7.64-2.67-2.87-3.57-6.82-2.41-10.56,1.16-3.76,4.15-6.53,8.05-7.42l1.5-.39v26ZM48.54,111.7c1.61,2.69,1.62,5.12.05,7.04-1.78,2.17-5.22,3.15-7.84,2.23-2.43-.86-3.73-3.15-3.75-6.62v-15.93c5.6,6.02,10.34,11.27,11.54,13.28Z"/>
  </g>
  <g>
    <circle class="cls-3" cx="92" cy="40" r="4"/>
    <circle class="cls-3" cx="104" cy="40" r="4"/>
    <circle class="cls-3" cx="116" cy="40" r="4"/>
    <path class="cls-3" d="M130.42,69c-.55,0-1.1-.23-1.48-.66l-11.13-12.31h-39.81c-1.1,0-2-.9-2-2v-31.9c0-1.1.9-2,2-2h30c1.1,0,2,.9,2,2s-.9,2-2,2h-28v27.9h38.7c.57,0,1.1.24,1.48.66l8.24,9.12v-30.21c0-1.1.9-2,2-2s2,.9,2,2v35.4c0,.83-.51,1.57-1.28,1.87-.23.09-.48.13-.72.13Z"/>
  </g>
  <path class="cls-3" d="M124.87,102.8c-1.01,0-1.88-.77-1.99-1.8-1.24-12.11-6.98-23.07-16.17-30.84-.84-.71-.95-1.98-.24-2.82s1.98-.95,2.82-.24c9.98,8.44,16.22,20.33,17.57,33.48.11,1.1-.69,2.08-1.79,2.19-.07,0-.14.01-.21.01Z"/>
  <path class="cls-4" d="M99.74,113.71l-12.4,4.59,12.4,4.59c4.11,1.52,7.34,4.76,8.86,8.86l4.59,12.4,4.59-12.4c1.52-4.11,4.76-7.34,8.86-8.86l12.4-4.59-12.4-4.59c-4.11-1.52-7.34-4.76-8.86-8.86l-4.59-12.4-4.59,12.4c-1.52,4.11-4.76,7.34-8.86,8.86Z"/>
  <path class="cls-3" d="M85.75,136.52c-3.62,0-7.6-.91-11.93-2.72-1.02-.43-1.5-1.6-1.07-2.62.43-1.02,1.6-1.5,2.62-1.07,8.29,3.48,14.94,3.14,19.76-.99.84-.72,2.1-.62,2.82.21.72.84.62,2.1-.21,2.82-3.39,2.91-7.4,4.37-11.99,4.37Z"/>
  <path class="cls-3" d="M66.18,129.51c-.36,0-.73-.1-1.06-.31-2.29-1.43-4.67-3.09-7.08-4.93-.88-.67-1.05-1.92-.38-2.8.67-.88,1.92-1.05,2.8-.38,2.31,1.76,4.59,3.35,6.78,4.72.94.59,1.22,1.82.63,2.76-.38.61-1.03.94-1.7.94Z"/>
</svg>