<?xml version="1.0" encoding="UTF-8"?>
<svg id="Pictograms" xmlns="http://www.w3.org/2000/svg" viewBox="0 0 160 160">
  <defs>
    <style>
      .cls-1 {
        fill: #adedff;
      }

      .cls-2 {
        fill: #2954ff;
      }

      .cls-3 {
        fill: #0e0a7f;
      }
    </style>
  </defs>
  <g>
    <path class="cls-1" d="M99,140.03h-58v-65.5l21.5-21.5h40.5v83c0,2.21-1.79,4-4,4Z"/>
    <polygon class="cls-2" points="41 74.53 62.5 74.53 62.5 53.03 41 74.53"/>
  </g>
  <path class="cls-3" d="M77.46,90.36h-24c-1.1,0-2-.9-2-2s.9-2,2-2h24c1.1,0,2,.9,2,2s-.9,2-2,2Z"/>
  <path class="cls-3" d="M77.46,109.3h-24c-1.1,0-2-.9-2-2s.9-2,2-2h24c1.1,0,2,.9,2,2s-.9,2-2,2Z"/>
  <path class="cls-3" d="M69.46,99.83h-16c-1.1,0-2-.9-2-2s.9-2,2-2h16c1.1,0,2,.9,2,2s-.9,2-2,2Z"/>
  <g>
    <path class="cls-3" d="M62.5,137.32h-19.5v-14.95c0-1.1-.9-2-2-2s-2,.9-2,2v16.95c0,1.1.9,2,2,2h21.5c1.1,0,2-.9,2-2s-.9-2-2-2Z"/>
    <path class="cls-3" d="M80,137.32h-8c-1.1,0-2,.9-2,2s.9,2,2,2h8c1.1,0,2-.9,2-2s-.9-2-2-2Z"/>
    <path class="cls-3" d="M122.57,46.34h-9.02c-2.62-17.32-17.46-30.16-35.23-30.16-14.3,0-27.33,8.71-32.84,21.82h-2.95c-14.07,0-25.52,11.42-25.52,25.45,0,12.04,8.57,22.53,20.38,24.94.53.11,1.07.2,1.62.27v7.79c0,1.1.9,2,2,2s2-.9,2-2v-20.43h19.5c1.1,0,2-.9,2-2v-9.05c0-1.1-.9-2-2-2s-2,.9-2,2v7.05h-14.8l16.8-17.44,38.49-.03v8.99c0,1.1.9,2,2,2s2-.9,2-2v-11c0-.53-.21-1.04-.59-1.42-.38-.37-.88-.58-1.41-.58h0l-41.34.04c-.54,0-1.06.22-1.44.61l-20.66,21.44s-.07.09-.11.14c-.04.05-.08.09-.12.15-.04.06-.06.12-.1.18-.03.05-.06.11-.09.16-.03.07-.04.13-.06.2-.02.06-.04.11-.05.17-.03.13-.04.26-.04.39v10.6c-.27-.04-.55-.09-.82-.14-9.96-2.03-17.18-10.87-17.18-21.02,0-11.83,9.66-21.45,21.52-21.45h4.31c.83,0,1.58-.52,1.87-1.3,4.6-12.27,16.5-20.52,29.62-20.52,16.32,0,29.85,12.19,31.48,28.36.1,1.02.96,1.8,1.99,1.8h10.79c9.61,0,17.43,7.71,17.43,17.2,0,10.11-8.41,17.44-20,17.44h-3.11c-.73-7.35-5.52-12.91-10.26-14.75-3.4-1.32-6.7-.72-8.83,1.61-1.9,2.08-2.3,4.85-1.08,7.62,1.91,4.35,8.02,8.75,16.28,9.37v36.04c0,2.2-1.79,3.98-4,3.98s-4-1.79-4-3.98v-32.4c0-1.1-.9-2-2-2s-2,.9-2,2v32.4c0,4.4,3.59,7.98,8,7.98s8-3.58,8-7.98v-35.89h3c13.91,0,24-9.02,24-21.44,0-11.69-9.61-21.2-21.43-21.2ZM100.38,77.84c-.86-1.96.07-2.97.37-3.3.69-.75,1.54-1.02,2.38-1.02.73,0,1.45.19,2.05.43,3.37,1.31,6.92,5.43,7.67,10.85-6.21-.62-11.1-3.84-12.47-6.96Z"/>
    <path class="cls-3" d="M127,98.94c-1.1,0-2,.9-2,2v23.93c0,8.79-7.18,15.95-16,15.95s-16-7.15-16-15.95v-37.31c0-1.1-.9-2-2-2s-2,.9-2,2v37.31c0,11,8.97,19.95,20,19.95s20-8.95,20-19.95v-23.93c0-1.1-.9-2-2-2Z"/>
  </g>
</svg>