<?xml version="1.0" encoding="UTF-8"?>
<svg id="Pictograms" xmlns="http://www.w3.org/2000/svg" viewBox="0 0 160 160">
  <defs>
    <style>
      .cls-1 {
        fill: #adedff;
      }

      .cls-2 {
        fill: #2954ff;
      }

      .cls-3 {
        fill: #0e0a7f;
      }

      .cls-4 {
        fill: #00c8ff;
      }
    </style>
  </defs>
  <path class="cls-4" d="M80.07,115.55c-8.2,0-14.84-6.65-14.84-14.84h0-11.29c-13.14,0-24.56,9.04-27.56,21.84l-1.1,4.7c-1.42,6.03,3.16,11.8,9.35,11.8h90.91c6.19,0,10.76-5.77,9.35-11.8l-1.1-4.7c-3.01-12.79-14.42-21.84-27.56-21.84h-11.29,0c0,8.2-6.65,14.84-14.84,14.84h0Z"/>
  <g>
    <path class="cls-1" d="M106.13,69.48v-15.52s-4.93-2.9-4.93-2.9c-1.85-1.09-2.99-3.08-2.99-5.22v-11.63s2.66.1,2.66.1c8.5.31,15.28,7.24,15.32,15.74,0,.12,0,.25,0,.38,0,12.65-10.07,19.06-10.07,19.06Z"/>
    <path class="cls-1" d="M54,69.48v-15.52l4.93-2.9c1.85-1.09,2.99-3.08,2.99-5.22v-11.63s-2.66.1-2.66.1c-8.5.31-15.28,7.24-15.32,15.74,0,.12,0,.25,0,.38,0,12.65,10.07,19.06,10.07,19.06Z"/>
  </g>
  <g>
    <path class="cls-2" d="M59.89,95.27h8.81c1.59,0,2.88,1.29,2.88,2.88v23.05h-11.69v-25.93h0Z" transform="translate(-50.87 58.85) rotate(-35.77)"/>
    <path class="cls-2" d="M88.55,95.28h11.69v23.05c0,1.59-1.29,2.88-2.88,2.88h-8.81v-25.93h0Z" transform="translate(107.7 251.24) rotate(-144.23)"/>
  </g>
  <g>
    <path class="cls-3" d="M85.09,42.7c1.1,0,2-.9,2-2s-.9-2-2-2h-10.05c-1.1,0-2,.9-2,2s.9,2,2,2h10.05Z"/>
    <path class="cls-3" d="M69,48.61c0,1.1.9,2,2,2h18.13c1.1,0,2-.9,2-2s-.9-2-2-2h-18.13c-1.1,0-2,.9-2,2Z"/>
    <path class="cls-3" d="M56,53.95c0-1.1-.9-2-2-2s-2,.9-2,2v15.52c0,1.1.9,2,2,2s2-.9,2-2v-15.52Z"/>
    <path class="cls-3" d="M45.93,50.41v-.37c.01-2.08.47-4.08,1.38-5.94.48-.99.07-2.19-.92-2.67-.99-.49-2.19-.07-2.67.92-1.17,2.4-1.77,4.99-1.78,7.68v.38c0,3.82.85,7.49,2.53,10.89.35.71,1.06,1.12,1.8,1.12.3,0,.6-.07.88-.21.99-.49,1.4-1.69.91-2.68-1.4-2.84-2.12-5.91-2.12-9.12Z"/>
    <path class="cls-3" d="M59.32,36.29l2.66-.1c.05,0,.1-.02.16-.02.06,0,.13-.01.19-.03.07-.01.14-.04.2-.06.06-.02.11-.03.16-.06.07-.03.13-.06.19-.1.05-.03.1-.05.14-.08.07-.04.12-.09.18-.15.03-.02.06-.04.09-.07,4.52-4.38,10.47-6.79,16.76-6.79,3.07,0,6.06.57,8.88,1.69,1.03.41,2.19-.1,2.6-1.12.41-1.03-.09-2.19-1.12-2.6-3.3-1.31-6.79-1.98-10.36-1.98-7.07,0-13.77,2.62-18.97,7.39l-1.92.07c-3.23.12-6.37,1.11-9.08,2.85-.93.6-1.19,1.84-.59,2.76.38.59,1.03.92,1.68.92.37,0,.75-.1,1.08-.32,2.1-1.36,4.54-2.12,7.05-2.22Z"/>
    <path class="cls-3" d="M105.4,37.25c5.32,2.09,8.77,7.12,8.8,12.79v.38c0,2.7-.51,5.31-1.51,7.76-.42,1.02.08,2.19,1.1,2.61.25.1.5.15.75.15.79,0,1.54-.47,1.85-1.25,1.2-2.93,1.8-6.05,1.8-9.27v-.39c-.04-7.33-4.49-13.81-11.33-16.5-1.03-.41-2.19.1-2.59,1.13-.4,1.03.1,2.19,1.13,2.59Z"/>
    <path class="cls-3" d="M100.19,52.77l3.95,2.32v14.38c0,13.27-10.8,24.07-24.07,24.07-8.67,0-16.71-4.7-20.98-12.27-.54-.96-1.76-1.3-2.72-.76-.96.54-1.3,1.76-.76,2.72,4.97,8.82,14.35,14.3,24.47,14.3,15.48,0,28.07-12.59,28.07-28.07v-15.52c0-.71-.38-1.36-.99-1.72l-4.93-2.9c-1.23-.73-2-2.07-2-3.5v-11.63c0-1.1-.9-2-2-2s-2,.9-2,2v11.63c0,2.84,1.52,5.51,3.97,6.95Z"/>
    <path class="cls-3" d="M107.1,98.72c-.68-.03-1.3.29-1.7.83l-14.29,19.84-6.24-4.49,8.7-12.07c.65-.9.44-2.15-.45-2.79-.9-.65-2.15-.44-2.79.45l-9.26,12.86h-1.96l-9.26-12.86c-.65-.9-1.89-1.1-2.79-.45-.9.65-1.1,1.9-.45,2.79l8.69,12.07-6.24,4.5-13.99-19.42c-.65-.9-1.89-1.1-2.79-.45-.9.65-1.1,1.9-.45,2.79l15.16,21.04c.31.43.78.72,1.3.81.11.02.21.03.32.03.42,0,.83-.13,1.17-.38l8.96-6.46h2.71l8.96,6.46c.35.25.76.38,1.17.38.62,0,1.23-.29,1.62-.83l14.82-20.57c7.48.51,14.36,4.15,18.99,10.11.39.51.98.77,1.58.77.43,0,.86-.14,1.23-.42.87-.68,1.03-1.93.35-2.81-5.58-7.18-13.98-11.45-23.05-11.71Z"/>
    <path class="cls-3" d="M136.17,124.04l-.46-1.96c-.3-1.26-.68-2.51-1.13-3.72-.39-1.03-1.54-1.55-2.58-1.17-1.03.39-1.56,1.54-1.17,2.58.39,1.04.72,2.13.98,3.23l.46,1.95c.22.92,1.04,1.54,1.95,1.54.15,0,.31-.02.46-.05,1.08-.25,1.74-1.33,1.49-2.4Z"/>
    <path class="cls-3" d="M43.32,100.62c-9.51,3.55-16.58,11.58-18.9,21.46-.25,1.08.41,2.15,1.49,2.41.15.04.31.05.46.05.91,0,1.73-.62,1.95-1.54,2.02-8.58,8.15-15.55,16.41-18.63,1.04-.39,1.56-1.54,1.17-2.57-.39-1.03-1.54-1.56-2.57-1.17Z"/>
  </g>
</svg>