<?xml version="1.0" encoding="UTF-8"?>
<svg id="Pictograms" xmlns="http://www.w3.org/2000/svg" viewBox="0 0 160 160">
  <defs>
    <style>
      .cls-1 {
        fill: #adedff;
      }

      .cls-2 {
        fill: #2954ff;
      }

      .cls-3 {
        fill: #0e0a7f;
      }

      .cls-4 {
        fill: #00c8ff;
      }
    </style>
  </defs>
  <polyline class="cls-2" points="89.41 50.12 72.74 48.55 82.59 60.05"/>
  <path class="cls-1" d="M132.06,128.78c0,3.72-.22,13.67-.22,13.67l-13.3-.2H53.99c-2.2,0-6.34-.16-9.36-.29-2.06-.09-3.71-1.72-3.82-3.78-.16-3.02-.35-7.18-.35-9.4v-42.56c0-1.43,1.16-2.59,2.59-2.59h85.01c2.21,0,4,1.79,4,4v7.55s0,33.6,0,33.6"/>
  <path class="cls-3" d="M132.07,120.84c-1.1,0-2-.9-2-2v-4.93c0-1.1.9-2,2-2s2,.9,2,2v4.93c0,1.1-.9,2-2,2Z"/>
  <path class="cls-3" d="M86.27,124.13c-.32,0-.65-.08-.95-.24l-30.03-16.1c-.97-.52-1.34-1.73-.82-2.71.52-.97,1.73-1.34,2.71-.82l29.02,15.56,25.23-15.44c.95-.58,2.17-.28,2.75.66.58.94.28,2.17-.66,2.75l-26.21,16.03c-.32.2-.68.29-1.04.29Z"/>
  <path class="cls-3" d="M56.37,130.19c-.59,0-1.18-.26-1.58-.77-.68-.87-.53-2.13.34-2.81l16.61-12.99c.87-.68,2.13-.53,2.81.34.68.87.53,2.13-.34,2.81l-16.61,12.99c-.37.29-.8.42-1.23.42Z"/>
  <path class="cls-3" d="M115.92,130.19c-.43,0-.87-.14-1.23-.42l-16.61-12.99c-.87-.68-1.02-1.94-.34-2.81.68-.87,1.94-1.02,2.81-.34l16.61,12.99c.87.68,1.02,1.94.34,2.81-.39.5-.98.77-1.58.77Z"/>
  <path class="cls-2" d="M105.43,54.21l-7.59-7.59c-3.91-3.91-10.24-3.91-14.15,0l-.27.27c-3.91,3.91-3.91,10.24,0,14.15l4.42,4.42c-2.29,3.45-3.47,7.69-3.02,12.23.86,8.7,7.84,15.77,16.53,16.72,11.29,1.24,20.85-7.58,20.85-18.62,0-7.22-4.09-13.49-10.08-16.61-2.48-1.29-4.72-3-6.69-4.97Z"/>
  <path class="cls-3" d="M106.08,95c-8.43,0-14.69-2.27-18.65-6.78-5.88-6.7-4.27-15.71-4.2-16.09.2-1.08,1.24-1.8,2.33-1.6,1.08.2,1.8,1.25,1.6,2.33-.01.08-1.3,7.54,3.3,12.75,3.54,4.01,9.68,5.8,18.25,5.31,1.09-.05,2.05.78,2.11,1.88.06,1.1-.78,2.05-1.88,2.11-.98.05-1.93.08-2.85.08Z"/>
  <path class="cls-3" d="M83.44,62.7c-.52,0-1.05-.21-1.44-.61l-11.88-12.36c-.58-.6-.72-1.5-.36-2.25.36-.75,1.15-1.2,1.99-1.12l9.21.87.55-.66c2.35-2.82,5.8-4.44,9.48-4.44,3.29,0,6.38,1.28,8.71,3.6l5.54,5.52c.78.78.78,2.05,0,2.83s-2.05.78-2.83,0l-5.54-5.52c-1.57-1.57-3.66-2.43-5.88-2.43-2.48,0-4.82,1.09-6.4,3l-1.22,1.47c-.42.51-1.05.77-1.73.71l-4.9-.46,8.15,8.48c.77.8.74,2.06-.06,2.83-.39.37-.89.56-1.39.56Z"/>
  <path class="cls-3" d="M129.09,101.93c-1.06,0-2.17-.27-3.23-.81-2.95-1.51-6.14-5.58-6.29-12.47-.04-1.69-.06-3.69-.08-5.69-1.51-.61-2.96-1.1-4.22-1.49-.86-.27-1.72-.53-2.56-.8-7.84-2.47-14.45-8.09-18.14-15.42-.5-.99-.1-2.19.89-2.69.99-.5,2.19-.1,2.69.89,3.21,6.37,8.95,11.26,15.77,13.4.84.26,1.69.53,2.54.8.98.31,2,.64,3.01,1.02-.01-3.09,0-5.46,0-5.51,0-1.1.9-2,2-2h0c1.1,0,2,.9,2,2,0,.06,0,3.31.02,7.17,5.84,2.75,11.02,6.81,11.65,12.66.53,4.9-1.51,7.09-2.77,7.96-.96.66-2.08.99-3.26.99ZM123.52,84.83c.01,1.33.03,2.61.06,3.74.11,5.13,2.2,8.01,4.12,8.99.92.47,1.79.5,2.4.09.89-.61,1.28-2.19,1.06-4.23-.39-3.66-3.77-6.51-7.64-8.59Z"/>
  <circle class="cls-1" cx="90.74" cy="51.43" r="2.5"/>
  <path class="cls-2" d="M80.51,11.76h0c1.17-2.16,4.47-1.09,4.15,1.35h0c-.23,1.75,1.57,3.05,3.16,2.29h0c2.22-1.06,4.26,1.75,2.57,3.53h0c-1.21,1.28-.53,3.39,1.21,3.71h0c2.42.45,2.42,3.92,0,4.37h0c-1.73.32-2.42,2.43-1.21,3.71h0c1.69,1.79-.34,4.59-2.57,3.53h0c-1.59-.76-3.39.55-3.16,2.29h0c.32,2.44-2.98,3.51-4.15,1.35h0c-.84-1.55-3.06-1.55-3.9,0h0c-1.17,2.16-4.47,1.09-4.15-1.35h0c.23-1.75-1.57-3.05-3.16-2.29h0c-2.22,1.06-4.26-1.75-2.57-3.53h0c1.21-1.28.53-3.39-1.21-3.71h0c-2.42-.45-2.42-3.92,0-4.37h0c1.73-.32,2.42-2.43,1.21-3.71h0c-1.69-1.79.34-4.59,2.57-3.53h0c1.59.76,3.39-.55,3.16-2.29h0c-.32-2.44,2.98-3.51,4.15-1.35h0c.84,1.55,3.06,1.55,3.9,0Z"/>
  <path class="cls-3" d="M40.47,111.4c-1.1,0-2-.9-2-2v-21.86c0-3.3,2.69-5.99,6-5.99h13.04c1.1,0,2,.9,2,2s-.9,2-2,2h-13.04c-1.1,0-2,.89-2,1.99v21.86c0,1.1-.9,2-2,2Z"/>
  <path class="cls-3" d="M118.81,67.09c-.57,0-1.13-.24-1.52-.7-.05-.06-2.07-2.4-4.97-4.31-.92-.61-1.18-1.85-.57-2.77.61-.92,1.85-1.18,2.77-.57,3.42,2.26,5.72,4.95,5.82,5.06.71.84.61,2.1-.23,2.82-.38.32-.84.48-1.29.48Z"/>
  <path class="cls-3" d="M128.07,143.99H44.47c-3.31,0-6-2.69-6-5.99v-11.04c0-1.1.9-2,2-2s2,.9,2,2v11.04c0,1.1.9,1.99,2,1.99h83.6c1.1,0,2-.89,2-1.99v-9.44c0-1.1.9-2,2-2s2,.9,2,2v9.44c0,3.3-2.69,5.99-6,5.99Z"/>
  <rect class="cls-4" x="17.59" y="41.4" width="45" height="30" transform="translate(-17.79 18.47) rotate(-21.36)"/>
  <polyline class="cls-4" points="51.39 64.08 70.53 72.46 62.07 50.83"/>
  <path class="cls-3" d="M20.62,70.41c-.8,0-1.55-.48-1.86-1.27l-6.95-17.78c-.4-1.03.11-2.19,1.13-2.59l9.53-3.73c1.03-.4,2.19.11,2.59,1.13.4,1.03-.11,2.19-1.13,2.59l-7.67,3,6.22,15.92c.4,1.03-.11,2.19-1.13,2.59-.24.09-.49.14-.73.14Z"/>
  <path class="cls-3" d="M61.04,50.21c-.8,0-1.55-.48-1.86-1.27l-4.74-12.11-7.03,2.75c-1.03.4-2.19-.11-2.59-1.13-.4-1.03.11-2.19,1.13-2.59l8.89-3.48c1.03-.4,2.19.11,2.59,1.13l5.46,13.97c.4,1.03-.11,2.19-1.13,2.59-.24.09-.49.14-.73.14Z"/>
  <circle class="cls-2" cx="29.1" cy="59.87" r="4.5"/>
  <circle class="cls-2" cx="40.15" cy="55.55" r="4.5"/>
  <circle class="cls-2" cx="51.2" cy="51.23" r="4.5"/>
  <path class="cls-3" d="M68.08,74.89c-.71,0-1.43-.21-2.06-.63l-8.63-5.78c-.74-.49-1.67-.59-2.49-.26l-4.21,1.65c-1.03.4-2.19-.1-2.59-1.13-.4-1.03.1-2.19,1.13-2.59l4.2-1.65c2.04-.81,4.36-.57,6.19.66l7.8,5.23-3.22-8.02c-.41-1.03.09-2.19,1.11-2.6,1.03-.41,2.19.09,2.6,1.11l3.59,8.96c.6,1.51.16,3.21-1.1,4.23-.68.55-1.5.83-2.32.83Z"/>
  <path class="cls-3" d="M37.89,74.74c-.8,0-1.55-.48-1.86-1.27-.4-1.03.1-2.19,1.13-2.59l4.37-1.71c1.03-.41,2.19.1,2.59,1.13.4,1.03-.1,2.19-1.13,2.59l-4.37,1.71c-.24.09-.49.14-.73.14Z"/>
</svg>