<?xml version="1.0" encoding="UTF-8"?>
<svg id="Pictograms" xmlns="http://www.w3.org/2000/svg" viewBox="0 0 160 160">
  <defs>
    <style>
      .cls-1 {
        fill: #adedff;
      }

      .cls-2 {
        fill: #2954ff;
      }

      .cls-3 {
        fill: #0e0a7f;
      }

      .cls-4 {
        fill: #00c8ff;
      }
    </style>
  </defs>
  <path class="cls-1" d="M99.52,34.7h-6.92c-1.1-10.9-10.29-19.42-21.5-19.42-9.27,0-17.15,5.85-20.22,14.05h-2.77c-8.34,0-15.1,6.77-15.1,15.11,0,7.53,5.52,13.75,12.72,14.89l1.04-7.57h16.54l1.07,7.77h35.14c6.86,0,12.42-5.56,12.42-12.42s-5.56-12.42-12.42-12.42Z"/>
  <path class="cls-4" d="M35.94,77.74h42.22v62.39H31.94v-58.39c0-2.21,1.79-4,4-4Z"/>
  <polygon class="cls-2" points="46.79 51.76 48.15 41.78 61.95 41.78 63.32 51.76 46.79 51.76"/>
  <g>
    <path class="cls-3" d="M39.7,34.66c2.35-1.95,5.32-3.02,8.37-3.02h2.76c.83,0,1.58-.52,1.87-1.3,2.85-7.63,10.23-12.75,18.35-12.75,9.37,0,17.25,6.52,19.16,15.47-5.32.86-10.72,2.94-12.9,8.2-1.32,3.19-.65,6.34,1.79,8.44,2.71,2.33,6.8,2.61,9.96.69,5.25-3.18,5.73-8.93,5.61-13.81.48-.04.98-.06,1.49-.09.07,0,7.22-.24,11.18,3.57,1.76,1.69,2.62,3.91,2.62,6.78,0,5.74-4.67,10.42-10.42,10.42h-5.84c-1.1,0-2,.9-2,2s.9,2,2,2h5.84c7.95,0,14.42-6.47,14.42-14.42,0-3.97-1.3-7.23-3.86-9.68-5.2-4.98-13.74-4.68-14.1-4.66-.57.03-1.17.07-1.77.11-2.14-10.99-11.74-19.03-23.16-19.03-9.31,0-17.8,5.59-21.56,14.05h-1.42c-3.98,0-7.86,1.4-10.92,3.94-.85.71-.97,1.97-.26,2.82.71.85,1.97.97,2.82.26ZM86.99,46.97c-1.9,1.15-4.09.71-5.28-.31-.78-.67-1.53-1.88-.7-3.87,1.22-2.94,4.4-4.83,9.67-5.74.05,5.17-.69,8.11-3.68,9.92Z"/>
    <path class="cls-3" d="M99.48,138.13h-9.44c-1.1,0-2,.9-2,2s.9,2,2,2h9.44c1.1,0,2-.9,2-2s-.9-2-2-2Z"/>
    <rect class="cls-3" x="87.49" y="111.86" width="9.68" height="11.9" rx="2" ry="2"/>
    <rect class="cls-3" x="102.77" y="111.86" width="9.68" height="11.9" rx="2" ry="2"/>
    <rect class="cls-3" x="118.05" y="111.86" width="9.68" height="11.9" rx="2" ry="2"/>
    <path class="cls-3" d="M68.59,89.2h-27.08c-1.1,0-2,.9-2,2s.9,2,2,2h27.08c1.1,0,2-.9,2-2s-.9-2-2-2Z"/>
    <path class="cls-3" d="M68.59,98.39h-27.08c-1.1,0-2,.9-2,2s.9,2,2,2h27.08c1.1,0,2-.9,2-2s-.9-2-2-2Z"/>
    <path class="cls-3" d="M68.59,107.59h-27.08c-1.1,0-2,.9-2,2s.9,2,2,2h27.08c1.1,0,2-.9,2-2s-.9-2-2-2Z"/>
    <path class="cls-3" d="M138.19,76.36c-.65-.35-1.44-.31-2.05.1l-26.43,17.66v-16c0-.74-.41-1.42-1.06-1.76-.65-.35-1.44-.31-2.05.1l-29.54,19.74c-.54.37-.88,1.01-.89,1.66v40.26h-42.22v-13.26c0-1.1-.9-2-2-2s-2,.9-2,2v13.26h-4.56c-1.1,0-2,.9-2,2s.9,2,2,2h52.78c1.1,0,2-.9,2-2v-41.19l25.54-17.07v15.99c-.04,1.55,1.84,2.56,3.11,1.67l26.43-17.66v56.26h-24.66c-1.1,0-2,.9-2,2s.9,2,2,2h26.66c1.1,0,2-.9,2-2v-62c0-.74-.41-1.42-1.06-1.76Z"/>
    <path class="cls-3" d="M78.16,88.08c1.1,0,2-.9,2-2v-8.35c0-1.1-.9-2-2-2h-9.53l-4.7-34.23c-.14-.99-.98-1.73-1.98-1.73h-13.8c-1,0-1.85.74-1.98,1.73l-4.94,35.95c-.17,1.16.8,2.29,1.98,2.27h32.94v6.35c0,1.1.9,2,2,2ZM49.9,43.78h10.31l.82,5.98h-11.95l.82-5.98ZM45.51,75.74l3.02-21.97h13.05l3.02,21.97h-19.08Z"/>
  </g>
</svg>