<?xml version="1.0" encoding="UTF-8"?>
<svg id="Pictograms" xmlns="http://www.w3.org/2000/svg" viewBox="0 0 160 160">
  <defs>
    <style>
      .cls-1 {
        fill: #adedff;
      }

      .cls-2 {
        fill: #2954ff;
      }

      .cls-3 {
        fill: #0e0a7f;
      }

      .cls-4 {
        fill: #00c8ff;
      }
    </style>
  </defs>
  <path class="cls-1" d="M61.66,115h2.11v-7.36c-3.49-2.51-5.76-6.61-5.76-11.23v-3.84c0-7.47,5.75-13.9,13.22-14.22,5.52-.24,10.37,2.75,12.8,7.25l.44-3.71,7.2-2.86-3.94-6.19c-3.86-5.81-8.93-9.58-16.32-9.58h-4.96c0,4.66-3.78,8.43-8.43,8.43h0c-4.66,0-8.43-3.78-8.43-8.43h-2.82c-10.78,0-19.87,8-21.25,18.69l-3.76,29.19c-.77,5.98,3.89,11.28,9.92,11.28h17.79c2.33-4.47,6.98-7.41,12.2-7.41Z"/>
  <g>
    <path class="cls-4" d="M122.92,49.33v-.27c0-9.27-7.51-16.78-16.78-16.78-3.83,0-7.35,1.3-10.17,3.46l4.23,5.43s6,11.34,22.72,8.17Z"/>
    <path class="cls-2" d="M97.84,132.26l-1.6-6.7c-1.48-6.19-7.02-10.56-13.38-10.56h-2.11c0,4.66-3.78,8.43-8.43,8.43h0c-4.66,0-8.43-3.78-8.43-8.43h-2.11c-6.37,0-11.91,4.37-13.38,10.56l-2.06,8.63c-.96,4.04,2.1,7.92,6.25,7.92h37.49c5.17,0,8.98-4.83,7.78-9.86Z"/>
    <g>
      <path class="cls-3" d="M98.18,125.1c-1.7-7.12-8-12.1-15.33-12.1h-2.11c-1.1,0-2,.9-2,2,0,3.55-2.89,6.43-6.43,6.43s-6.43-2.89-6.43-6.43c0-1.1-.9-2-2-2h-2.11c-7.32,0-13.63,4.98-15.33,12.1l-2.06,8.64c-.6,2.53-.03,5.14,1.58,7.18,1.61,2.04,4.02,3.21,6.62,3.21h11.3c1.1,0,2-.9,2-2s-.9-2-2-2h-11.3c-1.36,0-2.63-.61-3.48-1.68-.85-1.07-1.15-2.45-.83-3.77l2.06-8.63c1.27-5.32,5.97-9.03,11.44-9.03h.31c.94,4.8,5.17,8.43,10.24,8.43s9.3-3.63,10.24-8.43h.31c5.47,0,10.17,3.71,11.44,9.03l2.06,8.63c.22.92,1.04,1.54,1.94,1.54.15,0,.31-.02.47-.05,1.07-.26,1.74-1.33,1.48-2.41l-2.06-8.63Z"/>
      <path class="cls-3" d="M47.68,55.38v7.87c0,5.75,4.68,10.43,10.43,10.43,5.07,0,9.31-3.63,10.24-8.43h3.15c5.88,0,9.96,2.52,14.06,8.69.39.58,1.02.89,1.67.89.38,0,.77-.11,1.11-.33.92-.61,1.17-1.85.56-2.77-3.24-4.88-8.15-10.47-17.39-10.47h-4.96c-1.1,0-2,.9-2,2,0,3.55-2.89,6.43-6.43,6.43s-6.43-2.89-6.43-6.43v-5.8c1,.36,2.03.64,3.08.83,1.1.2,2.23.3,3.35.3,10.36,0,18.78-8.42,18.78-18.78v-5.13c0-10.36-8.42-18.78-18.78-18.78s-18.68,8.33-18.77,18.61c-.09.93.54,1.83,1.43,2.1.19.05,1.92.53,4.53.53,4.64,0,12.06-1.5,18.58-9.55.7-.86.56-2.12-.29-2.81-.86-.69-2.12-.56-2.81.29-6.62,8.16-14.16,8.34-17.35,7.97.82-7.38,7.09-13.14,14.68-13.14,8.15,0,14.78,6.63,14.78,14.78v5.13c0,8.15-6.63,14.78-14.78,14.78-.89,0-1.78-.08-2.64-.24-1.67-.3-3.26-.88-4.73-1.73-.95-.55-1.84-1.2-2.65-1.95-.65-.6-1.25-1.27-1.79-1.98-1.26-1.67-2.13-3.55-2.6-5.58-.25-1.08-1.32-1.75-2.4-1.5-1.08.25-1.75,1.32-1.5,2.4.59,2.58,1.7,4.97,3.3,7.09.68.9,1.44,1.75,2.27,2.51.71.66,1.49,1.24,2.3,1.78Z"/>
      <path class="cls-3" d="M39.84,62.32c-1.12.35-2.23.8-3.29,1.32-7.08,3.48-11.91,10.22-12.92,18.04l-2.39,18.56c-.14,1.1.63,2.1,1.73,2.24.09.01.17.02.26.02.99,0,1.85-.74,1.98-1.74l2.39-18.56c.84-6.49,4.84-12.08,10.72-14.96.88-.43,1.8-.8,2.73-1.09,1.05-.33,1.64-1.45,1.31-2.51-.33-1.05-1.45-1.64-2.51-1.31Z"/>
      <path class="cls-3" d="M115.63,127.25h-6.02c-1.1,0-2,.9-2,2s.9,2,2,2h6.02c1.1,0,2-.9,2-2s-.9-2-2-2Z"/>
      <path class="cls-3" d="M140.3,96.97c-.37-5.67-3.18-11.03-7.71-14.72-4.92-4-11.53-6.05-18.14-5.65-1.03.06-1.88.96-1.88,2,0,3.55-2.89,6.43-6.43,6.43s-6.43-2.89-6.43-6.43v-6.8c2.01.74,4.17,1.16,6.43,1.16,1.12,0,2.25-.1,3.35-.3,2.12-.38,4.14-1.12,6.01-2.2,1.2-.69,2.34-1.53,3.36-2.47.83-.76,1.59-1.61,2.27-2.51,1.6-2.12,2.71-4.51,3.3-7.09.25-1.08-.43-2.15-1.5-2.4-1.08-.25-2.15.43-2.4,1.5-.46,2.03-1.34,3.91-2.6,5.58-.54.71-1.14,1.38-1.79,1.98-.81.75-1.7,1.4-2.65,1.95-1.47.85-3.06,1.43-4.72,1.73-.87.16-1.76.24-2.65.24-8.15,0-14.78-6.63-14.78-14.78v-5.13c0-8.15,6.63-14.78,14.78-14.78,7.67,0,13.99,5.87,14.71,13.35-10.72,1.43-16.16-3.78-18.05-6.19-.68-.87-1.94-1.02-2.81-.34-.87.68-1.02,1.94-.34,2.81,2.06,2.62,7.5,7.98,17.59,7.98,1.86,0,3.87-.18,6.05-.6,1.01-.19,1.68-1.1,1.61-2.1,0-.05.01-.09.01-.14,0-10.36-8.42-18.78-18.78-18.78s-18.78,8.42-18.78,18.78v5.13c0,6.5,3.32,12.23,8.35,15.6v6.82c-4.61.05-9.06,1.43-12.87,4.01-.01,0-.02.02-.03.03-2.84-2.67-6.65-4.32-10.84-4.32-8.73,0-15.84,7.11-15.84,15.84,0,.82.54,1.58,1.31,1.88,1.46.54,3.52.98,5.81.98,4.28,0,9.33-1.55,12.58-6.92.57-.95.27-2.17-.68-2.75-.95-.57-2.18-.27-2.75.68-3.48,5.75-9.45,5.24-12.17,4.65.74-5.83,5.71-10.35,11.74-10.35,6.53,0,11.84,5.31,11.84,11.84v4.23c0,6.53-5.31,11.84-11.84,11.84-4.54,0-8.74-2.65-10.7-6.76-.48-1-1.67-1.42-2.67-.95-1,.47-1.42,1.67-.95,2.67,2.61,5.49,8.23,9.04,14.31,9.04,8.73,0,15.84-7.11,15.84-15.84v-4.23c0-3.09-.9-5.97-2.44-8.41,3.14-2.05,6.77-3.14,10.54-3.16.94,4.8,5.17,8.43,10.24,8.43s9.32-3.65,10.24-8.46c5.04.06,9.96,1.75,13.69,4.78,3.67,2.98,5.95,7.31,6.24,11.87.14,2.16-.28,5.24-1.76,7.85-2.32-3.62-5.87-6.29-10.49-6.82-4.44-.5-8.07.82-9.97,3.65-1.47,2.19-1.57,4.9-.28,7.25,1.87,3.39,6.11,5.25,11.64,5.11,2.98-.08,5.57-.8,7.76-2.15.4,1.63.56,3.31.47,4.94-.13,2.37-1.25,10.09-9.94,10.09-1.1,0-2,.9-2,2s.9,2,2,2c7.99,0,13.46-5.44,13.94-13.86.15-2.7-.24-5.48-1.13-8.07,3.11-3.74,3.99-8.73,3.76-12.25ZM125.34,110.28c-3.93.1-6.92-1.03-8.03-3.04-.57-1.03-.53-2.16.1-3.1.85-1.28,2.62-1.98,4.86-1.98.43,0,.87.03,1.33.08,3.66.42,6.44,2.85,8.15,6.04-1.72,1.26-3.87,1.93-6.41,2Z"/>
    </g>
  </g>
</svg>