<?xml version="1.0" encoding="UTF-8"?>
<svg id="Pictograms" xmlns="http://www.w3.org/2000/svg" viewBox="0 0 160 160">
  <defs>
    <style>
      .cls-1 {
        fill: #adedff;
      }

      .cls-2 {
        fill: #2954ff;
      }

      .cls-3 {
        fill: #ffffff;
      }

      .cls-4 {
        fill: #00c8ff;
      }
    </style>
  </defs>
  <path class="cls-1" d="M60.87,115h2.11v-7.36c-3.49-2.51-5.76-6.61-5.76-11.23v-3.84c0-7.47,5.75-13.9,13.22-14.22,5.52-.24,10.37,2.75,12.8,7.25l.91-3.08,2.79-2.21v-7.47c-3.86-5.81-8.93-9.58-16.32-9.58h-4.96c0,4.66-3.78,8.43-8.43,8.43h0c-4.66,0-8.43-3.78-8.43-8.43h-2.82c-10.78,0-19.87,8-21.25,18.69l-3.76,29.19c-.77,5.98,3.89,11.28,9.92,11.28h17.79c2.33-4.47,6.98-7.41,12.2-7.41Z"/>
  <g>
    <path class="cls-4" d="M113.68,68.75v9.78c2.83,0,5.47.36,7.87,1v-21.42c-1.09,4.55-3.92,8.37-7.87,10.64Z"/>
    <path class="cls-4" d="M88.52,54.18h-2.05s0,26.17,0,26.17c2.66-1.18,5.58-1.84,8.65-1.84h1.75v-9.85c-4.41-2.57-7.3-9.2-8.35-14.49Z"/>
    <path class="cls-4" d="M122.03,49.33v-.27c0-9.27-7.51-16.78-16.78-16.78-3.83,0-7.35,1.3-10.17,3.46l4.23,5.43s6,11.34,22.72,8.17Z"/>
    <path class="cls-2" d="M96.95,132.26l-1.6-6.7c-1.48-6.19-7.02-10.56-13.38-10.56h-2.11c0,4.66-3.78,8.43-8.43,8.43h0c-4.66,0-8.43-3.78-8.43-8.43h-2.11c-6.37,0-11.91,4.37-13.38,10.56l-2.06,8.63c-.96,4.04,2.1,7.92,6.25,7.92h37.49c5.17,0,8.98-4.83,7.78-9.86Z"/>
    <g>
      <path class="cls-3" d="M97.29,125.1c-1.7-7.12-8-12.1-15.33-12.1h-2.11c-1.1,0-2,.9-2,2,0,3.55-2.89,6.43-6.43,6.43s-6.43-2.89-6.43-6.43c0-1.1-.9-2-2-2h-2.11c-7.32,0-13.63,4.98-15.33,12.1l-2.06,8.64c-.6,2.53-.03,5.14,1.58,7.18,1.61,2.04,4.02,3.21,6.61,3.21h11.31c1.1,0,2-.9,2-2s-.9-2-2-2h-11.31c-1.36,0-2.63-.61-3.48-1.68-.85-1.07-1.15-2.45-.83-3.77l2.06-8.63c1.27-5.32,5.97-9.03,11.44-9.03h.31c.94,4.8,5.17,8.43,10.24,8.43s9.3-3.63,10.24-8.43h.31c5.47,0,10.17,3.71,11.44,9.03l2.06,8.63c.22.92,1.04,1.54,1.94,1.54.15,0,.31-.02.47-.05,1.07-.26,1.74-1.33,1.48-2.41l-2.06-8.63Z"/>
      <path class="cls-3" d="M46.79,55.38v7.87c0,5.75,4.68,10.43,10.43,10.43,5.07,0,9.31-3.63,10.24-8.43h3.15c5.88,0,9.96,2.52,14.06,8.69.39.58,1.02.89,1.67.89.38,0,.76-.11,1.11-.33.92-.61,1.17-1.85.56-2.77-3.24-4.88-8.15-10.47-17.39-10.47h-4.96c-1.1,0-2,.9-2,2,0,3.55-2.89,6.43-6.43,6.43s-6.43-2.89-6.43-6.43v-5.8c1,.36,2.03.64,3.08.83,1.1.2,2.23.3,3.35.3,10.36,0,18.78-8.42,18.78-18.78v-5.13c0-10.36-8.42-18.78-18.78-18.78s-18.68,8.33-18.77,18.61c-.09.93.54,1.83,1.43,2.1.19.05,1.92.53,4.53.53,4.64,0,12.06-1.5,18.58-9.55.7-.86.56-2.12-.29-2.81-.86-.69-2.12-.56-2.81.29-6.62,8.16-14.16,8.34-17.35,7.97.82-7.38,7.09-13.14,14.68-13.14,8.15,0,14.78,6.63,14.78,14.78v5.13c0,8.15-6.63,14.78-14.78,14.78-.89,0-1.78-.08-2.64-.24-1.67-.3-3.26-.88-4.72-1.73-.95-.55-1.84-1.2-2.65-1.95-.65-.6-1.25-1.27-1.79-1.98-1.26-1.67-2.13-3.55-2.6-5.58,0,0,0,0,0,0,0,0,0,0,0,0-.05-.22-.1-.45-.14-.68-.2-1.09-1.24-1.81-2.32-1.61-1.09.2-1.81,1.24-1.61,2.32.05.29.11.58.18.86,0,0,0,0,0,0s0,0,0,0c0,0,0,0,0,0,0,0,0,0,0,0,.59,2.58,1.7,4.97,3.3,7.09.68.9,1.44,1.75,2.27,2.51.71.66,1.49,1.24,2.3,1.78Z"/>
      <path class="cls-3" d="M141.23,116.91l-1.31-10.2c-.14-1.1-1.14-1.88-2.24-1.73-1.1.14-1.87,1.14-1.73,2.24l1.31,10.2c.32,2.48-.45,4.99-2.1,6.87-1.65,1.88-4.04,2.96-6.54,2.96h-6.05c-1.1,0-2,.9-2,2s.9,2,2,2h6.05c3.65,0,7.13-1.57,9.55-4.32,2.41-2.74,3.53-6.4,3.06-10.02Z"/>
      <path class="cls-3" d="M113.74,127.25h-6.02c-1.1,0-2,.9-2,2s.9,2,2,2h6.02c1.1,0,2-.9,2-2s-.9-2-2-2Z"/>
      <path class="cls-3" d="M38.95,62.32c-1.12.35-2.23.8-3.29,1.32-7.08,3.48-11.91,10.22-12.92,18.04l-2.39,18.56c-.14,1.1.63,2.1,1.73,2.24.09.01.17.02.26.02.99,0,1.85-.74,1.98-1.74l2.39-18.56c.84-6.49,4.84-12.08,10.72-14.96.88-.43,1.8-.8,2.73-1.09,1.05-.33,1.64-1.45,1.31-2.51-.33-1.05-1.46-1.64-2.51-1.31Z"/>
      <path class="cls-3" d="M125.51,99.37c1.37.82,2.84,1.22,4.27,1.22s2.92-.44,4.14-1.32c2.62-1.88,3.7-5.25,2.89-9.03-1.14-5.32-6.1-9.75-12.78-12.04v-29.15c0-10.36-8.43-18.78-18.79-18.78s-18.78,8.42-18.78,18.78v5.13c0,10.36,8.42,18.78,18.78,18.78,3.27,0,6.5-.86,9.32-2.47.96-.55,1.29-1.77.74-2.73-.55-.96-1.77-1.29-2.73-.74-2.22,1.27-4.76,1.95-7.34,1.95-8.15,0-14.78-6.63-14.78-14.78v-5.13c0-8.15,6.63-14.78,14.78-14.78,7.67,0,13.99,5.87,14.71,13.35-10.72,1.42-16.16-3.78-18.05-6.19-.68-.87-1.94-1.02-2.81-.34s-1.02,1.94-.34,2.81c2.06,2.62,7.5,7.98,17.59,7.98,1.16,0,2.39-.08,3.68-.24v25.48c-2.03-.4-4.16-.61-6.35-.61-1.1,0-2,.9-2,2,0,3.55-2.89,6.43-6.43,6.43s-6.43-2.89-6.43-6.43c0-1.1-.9-2-2-2h-1.75c-4.7,0-9.24,1.39-13.13,4.02-.03.02-.05.04-.08.06-2.83-2.65-6.62-4.28-10.8-4.28-8.73,0-15.84,7.11-15.84,15.84,0,.82.54,1.58,1.31,1.88,1.46.54,3.52.98,5.81.98,4.28,0,9.33-1.55,12.58-6.92.57-.95.27-2.17-.68-2.75-.94-.57-2.17-.27-2.75.68-3.48,5.75-9.45,5.24-12.17,4.65.74-5.83,5.71-10.35,11.74-10.35,6.53,0,11.84,5.31,11.84,11.84v4.23c0,6.53-5.31,11.84-11.84,11.84-4.54,0-8.74-2.65-10.7-6.76-.47-1-1.67-1.42-2.67-.95-1,.48-1.42,1.67-.95,2.67,2.61,5.49,8.23,9.04,14.31,9.04,8.73,0,15.84-7.11,15.84-15.84v-4.23c0-3.11-.92-6.01-2.47-8.47,3.15-2.06,6.79-3.17,10.57-3.18.94,4.8,5.17,8.43,10.24,8.43s9.27-3.61,10.23-8.38c1.62.09,3.16.31,4.6.64.18,8.19,1.09,15.56,5.44,18.15ZM132.9,91.08c.47,2.17-.02,4.02-1.31,4.94-1.1.79-2.61.75-4.04-.09-2.47-1.47-3.22-7.3-3.44-13.44,4.89,2.03,8.09,5.34,8.78,8.59Z"/>
    </g>
  </g>
</svg>