<?xml version="1.0" encoding="UTF-8"?>
<svg id="Pictograms" xmlns="http://www.w3.org/2000/svg" viewBox="0 0 160 160">
  <defs>
    <style>
      .cls-1 {
        fill: #adedff;
      }

      .cls-2 {
        fill: #2954ff;
      }

      .cls-3 {
        fill: #0e0a7f;
      }

      .cls-4 {
        fill: #00c8ff;
      }
    </style>
  </defs>
  <path class="cls-1" d="M55.93,117.62h5.71v-7.79c-4.05-2.72-6.73-7.33-6.73-12.57v-4.64c0-8.37,6.79-15.16,15.16-15.16h0c4.83,0,9.13,2.27,11.9,5.79,1.19-1.2,1.95-2.07,1.95-2.07l.12-.4,2.79-2.21v-7.47c-3.86-5.81-8.93-9.58-16.32-9.58h-4.96c0,4.66-3.78,8.43-8.43,8.43h0c-4.66,0-8.43-3.78-8.43-8.43h-2.82c-10.78,0-19.87,8-21.25,18.69l-3.76,29.19c-.77,5.98,3.89,11.28,9.92,11.28h16.81c2.28-1.91,5.2-3.05,8.35-3.05Z"/>
  <g>
    <g>
      <path class="cls-4" d="M113.57,67.01v9.78c2.83,0,5.47.36,7.87,1v-21.42c-1.09,4.55-3.92,8.37-7.87,10.64Z"/>
      <path class="cls-4" d="M88.41,52.44h-2.05s0,26.17,0,26.17c2.66-1.18,5.58-1.84,8.65-1.84h1.75v-9.85c-4.41-2.57-7.3-9.2-8.35-14.49Z"/>
      <path class="cls-4" d="M121.92,47.59v-.27c0-9.27-7.51-16.78-16.78-16.78-3.83,0-7.35,1.3-10.17,3.46l4.23,5.43s6,11.34,22.72,8.17Z"/>
    </g>
    <path class="cls-2" d="M98.68,135.23l-1.82-7.63c-1.4-5.85-6.63-9.98-12.64-9.98h-5.71c0,4.66-3.78,8.43-8.43,8.43h0c-4.66,0-8.43-3.78-8.43-8.43h-5.71c-6.02,0-11.25,4.13-12.64,9.98l-1.82,7.63c-1.05,4.4,2.28,8.63,6.81,8.63h43.61c4.52,0,7.86-4.23,6.81-8.63Z"/>
    <path class="cls-4" d="M55,90.99c.81-7.61,7.25-13.53,15.07-13.53,7.82,0,14.26,5.93,15.07,13.53h-30.14Z"/>
    <g>
      <path class="cls-3" d="M38.35,33.03c.03.84.64,1.57,1.43,1.81.19.05,1.92.53,4.53.53,4.64,0,12.06-1.51,18.58-9.55.7-.86.56-2.12-.29-2.81-.86-.69-2.12-.56-2.81.29-6.62,8.16-14.16,8.34-17.35,7.97.82-7.38,7.09-13.13,14.68-13.13,8.15,0,14.78,6.63,14.78,14.78v5.13c0,8.15-6.63,14.78-14.78,14.78-.89,0-1.78-.08-2.64-.24-1.66-.3-3.25-.88-4.72-1.73-.95-.55-1.84-1.2-2.65-1.95-.65-.6-1.26-1.27-1.79-1.98-1.26-1.67-2.13-3.55-2.6-5.58,0,0,0,0,0,0,0,0,0,0,0,0-.05-.22-.1-.45-.14-.68-.19-1.09-1.23-1.81-2.32-1.62-1.09.19-1.81,1.23-1.62,2.32.05.29.11.58.18.87,0,0,0,0,0,0s0,0,0,0,0,0,0,0c0,0,0,0,0,0,.59,2.58,1.7,4.96,3.3,7.09.68.9,1.44,1.74,2.27,2.51.71.66,1.49,1.24,2.3,1.78v7.87c0,5.75,4.68,10.43,10.43,10.43,5.07,0,9.31-3.63,10.24-8.43h3.15c3.12,0,5.76.75,8.08,2.28,2.09,1.38,3.99,3.42,5.98,6.41.38.58,1.02.89,1.67.89.38,0,.76-.11,1.11-.33.92-.61,1.17-1.85.56-2.77-2.29-3.45-4.55-5.84-7.1-7.53-3-1.98-6.36-2.94-10.29-2.94h-4.96c-1.1,0-2,.9-2,2,0,3.55-2.89,6.43-6.43,6.43s-6.43-2.89-6.43-6.43v-5.8c1,.36,2.03.64,3.08.83,1.1.2,2.23.3,3.35.3,10.36,0,18.78-8.42,18.78-18.78v-5.13c0-10.36-8.42-18.78-18.78-18.78s-18.68,8.33-18.77,18.61c0,.09-.01.19,0,.28Z"/>
      <path class="cls-3" d="M141.12,115.17l-1.31-10.2c-.14-1.1-1.16-1.87-2.24-1.73-1.1.14-1.87,1.14-1.73,2.24l1.31,10.2c.32,2.48-.45,4.99-2.1,6.87s-4.04,2.96-6.54,2.96h-6.05c-1.1,0-2,.9-2,2s.9,2,2,2h6.05c3.65,0,7.13-1.57,9.55-4.32s3.53-6.4,3.06-10.02Z"/>
      <path class="cls-3" d="M113.63,125.51h-6.02c-1.1,0-2,.9-2,2s.9,2,2,2h6.02c1.1,0,2-.9,2-2s-.9-2-2-2Z"/>
      <path class="cls-3" d="M41.35,61.89c-.33-1.05-1.45-1.64-2.51-1.31-1.12.35-2.23.79-3.29,1.32-7.08,3.48-11.91,10.22-12.92,18.04l-2.39,18.56c-.14,1.1.63,2.1,1.73,2.24.09.01.17.02.26.02.99,0,1.85-.74,1.98-1.74l2.39-18.56c.84-6.49,4.84-12.08,10.72-14.96.88-.43,1.8-.8,2.73-1.09,1.05-.33,1.64-1.45,1.31-2.51Z"/>
      <path class="cls-3" d="M125.4,97.63c1.37.82,2.84,1.22,4.27,1.22s2.92-.44,4.14-1.32c2.62-1.88,3.7-5.25,2.89-9.03-1.14-5.32-6.11-9.74-12.79-12.03v-29.16c0-10.36-8.42-18.78-18.78-18.78s-18.78,8.42-18.78,18.78v5.13c0,10.36,8.42,18.78,18.78,18.78,3.27,0,6.5-.86,9.32-2.47.96-.55,1.29-1.77.74-2.73-.55-.96-1.77-1.29-2.73-.74-2.22,1.27-4.76,1.95-7.34,1.95-8.15,0-14.78-6.63-14.78-14.78v-5.13c0-8.15,6.63-14.78,14.78-14.78,7.67,0,13.99,5.87,14.71,13.35-10.72,1.42-16.16-3.78-18.05-6.19-.68-.87-1.94-1.02-2.81-.34-.87.68-1.02,1.94-.34,2.81,2.06,2.62,7.5,7.98,17.59,7.98,1.16,0,2.39-.08,3.68-.24v25.49c-2.03-.4-4.16-.61-6.35-.61-1.1,0-2,.9-2,2,0,3.55-2.89,6.43-6.43,6.43s-6.43-2.89-6.43-6.43c0-1.1-.9-2-2-2h-1.75c-4.7,0-9.24,1.39-13.17,4.05l-.78.56c-2.98-2.47-6.8-3.95-10.93-3.95-1.1,0-2,.9-2,2s.9,2,2,2c5.95,0,11.06,3.98,12.64,9.54h-35.94c-1.1,0-2,.9-2,2s.9,2,2,2h6.13v4.27c0,9.46,7.7,17.16,17.16,17.16,6.58,0,12.67-3.84,15.5-9.79.47-1,.05-2.19-.95-2.67-.99-.47-2.19-.05-2.67.95-2.17,4.56-6.84,7.51-11.89,7.51-7.26,0-13.16-5.9-13.16-13.16v-4.27h28.23c1.1,0,2-.9,2-2,0-.09-.02-.19-.03-.28,0-.05,0-.09,0-.14-.37-3.09-1.55-5.91-3.32-8.25l.28-.2c3.2-2.17,6.95-3.32,10.82-3.33.94,4.8,5.17,8.43,10.24,8.43s9.27-3.61,10.23-8.38c1.62.09,3.16.31,4.6.64.21,9.14,1.31,15.69,5.44,18.15ZM132.79,89.34c.47,2.17-.02,4.02-1.31,4.94-1.1.79-2.61.75-4.04-.09-2.71-1.62-3.3-8.58-3.46-13.45,4.9,2.03,8.1,5.35,8.8,8.6Z"/>
      <path class="cls-3" d="M98.81,127.14c-1.62-6.78-7.62-11.52-14.59-11.52h-5.71c-1.1,0-2,.9-2,2,0,3.55-2.89,6.43-6.43,6.43s-6.43-2.89-6.43-6.43c0-1.1-.9-2-2-2h-5.71c-6.97,0-12.97,4.74-14.59,11.51l-1.82,7.63c-.64,2.7-.03,5.49,1.69,7.67,1.72,2.18,4.29,3.42,7.06,3.42h14.3c1.1,0,2-.9,2-2s-.9-2-2-2h-14.3c-1.54,0-2.97-.69-3.92-1.9s-1.3-2.76-.94-4.26l1.82-7.63c1.19-4.97,5.59-8.44,10.7-8.44h3.9c.94,4.8,5.17,8.43,10.24,8.43s9.31-3.63,10.24-8.43h3.9c5.11,0,9.51,3.47,10.7,8.45l1.4,5.86c.26,1.08,1.34,1.74,2.41,1.48,1.07-.26,1.74-1.33,1.48-2.41l-1.4-5.86Z"/>
    </g>
  </g>
</svg>