<?xml version="1.0" encoding="UTF-8"?>
<svg id="Pictograms" xmlns="http://www.w3.org/2000/svg" viewBox="0 0 160 160">
  <defs>
    <style>
      .cls-1 {
        fill: #adedff;
      }

      .cls-2 {
        fill: #2954ff;
      }

      .cls-3 {
        fill: #0e0a7f;
      }

      .cls-4 {
        fill: #00c8ff;
      }
    </style>
  </defs>
  <path class="cls-1" d="M70.81,107.65c-3.38-2.54-5.59-6.61-5.76-11.1v-4.24c0-3.54,1.34-6.76,3.53-9.21-2.19-1.67-4.81-2.63-7.59-2.63h-2.09c0,5.27-3.74,8.43-8.36,8.43h0c-4.62,0-8.36-3.16-8.36-8.43h-2.09c-6.32,0-11.81,4.94-13.27,11.95l-2.04,14.02c-.96,4.57,2.08,8.96,6.2,8.96h37.18c.95,0,1.84-.21,2.68-.55v-7.21Z"/>
  <path class="cls-4" d="M50.17,53.13c-4.67,8.93-13.72,5.06-13.72,5.06,0-7.58,6.15-13.73,13.73-13.73h0c7.58,0,13.73,6.15,13.73,13.73v2.06s-5.45.2-9.24-1.95-4.49-5.16-4.49-5.16Z"/>
  <path class="cls-2" d="M104.77,132.26l-1.6-6.7c-1.48-6.19-7.02-10.56-13.38-10.56h-2.11c0,4.66-3.78,8.43-8.43,8.43h0c-4.66,0-8.43-3.78-8.43-8.43h-2.11c-6.37,0-11.91,4.37-13.38,10.56l-2.06,8.63c-.96,4.04,2.1,7.92,6.25,7.92h37.49c5.17,0,8.98-4.83,7.78-9.86Z"/>
  <path class="cls-4" d="M119.77,34.94v-.27c0-9.27-7.51-16.78-16.78-16.78-3.83,0-7.35,1.3-10.17,3.46l4.23,5.43s6,11.34,22.72,8.17Z"/>
  <g>
    <path class="cls-3" d="M60.89,80.54c0-1.1-.9-2-2-2s-2,.9-2,2c0,3.51-2.85,6.36-6.36,6.36s-6.36-2.86-6.36-6.36c0-.01,0-.02,0-.03,0-.01,0-.02,0-.03,0-1.1-.9-2-2-2h-2.09c-7.27,0-13.53,4.94-15.22,12.01-.01.05-.02.09-.03.14l-2.04,12.29c-.18,1.09.55,2.12,1.64,2.3.11.02.22.03.33.03.96,0,1.81-.69,1.97-1.67l2.03-12.22c1.28-5.23,5.92-8.88,11.31-8.88h.28c.91,4.79,5.12,8.43,10.18,8.43,5.71,0,10.36-4.65,10.36-10.36Z"/>
    <path class="cls-3" d="M78.89,108.25c-4.54,0-8.74-2.65-10.7-6.76-.48-1-1.67-1.42-2.67-.95-1,.48-1.42,1.67-.95,2.67,2.61,5.49,8.23,9.04,14.31,9.04,8.73,0,15.84-7.11,15.84-15.84v-4.23c0-8.73-7.11-15.84-15.84-15.84s-15.84,7.11-15.84,15.84c0,.82.54,1.58,1.31,1.88,1.46.54,3.52.98,5.81.98,4.28,0,9.33-1.55,12.58-6.92.57-.95.27-2.17-.68-2.75-.95-.57-2.17-.27-2.75.68-3.48,5.75-9.45,5.24-12.17,4.65.74-5.83,5.71-10.35,11.74-10.35,6.53,0,11.84,5.31,11.84,11.84v4.23c0,6.53-5.31,11.84-11.84,11.84Z"/>
    <path class="cls-3" d="M33.13,73.48c.39,0,.79-.11,1.13-.35l2.86-1.97c2.89,4.29,7.8,6.95,13.05,6.95s10.22-2.77,13.05-6.96l2.87,1.98c.35.24.74.35,1.13.35.64,0,1.26-.3,1.65-.87.63-.91.4-2.16-.51-2.78l-3.35-2.3c.56-1.61.88-3.34.88-5.14v-4.2c0-8.67-7.05-15.73-15.73-15.73s-15.71,7.04-15.72,15.7c-.02.8.5,1.57,1.24,1.88,1.31.56,3.15,1.01,5.19,1.01,3.78,0,8.23-1.57,11.06-6.99.51-.98.13-2.19-.84-2.7-.98-.51-2.19-.14-2.7.84-2.85,5.45-7.55,5.12-9.86,4.56.71-5.79,5.65-10.3,11.63-10.3,6.47,0,11.73,5.26,11.73,11.73v4.2c0,6.47-5.26,11.73-11.73,11.73-4.5,0-8.66-2.63-10.59-6.69-.5-1.08-1.96-1.48-2.94-.79l-4.65,3.2c-.91.63-1.14,1.87-.51,2.78.39.56,1.01.87,1.65.87Z"/>
    <path class="cls-3" d="M105.11,125.1c-1.7-7.12-8-12.1-15.33-12.1h-2.11c-1.1,0-2,.9-2,2,0,3.55-2.89,6.43-6.43,6.43s-6.43-2.89-6.43-6.43c0-1.1-.9-2-2-2h-2.11c-7.32,0-13.63,4.98-15.33,12.1l-2.06,8.63c-.6,2.53-.03,5.14,1.58,7.18,1.61,2.04,4.02,3.21,6.62,3.21h11.31c1.1,0,2-.9,2-2s-.9-2-2-2h-11.31c-1.36,0-2.63-.61-3.48-1.68-.85-1.07-1.15-2.45-.83-3.77l2.06-8.63c1.27-5.32,5.97-9.03,11.44-9.03h.31c.94,4.8,5.17,8.43,10.24,8.43s9.3-3.63,10.24-8.43h.31c5.47,0,10.17,3.71,11.44,9.03l2.06,8.63c.22.92,1.04,1.54,1.94,1.54.15,0,.31-.02.47-.05,1.07-.26,1.74-1.33,1.48-2.41l-2.06-8.63Z"/>
    <path class="cls-3" d="M112.71,113.05h-6.02c-1.1,0-2,.9-2,2s.9,2,2,2h6.02c1.1,0,2-.9,2-2s-.9-2-2-2Z"/>
    <path class="cls-3" d="M137.39,82.78c-.37-5.67-3.18-11.03-7.71-14.72-4.92-4-11.54-6.06-18.14-5.65-1.03.06-1.88.96-1.88,2,0,3.55-2.89,6.43-6.43,6.43s-6.26-2.72-6.42-6.13c.03-.13.04-.26.04-.4v-6.8c1.93.67,3.99,1.06,6.15,1.06,1.13,0,2.25-.1,3.35-.3,2.12-.38,4.14-1.12,6.01-2.2,1.21-.7,2.34-1.53,3.36-2.47.83-.76,1.59-1.61,2.27-2.51,1.6-2.12,2.71-4.51,3.3-7.09.25-1.08-.43-2.15-1.5-2.4-1.07-.25-2.15.43-2.4,1.5-.46,2.03-1.34,3.91-2.6,5.58-.54.71-1.14,1.38-1.79,1.98-.81.75-1.7,1.4-2.65,1.95-1.47.85-3.06,1.43-4.73,1.73-.87.16-1.76.24-2.64.24-8.15,0-14.78-6.63-14.78-14.78v-5.13c0-8.15,6.63-14.78,14.78-14.78,7.67,0,13.99,5.87,14.71,13.35-10.72,1.43-16.16-3.78-18.05-6.19-.68-.87-1.94-1.02-2.81-.34-.87.68-1.02,1.94-.34,2.81,2.06,2.62,7.5,7.99,17.59,7.99,1.86,0,3.87-.18,6.05-.6,1-.19,1.68-1.1,1.61-2.1,0-.05.01-.09.01-.14,0-10.36-8.42-18.78-18.78-18.78s-18.78,8.42-18.78,18.78v5.13c0,6.61,3.45,12.43,8.63,15.78v6.83h-1.88c-6.18,0-11,2.38-15.19,7.47-.7.85-.58,2.11.28,2.82.85.7,2.11.58,2.81-.28,3.41-4.16,7.14-6.01,12.1-6.01h2.01c.94,4.8,5.17,8.43,10.24,8.43s9.32-3.65,10.24-8.46c5.04.06,9.96,1.75,13.69,4.78,3.67,2.98,5.95,7.31,6.24,11.87.14,2.16-.28,5.24-1.76,7.85-2.32-3.62-5.87-6.29-10.49-6.82-4.44-.5-8.07.83-9.97,3.65-1.47,2.19-1.57,4.9-.28,7.25,1.87,3.39,6.11,5.25,11.64,5.11,2.98-.08,5.57-.8,7.76-2.15.4,1.63.56,3.31.47,4.94-.13,2.37-1.25,10.09-9.94,10.09-1.1,0-2,.9-2,2s.9,2,2,2c7.99,0,13.46-5.44,13.94-13.87.15-2.7-.24-5.48-1.13-8.07,3.11-3.74,3.99-8.73,3.76-12.25ZM122.42,96.08c-3.93.1-6.92-1.03-8.03-3.04-.57-1.03-.53-2.16.1-3.1.85-1.28,2.62-1.98,4.86-1.98.43,0,.87.03,1.33.08,3.66.42,6.44,2.85,8.15,6.04-1.72,1.26-3.87,1.93-6.41,2Z"/>
  </g>
</svg>