<?xml version="1.0" encoding="UTF-8"?>
<svg id="Pictograms" xmlns="http://www.w3.org/2000/svg" viewBox="0 0 160 160">
  <defs>
    <style>
      .cls-1 {
        fill: #adedff;
      }

      .cls-2 {
        fill: #2954ff;
      }

      .cls-3 {
        fill: #0e0a7f;
      }

      .cls-4 {
        fill: #00c8ff;
      }
    </style>
  </defs>
  <path class="cls-3" d="M110.78,47.83c-1.1,0-2-.9-2-2,0-12.59-10.24-22.83-22.83-22.83-1.1,0-2-.9-2-2s.9-2,2-2c14.79,0,26.83,12.04,26.83,26.83,0,1.1-.9,2-2,2Z"/>
  <path class="cls-3" d="M122.31,47.83c-1.1,0-2-.9-2-2,0-2.89-.36-5.76-1.07-8.53-.27-1.07.37-2.16,1.44-2.43,1.07-.28,2.16.37,2.43,1.44.79,3.09,1.19,6.3,1.19,9.52,0,1.1-.9,2-2,2Z"/>
  <path class="cls-3" d="M114.37,25.15c-.59,0-1.17-.26-1.56-.75-.79-1-1.66-1.96-2.56-2.87-6.49-6.49-15.12-10.06-24.3-10.06-1.1,0-2-.9-2-2s.9-2,2-2c10.25,0,19.88,3.99,27.12,11.24,1.01,1.01,1.97,2.09,2.86,3.2.69.86.55,2.12-.32,2.81-.37.29-.81.44-1.25.44Z"/>
  <path class="cls-1" d="M81.56,96.54l-21.18,21.18c-4.65,4.65-12.19,4.65-16.84,0h0c-4.65-4.65-4.65-12.19,0-16.84l31.9-31.9-12.63-12.63-32.46,32.46c-11.63,11.63-11.63,30.48,0,42.1h0c11.63,11.63,30.48,11.63,42.1,0l21.18-21.18c4.65-4.65,12.19-4.65,16.84,0h0c4.65,4.65,4.65,12.19,0,16.84l-9.75,9.75c-1.56,1.56-1.56,4.09,0,5.66l6.97,6.97c1.56,1.56,4.09,1.56,5.66,0l10.31-10.31c11.63-11.63,11.63-30.48,0-42.1h0c-11.63-11.63-30.48-11.63-42.1,0Z"/>
  <path class="cls-3" d="M25.01,98.05c-.31,0-.63-.07-.93-.23-.98-.51-1.36-1.72-.84-2.7,1.49-2.84,3.4-5.45,5.69-7.73.78-.78,2.05-.78,2.83,0,.78.78.78,2.05,0,2.83-2,2-3.68,4.28-4.98,6.76-.36.68-1.05,1.07-1.77,1.07Z"/>
  <path class="cls-3" d="M37.56,83.59c-.51,0-1.02-.2-1.41-.59-.78-.78-.78-2.05,0-2.83l11.09-11.09c.78-.78,2.05-.78,2.83,0s.78,2.05,0,2.83l-11.09,11.09c-.39.39-.9.59-1.41.59Z"/>
  <path class="cls-3" d="M110.75,90.95c-.18,0-.36-.03-.55-.08-4.73-1.34-9.74-1.4-14.5-.19-1.08.28-2.16-.37-2.43-1.44-.27-1.07.37-2.16,1.44-2.43,5.44-1.39,11.17-1.32,16.58.21,1.06.3,1.68,1.41,1.38,2.47-.25.88-1.05,1.46-1.92,1.46Z"/>
  <path class="cls-3" d="M123.66,140.64c-.51,0-1.02-.2-1.41-.59-.78-.78-.78-2.05,0-2.83,5.25-5.25,8.13-12.22,8.13-19.64s-2.89-14.39-8.13-19.64c-.78-.78-.78-2.05,0-2.83s2.05-.78,2.83,0c12.39,12.39,12.39,32.54,0,44.93-.39.39-.9.59-1.41.59Z"/>
  <path class="cls-3" d="M102.81,136.23c-.51,0-1.02-.2-1.41-.59-.78-.78-.78-2.05,0-2.83l7.66-7.66c3.86-3.86,3.86-10.15,0-14.02-.78-.78-.78-2.05,0-2.83s2.05-.78,2.83,0c5.42,5.42,5.42,14.25,0,19.67l-7.66,7.66c-.39.39-.9.59-1.41.59Z"/>
  <path class="cls-3" d="M51.39,141.63c-8.49,0-16.46-3.3-22.46-9.31-4.08-4.08-6.97-9.17-8.36-14.74-.27-1.07.38-2.16,1.46-2.42,1.06-.27,2.16.38,2.42,1.46,1.21,4.86,3.74,9.32,7.3,12.88,5.25,5.25,12.22,8.13,19.64,8.13s14.39-2.89,19.64-8.13c.78-.78,2.05-.78,2.83,0s.78,2.05,0,2.83c-6,6-13.98,9.31-22.46,9.31Z"/>
  <path class="cls-3" d="M96.04,56.73s-.04,0-.06,0c-8.66.27-17.14,6.68-20.47,9.5l-3.57-3.57,21.11-21.11c.78-.78.78-2.05,0-2.83s-2.05-.78-2.83,0l-21.11,21.11-3.57-3.57c2.82-3.33,9.24-11.81,9.5-20.47.03-1.1-.83-2.03-1.94-2.06-1.08-.07-2.03.83-2.06,1.94-.29,9.33-9.6,19.19-9.7,19.29l-7.59,7.59c-.78.78-.78,2.05,0,2.83s2.05.78,2.83,0l6.21-6.21,9.8,9.8-30.49,30.49c-5.42,5.42-5.42,14.25,0,19.67,2.71,2.71,6.27,4.07,9.84,4.07s7.12-1.36,9.84-4.07l21.18-21.18c.78-.78.78-2.05,0-2.83s-2.05-.78-2.83,0l-21.18,21.18c-3.87,3.86-10.15,3.86-14.02,0-1.87-1.87-2.9-4.36-2.9-7.01s1.03-5.14,2.9-7.01l31.87-31.87c.1-.09,9.95-9.41,19.29-9.7,1.1-.03,1.97-.96,1.94-2.06-.03-1.08-.92-1.94-2-1.94Z"/>
  <path class="cls-4" d="M94.94,36.84c1.81,1.81,1.81,4.76,0,6.58s-4.76,1.82-6.58,0c-1.81-1.81-1.81-4.76,0-6.58,1.82-1.82,4.76-1.82,6.58,0Z"/>
  <path class="cls-3" d="M56.14,80.76c-.51,0-1.02-.2-1.41-.59-.78-.78-.78-2.05,0-2.83l7.28-7.28c.78-.78,2.05-.78,2.83,0s.78,2.05,0,2.83l-7.28,7.28c-.39.39-.9.59-1.41.59Z"/>
  <path class="cls-3" d="M48.18,88.71c-.51,0-1.02-.2-1.41-.59-.78-.78-.78-2.05,0-2.83l2.79-2.79c.78-.78,2.05-.78,2.83,0s.78,2.05,0,2.83l-2.79,2.79c-.39.39-.9.59-1.41.59Z"/>
  <path class="cls-2" d="M78.02,31.13c.08,2.56-1.94,4.7-4.51,4.78-2.57.08-4.72-1.94-4.8-4.5-.08-2.56,1.94-4.7,4.51-4.78,2.57-.08,4.72,1.94,4.8,4.5Z"/>
  <path class="cls-2" d="M100.65,53.76c-2.56-.08-4.7,1.94-4.78,4.51-.08,2.57,1.94,4.72,4.5,4.8,2.56.08,4.7-1.94,4.78-4.51.08-2.57-1.94-4.72-4.5-4.8Z"/>
</svg>