<?xml version="1.0" encoding="UTF-8"?>
<svg id="Pictograms" xmlns="http://www.w3.org/2000/svg" viewBox="0 0 160 160">
  <defs>
    <style>
      .cls-1 {
        fill: #adedff;
      }

      .cls-2 {
        fill: #2954ff;
      }

      .cls-3 {
        fill: #0e0a7f;
      }

      .cls-4 {
        fill: #00c8ff;
      }
    </style>
  </defs>
  <path class="cls-1" d="M116.47,81.94h-60.32c-4.64,0-8.96,1.34-12.61,3.64-6.62,4.19-11.02,11.58-11.02,19.99,0,13.05,10.58,23.63,23.64,23.63,6.99,0,13.27-3.04,17.6-7.86h25.12c4.33,4.83,10.61,7.86,17.6,7.86,13.05,0,23.63-10.58,23.63-23.63s-10.58-23.64-23.63-23.64Z"/>
  <path class="cls-3" d="M88.15,122.97h-3.7c-1.1,0-2-.9-2-2s.9-2,2-2h3.7c1.1,0,2,.9,2,2s-.9,2-2,2Z"/>
  <path class="cls-3" d="M56.15,130.82c-8.32,0-16.15-4.05-20.95-10.83-.64-.9-.43-2.15.48-2.79.9-.64,2.15-.42,2.79.48,4.06,5.73,10.67,9.14,17.69,9.14,6.14,0,12.01-2.62,16.11-7.18.38-.42.92-.66,1.49-.66h3.83c1.1,0,2,.9,2,2s-.9,2-2,2h-2.96c-4.82,4.99-11.5,7.84-18.47,7.84Z"/>
  <path class="cls-3" d="M116.47,131.05c-7.27,0-14.23-3.1-19.09-8.5-.74-.82-.67-2.09.15-2.82.82-.74,2.08-.67,2.82.15,4.1,4.56,9.98,7.18,16.11,7.18,11.93,0,21.63-9.67,21.63-21.56s-9.71-21.56-21.63-21.56h-10.13c-1.1,0-2-.9-2-2s.9-2,2-2h10.13c14.13,0,25.63,11.47,25.63,25.56s-11.5,25.56-25.63,25.56Z"/>
  <polygon class="cls-3" points="67.19 101.84 59.69 101.84 59.69 94.34 52.22 94.34 52.22 101.84 44.72 101.84 44.72 109.31 52.22 109.31 52.22 116.81 59.69 116.81 59.69 109.31 67.19 109.31 67.19 101.84"/>
  <path class="cls-3" d="M90.74,100.25c-2.77,0-5.69-1.16-8.05-3.37-3.21-3-4.98-7.68-4.94-12.96h-11.39c-1.1,0-2-.9-2-2s.9-2,2-2h11.47c.09,0,.19,0,.28,0,.89-5.29,3.42-10.7,7.42-15.8,1.42-1.82,2.96-3.57,4.55-5.19.77-.79,2.04-.8,2.83-.02.79.77.8,2.04.02,2.83-1.49,1.52-2.93,3.15-4.26,4.85-3.66,4.67-5.72,9.31-6.53,13.49,9.11.7,14.44,3.77,16.25,9.32,1.28,3.93.17,7.57-2.88,9.51-1.42.9-3.06,1.34-4.77,1.34ZM81.74,84.05c-.02,4.24,1.37,7.74,3.68,9.91,2.77,2.59,6.09,2.75,7.94,1.58,1.5-.96,1.93-2.7,1.22-4.9-1.26-3.88-5.48-6.05-12.84-6.58Z"/>
  <circle class="cls-2" cx="116.05" cy="98.18" r="4.5"/>
  <circle class="cls-2" cx="124.8" cy="108.53" r="4.5"/>
  <circle class="cls-2" cx="106.69" cy="108.27" r="4.5"/>
  <g>
    <g>
      <path class="cls-3" d="M104.37,50.06c-.55,0-1.09-.22-1.49-.66-.74-.82-.67-2.09.15-2.82l3.83-3.45c.82-.74,2.08-.67,2.82.15.74.82.67,2.09-.15,2.82l-3.83,3.45c-.38.34-.86.51-1.34.51Z"/>
      <path class="cls-3" d="M97.84,55.95c-.55,0-1.09-.22-1.49-.66-.74-.82-.67-2.09.15-2.82l1.52-1.37c.82-.74,2.08-.67,2.83.15.74.82.67,2.09-.15,2.82l-1.52,1.37c-.38.34-.86.51-1.34.51Z"/>
    </g>
    <path class="cls-3" d="M107,41.02c-.2,0-.41-.03-.61-.1l-13.29-4.27c-1.05-.34-1.63-1.46-1.29-2.52.34-1.05,1.46-1.63,2.52-1.29l13.29,4.27c1.05.34,1.63,1.46,1.29,2.52-.27.85-1.06,1.39-1.9,1.39Z"/>
    <path class="cls-3" d="M111.25,37.19c-.92,0-1.75-.64-1.95-1.58l-2.93-13.61c-.23-1.08.45-2.14,1.53-2.38,1.08-.23,2.14.45,2.38,1.53l2.93,13.61c.23,1.08-.45,2.14-1.53,2.38-.14.03-.28.05-.42.05Z"/>
    <path class="cls-3" d="M116.71,38.94c-.55,0-1.09-.22-1.49-.66-.74-.82-.67-2.09.15-2.82l10.36-9.34c.82-.74,2.09-.67,2.82.15.74.82.67,2.09-.15,2.82l-10.36,9.34c-.38.34-.86.51-1.34.51Z"/>
    <path class="cls-3" d="M131.2,48.8c-.2,0-.41-.03-.61-.1l-13.29-4.27c-1.05-.34-1.63-1.46-1.29-2.52.34-1.05,1.46-1.63,2.52-1.29l13.29,4.27c1.05.34,1.63,1.46,1.29,2.52-.27.85-1.06,1.39-1.9,1.39Z"/>
    <path class="cls-3" d="M116.59,61.98c-.92,0-1.75-.64-1.95-1.58l-2.93-13.61c-.23-1.08.45-2.14,1.53-2.38,1.08-.24,2.14.45,2.38,1.53l2.93,13.61c.23,1.08-.45,2.14-1.53,2.38-.14.03-.28.05-.42.05Z"/>
  </g>
  <path class="cls-4" d="M65.12,43.91l-6.32,2.34,6.32,2.34c4.11,1.52,7.34,4.76,8.86,8.86l2.34,6.32,2.34-6.32c1.52-4.11,4.76-7.34,8.86-8.86l6.32-2.34-6.32-2.34c-4.11-1.52-7.34-4.76-8.86-8.86l-2.34-6.32-2.34,6.32c-1.52,4.11-4.76,7.34-8.86,8.86Z"/>
  <path class="cls-4" d="M95.39,69.75l-1.44.53,1.44.53c2.05.76,3.67,2.38,4.43,4.43l.53,1.44.53-1.44c.76-2.05,2.38-3.67,4.43-4.43l1.44-.53-1.44-.53c-2.05-.76-3.67-2.38-4.43-4.43l-.53-1.44-.53,1.44c-.76,2.05-2.38,3.67-4.43,4.43Z"/>
  <path class="cls-2" d="M47.7,70.27l11.4-11.4c-3.62-6.33-10.42-10.6-18.23-10.6-11.6,0-21,9.4-21,21s9.4,21,21,21c7.29,0,13.71-3.72,17.48-9.36l-10.65-10.65Z"/>
  <circle class="cls-1" cx="39.15" cy="59.04" r="4"/>
  <path class="cls-3" d="M26.44,86.54c-.49,0-.99-.18-1.37-.55-4.64-4.39-7.2-10.33-7.2-16.71,0-12.68,10.32-23,23-23,.57,0,1.14.02,1.71.06,1.1.08,1.93,1.04,1.85,2.14-.08,1.1-1.03,1.94-2.14,1.85-.47-.03-.94-.05-1.42-.05-10.48,0-19,8.52-19,19,0,5.28,2.11,10.18,5.95,13.81.8.76.84,2.02.08,2.83-.39.42-.92.63-1.45.63Z"/>
</svg>