<?xml version="1.0" encoding="UTF-8"?>
<svg id="Pictograms" xmlns="http://www.w3.org/2000/svg" viewBox="0 0 160 160">
  <defs>
    <style>
      .cls-1 {
        fill: #adedff;
      }

      .cls-2 {
        fill: #2954ff;
      }

      .cls-3 {
        fill: #0e0a7f;
      }

      .cls-4 {
        fill: #00c8ff;
      }
    </style>
  </defs>
  <path class="cls-1" d="M83.65,45.42H17.94v91.95h69.71V49.42c0-2.21-1.79-4-4-4ZM78.21,127.93H27.38V54.86h50.83v73.07Z"/>
  <circle class="cls-4" cx="78.67" cy="131.23" r="9.71"/>
  <path class="cls-2" d="M60.33,50.01v-2.56c0-4.16-3.37-7.53-7.53-7.53h0c-4.16,0-7.53,3.37-7.53,7.53v2.56s-8.94,0-8.94,0v9.19h32.94s0-9.19,0-9.19h-8.94Z"/>
  <path class="cls-4" d="M58.71,116.57h0c-.53,0-1.04-.21-1.41-.59l-5.34-5.37c-.78-.78-.78-2.05,0-2.83.78-.78,2.05-.78,2.83,0l3.93,3.96,10.38-10.33c.78-.78,2.05-.78,2.83,0,.78.78.78,2.05,0,2.83l-11.79,11.75c-.38.37-.88.58-1.41.58Z"/>
  <path class="cls-2" d="M131.53,60.68c-9.76,0-17.67,7.91-17.67,17.67s7.91,17.67,17.67,17.67,17.67-7.91,17.67-17.67-7.91-17.67-17.67-17.67ZM139.99,80.35h-6.46v6.46c0,1.1-.9,2-2,2s-2-.9-2-2v-6.46h-6.46c-1.1,0-2-.9-2-2s.9-2,2-2h6.46v-6.46c0-1.1.9-2,2-2s2,.9,2,2v6.46h6.46c1.1,0,2,.9,2,2s-.9,2-2,2Z"/>
  <g>
    <path class="cls-3" d="M33.04,135.37h-13.1V47.42h7.44c1.1,0,2-.9,2-2s-.9-2-2-2h-9.44c-1.1,0-2,.9-2,2v91.95c0,1.1.9,2,2,2h15.1c1.1,0,2-.9,2-2s-.9-2-2-2Z"/>
    <path class="cls-3" d="M57.6,125.93h-28.24v-24.02c0-1.1-.9-2-2-2s-2,.9-2,2v26.02c0,1.1.9,2,2,2h30.24c1.1,0,2-.9,2-2s-.9-2-2-2Z"/>
    <path class="cls-3" d="M78.67,38.02c1.1,0,2-.9,2-2v-.97c0-6.25,4.59-11.43,10.57-12.4v.84c0,1.1.9,2,2,2s2-.9,2-2v-6.03c0-1.1-.9-2-2-2s-2,.9-2,2v1.15c-8.2.99-14.57,7.98-14.57,16.44v.97c0,1.1.9,2,2,2Z"/>
    <path class="cls-3" d="M111.23,101.4c-1.53-.3-3.07-.56-4.62-.77v-22.28c0-1.1-.9-2-2-2h-11.37c-6.93,0-12.57-5.64-12.57-12.57v-18.15c0-1.1-.9-2-2-2s-2,.9-2,2v18.15c0,9.14,7.43,16.57,16.57,16.57h9.37v19.83c-3.15-.27-6.31-.35-9.47-.23-4.67.17-8.86,1.69-11.8,4.29-4.08,3.61-4.92,8.16-4.74,15.48-5.48.98-9.65,5.77-9.65,11.52,0,6.46,5.25,11.71,11.71,11.71s11.71-5.25,11.71-11.71c0-1.1-.9-2-2-2s-2,.9-2,2c0,4.25-3.46,7.71-7.71,7.71s-7.71-3.46-7.71-7.71,3.46-7.71,7.71-7.71c1.11,0,2.05-.98,2-2.09-.37-8.4.37-11.59,3.33-14.2,2.24-1.99,5.54-3.15,9.29-3.29,3.13-.11,6.27-.03,9.39.26.4,5.7,2.61,10.66,6.19,13.82,2.51,2.22,7.15,4.02,11.13,3.2,2.49-.52,4.36-1.97,5.41-4.2,1.1-2.33.85-5.27-.65-7.86-2.98-5.14-9.15-6.89-13.53-7.76ZM121.78,115.32c-.51,1.08-1.36,1.73-2.6,1.98-2.58.54-5.93-.74-7.68-2.28-2.59-2.29-4.31-6.05-4.77-10.34,1.24.18,2.48.39,3.72.64,5.75,1.14,9.2,2.99,10.84,5.84.65,1.13,1.12,2.81.49,4.16Z"/>
    <path class="cls-3" d="M133.53,60.67v-25.62c0-8.46-6.38-15.45-14.57-16.44v-1.15c0-1.1-.9-2-2-2s-2,.9-2,2v6.03c0,1.1.9,2,2,2s2-.9,2-2v-.84c5.98.96,10.57,6.15,10.57,12.4v23.73c-9.91,1.01-17.67,9.4-17.67,19.57,0,1.1.9,2,2,2s2-.9,2-2c0-8.64,7.03-15.67,15.67-15.67,1.1,0,2-.9,2-2,0,0,0,0,0,0Z"/>
    <path class="cls-3" d="M36.32,61.2h32.94c1.1,0,2-.9,2-2v-9.19c0-1.1-.9-2-2-2h-6.94v-.56c0-5.26-4.28-9.53-9.54-9.53-1.1,0-2,.9-2,2s.9,2,2,2c3.05,0,5.54,2.48,5.54,5.53v2.56c0,1.1.9,2,2,2h6.94v5.19h-28.94v-6.27c0-1.1-.9-2-2-2s-2,.9-2,2v8.27c0,1.1.9,2,2,2Z"/>
    <path class="cls-3" d="M60.66,73.26h-24c-1.1,0-2,.9-2,2s.9,2,2,2h24c1.1,0,2-.9,2-2s-.9-2-2-2Z"/>
    <path class="cls-3" d="M60.66,92.21h-24c-1.1,0-2,.9-2,2s.9,2,2,2h24c1.1,0,2-.9,2-2s-.9-2-2-2Z"/>
    <path class="cls-3" d="M36.66,86.73h16c1.1,0,2-.9,2-2s-.9-2-2-2h-16c-1.1,0-2,.9-2,2s.9,2,2,2Z"/>
    <path class="cls-3" d="M50.25,135.35h-6.54c-1.1,0-2,.9-2,2s.9,2,2,2h6.54c1.1,0,2-.9,2-2s-.9-2-2-2Z"/>
  </g>
</svg>