<?xml version="1.0" encoding="UTF-8"?>
<svg id="Pictograms" xmlns="http://www.w3.org/2000/svg" viewBox="0 0 160 160">
  <defs>
    <style>
      .cls-1 {
        fill: #adedff;
      }

      .cls-2 {
        fill: #0e0a7f;
      }

      .cls-3 {
        fill: #00c8ff;
      }
    </style>
  </defs>
  <path class="cls-3" d="M29.68,44.12h6.95c1.1-10.94,10.33-19.49,21.57-19.49,9.3,0,17.21,5.87,20.29,14.1h2.78c8.37,0,15.15,6.79,15.15,15.16s-6.79,15.15-15.15,15.15H29.68c-6.88,0-12.46-5.58-12.46-12.46s5.58-12.46,12.46-12.46"/>
  <polygon class="cls-1" points="114.19 85.86 80 55.36 45.82 85.86 45.82 134.61 114.19 134.61 114.19 85.86"/>
  <g>
    <path class="cls-2" d="M43.82,102.09v7.81c0,1.1.9,2,2,2s2-.9,2-2v-7.81c0-1.1-.9-2-2-2s-2,.9-2,2Z"/>
    <path class="cls-2" d="M78.67,53.87l-42.22,37.59c-.83.73-.9,2-.16,2.82.73.82,2,.9,2.82.16l40.89-36.4,40.89,36.4c.38.34.86.51,1.33.51.55,0,1.1-.23,1.5-.67.73-.83.66-2.09-.16-2.82l-42.22-37.59c-.76-.67-1.9-.67-2.66,0Z"/>
    <path class="cls-2" d="M35.56,70.76c1.1,0,2-.9,2-2s-.9-2-2-2h-5.86c-5.77,0-10.46-4.69-10.46-10.46,0-2.88.86-5.11,2.63-6.81,3.97-3.82,11.15-3.59,11.21-3.58.51.02,1.01.05,1.5.09-.12,4.89.36,10.67,5.63,13.86,3.17,1.92,7.28,1.63,9.99-.7,2.45-2.1,3.12-5.27,1.8-8.46-2.19-5.28-7.62-7.37-12.96-8.23,1.91-8.99,9.82-15.53,19.23-15.53,8.15,0,15.55,5.14,18.41,12.8.39,1.04,1.54,1.56,2.57,1.17,1.04-.39,1.56-1.54,1.17-2.57-3.44-9.21-12.35-15.4-22.16-15.4-11.46,0-21.09,8.06-23.23,19.09-.6-.04-1.21-.09-1.77-.11-.36-.01-8.92-.32-14.14,4.68-2.57,2.46-3.87,5.73-3.87,9.71,0,7.97,6.49,14.46,14.46,14.46h5.86ZM48.29,52.23c.83,2.01.07,3.23-.71,3.9-1.2,1.03-3.41,1.46-5.31.31-3.01-1.82-3.75-4.78-3.7-9.98,5.34.89,8.47,2.77,9.72,5.77Z"/>
    <path class="cls-2" d="M130.69,122.69c-.58,0-1.16.06-1.71.18-.48-4.2-4.05-7.47-8.37-7.47-1.62,0-3.14.47-4.42,1.27v-6.08c0-1.1-.9-2-2-2s-2,.9-2,2v13.22s0,.01,0,.02v8.78h-21.29v-27.47c0-1.1-.9-2-2-2h-17.79c-1.1,0-2,.9-2,2v27.47h-21.29v-14.11c0-1.1-.9-2-2-2s-2,.9-2,2v14.11h-12.37c-1.1,0-2,.9-2,2s.9,2,2,2h39.65s0,0,0,0h17.79s0,0,0,0h25.28c.28,0,.54-.06.78-.16.72-.3,1.22-1.01,1.22-1.84v-10.79c0-2.43,1.99-4.41,4.42-4.41s4.42,1.98,4.42,4.42v2.02c0,.74.41,1.43,1.07,1.77.66.34,1.46.3,2.07-.13.74-.52,1.62-.79,2.52-.79,2.44,0,4.42,1.98,4.42,4.42v1.49h-11.71c-1.1,0-2,.9-2,2s.9,2,2,2h13.71c1.1,0,2-.9,2-2v-3.49c0-4.65-3.78-8.42-8.42-8.42Z"/>
    <path class="cls-2" d="M50.23,70.76c1.1,0,2-.9,2-2s-.9-2-2-2h-6.31c-1.1,0-2,.9-2,2s.9,2,2,2h6.31Z"/>
  </g>
</svg>