<?xml version="1.0" encoding="UTF-8"?>
<svg id="Pictograms" xmlns="http://www.w3.org/2000/svg" viewBox="0 0 160 160">
  <defs>
    <style>
      .cls-1 {
        fill: #adedff;
      }

      .cls-2 {
        fill: #2954ff;
      }

      .cls-3 {
        fill: #0e0a7f;
      }

      .cls-4 {
        fill: #00c8ff;
      }
    </style>
  </defs>
  <path class="cls-1" d="M96.57,39.23h-16.84c-.2,6.91-5.85,12.45-12.81,12.45s-12.61-5.54-12.81-12.45h-21.21v101.27h25v-25.27h20.05v25.27h22.62V43.23c0-2.21-1.79-4-4-4Z"/>
  <g>
    <rect class="cls-3" x="109.16" y="67.75" width="8.2" height="9.11" rx="2" ry="2"/>
    <rect class="cls-3" x="109.16" y="82.21" width="8.2" height="9.11" rx="2" ry="2"/>
    <rect class="cls-3" x="109.16" y="96.67" width="8.2" height="9.11" rx="2" ry="2"/>
    <rect class="cls-3" x="109.16" y="111.13" width="8.2" height="9.11" rx="2" ry="2"/>
  </g>
  <path class="cls-3" d="M88.84,66.68h-38.54c-1.1,0-2-.9-2-2s.9-2,2-2h38.54c1.1,0,2,.9,2,2s-.9,2-2,2Z"/>
  <path class="cls-3" d="M88.84,79.7h-38.54c-1.1,0-2-.9-2-2s.9-2,2-2h38.54c1.1,0,2,.9,2,2s-.9,2-2,2Z"/>
  <path class="cls-3" d="M88.84,92.72h-20.62c-1.1,0-2-.9-2-2s.9-2,2-2h20.62c1.1,0,2,.9,2,2s-.9,2-2,2Z"/>
  <path class="cls-3" d="M88.84,105.74h-20.72c-1.1,0-2-.9-2-2s.9-2,2-2h20.72c1.1,0,2,.9,2,2s-.9,2-2,2Z"/>
  <path class="cls-4" d="M135.77,130.42c-1.33,0-2.57.42-3.59,1.13v-1.98c0-3.48-2.82-6.29-6.29-6.29s-6.29,2.82-6.29,6.29v10.56h22.46v-3.42c0-3.48-2.82-6.29-6.29-6.29Z"/>
  <path class="cls-3" d="M33.09,71.75c-1.1,0-2-.9-2-2v-30.89c0-1.1.9-2,2-2h16.17c1.1,0,2,.9,2,2s-.9,2-2,2h-14.17v28.89c0,1.1-.9,2-2,2Z"/>
  <path class="cls-2" d="M66.92,21.19c-9.76,0-17.67,7.91-17.67,17.67s7.91,17.67,17.67,17.67,17.67-7.91,17.67-17.67-7.91-17.67-17.67-17.67ZM75.38,40.86h-6.46v6.46c0,1.1-.9,2-2,2s-2-.9-2-2v-6.46h-6.46c-1.1,0-2-.9-2-2s.9-2,2-2h6.46v-6.46c0-1.1.9-2,2-2s2,.9,2,2v6.46h6.46c1.1,0,2,.9,2,2s-.9,2-2,2Z"/>
  <path class="cls-3" d="M49.25,40.86c-1.1,0-2-.9-2-2,0-10.84,8.82-19.67,19.67-19.67,1.1,0,2,.9,2,2s-.9,2-2,2c-8.64,0-15.67,7.03-15.67,15.67,0,1.1-.9,2-2,2Z"/>
  <rect class="cls-4" x="19.9" y="81.3" width="26.37" height="34.77" rx="13.18" ry="13.18" transform="translate(66.18 197.37) rotate(-180)"/>
  <path class="cls-3" d="M33.09,79.3c-1.1,0-2,.9-2,2s.9,2,2,2c6.17,0,11.18,5.02,11.18,11.18v8.4c0,5.48-3.97,10.05-9.18,11v-11c0-4.74-3.85-8.59-8.59-8.59s-8.59,3.85-8.59,8.59c0,7.69,5.76,14.05,13.19,15.04v20.21h-6.13c-1.1,0-2,.9-2,2s.9,2,2,2h13.96c1.1,0,2-.9,2-2s-.9-2-2-2h-3.83v-20.21c7.43-.98,13.18-7.34,13.18-15.04v-8.4c0-8.37-6.81-15.18-15.18-15.18ZM21.9,102.89c0-2.53,2.06-4.59,4.59-4.59s4.59,2.06,4.59,4.59v11c-5.22-.95-9.19-5.51-9.19-11Z"/>
  <path class="cls-3" d="M100.76,130.87c-1.1,0-2-.9-2-2v-8.13c0-1.1.9-2,2-2s2,.9,2,2v8.13c0,1.1-.9,2-2,2Z"/>
  <path class="cls-3" d="M135.77,128.42c-.56,0-1.11.06-1.64.16-.41-3.49-3.01-6.31-6.37-7.09v-62.67c0-1.1-.9-2-2-2h-11.76c-1.1,0-2,.9-2,2s.9,2,2,2h9.76v60.74c-3.54.95-6.16,4.17-6.16,8v8.56h-37.65v-22.89c0-1.1-.9-2-2-2h-20.05c-1.1,0-2,.9-2,2v22.89h-6.88c-1.1,0-2,.9-2,2s.9,2,2,2h70.58c1.1,0,2-.9,2-2v-10.56c0-2.37,1.93-4.29,4.29-4.29s4.29,1.93,4.29,4.29v1.98c0,.74.41,1.43,1.07,1.77.66.35,1.46.3,2.07-.13.73-.5,1.57-.77,2.45-.77,2.37,0,4.29,1.93,4.29,4.29v1.42h-7.97c-1.1,0-2,.9-2,2s.9,2,2,2h9.97c1.1,0,2-.9,2-2v-3.42c0-4.57-3.72-8.29-8.29-8.29ZM65.92,138.13h-6.03v-20.89h6.03v20.89ZM75.95,138.13h-6.03v-20.89h6.03v20.89Z"/>
  <path class="cls-3" d="M100.76,113.17c-1.1,0-2-.9-2-2v-60.37c0-1.1.9-2,2-2s2,.9,2,2v60.37c0,1.1-.9,2-2,2Z"/>
</svg>