<?xml version="1.0" encoding="UTF-8"?>
<svg id="Pictograms" xmlns="http://www.w3.org/2000/svg" viewBox="0 0 160 160">
  <defs>
    <style>
      .cls-1 {
        fill: #adedff;
      }

      .cls-2 {
        fill: #2954ff;
      }

      .cls-3 {
        fill: #0e0a7f;
      }

      .cls-4 {
        fill: #00c8ff;
      }
    </style>
  </defs>
  <rect class="cls-1" x="39.63" y="38.34" width="47.23" height="99.01" rx="7" ry="7" transform="translate(-35.45 43.39) rotate(-30)"/>
  <path class="cls-4" d="M128.96,44.17l-8.46,4.83-8.46-4.83c-3.43-1.96-5.54-5.6-5.54-9.55v-14.12l14-8,14,8v14.12c0,3.95-2.12,7.59-5.54,9.55Z"/>
  <polygon class="cls-2" points="74.5 39 93 39 93 20.5 74.5 39"/>
  <path class="cls-3" d="M38.78,56.74c-.68,0-1.34-.34-1.71-.96-.57-.94-.27-2.17.67-2.75l9.24-5.6c.94-.57,2.17-.27,2.75.67.57.94.27,2.17-.67,2.75l-9.24,5.6c-.32.2-.68.29-1.04.29Z"/>
  <path class="cls-3" d="M64.91,47.2c-.66,0-1.3-.33-1.69-.92l-3.26-5.08c-.6-.93-.33-2.17.6-2.76.93-.6,2.17-.33,2.76.6l3.26,5.08c.6.93.33,2.17-.6,2.76-.33.21-.71.32-1.08.32Z"/>
  <path class="cls-3" d="M118.32,37.94c-.51,0-1.01-.2-1.38-.55l-4.67-4.46c-.8-.76-.83-2.03-.07-2.83.76-.8,2.03-.83,2.83-.07l3.11,2.96,7.66-9.43c.7-.86,1.96-.99,2.81-.29.86.7.99,1.96.29,2.81l-9.03,11.11c-.35.43-.87.7-1.42.73-.04,0-.08,0-.13,0Z"/>
  <path class="cls-3" d="M106.48,111.66l-8.23-13.73c-.57-.95-1.79-1.25-2.74-.69-.95.57-1.25,1.8-.69,2.74l8.21,13.7c.67,1.16.85,2.51.5,3.82-.35,1.31-1.19,2.4-2.35,3.07l-2.65,1.52-23.73-17.4-22.99-27.96,7.59-25.56c.31-1.06-.29-2.17-1.35-2.49-1.06-.32-2.17.29-2.49,1.35l-7.27,24.49-10.06-3.96c-1.03-.41-2.19.1-2.59,1.13-.4,1.03.1,2.19,1.13,2.59l11.61,4.57,22.69,27.59,4.58,28.53c.01.08.04.16.06.24l-3.09,1.78c-2.42,1.39-5.52.56-6.92-1.85L27.45,69.27l-4.06-7.28c-.67-1.16-.85-2.51-.5-3.82.35-1.31,1.19-2.4,2.35-3.07l28.06-16.13c.96-.55,1.29-1.77.74-2.73-.55-.96-1.77-1.29-2.73-.74l-28.06,16.13c-2.09,1.2-3.59,3.16-4.22,5.5-.63,2.34-.31,4.77.88,6.83l4.06,7.28,36.35,62.62,1.9,3.28c.67,1.16,1.58,2.11,2.61,2.84h-10.84c-1.11,0-2,.9-2,2s.9,2,2,2h42.5c1.11-.01,2-.91,2-2.01s-.9-2-2-2h-21.07s27.74-15.94,27.74-15.94c2.09-1.2,3.59-3.16,4.22-5.5.63-2.34.31-4.77-.91-6.89ZM75.74,110.35l19,13.93-15.34,8.82-3.65-22.75Z"/>
  <path class="cls-3" d="M127,96.12h-18c-1.1,0-2-.9-2-2s.9-2,2-2h16v-31.07c0-1.1.9-2,2-2s2,.9,2,2v33.07c0,1.1-.9,2-2,2Z"/>
  <path class="cls-3" d="M120.5,51.08c-.34,0-.68-.09-.99-.26l-8.46-4.82c-4.04-2.3-6.55-6.62-6.55-11.26v-2.11c0-1.1.9-2,2-2s2,.9,2,2v2.11c0,3.21,1.74,6.19,4.53,7.78l7.47,4.25,6.01-3.42c.96-.55,2.18-.21,2.73.75s.21,2.18-.75,2.73l-7,3.99c-.31.17-.65.26-.99.26Z"/>
  <path class="cls-3" d="M135.49,18.93l-14-7.98c-.61-.35-1.37-.35-1.98,0l-13.54,7.71h-12.97c-.53,0-1.04.21-1.41.58l-18.5,18.45s0,0,0,0c-.09.09-.17.19-.25.3-.02.02-.03.05-.04.08-.05.09-.1.17-.14.27-.01.03-.02.07-.03.1-.03.09-.06.18-.08.27-.02.09-.02.17-.03.26,0,.04-.01.09-.01.13,0,0,0,0,0,0s0,0,0,0l.03,13.61-1.31-2.18c-.57-.95-1.8-1.25-2.74-.68-.95.57-1.25,1.8-.68,2.74l4.75,7.91.05,22.78c.03,4.31,2,7.47,5.4,8.68.94.33,1.93.49,2.92.49,2.77,0,5.57-1.23,7.33-3.39,2.24-2.74,2.34-6.3.26-9.77l-11.97-19.91-.04-18.29h16.5c1.1,0,2-.9,2-2v-7.37c0-1.1-.9-2-2-2s-2,.9-2,2v5.37h-11.66l14.49-14.45h12.67s.07,0,.11-.01c.07,0,.14-.01.22-.02.06-.01.13-.02.19-.04.06-.02.12-.03.18-.06.07-.03.13-.05.2-.09.03-.02.07-.03.1-.04l13.01-7.41,12,6.84v8.31c0,1.1.9,2,2,2s2-.9,2-2v-9.47c0-.72-.39-1.38-1.01-1.74ZM85.08,81.37c1.19,1.99,1.22,3.78.08,5.18-1.32,1.62-3.88,2.34-5.82,1.66-2.24-.79-2.73-3.12-2.74-4.92l-.03-16.09,8.52,14.18Z"/>
  <path class="cls-3" d="M105.97,52.08h-17.97c-1.1,0-2-.9-2-2s.9-2,2-2h17.97c1.1,0,2,.9,2,2s-.9,2-2,2Z"/>
  <path class="cls-3" d="M105.97,68.03h-17.97c-1.1,0-2-.9-2-2s.9-2,2-2h17.97c1.1,0,2,.9,2,2s-.9,2-2,2Z"/>
  <path class="cls-3" d="M99.98,60.05h-11.98c-1.1,0-2-.9-2-2s.9-2,2-2h11.98c1.1,0,2,.9,2,2s-.9,2-2,2Z"/>
</svg>