<?xml version="1.0" encoding="UTF-8"?>
<svg id="Pictograms" xmlns="http://www.w3.org/2000/svg" viewBox="0 0 160 160">
  <defs>
    <style>
      .cls-1 {
        fill: #adedff;
      }

      .cls-2 {
        fill: #0e0a7f;
      }

      .cls-3 {
        fill-rule: evenodd;
      }

      .cls-3, .cls-4 {
        fill: #00c8ff;
      }
    </style>
  </defs>
  <path class="cls-4" d="M139,72.22c-.89.03-2.18.31-3.72.78-1.03-9.81-9.37-17.4-19.43-17.29-10.67.12-19.22,8.87-19.1,19.55.09,8.2.49,19.35.49,19.35,0,0,37.18.04,42.51-.03,6.26-.08,11.16-5.15,10.95-11.41-.21-6.25-5.44-11.16-11.69-10.95Z"/>
  <path class="cls-1" d="M61.84,116.09c-4.16-1.96-8.06-4.66-11.5-8.1-16.02-16.02-16.02-41.98,0-58,16.02-16.02,41.98-16.02,58,0,16.02,16.02,16.02,41.98,0,58-12.58,12.58-31.29,15.28-46.5,8.1"/>
  <path class="cls-2" d="M36,130.02H14.5c-2.33,0-4.26-1.87-4.31-4.17-.02-.97.06-1.96.24-2.94,1.07-5.79,5.92-10.43,11.78-11.29,2.16-.32,4.3-.15,6.32.47,1.69-8.14,7.65-15.63,16.92-15.63,3.78,0,7.14,1.84,9.8,4.63,3.39-3.46,7.66-7.5,12.86-12.16.56-.5.95-.85,1.15-1.04.81-.75,2.07-.71,2.83.09.75.81.71,2.07-.09,2.83-.21.19-.63.57-1.21,1.1-5.7,5.1-9.92,9.15-13.04,12.37,1.93,3.01,3.21,6.54,3.63,9.97.56,4.46-.83,8.02-3.82,9.76-2.8,1.63-6.54,1.35-9.29-.7-2.71-2.02-3.83-5.31-2.99-8.8.58-2.4,2.93-5.85,7.23-10.54-1.92-2.1-4.31-3.52-7.06-3.52-7.87,0-12.67,7.36-13.33,14.64-.06.67-.45,1.26-1.05,1.58-.59.32-1.3.32-1.9,0-1.94-1.05-4.15-1.43-6.38-1.11-4.19.61-7.66,3.93-8.42,8.06-.13.71-.19,1.43-.18,2.13,0,.13.15.25.31.25h21.5c1.1,0,2,.9,2,2s-.9,2-2,2ZM54.9,107.33c-4.23,4.68-5.45,7.01-5.72,8.14-.63,2.61.66,4.04,1.49,4.65,1.44,1.07,3.5,1.26,4.89.45,1.55-.9,2.21-2.97,1.86-5.81-.29-2.34-1.16-5.02-2.51-7.43Z"/>
  <path class="cls-3" d="M35.29,89.79c-2.73,2.73-2.73,7.17,0,9.9,2.73,2.73,7.17,2.73,9.9,0,2.73-2.73,2.73-7.17,0-9.9-2.73-2.73-7.17-2.73-9.9,0Z"/>
  <path class="cls-2" d="M121.9,72.8c-.17-1.09-1.19-1.84-2.28-1.68-1.09.16-1.84,1.18-1.68,2.28.17,1.1.27,2.2.34,3.3-.12-.01-.24-.01-.37,0-9.56.86-18.85,5.06-26.42,11.88l-8.24-8.22,6.43-6.38,4.37,4.26,1.01-1.04-1.63-6.42,12.57-10.59,7.73,9.8,2.25-2.32-4.38-13.25s3.06-2.8,4.56-7.52c.5-1.57-1.02-3.04-2.57-2.5-4.67,1.63-7.39,4.76-7.39,4.76l-13.36-4.02-2.25,2.32,10.01,7.46-10.74,11.74-7.18-1.53-1,1.04,5.14,5-6.39,6.34-11.72-11.68c6.65-7.34,10.81-16.3,11.82-25.56,1.68.05,3.36.2,5.03.47,1.1.17,2.12-.57,2.29-1.66s-.57-2.12-1.66-2.29c-13.65-2.2-27.61,2.3-37.37,12.03,0,0,0,0,0,0,0,0,0,0,0,0,0,0,0,0,0,0-5.67,5.66-9.64,12.75-11.47,20.5-.25,1.07.41,2.15,1.49,2.41.15.04.31.05.46.05.91,0,1.73-.62,1.94-1.54,1.51-6.39,4.63-12.26,9.04-17.14l12.79,12.75c-7.04,6.59-15.76,10.64-24.72,11.44-1.1.1-1.91,1.07-1.81,2.17.09,1.04.97,1.82,1.99,1.82.06,0,.12,0,.18,0,9.89-.89,19.49-5.35,27.2-12.6l11.68,11.65-2.47,2.45c-.78.78-.79,2.04-.01,2.83.39.39.91.59,1.42.59s1.02-.19,1.41-.58l2.48-2.46,8.23,8.21c-5.27,5.57-9.13,12.19-11.16,19.26-.31,1.06.31,2.17,1.37,2.48.18.05.37.08.55.08.87,0,1.67-.57,1.92-1.45,1.85-6.42,5.36-12.45,10.15-17.54l13.99,13.95c-9.32,8.39-22.03,11.82-34.42,9.17-1.08-.23-2.14.46-2.37,1.54-.23,1.08.46,2.14,1.54,2.37,3.04.65,6.1.97,9.13.97,11.3,0,22.23-4.43,30.42-12.59,9.63-9.6,14.17-23.36,12.14-36.8ZM65.87,63.01l-12.76-12.72c6.5-5.84,14.77-9.29,23.38-9.93-1.01,8.18-4.73,16.1-10.62,22.65ZM108.31,105.32l-13.97-13.93c6.9-6.16,15.31-9.95,23.94-10.72.02,0,.04,0,.06-.01-.35,9.08-3.88,17.86-10.03,24.66Z"/>
  <path class="cls-2" d="M149.61,88.09c-.16,0-.32-.02-.48-.06-1.07-.26-1.73-1.35-1.46-2.42.2-.82.29-1.68.26-2.53-.17-5.12-4.47-9.17-9.63-8.98-.39.01-1.32.12-3.2.69-.57.17-1.19.08-1.69-.25-.5-.33-.82-.86-.88-1.46-.34-3.23-1.58-6.28-3.6-8.84-.68-.87-.53-2.13.33-2.81.87-.68,2.12-.54,2.81.33,2,2.54,3.38,5.48,4.06,8.61.79-.17,1.46-.26,2.03-.28,7.33-.24,13.52,5.52,13.76,12.85.04,1.22-.09,2.44-.38,3.62-.23.91-1.04,1.52-1.94,1.52Z"/>
</svg>