<?xml version="1.0" encoding="UTF-8"?>
<svg id="Pictograms" xmlns="http://www.w3.org/2000/svg" viewBox="0 0 160 160">
  <defs>
    <style>
      .cls-1 {
        fill: #adedff;
      }

      .cls-2 {
        fill: #0e0a7f;
      }

      .cls-3 {
        fill: #00c8ff;
      }
    </style>
  </defs>
  <path class="cls-1" d="M87.64,21.01h0c5.2-9.57,19.79-4.83,18.37,5.97h0c-1.02,7.72,6.93,13.5,13.96,10.15h0c9.83-4.69,18.85,7.72,11.35,15.62h0c-5.36,5.65-2.33,15,5.33,16.42h0c10.71,1.98,10.71,17.33,0,19.31h0c-7.66,1.42-10.7,10.76-5.33,16.42h0c7.5,7.9-1.52,20.31-11.35,15.62h0c-7.03-3.35-14.98,2.42-13.96,10.15h0c1.42,10.8-13.17,15.54-18.37,5.97h0c-3.72-6.85-13.54-6.85-17.26,0h0c-5.2,9.57-19.79,4.83-18.37-5.97h0c1.02-7.72-6.93-13.5-13.96-10.15h0c-9.83,4.69-18.85-7.72-11.35-15.62h0c5.36-5.65,2.33-15-5.33-16.42h0c-10.71-1.98-10.71-17.33,0-19.31h0c7.66-1.42,10.7-10.76,5.33-16.42h0c-7.5-7.9,1.52-20.31,11.35-15.62h0c7.03,3.35,14.98-2.42,13.96-10.15h0c-1.42-10.8,13.17-15.54,18.37-5.97h0c3.72,6.85,13.54,6.85,17.26,0Z"/>
  <path class="cls-2" d="M104.19,61.07c-.57,0-1.14-.24-1.54-.72-.71-.85-.6-2.11.25-2.82,2.52-2.11,8.66-8.15,9.91-9.68.7-.85,1.96-.98,2.81-.28.85.7.98,1.96.28,2.81-1.41,1.72-7.68,7.9-10.44,10.21-.37.31-.83.47-1.28.47Z"/>
  <path class="cls-2" d="M95.96,65.58c-.65-.89-1.9-1.09-2.8-.43-1.24.91-2.65,1.99-4.19,3.17-7.27,5.59-19.41,14.92-25.08,12.88-3.17-1.7-.86-7.11-.56-7.79.72-1.75,1.8-3.48,2.94-5.31,1.81-2.9,3.68-5.89,4.26-9.27.37-2.22-.15-4.21-1.48-5.6-1.4-1.47-3.53-2.13-6.05-1.83-6.53,1-14.34,5.67-22.13,11.6-1.66-1.48-3-3.32-3.87-5.42l-3.7-8.87-2.97,9.14c-1.35,4.16-4.46,7.53-8.5,9.21l-8.87,3.7,9.14,2.97c1.38.45,2.66,1.1,3.83,1.9-3.32,3.03-6.45,5.99-9.27,8.66-2.15,2.04-4.01,3.8-5.59,5.23-.82.74-.88,2.01-.13,2.83.39.43.94.65,1.48.65.48,0,.96-.17,1.35-.52,1.6-1.46,3.47-3.23,5.64-5.28,2.79-2.64,6.04-5.71,9.52-8.87.98,1.16,1.8,2.47,2.39,3.9l3.7,8.87,2.97-9.14c1.35-4.16,4.46-7.53,8.5-9.21l8.87-3.7-9.14-2.97c-.62-.2-1.22-.45-1.8-.73,6.91-5.16,13.7-9.15,19.12-9.99,1.16-.13,2.11.09,2.62.62.56.59.54,1.51.43,2.17-.45,2.6-2.04,5.14-3.71,7.83-1.18,1.9-2.41,3.86-3.23,5.86-2.61,5.82-1.61,10.91,2.53,12.98.06.03.11.05.17.08,7.72,2.98,20.05-6.49,29.05-13.41,1.51-1.16,2.89-2.22,4.11-3.11.89-.65,1.08-1.9.43-2.8Z"/>
  <path class="cls-2" d="M85.84,112.89h65.41c2.21,0,4,1.79,4,4v6.74c0,2.21-1.79,4-4,4h-65.41v-14.74h0Z" transform="translate(120.34 -50.02) rotate(45)"/>
  <rect class="cls-3" x="82.59" y="83.73" width="17.6" height="14.74" transform="translate(91.19 -37.94) rotate(45)"/>
  <path class="cls-3" d="M97.93,42.06l4.15,1.35-4.02,1.68c-3.93,1.64-6.95,4.91-8.27,8.97l-1.35,4.15-1.68-4.02c-1.64-3.93-4.91-6.95-8.97-8.27l-4.15-1.35,4.02-1.68c3.93-1.64,6.95-4.91,8.27-8.97l1.35-4.15,1.68,4.02c1.64,3.93,4.91,6.95,8.97,8.27Z"/>
  <path class="cls-2" d="M129.55,97.8c-.21,0-.41-.03-.62-.1-1.05-.34-1.62-1.47-1.28-2.52,1.36-4.18,4.76-7.15,9.09-7.95,4.72-.87,6.39-4.67,6.39-7.66s-1.67-6.79-6.39-7.66c-4.34-.8-7.74-3.78-9.09-7.96-1.35-4.17-.35-8.57,2.67-11.75,3.29-3.46,2.42-7.51.67-9.92-1.76-2.43-5.36-4.54-9.71-2.47-3.98,1.89-8.49,1.48-12.05-1.12-3.55-2.58-5.33-6.72-4.75-11.06.14-1.1,1.15-1.87,2.24-1.72,1.1.14,1.87,1.15,1.72,2.24-.38,2.87.8,5.6,3.14,7.31,2.36,1.72,5.34,1.99,7.98.74,6.14-2.92,11.79-.23,14.67,3.74,2.86,3.95,3.66,10.12-1.01,15.02-2,2.1-2.66,5-1.77,7.76.9,2.77,3.15,4.73,6.01,5.26,6.68,1.23,9.67,6.71,9.67,11.59s-2.99,10.36-9.67,11.59c-2.86.53-5.11,2.49-6.01,5.25-.27.84-1.06,1.38-1.9,1.38Z"/>
  <path class="cls-2" d="M61.52,144.44c-1.33,0-2.63-.21-3.84-.61-4.64-1.51-8.93-6.04-8.05-12.75.38-2.87-.79-5.6-3.14-7.31-2.36-1.72-5.35-2-7.98-.74-6.14,2.92-11.79.23-14.67-3.74-2.86-3.95-3.66-10.12,1.01-15.02.76-.8,2.03-.83,2.83-.07.8.76.83,2.03.07,2.83-3.29,3.46-2.42,7.5-.67,9.92,1.76,2.43,5.36,4.54,9.71,2.47,3.98-1.89,8.49-1.48,12.05,1.12,3.55,2.58,5.33,6.72,4.75,11.06-.62,4.73,2.48,7.49,5.32,8.42,2.86.93,7.01.52,9.31-3.69,2.6-4.77,8.11-7.15,13.4-5.78,1.07.28,1.71,1.37,1.43,2.44-.28,1.07-1.37,1.71-2.44,1.43-2.97-.77-6.87.11-8.89,3.82-2.41,4.42-6.41,6.19-10.22,6.19Z"/>
</svg>