<?xml version="1.0" encoding="UTF-8"?>
<svg id="Pictograms" xmlns="http://www.w3.org/2000/svg" viewBox="0 0 160 160">
  <defs>
    <style>
      .cls-1 {
        fill: none;
      }

      .cls-2 {
        fill: #adedff;
      }

      .cls-3 {
        fill: #2954ff;
      }

      .cls-4 {
        fill: #0e0a7f;
      }

      .cls-5 {
        fill: #00c8ff;
      }
    </style>
  </defs>
  <path class="cls-2" d="M32.74,47.17v26.92h20.29v28.99h61.52v-55.9c0-2.21-1.79-4-4-4H36.74c-2.21,0-4,1.79-4,4Z"/>
  <rect class="cls-5" x="105.86" y="71.03" width="30.1" height="62.06" rx="4" ry="4" transform="translate(67.23 -46.78) rotate(30)"/>
  <path class="cls-3" d="M98.58,34.52l5.18,1.92-5.18,1.92c-4.11,1.52-7.34,4.76-8.86,8.86l-1.92,5.18-1.92-5.18c-1.52-4.11-4.76-7.34-8.86-8.86l-5.18-1.92,5.18-1.92c4.11-1.52,7.34-4.76,8.86-8.86l1.92-5.18,1.92,5.18c1.52,4.11,4.76,7.34,8.86,8.86Z"/>
  <path class="cls-4" d="M112.85,27.5l.64.24-.64.24c-2.69,1-4.81,3.12-5.81,5.81l-.24.64-.24-.64c-1-2.69-3.12-4.81-5.81-5.81l-.64-.24.64-.24c2.69-1,4.81-3.12,5.81-5.81l.24-.64.24.64c1,2.69,3.12,4.81,5.81,5.81Z"/>
  <path class="cls-4" d="M116.96,137c-1.02,0-2.05-.26-2.99-.8l-19.14-11.05c-1.39-.8-2.38-2.1-2.79-3.64-.42-1.55-.2-3.17.6-4.55l2.39-4.14c.55-.96,1.77-1.29,2.73-.73.96.55,1.28,1.78.73,2.73l-2.39,4.14c-.55.96-.22,2.18.73,2.73l19.14,11.05c.46.27,1,.34,1.52.2.52-.14.95-.47,1.21-.93l27.03-46.82c.27-.46.34-1,.2-1.52-.14-.52-.47-.95-.93-1.21l-13.96-8.06c-.96-.55-1.28-1.78-.73-2.73.55-.96,1.77-1.29,2.73-.73l13.96,8.06c2.87,1.65,3.85,5.33,2.2,8.2l-27.03,46.82c-1.11,1.92-3.13,3-5.21,3Z"/>
  <g>
    <path class="cls-1" d="M64.64,114.04c.09.15.34.5.87.5h16.97c.52,0,.78-.35.87-.5s.26-.55,0-1l-4.6-7.96h-9.52l-4.59,7.96c-.26.45-.09.85,0,1Z"/>
    <path class="cls-4" d="M95.16,101.08h-40.25v-9.49c0-1.1-.9-2-2-2s-2,.9-2,2v11.49c0,1.1.9,2,2,2h11.71l-3.44,5.96c-.9,1.57-.9,3.43,0,5,.9,1.57,2.52,2.5,4.33,2.5h16.97c1.81,0,3.43-.93,4.33-2.5.9-1.57.9-3.43,0-5l-3.44-5.96h11.79c1.1,0,2-.9,2-2s-.9-2-2-2ZM83.34,113.04c.26.45.09.85,0,1s-.34.5-.87.5h-16.97c-.52,0-.78-.35-.87-.5s-.26-.55,0-1l4.59-7.96h9.52l4.6,7.96Z"/>
  </g>
  <path class="cls-4" d="M68.5,41.17h-31.88c-3.31,0-6,2.69-6,6v24.46h-14.7c-.53,0-1.04.21-1.42.59-.38.38-.58.89-.58,1.42l.05,11.09c0,1.1.9,1.99,2,1.99h0c1.1,0,2-.91,1.99-2.01l-.04-9.08h21.55c1.1,0,2-.9,2-2s-.9-2-2-2h-4.86v-24.46c0-1.1.9-2,2-2h31.88c1.1,0,2-.9,2-2s-.9-2-2-2Z"/>
  <path class="cls-4" d="M53.5,132.13H15.92c-1.1,0-2-.9-2-2v-28.09c0-1.1.9-2,2-2s2,.9,2,2v26.09h33.58v-11.53c0-1.1.9-2,2-2s2,.9,2,2v13.53c0,1.1-.9,2-2,2Z"/>
  <path class="cls-4" d="M135.35,84.4c-.34,0-.68-.09-1-.27l-4.88-2.82c-.96-.55-1.28-1.78-.73-2.73.55-.96,1.77-1.29,2.73-.73l4.88,2.82c.96.55,1.28,1.78.73,2.73-.37.64-1.04,1-1.73,1Z"/>
  <path class="cls-4" d="M37,124.5h-5.8c-1.1,0-2-.9-2-2s.9-2,2-2h5.8c1.1,0,2,.9,2,2s-.9,2-2,2Z"/>
  <path class="cls-4" d="M109.54,109.67c-2.26,0-4.55-1-6.01-2.75-1.86-2.24-1.98-5.26-.32-8.1,1.07-1.83,4.23-7.3,9.23-15.98,0-15.87-.02-35.36-.02-35.67,0-1.1-.9-2-2-2h-2.42c-1.1,0-2-.9-2-2s.9-2,2-2h2.42c3.31,0,6,2.69,6,6,0,.26.01,14.63.02,28.73.53-.93,1.08-1.88,1.64-2.85.55-.96,1.78-1.29,2.73-.74.96.55,1.29,1.77.74,2.73-1.86,3.24-3.57,6.2-5.11,8.87,0,8.45,0,15.71-.02,18.21-.02,3.53-1.65,6.13-4.46,7.14-.77.28-1.59.41-2.42.41ZM112.44,90.86c-3.02,5.23-4.97,8.62-5.78,9.99-.82,1.4-.83,2.58-.05,3.52.9,1.09,2.7,1.59,4,1.13,1.48-.53,1.8-2.14,1.81-3.4.01-1.77.02-5.95.02-11.24Z"/>
</svg>