<?xml version="1.0" encoding="UTF-8"?>
<svg id="Pictograms" xmlns="http://www.w3.org/2000/svg" viewBox="0 0 160 160">
  <defs>
    <style>
      .cls-1 {
        fill: #adedff;
      }

      .cls-2 {
        fill: #2954ff;
      }

      .cls-3 {
        fill: #0e0a7f;
      }

      .cls-4 {
        fill: #00c8ff;
      }
    </style>
  </defs>
  <path class="cls-1" d="M123.07,37.14c-.87.04-1.79.28-2.76.68-4.1-8.72-13-14.72-23.27-14.6-14.01.16-25.24,11.65-25.08,25.67.16,14.01,11.65,25.24,25.67,25.08,1.35-.02,23.01-.02,25.86-.06,10.15-.12,18.29-8.44,18.17-18.59-.12-10.15-8.45-18.61-18.59-18.17Z"/>
  <path class="cls-4" d="M97.3,84.6c-10.28,8.11-27.5,3.44-27.5,3.44,0,0,0,0,0,0,0,0-.54-17.83,9.75-25.94,10.28-8.11,27.5-3.44,27.5-3.44,0,0,.54,17.83-9.75,25.94Z"/>
  <path class="cls-3" d="M76.94,82.49c-.49,0-.98-.18-1.37-.54-.81-.76-.85-2.02-.09-2.83,4.28-4.56,10.32-8.95,15.76-11.45,1-.46,2.19-.02,2.65.98.46,1,.02,2.19-.98,2.65-5,2.3-10.56,6.35-14.52,10.56-.39.42-.93.63-1.46.63Z"/>
  <path class="cls-3" d="M124.16,115.43c-.24,0-.49-.04-.73-.14-7.03-2.77-11.85-8.13-12.88-14.35-.98-5.9,1.56-11.94,6.99-16.58,3.29-3.12,7.25-5.09,11.08-7,3.72-1.85,7.23-3.6,9.63-6.2.69-.75,1.2-1.55,1.5-2.39,2.46-6.71-6.49-11.55-17.55-16.74-3.63-1.7-7.06-3.31-9.31-4.93-2.08-1.21-4.05-3.06-5.75-5.27-2.07,1.16-4.29,2.08-6.53,2.72-1.06.3-2.17-.31-2.47-1.38s.31-2.17,1.38-2.47c2.03-.58,3.84-1.31,5.44-2.14-3.06-5.26-4.68-11.53-3.6-16.08.95-3.98,3.8-6.28,8.04-6.48,4.91-.25,8.57,2.64,9.34,7.31,1.03,6.27-2.68,12.17-8.21,16.32,1.36,1.73,2.88,3.16,4.45,4.05.07.04.13.08.19.12,1.94,1.41,5.24,2.97,8.75,4.61,9.93,4.66,23.54,11.04,19.61,21.74-.49,1.34-1.27,2.59-2.32,3.72-2.89,3.13-6.9,5.13-10.78,7.06-3.58,1.78-7.28,3.63-10.15,6.36-.03.03-.06.05-.08.08-4.42,3.76-6.43,8.34-5.67,12.91.8,4.82,4.69,9.03,10.4,11.28,1.03.4,1.53,1.57,1.13,2.59-.31.79-1.06,1.27-1.86,1.27ZM109.96,19.99c-.13,0-.26,0-.39,0-2.43.12-3.81,1.2-4.34,3.41-.83,3.46.61,8.62,3.11,12.99,5.14-3.94,6.98-9.04,6.42-12.44-.42-2.57-2.13-3.97-4.81-3.97Z"/>
  <path class="cls-3" d="M90.06,46.24c-1.37,0-3.1-.18-4.99-.79-1.05-.34-1.63-1.47-1.29-2.52s1.47-1.63,2.52-1.29c3.22,1.04,5.78.4,5.8.4,1.06-.27,2.16.36,2.44,1.42.28,1.06-.34,2.15-1.4,2.44-.08.02-1.26.33-3.08.33Z"/>
  <path class="cls-3" d="M140.34,122.34c-.23,0-.47-.04-.7-.13l-8.49-3.17c-1.03-.39-1.56-1.54-1.17-2.57.39-1.03,1.54-1.56,2.57-1.17l8.49,3.17c1.03.39,1.56,1.54,1.17,2.57-.3.8-1.06,1.3-1.87,1.3Z"/>
  <path class="cls-3" d="M81.98,90.82c-.05,0-.08,0-.09,0-1.1-.03-1.97-.95-1.94-2.06.03-1.1.96-1.96,2.05-1.94h0c.59.01,14.55.15,20.45-14.85.4-1.03,1.56-1.53,2.59-1.13,1.03.4,1.53,1.57,1.13,2.59-6.69,17.01-22.85,17.38-24.19,17.38Z"/>
  <path class="cls-3" d="M96.75,144.2h-7.89c-1.1,0-2-.9-2-2s.9-2,2-2h7.89c1.1,0,2,.9,2,2s-.9,2-2,2Z"/>
  <path class="cls-2" d="M80.86,28.27c-1.39-.9-3.24-.5-4.13.89-.08.13-1.12,2.27-2.02,4.14.19-1.54.38-3.05.38-3.16,0-1.41-1.14-2.54-2.54-2.54s-2.54,1.14-2.54,2.54c0,.14.31,2.61.54,4.47-2.77.32-4.92,1.79-5.24,3.85-.42,2.72,2.51,5.42,6.54,6.05s7.65-1.07,8.07-3.78c.22-1.42-.49-2.84-1.78-3.96,1.43-1.71,3.53-4.21,3.62-4.36.9-1.39.5-3.24-.89-4.13Z"/>
  <path class="cls-3" d="M79.63,140.14h-6.63c-1.12,0-2.03-.91-2.03-2.02v-43.36s-.15-7.71-.15-7.71c.01-.08.03-.17.03-.25,0-.61-.02-1.19-.06-1.76l-.16-8.51c-.1-4.93-.85-9.62-2.21-13.94-1.97-6.25-5-11.32-9-15.08-5.99-5.63-15.07-9.2-26.24-10.32-8.33-.83-14.85-.04-15.12,0-.92.12-1.65.85-1.74,1.78-.03.29-.72,7.11.32,15.65,1.4,11.48,5.31,20.53,11.33,26.19,6.01,5.65,15.07,8.98,26.18,9.63,5.46.32,10.12-.07,12.75-.39l.09,4.77v22.96c-1.81-3.2-4.47-6.45-8.25-8.21-8.96-4.18-20.26,1.81-20.73,2.06-.78.42-1.19,1.3-1.01,2.16.11.53,2.74,13.01,11.71,17.19,2.11.98,4.51,1.48,7.15,1.48.5,0,1.01-.02,1.53-.05,3.84-.26,7.37-1.45,9.61-2.36v8.1c0,3.32,2.71,6.02,6.03,6.02h6.63c1.1,0,2-.9,2-2s-.9-2-2-2ZM30.69,77.87c-11.08-10.42-10.84-30.96-10.52-36.88,5.76-.42,25.42-1,36.5,9.42,3.49,3.29,6.16,7.78,7.93,13.37.98,3.09,1.59,6.41,1.87,9.89-3.98-5.24-10.3-8.75-17.87-9.6-1.1-.13-2.09.66-2.21,1.76-.12,1.1.67,2.09,1.76,2.21,7.1.8,15.6,4.92,18.13,14.08.27.96.43,1.99.51,3.12v.76c-5.69.71-25.08,2.22-36.1-8.13ZM57.09,128.4c-2.57.17-4.83-.18-6.72-1.06-5.53-2.58-8.17-9.74-9.09-12.87,3-1.31,10.21-3.88,15.74-1.3,5.53,2.58,8.17,9.74,9.09,12.87-1.86.81-5.33,2.1-9.02,2.36Z"/>
</svg>