<?xml version="1.0" encoding="UTF-8"?>
<svg id="Pictograms" xmlns="http://www.w3.org/2000/svg" viewBox="0 0 160 160">
  <defs>
    <style>
      .cls-1 {
        fill: #adedff;
      }

      .cls-2 {
        fill: #2954ff;
      }

      .cls-3 {
        fill: #0e0a7f;
      }

      .cls-4 {
        fill: #00c8ff;
      }
    </style>
  </defs>
  <path class="cls-2" d="M145.68,107.22c0-6.32-4.33-11.61-10.17-13.08h0c0-.12.02-.23.02-.35,0-8.14-6.57-14.99-14.67-14.99s-14.67,7.11-14.67,15.25c0,.09,0-.09,0,0-6.02,1.34-10.53,6.72-10.53,13.17,0,7.45,6.02,13.5,13.44,13.5,4.94,0,9.23-2.68,11.57-6.66,2.34,3.98,6.64,6.66,11.57,6.66,7.42,0,13.44-6.04,13.44-13.5"/>
  <path class="cls-1" d="M106.13,34.32h-58.84v105.81h21.39v-24.89h20.05v24.89h21.39V38.32c0-2.21-1.79-4-4-4Z"/>
  <rect class="cls-4" x="22.29" y="62.99" width="25" height="77.14"/>
  <g>
    <rect class="cls-3" x="30.69" y="72.48" width="8.2" height="9.11" rx="2" ry="2"/>
    <rect class="cls-3" x="30.69" y="86.94" width="8.2" height="9.11" rx="2" ry="2"/>
    <rect class="cls-3" x="30.69" y="101.4" width="8.2" height="9.11" rx="2" ry="2"/>
    <rect class="cls-3" x="30.69" y="115.86" width="8.2" height="9.11" rx="2" ry="2"/>
    <path class="cls-3" d="M57.71,47.94c0,1.1.9,2,2,2h37.99c1.1,0,2-.9,2-2s-.9-2-2-2h-37.99c-1.1,0-2,.9-2,2Z"/>
    <path class="cls-3" d="M97.7,58.96h-37.99c-1.1,0-2,.9-2,2s.9,2,2,2h37.99c1.1,0,2-.9,2-2s-.9-2-2-2Z"/>
    <path class="cls-3" d="M99.7,73.98c0-1.1-.9-2-2-2h-37.99c-1.1,0-2,.9-2,2s.9,2,2,2h37.99c1.1,0,2-.9,2-2Z"/>
    <path class="cls-3" d="M59.71,89h18.15c1.1,0,2-.9,2-2s-.9-2-2-2h-18.15c-1.1,0-2,.9-2,2s.9,2,2,2Z"/>
    <path class="cls-3" d="M59.71,102.02h18.26c1.1,0,2-.9,2-2s-.9-2-2-2h-18.26c-1.1,0-2,.9-2,2s.9,2,2,2Z"/>
    <path class="cls-3" d="M47.29,115.58c1.1,0,2-.9,2-2V36.32h40.55c1.1,0,2-.9,2-2s-.9-2-2-2h-9.86v-9.7c0-1.1-.9-2-2-2h-15.37c-1.1,0-2,.9-2,2v9.7h-13.32c-1.1,0-2,.9-2,2v79.26c0,1.1.9,2,2,2ZM64.61,24.62h11.37v7.7h-11.37v-7.7Z"/>
    <path class="cls-3" d="M31.26,138.13h-6.96v-73.14h10.04c1.1,0,2-.9,2-2s-.9-2-2-2h-12.04c-1.1,0-2,.9-2,2v75.14h-2.34c-1.1,0-2,.9-2,2s.9,2,2,2h13.31c1.1,0,2-.9,2-2s-.9-2-2-2Z"/>
    <path class="cls-3" d="M110.13,64.19c1.1,0,2-.9,2-2v-7.67c0-1.1-.9-2-2-2s-2,.9-2,2v7.67c0,1.1.9,2,2,2Z"/>
    <path class="cls-3" d="M145.23,98.94s-.01-.01-.01-.02c0,0,0-.01,0-.02-2-2.98-4.54-5.06-7.36-6.08-.36-5.93-3.73-11.17-9.27-14.03-5.41-2.79-11.51-2.45-16.45.7v-8.56c0-1.1-.9-2-2-2s-2,.9-2,2v67.19h-17.39v-22.89c0-1.1-.9-2-2-2h-20.05c-1.1,0-2,.9-2,2v22.89h-19.39c-1.1,0-2,.9-2,2s.9,2,2,2h84.95c1.1,0,2-.9,2-2s-.9-2-2-2h-9.31v-24.08c0-1.1-.9-2-2-2s-2,.9-2,2v24.08h-6.81v-53.55c4.84-4.68,10.69-4.26,14.62-2.23,3.12,1.61,6.36,4.96,7.02,9.74-2.46-.11-5.92.4-8.32,2.19-1.76,1.16-3.1,3.18-3.5,5.3-.32,1.7-.02,3.32.86,4.58,1.03,1.68,2.94,2.43,4.92,2.43,1.29,0,2.6-.32,3.72-.92,3.44-1.64,5.55-5.41,6.12-8.44,0-.05.02-.1.03-.15,2.04,1.08,3.46,2.81,4.27,4.01,2.21,3.46,2.39,7.47.51,11.01-1.97,3.71-5.75,5.98-10.1,6.08-1.1.03-1.98.94-1.95,2.05.03,1.09.92,1.95,2,1.95.02,0,.03,0,.05,0,5.81-.13,10.88-3.2,13.54-8.2,2.55-4.78,2.29-10.41-.67-15.05ZM76.71,138.13h-6.03v-20.89h6.03v20.89ZM86.73,138.13h-6.03v-20.89h6.03v20.89ZM133.63,96.51c-.38,2.03-1.86,4.6-3.94,5.58-.04.02-.07.03-.1.05-1.19.64-2.99.6-3.39-.08-.03-.06-.07-.11-.11-.16-.36-.5-.29-1.19-.22-1.56.2-1.07.93-2.16,1.8-2.72.05-.03.09-.06.13-.09,1.33-1.01,3.51-1.43,5.34-1.43.19,0,.38,0,.56.01-.02.14-.04.27-.07.41Z"/>
  </g>
</svg>