<?xml version="1.0" encoding="UTF-8"?>
<svg id="Pictograms" xmlns="http://www.w3.org/2000/svg" viewBox="0 0 160 160">
  <defs>
    <style>
      .cls-1 {
        fill: #adedff;
      }

      .cls-2 {
        fill: #2954ff;
      }

      .cls-3 {
        fill: #0e0a7f;
      }

      .cls-4 {
        fill: #00c8ff;
      }
    </style>
  </defs>
  <path class="cls-2" d="M74.98,54.37l-.95,6.73h0c-1.14,3.45-3.41,6.09-7.25,7.82-5.3,2.39-9.57,5.07-9.57,11.48.05,1.43.3,4.56,1.51,6.41.1.15.21.28.34.4,3.79-3.65,8.93-5.86,14.51-5.86h9.86v-11.76l-.02-.03c-5.06-3.17-8.44-8.77-8.44-15.18Z"/>
  <path class="cls-2" d="M121.05,69.58c-5.43-3.37-8.31-7.4-9.53-15.21h-.73c0,6.4-3.37,12-8.42,15.17l-.03.04v11.76h8.79c17.53,0,19.14,16.44,19.18,16.73,1.23-2.49,2.54-6.05,2.68-9.01.4-8.37-3.31-14.12-11.94-19.48Z"/>
  <path class="cls-2" d="M92.81,24.39h0c-4.02,0-7.71,1.34-10.7,3.57,1.88,7.89,4.84,12.92,13.59,16.13,8.76,3.21,15.01.85,15.01.85v-2.64c0-9.89-8.02-17.91-17.91-17.91Z"/>
  <path class="cls-3" d="M140.25,103.43c-1.82-2.7-4.22-4.97-6.97-6.7.99-2.43,1.59-5.01,1.72-7.58.43-9.03-3.42-15.4-12.88-21.27-7.22-4.49-9.31-10.17-9.31-25.34,0-10.98-8.93-19.91-19.91-19.91s-19.91,8.93-19.91,19.91v11.83c0,6.61-2.16,10.54-7.02,12.72-4.04,1.82-8.5,4.17-10.12,9.08-.35,1.05.22,2.18,1.27,2.53.21.07.42.1.63.1.84,0,1.62-.53,1.9-1.37,1.01-3.04,3.8-4.82,7.97-6.69,3.55-1.6,6.07-3.99,7.6-7.24,1.48,2.84,3.62,5.29,6.22,7.13v8.71h-7.86c-10.95,0-20.42,7.8-22.5,18.55l-7.17,36.95c-.21,1.08.5,2.13,1.58,2.34.13.03.26.04.38.04.94,0,1.78-.66,1.96-1.62l7.17-36.95c1.72-8.88,9.54-15.32,18.58-15.32h8.04c.95,5.37,5.64,9.46,11.27,9.46,6.32,0,11.46-5.14,11.46-11.46,0-1.1-.9-2-2-2s-2,.9-2,2c0,4.11-3.35,7.46-7.46,7.46s-7.46-3.35-7.46-7.46v-8.52c2.31.94,4.82,1.46,7.46,1.46,8.43,0,15.64-5.28,18.54-12.69,1.75,4.2,4.49,7.15,8.57,9.69,8.17,5.07,11.35,10.2,11,17.69-.1,2-.54,4.01-1.28,5.93-3.02-1.26-6.32-1.93-9.66-1.9-2.87.03-5.25.56-7.28,1.62-2.61,1.36-4.48,3.6-5.15,6.14-.79,3.01.31,6.31,2.67,8.02,1.23.89,2.8,1.4,4.68,1.51,3.38.21,6.95-.87,10.04-3.01,2.56-1.78,4.76-4.18,6.44-6.92,2.17,1.41,4.06,3.22,5.48,5.32,3.67,5.45,4.15,12.92,1.2,18.6-2.97,5.71-8.92,9.11-15.93,9.11h-3.36c-1.1,0-2,.9-2,2s.9,2,2,2h3.37c8.52,0,15.8-4.2,19.47-11.26,3.67-7.04,3.11-15.95-1.43-22.68ZM92.89,70.28c-8.77,0-15.91-7.14-15.91-15.91v-11.83c0-8.77,7.14-15.91,15.91-15.91s15.91,7.14,15.91,15.91v.94c-9.81,1.4-15.77-2.02-19.08-5.26-.79-.77-2.06-.76-2.83.04-.77.79-.76,2.06.03,2.83,2.79,2.73,8.45,6.71,17.6,6.71,1.35,0,2.78-.1,4.28-.29v6.85c0,8.77-7.14,15.91-15.91,15.91ZM122.73,103.98c-2.35,1.63-5.02,2.45-7.51,2.3-1.11-.07-1.97-.32-2.57-.76-1.04-.75-1.52-2.34-1.15-3.77.38-1.43,1.55-2.78,3.13-3.61,1.44-.75,3.28-1.14,5.47-1.16.06,0,.13,0,.2,0,2.6,0,5.2.53,7.61,1.51-1.37,2.17-3.13,4.06-5.17,5.48Z"/>
  <path class="cls-1" d="M92.24,135.22h-57.36l-15.17-34.58c-1.16-2.64.78-5.61,3.66-5.61h51.24l17.63,40.19Z"/>
  <path class="cls-3" d="M51.75,122.56c-1.99,0-3.85-.77-5.26-2.18-.78-.78-.78-2.05,0-2.83.78-.78,2.05-.78,2.83,0,1.3,1.3,3.56,1.3,4.86,0,.65-.65,1.01-1.51,1.01-2.43s-.36-1.78-1.01-2.43c-.78-.78-.78-2.05,0-2.83.78-.78,2.05-.78,2.83,0,1.4,1.4,2.18,3.27,2.18,5.26s-.77,3.85-2.18,5.26c-1.4,1.4-3.27,2.18-5.26,2.18Z"/>
  <circle class="cls-4" cx="38.58" cy="47.91" r="17.48"/>
  <path class="cls-3" d="M46.51,53.08h-7.92c-1.1,0-2-.9-2-2v-12.81c0-1.1.9-2,2-2s2,.9,2,2v10.81h5.92c1.1,0,2,.9,2,2s-.9,2-2,2Z"/>
  <path class="cls-3" d="M38.58,67.39c-10.74,0-19.48-8.74-19.48-19.48s8.74-19.48,19.48-19.48c1.1,0,2,.9,2,2s-.9,2-2,2c-8.54,0-15.48,6.94-15.48,15.48s6.94,15.48,15.48,15.48c1.1,0,2,.9,2,2s-.9,2-2,2Z"/>
  <path class="cls-3" d="M106.4,133.22h-12.85l-17.1-38.99c-.32-.73-1.04-1.2-1.83-1.2h-29.94c-1.1,0-2,.9-2,2s.9,2,2,2h28.63l15.87,36.19h-52.99l-12.56-28.63c-.44-1.01-1.62-1.47-2.63-1.03-1.01.44-1.47,1.62-1.03,2.64l13.08,29.82c.32.73,1.04,1.2,1.83,1.2h57.35s0,0,0,0c0,0,0,0,0,0h14.15c1.1,0,2-.9,2-2s-.9-2-2-2Z"/>
  <path class="cls-3" d="M35.05,97.03h-6.07c-1.1,0-2-.9-2-2s.9-2,2-2h6.07c1.1,0,2,.9,2,2s-.9,2-2,2Z"/>
</svg>