<?xml version="1.0" encoding="UTF-8"?>
<svg id="Pictograms" xmlns="http://www.w3.org/2000/svg" viewBox="0 0 160 160">
  <defs>
    <style>
      .cls-1 {
        fill: #adedff;
      }

      .cls-2 {
        fill: #2954ff;
      }

      .cls-3 {
        fill: #0e0a7f;
      }

      .cls-4 {
        fill: #00c8ff;
      }
    </style>
  </defs>
  <circle class="cls-4" cx="79.97" cy="86.88" r="39.34"/>
  <circle class="cls-1" cx="79.97" cy="86.88" r="29.88"/>
  <path class="cls-2" d="M19.64,58.75h0c3.58-7.68,12.71-11,20.39-7.42l3.18,1.48-6.49,13.91-6.49,13.91-3.18-1.48c-7.68-3.58-11-12.71-7.42-20.39Z"/>
  <path class="cls-2" d="M108.11,26.55h0c-7.68-3.58-16.81-.26-20.39,7.42l-1.48,3.18,13.91,6.49,13.91,6.49,1.48-3.18c3.58-7.68.26-16.81-7.42-20.39Z"/>
  <g>
    <path class="cls-3" d="M45.47,44.17c.35.96.43,1.99.24,2.98-.21,1.08.5,2.13,1.59,2.34.13.02.25.04.38.04.94,0,1.78-.67,1.96-1.62.33-1.7.18-3.47-.41-5.1l-1.16-3.18c-.51-1.41-.45-2.94.19-4.31s1.76-2.4,3.18-2.91l7.68-2.8s0,0,0,0l7.69-2.8c1.41-.51,2.94-.45,4.3.19,1.36.64,2.4,1.76,2.91,3.18l1.16,3.18c.59,1.63,1.62,3.08,2.97,4.17.37.3.82.45,1.26.45.58,0,1.16-.25,1.55-.74.7-.86.57-2.12-.29-2.81-.79-.64-1.38-1.48-1.73-2.44l-1.16-3.18c-.88-2.42-2.65-4.35-4.98-5.43-2.33-1.09-4.95-1.2-7.36-.32l-7.69,2.8s0,0,0,0l-7.68,2.8c-2.42.88-4.35,2.65-5.43,4.98-1.09,2.33-1.2,4.95-.32,7.36l1.16,3.18Z"/>
    <path class="cls-3" d="M126.42,119.54l-12.11-9.63c2.08-3.11,3.76-6.52,4.96-10.18.34-1.05-.23-2.18-1.28-2.52-1.05-.35-2.18.23-2.52,1.28-1.26,3.85-3.11,7.4-5.44,10.56,0,0,0,0-.01.01,0,.01-.02.03-.02.04-4.3,5.82-10.23,10.32-17.25,12.87-6.92,2.52-14.34,2.94-21.46,1.23,0,0,0,0,0,0-.02,0-.04-.01-.06-.02-.1-.02-.2-.02-.29-.03-.02,0-.03,0-.05,0-.12,0-.24,0-.35.02-.01,0-.03,0-.04,0-.11.02-.23.05-.33.09-.01,0-.03,0-.04.01-.1.04-.2.09-.29.14-.02,0-.04.02-.05.03-.09.05-.16.12-.24.18-.02.02-.05.03-.07.05-.07.06-.13.13-.18.2-.02.03-.05.06-.08.09-.05.07-.09.14-.13.21-.02.04-.05.08-.07.13-.03.07-.05.14-.08.22-.02.05-.04.09-.05.14,0,.01,0,.02,0,.03,0,.01,0,.02-.01.03l-3.47,17.01s0,0,0,0h0c-.06.28-.05.55,0,.8,0,.02.02.05.02.07.02.1.05.2.09.3.02.05.05.1.08.14.03.07.06.13.11.2.03.04.06.08.1.12.05.06.09.12.15.18.03.03.07.06.1.09.06.06.12.11.19.16.05.03.1.06.15.08.06.03.12.07.19.1.12.05.25.09.38.12,0,0,0,0,0,0,.07.02.15.02.22.02.06,0,.12.02.18.02h31.42c1.1,0,2-.9,2-2s-.9-2-2-2h-28.97l2.58-12.64c2.52.47,5.06.72,7.6.72,4.79,0,9.56-.84,14.14-2.5,7.09-2.58,13.18-6.95,17.81-12.6l12.01,9.55c.37.29.81.43,1.24.43.59,0,1.17-.26,1.57-.76.69-.86.54-2.12-.32-2.81Z"/>
    <path class="cls-3" d="M73.16,70.16c.23,0,.46-.04.68-.12,1.04-.38,1.57-1.53,1.19-2.56l-1.46-4.02c-.38-1.04-1.52-1.57-2.56-1.19-1.04.38-1.57,1.53-1.19,2.56l1.46,4.02c.29.81,1.06,1.32,1.88,1.32Z"/>
    <path class="cls-3" d="M60.56,91.82l-4.02,1.46c-1.04.38-1.57,1.53-1.2,2.56.3.81,1.06,1.32,1.88,1.32.23,0,.46-.04.68-.12l4.02-1.46c1.04-.38,1.57-1.53,1.2-2.56-.38-1.04-1.53-1.57-2.56-1.2Z"/>
    <path class="cls-3" d="M86.1,103.73c-1.04.38-1.57,1.53-1.2,2.56l1.46,4.02c.3.81,1.06,1.32,1.88,1.32.23,0,.46-.04.68-.12,1.04-.38,1.57-1.53,1.2-2.56l-1.46-4.02c-.38-1.04-1.53-1.57-2.56-1.2Z"/>
    <path class="cls-3" d="M98.7,82.07c.23,0,.46-.04.68-.12l4.02-1.46c1.04-.38,1.57-1.53,1.2-2.56-.38-1.04-1.53-1.58-2.56-1.2l-4.02,1.46c-1.04.38-1.57,1.53-1.2,2.56.29.81,1.06,1.32,1.88,1.32Z"/>
    <path class="cls-3" d="M89.53,66.38c-1-.47-2.19-.03-2.66.97l-8.71,18.69c-.47,1-.03,2.19.97,2.66l13.93,6.49c.27.13.56.19.84.19.75,0,1.47-.43,1.81-1.15.47-1,.03-2.19-.97-2.66l-12.11-5.65,7.87-16.87c.47-1,.03-2.19-.97-2.66Z"/>
    <path class="cls-3" d="M66.01,60.39c-.58-.94-1.81-1.23-2.75-.66-12.83,7.88-18.4,23.88-13.24,38.05,4.71,12.93,16.96,20.98,29.99,20.98,3.61,0,7.28-.62,10.87-1.92,12.49-4.55,20.93-16.53,20.98-29.82,0-1.1-.89-2-1.99-2.01h0c-1.1,0-2,.89-2,1.99-.05,11.62-7.42,22.1-18.35,26.08-14.45,5.26-30.48-2.22-35.73-16.66-4.51-12.39.36-26.39,11.57-33.28.94-.58,1.24-1.81.66-2.75Z"/>
    <path class="cls-3" d="M118.2,77.38c-1.08.21-1.79,1.26-1.58,2.35.6,3.05.81,6.17.64,9.27-.06,1.1.78,2.05,1.88,2.11.04,0,.08,0,.12,0,1.05,0,1.93-.82,2-1.89.2-3.43-.04-6.89-.71-10.27-.21-1.08-1.27-1.8-2.35-1.58Z"/>
    <path class="cls-3" d="M124.62,65.44c-.92.61-1.17,1.85-.55,2.77,4.98,7.48,6.04,17.32,2.77,25.69-.4,1.03.1,2.19,1.13,2.59.24.09.49.14.73.14.8,0,1.55-.48,1.86-1.27,3.74-9.57,2.53-20.82-3.17-29.37-.61-.92-1.86-1.17-2.77-.55Z"/>
    <path class="cls-3" d="M138.27,68.46c-.44-1.01-1.61-1.48-2.63-1.04-1.01.44-1.48,1.62-1.04,2.63,2.21,5.12,3,11.06,2.47,18.69-.08,1.1.75,2.06,1.86,2.13.05,0,.09,0,.14,0,1.04,0,1.92-.81,1.99-1.86.57-8.29-.31-14.82-2.79-20.55Z"/>
    <path class="cls-3" d="M26.24,107.2c.3-1.06-.32-2.17-1.38-2.47-1.06-.3-2.17.32-2.47,1.38-1.53,5.43-.98,12.42,1.37,17.4.34.72,1.06,1.15,1.81,1.15.29,0,.58-.06.85-.19,1-.47,1.43-1.66.96-2.66-1.97-4.17-2.42-10.04-1.13-14.61Z"/>
    <path class="cls-3" d="M57.66,140.16c-6.1,0-7.64-.21-9.5-.91-3.83-1.39-6.23-4.45-6.42-8.16-.04-.74.02-1.47.16-2.18,1.36.33,2.83.51,4.37.54.08,0,.15,0,.23,0,4.12,0,9.26-1.41,10.53-5.47.56-2-.3-4.07-2.17-5.27-2.81-1.84-6.81-1.26-9.5.12-2.41,1.18-4.33,2.9-5.65,4.96-1.16-.68-2.16-1.57-2.98-2.67-2.72-3.62-3.4-9.29-1.8-15.16.29-1.07-.34-2.17-1.4-2.46-1.07-.29-2.16.34-2.46,1.4-1.92,7.05-1,14.01,2.46,18.61,1.24,1.66,2.78,2.98,4.58,3.95-.31,1.23-.44,2.51-.38,3.83.28,5.29,3.75,9.77,9.03,11.7,2.48.93,4.62,1.16,10.89,1.16,1.1,0,2-.9,2-2s-.9-2-2-2ZM47.16,122.4c1.93-.99,4.31-1.14,5.53-.34.19.12.6.44.51.78-.53,1.68-3.92,2.67-6.87,2.61-.95-.01-1.84-.1-2.69-.25.9-1.13,2.09-2.09,3.52-2.79Z"/>
    <path class="cls-3" d="M117.36,140.16h-8.93c-1.1,0-2,.9-2,2s.9,2,2,2h8.93c1.1,0,2-.9,2-2s-.9-2-2-2Z"/>
    <path class="cls-3" d="M32.05,81.47l5.64-12.1,4.02,1.88c-2,4.87-3.09,10.17-3.09,15.63,0,4.82.84,9.57,2.5,14.14.3.81,1.06,1.32,1.88,1.32.23,0,.46-.04.68-.12,1.04-.38,1.57-1.53,1.2-2.56-1.5-4.12-2.26-8.42-2.26-12.77,0-5.55,1.25-10.91,3.52-15.75,0,0,0-.01.01-.02,0,0,0-.02,0-.03,4.12-8.77,11.58-15.84,21.04-19.29,9.37-3.41,19.51-2.97,28.55,1.25.13.06.27.11.4.14.04,0,.08,0,.12.02.1.02.19.03.29.03.01,0,.02,0,.03,0,.02,0,.04,0,.07,0,.14,0,.28-.02.41-.06.04-.01.08-.02.12-.03.16-.05.31-.11.45-.2.02-.01.04-.03.06-.04.12-.08.23-.17.33-.28.03-.03.06-.06.09-.1.11-.13.21-.27.29-.44,0,0,0,0,0,0l2.69-5.78,12.1,5.64c.27.12.56.19.85.19.23,0,.46-.04.68-.12.5-.18.9-.55,1.13-1.03l1.48-3.18c1.96-4.2,2.16-8.91.58-13.26-1.35-3.72-3.88-6.79-7.21-8.83l1.29-2.76c.47-1,.03-2.19-.97-2.66-1-.47-2.19-.03-2.66.97l-1.29,2.76c-3.7-1.24-7.68-1.2-11.4.15-4.35,1.58-7.83,4.77-9.79,8.97l-1.48,3.18c-.47,1-.03,2.19.97,2.66,1,.47,2.19.03,2.66-.97l1.48-3.18c1.51-3.23,4.18-5.68,7.53-6.9,3.35-1.22,6.97-1.06,10.2.44,0,0,0,0,0,0,0,0,0,0,0,0,3.23,1.51,5.68,4.18,6.9,7.53,1.22,3.35,1.06,6.97-.45,10.21l-.64,1.37-12.09-5.64c-.38-.18-.78-.22-1.16-.16,0,0,0,0,0,0-.63.1-1.2.51-1.49,1.13,0,0,0,0,0,0l-2.71,5.82c-9.53-3.91-20.03-4.13-29.77-.58-9.83,3.58-17.71,10.7-22.41,19.59l-.34-.16-5.5-2.57c-.25-.12-.51-.18-.77-.19-.6-.02-1.18.23-1.58.69-.12.14-.23.29-.31.46l-5.64,12.1-1.37-.64c-3.23-1.51-5.68-4.18-6.9-7.53-1.22-3.35-1.06-6.97.45-10.2,1.51-3.23,4.18-5.68,7.53-6.9s6.97-1.06,10.21.45l3.18,1.48c1,.47,2.19.03,2.66-.97.47-1,.03-2.19-.97-2.66l-3.18-1.48c-4.2-1.96-8.91-2.16-13.26-.58-3.72,1.35-6.79,3.88-8.83,7.21l-2.76-1.29c-1-.47-2.19-.03-2.66.97-.47,1-.03,2.19.97,2.66l2.76,1.29c-1.24,3.7-1.2,7.68.15,11.4,1.58,4.35,4.77,7.83,8.97,9.79l3.18,1.48c.27.13.56.19.84.19.75,0,1.47-.43,1.81-1.15Z"/>
  </g>
</svg>