<?xml version="1.0" encoding="UTF-8"?>
<svg id="Pictograms" xmlns="http://www.w3.org/2000/svg" viewBox="0 0 160 160">
  <defs>
    <style>
      .cls-1 {
        fill: #adedff;
      }

      .cls-2 {
        fill: #2954ff;
      }

      .cls-3 {
        fill: #0e0a7f;
      }

      .cls-4 {
        fill: #00c8ff;
      }
    </style>
  </defs>
  <path class="cls-1" d="M61.51,76.15c4.86-3.23,10.58-5.13,16.65-5.13h1.46v.79c0,2.35,1.09,4.5,2.86,6.04,1.76,1.54,4.2,2.5,6.89,2.5,5.39,0,9.76-3.82,9.76-8.54,8.65,0,16.65,3.86,22.38,9.93,0,0,2.54,2.63,4.96,6.58,1.47,2.79,2.54,5.81,3.16,8.97l.45,9.2.15,2.97,2.39,12.35c-1,6.28-9.9,11.84-15.1,11.84H52.22c-5.2,0-9.11-4.73-8.11-9.81l3.29-26.54c1.7-8.75,6.96-16.39,14.11-21.14"/>
  <path class="cls-4" d="M49.89,142.92h0c16.43-8.34,26.8-25.2,26.8-43.62v-8.95c0-2.02-1.64-3.67-3.67-3.67h-.24c-14.26,0-20.22-4.92-22.13-7.05-.4-.45-1.1-.45-1.51,0-1.92,2.14-7.87,7.05-22.13,7.05h-1.91c-1.1,0-2,.9-2,2v10.61c0,18.42,10.37,35.28,26.8,43.62h0"/>
  <path class="cls-3" d="M45.5,121.58h0c-.53,0-1.04-.21-1.41-.59l-7.99-8.04c-.78-.78-.78-2.05,0-2.83.78-.78,2.05-.78,2.83,0l6.58,6.62,16.22-16.15c.78-.78,2.05-.78,2.83,0,.78.78.78,2.05,0,2.83l-17.64,17.57c-.38.37-.88.58-1.41.58Z"/>
  <path class="cls-2" d="M106.18,35.52v3.27c-18.04,2.91-24.55-8.93-24.55-8.93,0,0-4.13-5.92-4.78-6.87l.02-.18c3.16-3.1,7.13-4.73,11.87-4.73s9.17,1.95,12.33,5.11c3.15,3.15,5.11,7.51,5.11,12.33Z"/>
  <path class="cls-3" d="M95.46,135.5h-11.78c-1.1,0-2-.9-2-2s.9-2,2-2h11.78c1.1,0,2,.9,2,2s-.9,2-2,2Z"/>
  <path class="cls-3" d="M131.94,107.76c-.09-.15-.18-.29-.28-.43.12-.29.23-.58.33-.87,2.58-7.63-1.29-15.81-3.83-20.01-2.52-4.13-5.15-6.88-5.25-6.97-6.37-6.77-15.11-10.65-23.98-10.65-1.1,0-2,.9-2,2,0,3.65-3.51,6.62-7.83,6.62-2.13,0-4.13-.72-5.62-2.03-1.42-1.24-2.2-2.87-2.2-4.59v-6.1c2.44,1.11,5.14,1.74,7.99,1.74,10.72,0,19.44-8.72,19.44-19.44,0-1.1-.9-2-2-2s-2,.9-2,2c0,8.51-6.93,15.44-15.44,15.44s-15.44-6.93-15.44-15.44v-11.52c0-8.51,6.93-15.44,15.44-15.44s15.44,6.93,15.44,15.44v1.41c-11.24,1.59-17.21-3.35-19.81-6.55-.7-.86-1.96-.99-2.81-.29-.86.7-.99,1.96-.29,2.81,2.23,2.74,8.09,8.34,18.79,8.34,2,0,4.16-.2,6.5-.64,0,0,0,0,.01,0,.09-.02.18-.05.26-.08.04-.01.08-.02.12-.04.07-.03.14-.07.2-.11.05-.03.1-.05.14-.08.05-.03.1-.08.14-.12.05-.04.11-.08.15-.13.05-.05.09-.11.14-.17.03-.04.07-.08.1-.13.04-.07.08-.14.11-.21.02-.04.05-.08.07-.13.02-.06.04-.12.06-.17.02-.07.05-.13.06-.2,0-.04,0-.09.02-.14.01-.09.03-.17.03-.26,0,0,0,0,0-.01v-3.12c0-10.72-8.72-19.44-19.44-19.44s-19.44,8.72-19.44,19.44v11.52c0,6.19,2.92,11.71,7.45,15.27v6.58c-5.6.19-11.11,1.87-16.01,4.93-.94.59-1.22,1.82-.63,2.76.38.61,1.03.94,1.7.94.36,0,.73-.1,1.06-.3,4.32-2.7,9.18-4.18,14.11-4.33.45,2.11,1.6,4.03,3.34,5.56,2.22,1.95,5.15,3.02,8.25,3.02,5.74,0,10.53-3.69,11.6-8.56,7.15.48,14.1,3.82,19.31,9.35.02.03,2.45,2.56,4.72,6.29,2.01,3.32,5.01,9.49,3.85,15.21-2.48-2.22-5.55-3.73-9.19-4.5-3.73-.79-7.26-.08-9.94,2-2.39,1.85-3.89,4.68-4.02,7.57-.15,3.37,1.98,6.54,5.55,8.28,3.83,1.86,9.87,2.17,15.34-2.54,1.15-.99,2.16-2.05,3.01-3.17,2.15,4.62,1.91,10.05.28,12.83-4.41,7.54-12.63,7.49-21.3,7.43-1.45,0-2.89-.02-4.32,0-1.1.02-1.98.93-1.96,2.04s.92,1.94,2.04,1.96c1.39-.03,2.8-.02,4.22,0,.71,0,1.43,0,2.15,0,8.43,0,17.49-.64,22.63-9.42,2.42-4.11,2.84-11.98-1.13-18.46ZM123.73,111.51c-4.01,3.45-8.3,3.28-10.99,1.98-2.12-1.03-3.38-2.75-3.3-4.5.08-1.74,1-3.45,2.47-4.59.94-.73,2.42-1.48,4.54-1.48.65,0,1.35.07,2.12.23,3.48.74,6.31,2.3,8.4,4.62-.82,1.33-1.91,2.59-3.25,3.74Z"/>
  <path class="cls-3" d="M49.89,144.92c-.3,0-.61-.07-.9-.22-3.42-1.74-6.64-3.86-9.58-6.31-.85-.71-.96-1.97-.25-2.82.71-.85,1.97-.96,2.82-.25,2.71,2.26,5.67,4.21,8.83,5.81.99.5,1.38,1.7.88,2.69-.35.7-1.06,1.09-1.79,1.09Z"/>
  <path class="cls-3" d="M23.57,108.12c-.98,0-1.84-.72-1.98-1.72-.33-2.34-.5-4.73-.5-7.1v-10.61c0-2.21,1.79-4,4-4h1.91c13.47,0,18.92-4.47,20.64-6.39.57-.64,1.39-1.01,2.25-1.01h0c.85,0,1.66.36,2.23,1,.65.72,1.83,1.81,3.81,2.9.97.53,1.32,1.75.79,2.72-.53.97-1.75,1.32-2.72.79-1.87-1.03-3.21-2.09-4.12-2.97-2.69,2.57-9.28,6.96-22.89,6.96h-1.91v10.61c0,2.18.15,4.38.46,6.54.15,1.09-.61,2.11-1.7,2.26-.09.01-.19.02-.28.02ZM50.63,80.97s0,0,0,0c0,0,0,0,0,0Z"/>
  <path class="cls-3" d="M49.89,144.92c-.73,0-1.43-.4-1.79-1.09-.5-.99-.11-2.19.88-2.69,13.67-6.94,23.11-20.13,25.24-35.29.15-1.09,1.18-1.86,2.26-1.7,1.09.15,1.86,1.17,1.7,2.26-2.32,16.46-12.56,30.78-27.39,38.3-.29.15-.6.22-.9.22Z"/>
</svg>