<?xml version="1.0" encoding="UTF-8"?>
<svg id="Pictograms" xmlns="http://www.w3.org/2000/svg" viewBox="0 0 160 160">
  <defs>
    <style>
      .cls-1 {
        fill: #adedff;
      }

      .cls-2 {
        fill: #2954ff;
      }

      .cls-3 {
        fill: #0e0a7f;
      }

      .cls-4 {
        fill: #00c8ff;
      }
    </style>
  </defs>
  <path class="cls-4" d="M126.43,123.63c-1.29-3.18-4.76-4.87-8.06-3.94l-10.52,2.98,1.78-1.06c3.62-1.55,5.89-3.99,4.04-7.47h0c-1.62-3.02-5.25-4.35-8.43-3.08l-3.22,1.54c.26-1.43.06-2.96-.68-4.35-1.62-3.02-5.25-4.35-8.43-3.08l-15.66,7.49-21.5-14.7-39.7,13.33,22.15,29.08,7.79-4.67c1.01-.6,2.23-.73,3.34-.36l21.08,7.13c6.45,2.18,13.44,2.19,19.89.02l1.09-.39.04.06,30.97-10.79c3.77-1.17,5.53-4.09,4.04-7.75Z"/>
  <path class="cls-4" d="M62.03,122.06l14.77,8.27c3.78,2.11,8.55.6,10.42-3.31h0c1.66-3.48.42-7.65-2.88-9.64l-25.07-15.18"/>
  <path class="cls-3" d="M30.36,108.55c-.86,0-1.65-.55-1.91-1.42-.32-1.06.27-2.17,1.33-2.5l9.5-2.9c1.05-.32,2.17.27,2.5,1.33.32,1.06-.27,2.17-1.33,2.5l-9.5,2.9c-.19.06-.39.09-.58.09Z"/>
  <path class="cls-3" d="M80.47,133.12c-1.61,0-3.22-.41-4.64-1.2l-14.77-8.25c-.96-.54-1.31-1.76-.77-2.72.54-.96,1.76-1.31,2.72-.77l14.77,8.25c1.34.75,2.89.91,4.35.44,1.46-.46,2.63-1.48,3.29-2.85,1.22-2.55.31-5.57-2.11-7.04l-28.13-17.71-5.94,1.82c-1.05.32-2.17-.27-2.5-1.33-.32-1.06.27-2.17,1.33-2.5l6.82-2.09c.56-.17,1.16-.09,1.65.22l28.87,18.18c4.17,2.52,5.73,7.76,3.62,12.17-1.13,2.35-3.2,4.15-5.69,4.94-.93.3-1.9.44-2.87.44Z"/>
  <path class="cls-3" d="M98.08,127c-.9,0-1.72-.61-1.94-1.53-.26-1.07.4-2.15,1.47-2.41l19.68-4.76c2.5-.6,5.08-.2,7.09,1.1,1.77,1.15,2.92,2.83,3.33,4.88.22,1.08-.49,2.14-1.57,2.35-1.09.22-2.14-.49-2.35-1.57-.2-.99-.71-1.75-1.58-2.31-1.09-.71-2.54-.91-3.98-.57l-19.68,4.76c-.16.04-.32.06-.47.06Z"/>
  <path class="cls-3" d="M113.73,115.89c-.9,0-1.71-.61-1.94-1.51-.32-1.28-.91-2.12-1.79-2.56-1.84-.93-4.74-.11-5.61.25-.04.02-.08.03-.11.04l-9.98,3.44c-1.05.36-2.18-.2-2.54-1.24-.36-1.04.2-2.18,1.24-2.54l9.93-3.42c.75-.3,5.21-1.94,8.87-.1,1.34.68,3.11,2.12,3.87,5.16.27,1.07-.38,2.16-1.45,2.43-.16.04-.33.06-.49.06Z"/>
  <path class="cls-1" d="M80.03,103.73s-11.04-2.69-19.36-15.01c-5.1-7.56-7.56-16.59-7.46-25.71l.17-15.13s19.11,1.35,26.05-7.64c2.21-3,2.54,9.38,26.74,7.46l.26,14.86s.6,9.95-5.1,21c0,0-10.14,16.64-21.29,20.17Z"/>
  <path class="cls-3" d="M102.31,82.7c-.27,0-.55-.06-.81-.17-1.01-.45-1.46-1.63-1.02-2.64.89-2,1.65-4.11,2.26-6.29l.65-2.58c.61-2.7.88-5.04,1.01-6.52.09-1.1,1.04-1.93,2.16-1.83,1.1.09,1.92,1.06,1.83,2.16-.19,2.33-.56,4.73-1.1,7.12l-.68,2.68c-.68,2.41-1.5,4.71-2.47,6.88-.33.75-1.06,1.19-1.83,1.19Z"/>
  <path class="cls-3" d="M79.98,103.99c-.17,0-.35-.02-.52-.07-13.89-3.73-28.48-20.68-27.83-41.56h.06c-.06-.61-.06-1.35-.06-2.23l-.02-12.41c0-.55.23-1.08.63-1.46s.94-.58,1.5-.54c.18.01,16.8,1.01,23.73-5.44-.61-.69-1.18-1.42-1.7-2.19-3.15-4.65-3.88-9.87-1.94-13.96,1.58-3.33,5.1-5.04,8.35-4.06,2.93.88,5.73,4.14,4.82,10.69-.36,2.59-1.75,5.67-4.13,9.17,5.3,4.24,13.31,6.36,22.51,5.76,1.12-.05,2.05.77,2.12,1.87.07,1.1-.77,2.05-1.87,2.12-10.2.65-19.19-1.78-25.28-6.65-6.65,6.33-19.65,6.83-24.75,6.76l.02,12.64c-.55,18.06,11.95,33.72,24.21,37.45,5.48-2.49,9.42-6.26,12.27-9.3.76-.81,2.02-.85,2.83-.09.81.76.85,2.02.09,2.83-3.23,3.44-7.76,7.75-14.26,10.53-.25.11-.52.16-.79.16ZM80.38,23.8c-1.04,0-2.26.64-2.93,2.04-1.31,2.75-.68,6.59,1.64,10,.28.42.58.82.9,1.21,1.76-2.68,2.81-5.03,3.07-6.86.47-3.38-.3-5.79-2.01-6.3-.21-.06-.43-.09-.66-.09Z"/>
  <path class="cls-3" d="M76.67,79.97h0c-.53,0-1.04-.21-1.41-.59l-7.7-7.75c-.78-.78-.78-2.05,0-2.83s2.05-.78,2.83,0l6.29,6.33,15.58-15.52c.78-.78,2.05-.78,2.83,0,.78.78.78,2.05,0,2.83l-17,16.93c-.38.37-.88.58-1.41.58Z"/>
  <circle class="cls-3" cx="133.93" cy="22.38" r="10"/>
  <circle class="cls-2" cx="109.27" cy="46.35" r="10"/>
  <circle class="cls-3" cx="109.27" cy="22.38" r="10"/>
</svg>