<?xml version="1.0" encoding="UTF-8"?>
<svg id="Pictograms" xmlns="http://www.w3.org/2000/svg" viewBox="0 0 160 160">
  <defs>
    <style>
      .cls-1 {
        fill: none;
      }

      .cls-2 {
        fill: #adedff;
      }

      .cls-3 {
        fill: #2954ff;
      }

      .cls-4 {
        fill: #0e0a7f;
      }

      .cls-5 {
        fill: #00c8ff;
      }
    </style>
  </defs>
  <g>
    <path class="cls-1" d="M75.12,126.79c.2-.08.4-.16.59-.24l-.76-.25.17.49Z"/>
    <path class="cls-1" d="M72.38,119.16c.21.46.42.95.62,1.45l.3.86-.3-.91c-.19-.48-.4-.94-.62-1.4Z"/>
    <path class="cls-2" d="M114.72,76.43c-5.77-5.63-12.18-8.65-20.9-8.65,0,4.38-4.41,7.92-9.84,7.92-2.71,0-5.17-.89-6.94-2.32-1.78-1.43-2.89-3.42-2.89-5.6v-.73h-1.47c-6.65,0-12.9,2.08-18.05,5.57,3.97,2.63,6.59,7.13,6.59,12.24v4.49c0,4.45-1.99,8.43-5.11,11.12v8.63h2.3c6.15.46,10.77,3.07,13.97,10.07.22.46.43.92.62,1.4l.3.91,1.66,4.82.76.25c6.12-2.56,12.2-6.46,12.58-17.29l-.26-21.54c0-1.1.9-2,2-2h1.91c14.26,0,20.22-4.91,22.13-7.05.41-.45.65-2.23.65-2.23Z"/>
  </g>
  <path class="cls-5" d="M114.82,141.95h0c16.43-8.34,26.8-25.2,26.8-43.62v-10.61c0-1.1-.9-2-2-2h-1.91c-14.26,0-20.22-4.91-22.13-7.05-.41-.45-1.1-.45-1.51,0-1.92,2.14-7.87,7.05-22.13,7.05h-1.91c-1.1,0-2,.9-2,2v10.61c0,18.42,10.37,35.28,26.8,43.62h0"/>
  <path class="cls-3" d="M75.32,127.72l-2.32-7.16c-2.42-6.07-7.09-10.35-14.59-11.11h-2.3c0,4.9-4.12,8.87-9.19,8.87h0c-5.08,0-9.19-3.97-9.19-8.87h-2.3c-6.94,0-12.98,4.59-14.59,11.11l-2.25,9.08c-1.05,4.25,2.29,8.33,6.82,8.33h36.77c2.16,0,2.58-5.88,5.35-7.31,3.03-1.57,8.36-.72,7.81-2.94Z"/>
  <path class="cls-5" d="M67.79,33.05v3.09c17.04,2.75,23.18-8.43,23.18-8.43,0,0,4.07-5.85,4.55-6.54-.03-.04-.21-.29-.25-.31-2.95-2.8-6.64-4.28-11.01-4.28s-8.66,1.84-11.64,4.83c-2.98,2.98-4.83,7.09-4.83,11.64Z"/>
  <g>
    <path class="cls-4" d="M126.67,99.62l-16.22,16.15-6.58-6.62c-.78-.78-2.04-.79-2.83,0-.78.78-.79,2.04,0,2.83l7.99,8.04c.37.38.88.59,1.41.59h0c.53,0,1.04-.21,1.41-.58l17.64-17.57c.78-.78.79-2.05,0-2.83-.78-.78-2.05-.78-2.83,0Z"/>
    <path class="cls-4" d="M141.62,96.33c-1.1,0-2,.9-2,2,0,17.41-9.47,33.16-24.78,41.35-6.52-3.49-12.18-8.49-16.4-14.56-.63-.91-1.88-1.13-2.78-.5-.91.63-1.13,1.88-.5,2.78,4.79,6.88,11.28,12.53,18.76,16.33.08.04.17.06.25.09.05.02.1.04.16.06.17.04.33.07.5.07,0,0,0,0,0,0s0,0,0,0c.17,0,.33-.03.5-.07.05-.01.1-.04.16-.06.08-.03.17-.05.25-.09,17.2-8.73,27.89-26.13,27.89-45.4,0-1.1-.9-2-2-2Z"/>
    <path class="cls-4" d="M114.82,80.76c1.21,1.16,3.1,2.6,5.93,3.87.05.02.09.04.14.06.19.07,4.72,1.69,8.95,2.18,1.1.13,2.09-.66,2.21-1.76.12-1.1-.66-2.09-1.76-2.21-3.5-.4-7.42-1.75-7.98-1.94-2.95-1.33-4.56-2.83-5.25-3.61-.57-.64-1.39-1.01-2.24-1.01h0c-.85,0-1.67.37-2.24,1-1.72,1.92-7.18,6.39-20.64,6.39h-1.91c-2.21,0-4,1.79-4,4.02l.27,21.45c-.31,8.91-4.75,12.52-9.98,14.92l-1.45-4.23c-3.28-8.24-8.31-12.18-16.3-12.77-.05,0-.1,0-.15,0h-2.3c-1.1,0-2,.9-2,2,0,3.97-3.23,7.19-7.19,7.19s-7.19-3.23-7.19-7.19v-4.53c2.11.95,4.43,1.47,6.82,1.47,9.2,0,16.68-7.48,16.68-16.68v-4.49c0-4.54-1.83-8.66-4.78-11.67,4.11-2.59,8.69-4.08,13.36-4.36.45,2.07,1.59,3.97,3.31,5.47,2.2,1.93,5.1,3,8.19,3,5.68,0,10.44-3.65,11.51-8.48,2.83.19,5.61.82,8.31,1.88,1.03.41,2.19-.1,2.6-1.12.41-1.03-.1-2.19-1.12-2.6-3.73-1.47-7.62-2.22-11.55-2.22-1.1,0-2,.9-2,2,0,3.6-3.47,6.54-7.73,6.54-2.11,0-4.08-.71-5.55-2-1.4-1.22-2.17-2.83-2.17-4.53v-6.09c2.34,1.09,4.94,1.72,7.69,1.72h.29c10.07,0,18.26-8.19,18.26-18.26v-10.35c0-10.07-8.19-18.26-18.26-18.26h-.29c-10.07,0-18.26,8.19-18.26,18.26v10.35c0,5.62,2.56,10.66,6.57,14.01v6.7c-5.47.32-10.82,2.07-15.61,5.17l-.85.57c-2.51-1.51-5.44-2.4-8.58-2.4-9.2,0-16.68,7.48-16.68,16.68,0,.01,0,.03,0,.04,0,.08.01.15.02.23,0,.06.01.11.02.17.01.07.04.13.06.19.02.06.04.12.06.18.03.06.06.11.09.17.03.05.06.11.09.16.04.06.09.11.13.16.04.04.07.09.12.13.05.05.1.09.16.13.05.04.1.08.15.11.05.03.11.06.16.09.06.03.13.07.2.1.01,0,.03.01.04.02,1.53.57,3.71,1.03,6.12,1.03,4.51,0,9.83-1.63,13.24-7.28.57-.94.27-2.17-.68-2.75-.94-.57-2.17-.27-2.75.68-3.77,6.24-10.3,5.6-13.16,4.96.74-6.3,6.1-11.2,12.59-11.2,6.99,0,12.68,5.69,12.68,12.68v4.49c0,6.99-5.69,12.68-12.68,12.68-4.87,0-9.36-2.84-11.46-7.24-.47-1-1.67-1.42-2.67-.95-1,.47-1.42,1.67-.95,2.67,1.03,2.17,2.51,4.05,4.3,5.56-.03.14-.05.28-.05.42v4.6h-.3c-7.9,0-14.7,5.37-16.52,13l-2.26,8.52c-.64,2.7-.03,5.5,1.69,7.67,1.72,2.18,4.3,3.43,7.07,3.43h4.7c1.1,0,2-.9,2-2s-.9-2-2-2h-4.7c-1.54,0-2.98-.69-3.93-1.91-.96-1.21-1.3-2.77-.95-4.22l2.26-8.52c1.4-5.88,6.6-9.98,12.65-9.98h.49c.95,5.22,5.52,9.19,11.01,9.19s10.06-3.97,11.01-9.19h.42c6.4.5,10.11,3.47,12.78,10.17l1.5,4.36c-.27.1-.54.21-.82.31-2.58.98-5.03,1.9-6.97,3.26-4.29,2.99-4.97,7.71-3.74,11.06,1.17,3.21,3.96,5.17,7.24,5.17.25,0,.51-.01.77-.04,2.92-.27,5.18-1.52,6.73-3.71,3.05-4.31,2.17-11.1,1.67-13.73,6.1-2.73,12.41-7.3,12.8-18.72l-.26-21.52h1.91c13.61,0,20.2-4.4,22.88-6.96ZM69,44.13v-5.07c1.46.2,2.84.29,4.14.29,9.83,0,15.23-5.15,17.28-7.67.7-.86.57-2.12-.29-2.81-.85-.69-2.12-.57-2.81.29-2.38,2.93-7.89,7.46-18.31,5.85v-1.23c0-7.86,6.4-14.26,14.26-14.26h.29c7.86,0,14.26,6.4,14.26,14.26v10.35c0,7.86-6.4,14.26-14.26,14.26h-.29c-7.86,0-14.26-6.4-14.26-14.26ZM72.55,139.38c-.85,1.2-2.11,1.87-3.83,2.03-2.65.26-3.64-1.87-3.88-2.53-.7-1.91-.27-4.63,2.27-6.4,1.54-1.07,3.75-1.91,6.1-2.8.16-.06.33-.12.49-.19.43,2.78.66,7.33-1.15,9.89Z"/>
    <path class="cls-4" d="M44.97,135.7h-5.85c-1.1,0-2,.9-2,2s.9,2,2,2h5.85c1.1,0,2-.9,2-2s-.9-2-2-2Z"/>
  </g>
</svg>