<?xml version="1.0" encoding="UTF-8"?>
<svg id="Pictograms" xmlns="http://www.w3.org/2000/svg" viewBox="0 0 160 160">
  <defs>
    <style>
      .cls-1 {
        fill: #adedff;
      }

      .cls-2 {
        fill: #2954ff;
      }

      .cls-3 {
        fill: #0e0a7f;
      }

      .cls-4 {
        fill: #00c8ff;
      }
    </style>
  </defs>
  <rect class="cls-1" x="21.37" y="56.78" width="107.12" height="54.3"/>
  <path class="cls-4" d="M110.89,141.64h0c16.43-8.34,26.8-25.2,26.8-43.62v-10.61c0-1.1-.9-2-2-2h-1.91c-14.26,0-20.22-4.92-22.13-7.05-.4-.45-1.1-.45-1.51,0-1.92,2.14-7.87,7.05-22.13,7.05h0c-2.16,0-3.91,1.75-3.91,3.91v8.7c0,18.42,10.37,35.28,26.8,43.62h0"/>
  <circle class="cls-2" cx="31.55" cy="48.82" r="3"/>
  <circle class="cls-2" cx="40.87" cy="48.82" r="3"/>
  <circle class="cls-2" cx="50.18" cy="48.82" r="3"/>
  <path class="cls-3" d="M69.84,112.77H24.18c-2.65,0-4.81-2.16-4.81-4.81v-10.59c0-1.1.9-2,2-2s2,.9,2,2v10.59c0,.45.36.81.81.81h45.66c1.1,0,2,.9,2,2s-.9,2-2,2Z"/>
  <path class="cls-3" d="M21.37,72.37c-1.1,0-2-.9-2-2v-28.42c0-2.65,2.16-4.81,4.81-4.81h86.24c1.1,0,2,.9,2,2s-.9,2-2,2H24.18c-.44,0-.81.36-.81.81v28.42c0,1.1-.9,2-2,2Z"/>
  <path class="cls-3" d="M86.49,58.81h-7.34c-1.1,0-2-.9-2-2s.9-2,2-2h7.34c1.1,0,2,.9,2,2s-.9,2-2,2Z"/>
  <path class="cls-3" d="M128.5,73.63c-1.1,0-2-.9-2-2v-12.95c-.08,0-.16,0-.24,0l-16.46.21h-13.63c-1.1,0-2-.9-2-2s.9-2,2-2h13.6l16.41-.21c.1,0,.21,0,.31-.01,0-2.12,0-4.74.04-6.56.12-5.88,3.57-8.48,6.5-8.92,3.29-.5,6.44,1.37,7.46,4.44,1.02,3.06.61,6.04-1.19,8.6-1.99,2.84-5.44,4.8-8.8,5.76,0,.18,0,.28,0,.29v13.35c0,1.1-.9,2-2,2ZM134.06,43.12c-.15,0-.3.01-.44.03-1.88.28-3.04,2.17-3.09,5.05-.03,1.53-.04,3.68-.04,5.6,2.21-.81,4.34-2.15,5.54-3.86,1.07-1.53,1.29-3.17.67-5.04-.4-1.21-1.56-1.78-2.63-1.78Z"/>
  <path class="cls-3" d="M106.51,120.29h0c-.53,0-1.04-.21-1.41-.59l-7.99-8.04c-.78-.78-.78-2.05,0-2.83.78-.78,2.05-.78,2.83,0l6.58,6.62,16.22-16.15c.78-.78,2.05-.78,2.83,0,.78.78.78,2.05,0,2.83l-17.64,17.57c-.38.37-.88.58-1.41.58Z"/>
  <path class="cls-3" d="M110.89,143.64c-.3,0-.61-.07-.9-.22-15.66-7.95-26.28-23.75-27.72-41.23-.09-1.1.73-2.07,1.83-2.16,1.11-.1,2.07.73,2.16,1.83,1.32,16.11,11.11,30.67,25.54,37.99.98.5,1.38,1.7.88,2.69-.35.69-1.06,1.09-1.79,1.09Z"/>
  <path class="cls-3" d="M133.59,119.6c-.27,0-.54-.05-.8-.17-1.01-.44-1.47-1.62-1.03-2.63,2.61-5.96,3.93-12.28,3.93-18.78v-10.61h-1.91c-13.61,0-20.2-4.4-22.88-6.96-1.35,1.3-3.51,2.89-6.81,4.24-1.03.42-2.19-.07-2.61-1.1-.42-1.02.07-2.19,1.1-2.61,3.47-1.42,5.3-3.1,6.09-3.98.56-.63,1.37-.99,2.21-.99.86-.05,1.68.37,2.26,1.01,1.72,1.92,7.18,6.39,20.64,6.39h1.91c2.21,0,4,1.79,4,4v10.61c0,7.06-1.43,13.92-4.26,20.38-.33.75-1.06,1.2-1.83,1.2ZM111.65,79.67s0,0,0,0t0,0Z"/>
  <path class="cls-3" d="M110.89,143.64c-.73,0-1.43-.4-1.79-1.09-.5-.99-.11-2.19.88-2.69,4.06-2.06,7.79-4.69,11.09-7.83.8-.76,2.07-.73,2.83.07.76.8.73,2.07-.07,2.83-3.58,3.4-7.63,6.26-12.04,8.49-.29.15-.6.22-.9.22Z"/>
</svg>