<?xml version="1.0" encoding="UTF-8"?>
<svg id="Pictograms" xmlns="http://www.w3.org/2000/svg" viewBox="0 0 160 160">
  <defs>
    <style>
      .cls-1 {
        fill: #adedff;
      }

      .cls-2 {
        fill: #2954ff;
      }

      .cls-3 {
        fill: #0e0a7f;
      }

      .cls-4 {
        fill: #00c8ff;
      }
    </style>
  </defs>
  <path class="cls-1" d="M30.62,34.13l39.12-10.45c3.68-.98,7.45,1.2,8.43,4.88l4.59,19.27c.52,2.19,1.07,6.17.88,9.48l-1.91,6.93,5.92-.18,14.28,53.47c.98,3.68-1.2,7.45-4.88,8.43l-39.12,10.45c-3.68.98-7.45-1.2-8.43-4.88L25.75,42.56c-.98-3.68,1.2-7.45,4.88-8.43Z"/>
  <path class="cls-3" d="M46.44,42.15c-.88,0-1.69-.59-1.93-1.49-.28-1.07.35-2.16,1.42-2.45l12.59-3.36c1.07-.29,2.16.35,2.45,1.42.28,1.07-.35,2.16-1.42,2.45l-12.59,3.36c-.17.05-.35.07-.52.07Z"/>
  <path class="cls-4" d="M107.7,121.41h0c16.43-8.34,26.8-25.2,26.8-43.62v-10.61c0-1.1-.9-2-2-2h-1.91c-14.26,0-20.22-4.91-22.13-7.05-.41-.45-1.1-.45-1.51,0-1.92,2.14-7.87,7.05-22.13,7.05h-1.91c-1.1,0-2,.9-2,2v10.61c0,18.42,10.37,35.28,26.8,43.62h0"/>
  <path class="cls-3" d="M103.32,100.06h0c-.53,0-1.04-.21-1.41-.59l-7.99-8.04c-.78-.78-.78-2.05,0-2.83.78-.78,2.05-.78,2.83,0l6.58,6.62,16.22-16.15c.78-.78,2.05-.78,2.83,0,.78.78.78,2.05,0,2.83l-17.64,17.57c-.38.37-.88.58-1.41.58Z"/>
  <path class="cls-3" d="M107.7,123.41c-.3,0-.61-.07-.9-.22-13.33-6.76-22.98-18.97-26.48-33.48-.26-1.07.4-2.15,1.48-2.41,1.07-.26,2.15.4,2.41,1.48,3.22,13.38,12.12,24.62,24.4,30.86.98.5,1.38,1.7.88,2.69-.35.69-1.06,1.09-1.79,1.09Z"/>
  <path class="cls-3" d="M130.4,99.37c-.27,0-.54-.05-.8-.17-1.01-.44-1.47-1.62-1.03-2.63,2.61-5.96,3.93-12.28,3.93-18.78v-10.61h-1.91c-13.61,0-20.2-4.4-22.88-6.96-1.35,1.3-3.5,2.89-6.81,4.24-1.03.42-2.19-.07-2.61-1.1-.42-1.02.07-2.19,1.1-2.61,3.47-1.42,5.3-3.1,6.09-3.98.56-.63,1.37-.99,2.22-.99h0c.86,0,1.68.37,2.25,1.01,1.72,1.92,7.17,6.39,20.64,6.39h1.91c2.21,0,4,1.79,4,4v10.61c0,7.06-1.43,13.92-4.26,20.38-.33.75-1.06,1.2-1.83,1.2Z"/>
  <path class="cls-3" d="M107.7,123.41c-.73,0-1.43-.4-1.79-1.09-.5-.99-.11-2.19.88-2.69,4.06-2.06,7.8-4.7,11.09-7.83.8-.76,2.07-.73,2.83.07.76.8.73,2.07-.07,2.83-3.58,3.4-7.63,6.26-12.04,8.49-.29.15-.6.22-.9.22Z"/>
  <path class="cls-3" d="M31.47,35.8c-2.85.76-4.54,3.71-3.78,6.55l1.95,7.25c.29,1.07-.35,2.16-1.41,2.45-.17.05-.35.07-.52.07-.88,0-1.69-.59-1.93-1.48l-1.95-7.25c-.65-2.41-.32-4.93.93-7.1,1.25-2.16,3.26-3.71,5.67-4.36l38.22-10.27c2.41-.65,4.93-.32,7.09.93,2.16,1.25,3.71,3.26,4.36,5.67.29,1.07-.35,2.16-1.41,2.45-1.06.29-2.16-.35-2.45-1.41-.37-1.38-1.26-2.53-2.5-3.25s-2.68-.9-4.06-.53l-38.22,10.27"/>
  <path class="cls-3" d="M35.3,80.91c-.88,0-1.69-.59-1.93-1.48l-1.87-6.98c-.29-1.07.35-2.16,1.41-2.45,1.07-.29,2.16.35,2.45,1.41l1.87,6.98c.29,1.07-.35,2.16-1.41,2.45-.17.05-.35.07-.52.07Z"/>
  <path class="cls-3" d="M56.5,138.37c-1.62,0-3.21-.42-4.65-1.25-2.16-1.25-3.71-3.26-4.36-5.67l-11.42-42.52c-.29-1.07.35-2.16,1.41-2.45,1.07-.29,2.16.35,2.45,1.41l11.42,42.53c.77,2.85,3.71,4.55,6.55,3.78l19.75-5.31c1.07-.29,2.16.35,2.45,1.41.29,1.07-.35,2.16-1.41,2.45l-19.75,5.31c-.81.22-1.63.32-2.44.32Z"/>
  <path class="cls-3" d="M63.71,79.23c-2.29,0-4.57-.46-6.4-1.66-2-1.32-3.14-3.33-3.3-5.81-.16-2.54.67-4.75,2.4-6.39,3.85-3.64,11.09-3.62,16.47-2.96,2.16.26,4.75.54,7.52.72,1.07-2.89,1.51-6.13,1.21-9.56-.5-5.87-2.2-12.76-5.37-24.24-.29-1.06.33-2.17,1.4-2.46,1.06-.29,2.17.33,2.46,1.4,3.23,11.71,4.97,18.78,5.5,24.96.3,3.54-.09,6.94-1.07,10.07,2.59.03,5.2-.07,7.67-.4,1.1-.14,2.1.62,2.25,1.72.15,1.09-.62,2.1-1.72,2.25-3.2.43-6.59.51-9.85.4-2.61,4.97-6.93,8.85-12.42,10.8-1.91.68-4.34,1.19-6.75,1.19ZM67.67,66.08c-3.98,0-6.98.76-8.52,2.21-.87.83-1.24,1.85-1.15,3.22.08,1.24.56,2.11,1.5,2.73,2.01,1.32,5.96,1.34,9.61.04,3.97-1.41,7.16-3.96,9.33-7.28-2.21-.17-4.27-.4-6.05-.62-1.69-.21-3.27-.31-4.73-.31Z"/>
  <circle class="cls-2" cx="96.02" cy="42.28" r="5"/>
  <circle class="cls-2" cx="110.71" cy="42.28" r="5"/>
  <circle class="cls-2" cx="125.4" cy="42.28" r="5"/>
</svg>