<?xml version="1.0" encoding="UTF-8"?>
<svg id="Pictograms" xmlns="http://www.w3.org/2000/svg" viewBox="0 0 160 160">
  <defs>
    <style>
      .cls-1 {
        fill: #adedff;
      }

      .cls-2 {
        fill: #0e0a7f;
      }

      .cls-3 {
        fill: #00c8ff;
      }
    </style>
  </defs>
  <path class="cls-1" d="M129.15,87.46c-2.78-5.43-7.11-10.25-12.33-13.52v-2.94c0-6.09-4.94-11.03-11.03-11.03h-1.1c-.41.4-.84.79-1.29,1.14v9.9l-9.72,9.72-9.72-9.72v-10.05c-.38-.31-.74-.65-1.09-.99h-1.1c-6.09,0-11.03,4.94-11.03,11.03v1.8c-4.84,1.97-8.91,5.49-11.57,9.98,3.46,1.97,9.14,3.9,18.08,3.9h.24c2.02,0,3.67,1.64,3.67,3.67v8.95c0,13.06-5.22,25.34-14.11,34.35h24.26c7.54,0,15.57-1.11,21.65-5.93,3.22-2.55,5.68-6.2,6.21-10.26,1.42-.25,2.81-.7,4.11-1.35,4.83-2.46,8-7.57,8.83-12.93.82-5.36-.51-10.89-2.98-15.71Z"/>
  <path class="cls-3" d="M93.8,30.21c2.16,0,4.08.99,5.35,2.53.04.05.07.1.11.14.1.12.19.25.28.38.75,1.11,1.19,2.44,1.19,3.88v1.68h12.41c0-10.68-8.66-19.34-19.34-19.34s-19.34,8.66-19.34,19.34l-7.01,6.87c-2.32,2.27-.71,6.22,2.54,6.22l8.27.05v-13.14h8.62v-1.7c0-3.82,3.1-6.92,6.92-6.92Z"/>
  <path class="cls-3" d="M54.4,142.92h0c16.43-8.34,26.8-25.2,26.8-43.62v-8.95c0-2.02-1.64-3.67-3.67-3.67h-.24c-14.26,0-20.22-4.92-22.13-7.05-.4-.45-1.1-.45-1.51,0-1.92,2.14-7.87,7.05-22.13,7.05h-1.91c-1.1,0-2,.9-2,2v10.61c0,18.42,10.37,35.28,26.8,43.62h0"/>
  <g>
    <path class="cls-2" d="M50.01,121.58h0c.53,0,1.04-.21,1.41-.58l17.64-17.57c.78-.78.79-2.05,0-2.83-.78-.78-2.05-.78-2.83,0l-16.22,16.15-6.58-6.62c-.78-.79-2.04-.79-2.83,0-.78.78-.79,2.04,0,2.83l7.99,8.04c.37.38.88.59,1.41.59Z"/>
    <path class="cls-2" d="M31.52,88.69c13.61,0,20.2-4.4,22.89-6.96.91.87,2.25,1.94,4.12,2.97.97.53,2.18.18,2.72-.79.53-.97.18-2.18-.79-2.72-1.98-1.09-3.16-2.17-3.81-2.9-.57-.63-1.38-1-2.23-1h0c-.85,0-1.67.37-2.25,1.01-1.72,1.92-7.18,6.39-20.64,6.39h-1.91c-2.21,0-4,1.79-4,4v10.61c0,2.37.17,4.76.5,7.1.14,1,1,1.72,1.98,1.72.09,0,.19,0,.28-.02,1.09-.15,1.86-1.17,1.7-2.26-.3-2.15-.46-4.35-.46-6.54v-10.61h1.91Z"/>
    <path class="cls-2" d="M81,104.14c-1.08-.15-2.11.61-2.26,1.7-2.09,14.83-11.16,27.77-24.34,34.82-2.82-1.51-5.48-3.3-7.92-5.34-.85-.71-2.11-.59-2.82.25-.71.85-.59,2.11.25,2.82,2.94,2.45,6.16,4.57,9.58,6.3.29.14.59.22.91.22s.62-.07.91-.22c14.84-7.53,25.08-21.85,27.39-38.3.15-1.09-.61-2.11-1.7-2.26Z"/>
    <path class="cls-2" d="M109.72,70.62c-.39,1.03.13,2.19,1.16,2.58,4.27,1.62,8.29,4.42,11.62,8.11.39.44.94.66,1.49.66.48,0,.96-.17,1.34-.52.82-.74.88-2,.14-2.82-3.75-4.16-8.31-7.33-13.17-9.17-1.03-.39-2.19.13-2.58,1.16Z"/>
    <path class="cls-2" d="M129.25,92.88c.27.85,1.06,1.4,1.91,1.4.2,0,.4-.03.6-.09,1.05-.33,1.64-1.46,1.3-2.51-.54-1.72-1.25-3.44-2.11-5.11-.5-.98-1.71-1.37-2.69-.87-.98.5-1.37,1.71-.87,2.69.76,1.48,1.38,2.99,1.86,4.5Z"/>
    <path class="cls-2" d="M132.39,97.95c-1.1,0-2,.9-2,2,0,1-.07,1.98-.22,2.93-.78,5.02-3.75,9.41-7.75,11.45-.38.19-.76.36-1.16.51-.33-4.2-2.56-8.06-5.98-10.08-2.44-1.44-5.33-1.81-7.73-.99-2.88,1-4.94,3.8-4.88,6.66.06,2.89,2.06,5.55,5.48,7.3,2.61,1.33,5.48,1.98,8.45,1.98-.89,2.39-2.57,4.66-4.84,6.45-4.73,3.75-11.22,5.5-20.41,5.5-1.1,0-2,.9-2,2s.9,2,2,2c10.14,0,17.42-2.02,22.89-6.36,3.43-2.72,5.82-6.36,6.7-10.16,1.14-.3,2.24-.71,3.29-1.24,5.13-2.62,8.93-8.14,9.9-14.41.18-1.15.27-2.33.27-3.54,0-1.1-.9-2-2-2ZM109.97,114.16c-1.57-.81-3.27-2.23-3.3-3.82-.02-1.14.94-2.37,2.19-2.8.43-.15.9-.22,1.39-.22.98,0,2.04.3,3.01.87,2.42,1.43,3.98,4.4,4.06,7.48-2.52.15-5.08-.37-7.34-1.51Z"/>
    <path class="cls-2" d="M63.53,79.41c.49,0,.98-.18,1.36-.53,2.99-2.77,6.67-4.65,10.65-5.44,1.08-.21,1.79-1.26,1.58-2.35-.21-1.08-1.26-1.79-2.35-1.58-4.71.93-9.07,3.15-12.6,6.43-.81.75-.86,2.02-.11,2.83.39.42.93.64,1.47.64Z"/>
    <path class="cls-2" d="M70,53.93h7.01c.92,3.09,2.67,5.81,4.99,7.93v9.17c0,.53.21,1.04.59,1.41l9.72,9.72c.39.39.9.59,1.41.59s1.02-.2,1.41-.59l9.72-9.72c.78-.78.78-2.05,0-2.83s-2.05-.78-2.83,0l-8.3,8.3-7.72-7.72v-5.59c2.36,1.18,5.01,1.86,7.82,1.86,9.67,0,17.54-7.87,17.54-17.54,0-1.1-.9-2-2-2s-2,.9-2,2c0,7.46-6.07,13.54-13.54,13.54s-13.54-6.07-13.54-13.54v-2.88c0-1.1-.9-2-2-2s-2,.9-2,2v2.88c0,.33.03.66.05.99h-6.32c-1.01,0-1.41-.77-1.51-1.01s-.36-1.07.37-1.78l6.43-6.3h37.79c1.1,0,2-.9,2-2,0-11.76-9.57-21.33-21.34-21.33-2.9,0-5.72.57-8.37,1.7-1.02.43-1.49,1.61-1.05,2.62.43,1.02,1.61,1.49,2.62,1.05,2.15-.92,4.44-1.38,6.8-1.38,8.88,0,16.23,6.71,17.22,15.33h-8.25c-.16-4.78-4.09-8.61-8.9-8.61s-8.74,3.84-8.9,8.61h-10.43c-.52,0-1.03.21-1.4.57l-7.01,6.87c-1.64,1.61-2.14,4.02-1.27,6.15s2.91,3.5,5.21,3.5ZM93.81,32.22c2.61,0,4.73,2.05,4.89,4.61h-9.78c.16-2.57,2.28-4.61,4.89-4.61Z"/>
  </g>
</svg>