<?xml version="1.0" encoding="UTF-8"?>
<svg id="Pictograms" xmlns="http://www.w3.org/2000/svg" viewBox="0 0 160 160">
  <defs>
    <style>
      .cls-1 {
        fill: #adedff;
      }

      .cls-2 {
        fill: #0e0a7f;
      }

      .cls-3 {
        fill: #00c8ff;
      }
    </style>
  </defs>
  <path class="cls-1" d="M77.93,47.76c4.69,0,9.2.81,13.39,2.28.4-1.41.58-2.92.51-4.47-.35-7.71-7.12-13.64-14.96-13.64h-2.19s-.03,0-.03-.02c-2.95-7.75-10.53-13.28-19.45-13.28-10.76,0-19.61,8.05-20.68,18.36,0,.02-.02.03-.03.03h-6.63c-6.66,0-12.05,5.37-11.95,11.95.1,6.49,5.78,11.57,12.38,11.57h20.21c7.36-7.86,17.82-12.78,29.44-12.78Z"/>
  <path class="cls-2" d="M68.04,20.61c-3.81-2.58-8.27-3.94-12.89-3.94-11.16,0-20.54,7.84-22.66,18.56-.46-.03-.93-.07-1.37-.09-.35-.02-8.44-.3-13.32,4.47-2.43,2.38-3.62,5.54-3.54,9.38.15,7.28,6.27,13.21,13.63,13.21h3.69c1.1,0,2-.9,2-2s-.9-2-2-2h-3.69c-5.2,0-9.52-4.17-9.63-9.29-.06-2.73.71-4.83,2.33-6.43,3.62-3.56,10.29-3.34,10.35-3.34.43.02.84.04,1.25.07-.1,4.55.39,9.88,5.3,12.85,2.99,1.81,6.88,1.54,9.44-.66,2.32-2,2.96-4.99,1.71-8.02-2.06-4.96-7.14-6.92-12.14-7.72,1.89-8.68,9.54-14.99,18.65-14.99,3.82,0,7.5,1.13,10.65,3.26.92.62,2.16.38,2.78-.54.62-.92.38-2.16-.54-2.78ZM44.94,44.92c.74,1.78.07,2.86-.62,3.46-1.07.92-3.05,1.31-4.76.27-2.7-1.63-3.39-4.3-3.36-8.96,4.76.84,7.64,2.57,8.74,5.23Z"/>
  <path class="cls-2" d="M113.2,64.22c-6.4-9.48-16.5-16.06-27.71-18.05-4.62-.82-9.45-.87-14.09-.14-1.09.17-1.84,1.19-1.67,2.29.17,1.09,1.21,1.84,2.29,1.67,1.45-.23,2.93-.36,4.41-.42v18.22c-4.15-.13-8.18-.84-11.95-2.08.12-.23.22-.46.34-.69,1.56-2.93,3.41-5.72,5.51-8.3.7-.86.57-2.12-.29-2.81-.85-.7-2.12-.57-2.81.29-2.27,2.78-4.27,5.79-5.95,8.95-.2.37-.37.75-.56,1.13-2.98-1.33-5.74-3.02-8.24-5.03,1.28-1.14,2.63-2.19,4.05-3.15.92-.62,1.16-1.86.54-2.78-.62-.92-1.86-1.16-2.78-.54-2.08,1.41-4.05,3.01-5.85,4.75-1.46,1.42-2.84,2.96-4.08,4.59-.64.83-1.25,1.69-1.82,2.55-1.92,2.92-3.48,6.08-4.62,9.38-1.55,4.46-2.33,9.14-2.33,13.9s.83,9.74,2.48,14.33c6.03,16.8,22.08,28.09,39.94,28.09,3.51,0,7-.43,10.38-1.28,1.07-.27,1.72-1.36,1.45-2.43-.27-1.07-1.36-1.72-2.43-1.45-2.28.57-4.63.94-6.99,1.08v-35.88h1.58c1.1,0,2-.9,2-2s-.9-2-2-2h-1.58v-14.68c4.75-.26,9.34-1.22,13.62-2.82,1.11,2.61,2.02,5.31,2.67,8.08.22.92,1.04,1.54,1.94,1.54.15,0,.31-.02.46-.05,1.08-.25,1.74-1.33,1.49-2.41-.7-2.99-1.69-5.9-2.89-8.73,3.03-1.47,5.86-3.27,8.42-5.4.03-.02.05-.05.08-.08,1.33,1.43,2.56,2.97,3.66,4.61.39.57,1.02.88,1.66.88.38,0,.77-.11,1.12-.34.92-.62,1.16-1.86.54-2.78ZM41.71,75.35c1.04-2.99,2.44-5.84,4.19-8.49.51-.78,1.07-1.56,1.65-2.31.66-.85,1.36-1.68,2.09-2.48,2.84,2.35,6.02,4.3,9.43,5.83-2.47,5.98-3.84,12.31-4.05,18.88h-15.09c-.1,0-.2.02-.3.03.11-3.92.81-7.77,2.09-11.46ZM76.43,86.41h-6.4c-1.1,0-2,.9-2,2s.9,2,2,2h6.4v35.92c-15.53-.65-29.3-10.69-34.59-25.41-1.18-3.28-1.89-6.69-2.14-10.17.07,0,.14.02.22.02h15.11c.21,5.55,1.26,10.94,3.12,16.13-1.01.46-2.01.95-2.99,1.49-.97.54-1.32,1.75-.78,2.72.36.66,1.05,1.03,1.75,1.03.33,0,.66-.08.97-.25.83-.46,1.68-.88,2.55-1.28.2.46.39.92.61,1.37,1.45,3.05,3.2,5.98,5.2,8.71.39.54,1,.82,1.62.82.41,0,.82-.12,1.18-.39.89-.65,1.09-1.9.43-2.79-1.85-2.53-3.47-5.24-4.81-8.07-.18-.38-.34-.77-.51-1.15,2.75-.95,5.62-1.63,8.61-2.01,1.1-.14,1.87-1.14,1.74-2.23-.14-1.1-1.15-1.88-2.23-1.74-3.33.42-6.54,1.18-9.61,2.26-1.67-4.7-2.62-9.59-2.83-14.63h4.17c1.1,0,2-.9,2-2s-.9-2-2-2h-4.19c.22-6.07,1.49-11.91,3.77-17.42,4.3,1.47,8.91,2.29,13.64,2.43v14.63ZM96.04,63.71c-.1-.19-.18-.39-.28-.58-1.68-3.16-3.68-6.17-5.95-8.95-.7-.86-1.96-.98-2.81-.29-.86.7-.98,1.96-.29,2.81,2.1,2.58,3.96,5.37,5.51,8.3.05.09.08.18.13.27-3.75,1.37-7.77,2.2-11.92,2.45v-18.12c1.47.09,2.93.26,4.36.51,6.89,1.22,13.31,4.37,18.54,8.94-2.22,1.82-4.67,3.38-7.3,4.66Z"/>
  <path class="cls-3" d="M114.7,141.64c16.43-8.34,26.8-25.2,26.8-43.62v-10.61c0-1.1-.9-2-2-2h-1.91c-14.26,0-20.22-4.92-22.13-7.05-.4-.45-1.1-.45-1.51,0-1.92,2.14-7.87,7.05-22.13,7.05h0c-2.16,0-3.91,1.75-3.91,3.91v8.7c0,18.42,10.37,35.28,26.8,43.62"/>
  <path class="cls-2" d="M110.32,120.29h0c-.53,0-1.04-.21-1.41-.59l-7.99-8.04c-.78-.78-.78-2.05,0-2.83.78-.78,2.05-.78,2.83,0l6.58,6.62,16.22-16.15c.78-.78,2.05-.78,2.83,0,.78.78.78,2.05,0,2.83l-17.64,17.57c-.38.37-.88.58-1.41.58Z"/>
  <path class="cls-2" d="M137.4,119.6c-.27,0-.54-.05-.8-.17-1.01-.44-1.47-1.62-1.03-2.63,2.61-5.96,3.93-12.28,3.93-18.78v-10.61h-1.91c-13.61,0-20.2-4.39-22.88-6.96-1.35,1.3-3.5,2.89-6.81,4.24-1.03.42-2.19-.07-2.61-1.1-.42-1.02.07-2.19,1.1-2.61,3.47-1.42,5.3-3.1,6.09-3.98.56-.63,1.37-.99,2.22-.99h0c.86,0,1.68.37,2.25,1.01,1.72,1.92,7.18,6.39,20.64,6.39h1.91c2.21,0,4,1.79,4,4v10.61c0,7.06-1.43,13.92-4.26,20.38-.33.75-1.06,1.2-1.83,1.2Z"/>
  <path class="cls-2" d="M127.72,132.1c-.76-.8-2.03-.83-2.83-.07-3.05,2.9-6.48,5.34-10.19,7.33-13.93-7.47-23.34-21.73-24.64-37.49-.09-1.1-1.06-1.93-2.16-1.83-1.1.09-1.92,1.06-1.83,2.16,1.44,17.49,12.06,33.28,27.72,41.23.08.04.17.06.25.09.05.02.1.04.16.06.17.04.33.07.5.07,0,0,0,0,0,0s0,0,0,0c.17,0,.33-.03.5-.07.05-.01.1-.04.16-.06.08-.03.17-.05.25-.09,4.41-2.24,8.46-5.09,12.04-8.49.8-.76.83-2.03.07-2.83Z"/>
</svg>