<?xml version="1.0" encoding="utf-8"?>
<!-- Generator: Adobe Illustrator 28.1.0, SVG Export Plug-In . SVG Version: 6.00 Build 0)  -->
<svg version="1.1" id="Layer_1" xmlns="http://www.w3.org/2000/svg" xmlns:xlink="http://www.w3.org/1999/xlink" x="0px" y="0px"
	 viewBox="0 0 113 98" style="enable-background:new 0 0 113 98;" xml:space="preserve">
<style type="text/css">
	.st0{fill-rule:evenodd;clip-rule:evenodd;fill:#00C8FF;}
	.st1{fill-rule:evenodd;clip-rule:evenodd;fill:#ADFFFF;}
	.st2{fill:#00C8FF;}
</style>
<path class="st0" d="M43.27,63.16c0,5.67-3.37,11.39-9.01,15.3l-0.29,0.2l-0.29-0.2c-5.64-3.91-9.01-9.64-9.01-15.3V60.7l0.43-0.07
	c3.19-0.51,6.16-1.95,8.53-4.14l0.34-0.32l0.34,0.32c2.37,2.2,5.34,3.64,8.53,4.14l0.43,0.07V63.16z M44.3,58.59
	c-3.59-0.29-6.94-1.93-9.37-4.6c-0.46-0.53-1.26-0.59-1.79-0.13c-0.05,0.04-0.09,0.08-0.13,0.13c-2.43,2.67-5.78,4.31-9.37,4.6
	c-0.67,0.06-1.18,0.63-1.17,1.3v3.28c0,7.13,4.52,13.64,10.79,17.68c0.43,0.28,0.98,0.28,1.41,0c6.27-4.03,10.79-10.55,10.79-17.68
	v-3.28C45.48,59.21,44.97,58.65,44.3,58.59z"/>
<path class="st0" d="M32.86,70.89l-3.41-3.45l1.16-1.17l2.25,2.28l4.61-4.67l1.16,1.17L32.86,70.89z M33.72,57.55
	c-2.34,2.07-5.19,3.47-8.25,4.04v1.61c0,5.27,3.08,10.61,8.25,14.35c5.17-3.74,8.25-9.08,8.25-14.35v-1.61
	C38.92,61.02,36.06,59.62,33.72,57.55z"/>
<path class="st1" d="M22.47,83.55v1.83c0,2.02,1.64,3.67,3.65,3.67h65.7c2.01,0,3.65-1.65,3.65-3.67v-1.83H22.47z"/>
<path class="st0" d="M71.97,57.42V79.7c0,0.74,0.61,1.35,1.35,1.35h18.29c0.75,0,1.35-0.61,1.35-1.35V57.42
	c0-0.74-0.61-1.35-1.35-1.35h-5.76V55.4c0-0.74-0.61-1.35-1.35-1.35h-4.06c-0.75,0-1.35,0.61-1.35,1.35v0.68h-5.76
	C72.58,56.07,71.97,56.68,71.97,57.42z M82.51,55.4c0.54,0,0.98,0.47,0.98,1.01c0,0.57-0.44,1.01-1.02,1.01
	c-0.58,0-1.02-0.44-1.02-1.01C81.46,55.84,81.9,55.4,82.51,55.4z M74.01,58.1h3.73v2.03h9.48V58.1h3.73v20.93H74.01V58.1z"/>
<rect x="75.97" y="63.05" class="st2" width="13" height="1"/>
<rect x="75.97" y="72.55" class="st2" width="5.5" height="1.5"/>
<rect x="82.47" y="65.55" class="st2" width="6.5" height="1.5"/>
<path class="st1" d="M83.74,75.05l-1.27,2.27l1.1-0.16l0.57,0.89l1.33-2.37c-0.17-0.03-0.33-0.1-0.5-0.2
	c-0.07,0-0.13,0.03-0.23,0.03c-0.17,0-0.37-0.03-0.53-0.1C84.04,75.31,83.87,75.21,83.74,75.05z"/>
<path class="st1" d="M85.97,75.71l1.33,2.34l0.56-0.95l1.12,0.22l-1.26-2.27h-0.03c-0.14,0.19-0.38,0.35-0.63,0.44
	c-0.17,0.06-0.31,0.09-0.49,0.09c-0.07,0-0.14,0-0.21,0C86.25,75.65,86.11,75.68,85.97,75.71z"/>
<path class="st1" d="M82.47,72.05c0,0.19,0.07,0.39,0.21,0.52c-0.07,0.19-0.07,0.39,0,0.58c0.07,0.19,0.24,0.35,0.49,0.45
	c0,0.23,0.07,0.42,0.24,0.58c0.14,0.13,0.35,0.23,0.56,0.23c0.07,0.19,0.24,0.32,0.42,0.39c0.21,0.1,0.45,0.1,0.7,0
	c0.17,0.16,0.38,0.26,0.63,0.26c0.21,0,0.42-0.06,0.56-0.19c0.21,0.06,0.42,0.06,0.63,0c0.21-0.06,0.38-0.23,0.49-0.45
	c0.24,0,0.45-0.06,0.63-0.23c0.14-0.13,0.24-0.32,0.24-0.52c0.21-0.06,0.35-0.23,0.42-0.39c0.1-0.19,0.1-0.42,0-0.65
	c0.17-0.16,0.28-0.35,0.28-0.58c0-0.19-0.07-0.39-0.21-0.52c0.07-0.19,0.07-0.39,0-0.58c-0.07-0.19-0.24-0.35-0.49-0.45
	c0-0.23-0.07-0.42-0.24-0.58c-0.14-0.13-0.35-0.23-0.56-0.23c-0.07-0.19-0.24-0.32-0.42-0.39c-0.21-0.1-0.45-0.1-0.7,0
	c-0.17-0.16-0.38-0.26-0.63-0.26c-0.21,0-0.42,0.06-0.56,0.19c-0.21-0.06-0.42-0.06-0.63,0c-0.21,0.06-0.38,0.23-0.49,0.45
	c-0.24,0-0.45,0.06-0.63,0.23c-0.14,0.13-0.24,0.32-0.24,0.52c-0.21,0.06-0.35,0.23-0.42,0.39c-0.1,0.19-0.1,0.42,0,0.65
	C82.54,71.59,82.47,71.82,82.47,72.05z M83.84,72.05L83.84,72.05c0-1,0.87-1.77,1.92-1.77c1.08,0,1.92,0.81,1.92,1.77
	c0,0.97-0.87,1.77-1.92,1.77C84.68,73.82,83.84,73.01,83.84,72.05z"/>
<path class="st0" d="M68.06,53.67l-13.63-3.11c-0.36-0.08-0.67,0.15-0.75,0.47l-5.95,26.04c-0.08,0.36,0.15,0.67,0.47,0.75
	l13.63,3.11c0.36,0.08,0.67-0.15,0.75-0.47l5.91-26.04C68.61,54.09,68.38,53.75,68.06,53.67z M59.72,53.08l2.48,0.58
	c0.36,0.08,0.55,0.42,0.47,0.75c-0.08,0.36-0.42,0.55-0.75,0.47l-2.48-0.58c-0.36-0.08-0.55-0.42-0.47-0.75
	C59.02,53.23,59.36,53,59.72,53.08z M61.44,76.96L50.28,74.4l4.51-19.83l11.19,2.56L61.44,76.96z"/>
<polygon class="st1" points="46.29,69.35 45.33,66.75 47,65.19 46.16,63.06 47.82,61.47 47.01,59.33 49,57.44 49.96,58.42 
	48.62,59.68 49.43,61.82 47.77,63.41 48.58,65.55 46.92,67.14 47.59,68.85 "/>
<path class="st1" d="M44.88,14.74c-0.17-0.32-0.22-0.61-0.39-0.93c-2.15-4.01-7.09-5.5-11.1-3.35c-4.01,2.15-5.5,7.09-3.35,11.1
	c0.17,0.32,0.3,0.56,0.55,0.84C18.91,32.82,15.42,50.2,23.13,64.57l61.01-32.75C76.43,17.46,60.01,10.76,44.88,14.74z M33.25,19.85
	c-1.21-2.25-0.39-4.96,1.86-6.17c2.25-1.21,4.96-0.39,6.17,1.86c0.04,0.08,0.09,0.16,0.13,0.24c-1.37,0.53-2.78,1.18-4.14,1.91
	c-1.36,0.73-2.61,1.5-3.88,2.4C33.33,20.01,33.29,19.93,33.25,19.85z"/>
</svg>
