<?xml version="1.0" encoding="UTF-8"?>
<svg id="Pictograms" xmlns="http://www.w3.org/2000/svg" viewBox="0 0 160 160">
  <defs>
    <style>
      .cls-1 {
        fill: #adedff;
      }

      .cls-2 {
        fill: #0e0a7f;
      }

      .cls-3 {
        fill: #00c8ff;
      }
    </style>
  </defs>
  <path class="cls-2" d="M59.7,85.09c-.98-.16-1.66-1.08-1.66-2.08V25.17c0-.53.21-1.04.59-1.42.38-.38.91-.59,1.42-.58l7.03.03c.99,0,1.91.69,2.07,1.67.2,1.25-.76,2.33-1.97,2.33h0l-5.12-.02v55.94c0,1.21-1.08,2.18-2.34,1.97Z"/>
  <path class="cls-1" d="M40.31,49.88h39.25c.58,0,1.14.22,1.56.61l25,23.34c.43.41.68.96.68,1.55v66.32c0,1.19-1,2.15-2.24,2.15H40.31c-1.23,0-2.24-.96-2.24-2.15V52.03c0-1.19,1-2.15,2.24-2.15Z"/>
  <path class="cls-2" d="M102.7,60.42c-.98-.16-1.66-1.08-1.66-2.08v-10.83c0-1.1-.9-2-2-2h-15.19c-1,0-1.92-.68-2.08-1.66-.2-1.25.76-2.34,1.97-2.34h15.29c3.3,0,6,2.7,6,6v10.94c0,1.21-1.08,2.18-2.34,1.97Z"/>
  <path class="cls-2" d="M37.74,95.51c-.98-.16-1.66-1.08-1.66-2.08v-42.84c0-1.1.89-2,2-2l43.52-.07h0c.53,0,1.04.21,1.42.59l5.42,5.47c.7.71.87,1.84.28,2.65-.74,1.03-2.19,1.11-3.05.24l-4.91-4.95-40.69.06v40.95c0,1.21-1.08,2.18-2.34,1.97Z"/>
  <path class="cls-2" d="M106.45,84.04c-.98-.16-1.66-1.08-1.66-2.08v-6.28s-6.37-6.43-6.37-6.43c-.7-.71-.87-1.84-.28-2.65.75-1.03,2.19-1.11,3.05-.24l7.02,7.09c.37.37.58.88.58,1.41v7.2c0,1.21-1.08,2.18-2.34,1.97Z"/>
  <path class="cls-2" d="M106.45,99.46c-.98-.16-1.66-1.08-1.66-2.08v-7.68c0-1,.68-1.92,1.66-2.08,1.25-.2,2.34.76,2.34,1.97v7.9c0,1.21-1.08,2.18-2.34,1.97Z"/>
  <rect class="cls-3" x="64.93" y="99.36" width="15" height="18" rx="4" ry="4"/>
  <g>
    <path class="cls-2" d="M106.45,119.17c-.98.16-1.66,1.08-1.66,2.08v16.95c0,1.09-.9,1.99-2,1.99l-60.61.07h0c-1.09,0-1.99-.88-2-1.97l-.11-9.84c-.01-1.1-.9-1.98-2-1.98h-.02c-1.1,0-1.99.9-1.98,2l.11,9.86c.03,3.27,2.72,5.93,6,5.93h0l60.61-.07c3.31,0,5.99-2.69,5.99-5.99v-17.06c0-1.21-1.08-2.18-2.34-1.97Z"/>
    <path class="cls-2" d="M125.54,44.22c-.02-14.34-2.09-27.85-16.68-30.01-4.7-.69-9.42.25-12.94,2.58-2.2,1.4-3.6,3.75-4.02,6.35-.79,0-3.62,0-4.33,0-1.11,0-2,.9-2,2.01,0,1.1.9,2,2,2,.75,0,3.63,0,4.46,0,.12.52.28,1.03.49,1.54,1.98,5.94,8.88,12.04,14.88,11.06,2.79-.46,5.05-2.43,5.91-5.14.83-2.61.14-5.41-1.83-7.34-.02-.02-.06-.06-.08-.08-4.48-3.94-9.32-4.03-15.41-4.03.34-1.25,1.06-2.34,2.11-3.01,2.74-1.81,6.44-2.53,10.17-1.98,11.02,1.63,13.25,11.21,13.27,26.15,0,0,0,0,0,.01,0,0,0,0,0,0v60.67h-24.56v-22.97c0-1.1-.9-2-2-2h-8.24v-1.71c0-1.21-1.08-2.18-2.34-1.97-.98.16-1.66,1.08-1.66,2.08v1.6h-21.01v-1.71c0-1.21-1.08-2.18-2.34-1.97-.98.16-1.66,1.08-1.66,2.08v1.6h-8.19c-1.1,0-2,.9-2,2v22.85h-1.62c-1.21,0-2.18,1.08-1.97,2.34.16.98,1.08,1.66,2.08,1.66h1.52v22.24c0,1.1.9,2,2,2h8.19v2.1c0,1,.68,1.92,1.66,2.08,1.25.2,2.34-.76,2.34-1.97v-2.2h21.01v2.1c0,1,.68,1.92,1.66,2.08,1.25.2,2.34-.76,2.34-1.97v-2.2h8.24c1.1,0,2-.9,2-2v-22.13l26.56.02h0c.53,0,1.04-.21,1.41-.59s.59-.88.59-1.41v-62.78s0,0,0,0ZM108.74,30.16c1.24,1.21.95,2.67.77,3.24-.31.99-1.2,2.14-2.74,2.4-3.75.62-9.08-4.22-10.45-8.43-.02-.05-.03-.1-.05-.14-.01-.03-.02-.05-.03-.08,5.51,0,9.22.11,12.5,3.01ZM92.98,129.12h-6.24v-5.06c0-.38-.11-.75-.31-1.07l-1.85-2.92c-.65-1.03-2.08-1.26-3.03-.41-.74.66-.82,1.8-.29,2.65l1.48,2.34v4.48h-21.01v-4.48l1.54-2.43c.63-.99.28-2.32-.8-2.86-.94-.47-2.08-.07-2.64.82l-1.79,2.82c-.2.32-.31.69-.31,1.07v5.06h-6.19v-20.24h4.55c1.21,0,2.18-1.08,1.97-2.34-.16-.98-1.08-1.66-2.08-1.66h-4.44v-20.85h6.19v5.56c0,.38.11.75.31,1.07l1.85,2.92c.38.6,1.03.93,1.69.93.39,0,.79-.11,1.13-.35.9-.62,1.07-1.9.48-2.83l-1.47-2.32v-4.98h21.01v4.98l-1.49,2.35c-.51.81-.46,1.9.23,2.57.41.39.91.58,1.41.58.66,0,1.31-.33,1.69-.93l1.85-2.92c.2-.32.31-.69.31-1.07v-5.56h6.24v20.95h-6.27s0,0,0,0c-1.21,0-2.18,1.08-1.97,2.34.16.98,1.08,1.66,2.08,1.66h6.17v20.14Z"/>
  </g>
  <path class="cls-2" d="M76.21,27.18c-1.21,0-2.17-1.08-1.97-2.33.16-.98,1.07-1.67,2.07-1.67l4.77-.02h0c.72,0,1.44.36,1.76,1.01.74,1.5-.33,2.98-1.75,2.99l-4.87.02h0Z"/>
</svg>