<?xml version="1.0" encoding="UTF-8"?>
<svg id="Pictograms" xmlns="http://www.w3.org/2000/svg" viewBox="0 0 160 160">
  <defs>
    <style>
      .cls-1 {
        fill: none;
      }

      .cls-2 {
        fill: #adedff;
      }

      .cls-3 {
        fill: #0e0a7f;
      }

      .cls-4 {
        fill: #00c8ff;
      }
    </style>
  </defs>
  <path class="cls-2" d="M107.68,123.39h14.14c2.28,0,4.13-1.79,4.13-3.99v-58.85c0-2.2-1.85-3.99-4.13-3.99H21.31c-2.28,0-4.13,1.79-4.13,3.99v58.85c0,2.2,1.85,3.99,4.13,3.99h43.14"/>
  <g>
    <path class="cls-1" d="M60.74,137.2c-.52.9-.17,1.7,0,2,.17.3.69,1,1.73,1h18.18c1.04,0,1.56-.7,1.73-1,.17-.3.52-1.1,0-2l-6.84-11.81h-7.97l-6.84,11.81Z"/>
    <path class="cls-1" d="M71.56,120.5c-.33,0-1.13.1-1.65.89h3.31c-.53-.79-1.32-.89-1.65-.89Z"/>
    <path class="cls-3" d="M85.84,135.19l-5.68-9.8h3.79c1.1,0,2-.9,2-2s-.9-2-2-2H19.97v-62.78h8.68c1.1,0,2-.9,2-2s-.9-2-2-2h-10.68c-1.1,0-2,.9-2,2v66.78c0,1.1.9,2,2,2h44.98l-5.68,9.8c-1.09,1.88-1.09,4.12,0,6,1.08,1.88,3.03,3,5.2,3h18.18c2.17,0,4.11-1.12,5.2-3,1.08-1.88,1.08-4.12,0-6ZM82.38,139.2c-.17.3-.69,1-1.73,1h-18.18c-1.04,0-1.56-.7-1.73-1-.17-.3-.52-1.1,0-2l6.84-11.81h7.97l6.84,11.81c.52.9.17,1.7,0,2Z"/>
  </g>
  <path class="cls-4" d="M40.25,39.26l-1.38.51,1.38.51c4.11,1.52,7.34,4.76,8.86,8.86l.51,1.38.51-1.38c1.52-4.11,4.76-7.34,8.86-8.86l1.38-.51-1.38-.51c-4.11-1.52-7.34-4.76-8.86-8.86l-.51-1.38-.51,1.38c-1.52,4.11-4.76,7.34-8.86,8.86Z"/>
  <path class="cls-4" d="M28.49,29.42h0,0c2.78,1.03,4.98,3.23,6.01,6.01h0s0,0,0,0c1.03-2.78,3.23-4.98,6.01-6.01h0,0c-2.78-1.03-4.98-3.23-6.01-6.01h0s0,0,0,0c-1.03,2.78-3.23,4.98-6.01,6.01Z"/>
  <g>
    <path class="cls-4" d="M115.45,78.48c-4.82-.31-8.13-1.46-12.56-3.46l-2.89-1.25.07,17.88c-.04,5.39,2.02,10.45,5.8,14.26,3.78,3.81,8.82,5.91,14.19,5.91,11.02,0,19.99-8.97,19.99-19.99v-19.22l-5.27,1.34c-1.07.27-2.16-.38-2.43-1.44,0,0,0-.02,0-.03l-14.83,3.54c.05.19.07.39.06.59-.07,1.1-1.03,1.94-2.13,1.87Z"/>
    <path class="cls-3" d="M143.28,68.46c-.49-.38-1.13-.51-1.72-.36l-7.77,1.98c-1.06.27-1.7,1.34-1.45,2.4,0,0,0,.02,0,.03.27,1.07,1.36,1.72,2.43,1.44l5.27-1.34v19.22c0,11.02-8.97,19.99-19.99,19.99-5.37,0-10.41-2.1-14.19-5.91-3.78-3.81-5.84-8.87-5.8-14.26l-.07-17.88,2.89,1.25c4.43,2,7.74,3.14,12.56,3.46,1.09.08,2.05-.76,2.13-1.87.01-.21-.01-.4-.06-.59-.2-.83-.91-1.47-1.81-1.53-4.23-.28-7.08-1.26-11.2-3.12l-5.73-2.48c-.62-.27-1.33-.21-1.89.17-.56.37-.9,1-.9,1.68l.09,20.92c-.05,6.44,2.42,12.51,6.96,17.08,4.54,4.57,10.59,7.09,17.03,7.09,13.23,0,23.99-10.76,23.99-23.99v-21.8c0-.62-.29-1.2-.77-1.58Z"/>
  </g>
  <g>
    <path class="cls-4" d="M108.29,70.28h0c2.15-2.15,5.88-2.34,8.31.11"/>
    <path class="cls-3" d="M116.6,72.39c-.51,0-1.03-.2-1.42-.59-.76-.76-1.75-1.19-2.79-1.19h0c-1.01,0-1.98.39-2.67,1.08-.78.78-2.05.78-2.83,0-.78-.78-.78-2.05,0-2.83,1.43-1.43,3.44-2.25,5.5-2.25h.02c2.11,0,4.11.85,5.62,2.37.78.78.77,2.05-.01,2.83-.39.39-.9.58-1.41.58Z"/>
  </g>
  <path class="cls-3" d="M134.44,85.33c-1.51-1.52-3.51-2.36-5.62-2.37h-.02c-2.06,0-4.07.82-5.5,2.25-.78.78-.78,2.05,0,2.83.78.78,2.05.78,2.83,0,.69-.69,1.66-1.08,2.67-1.08h0c1.04,0,2.03.42,2.79,1.19.39.39.91.59,1.42.59s1.02-.19,1.41-.58c.78-.78.79-2.04.01-2.83Z"/>
  <circle class="cls-4" cx="30.06" cy="90.99" r="3.85" transform="translate(-61.19 120.25) rotate(-89.5)"/>
  <path class="cls-3" d="M50.63,90.12c-.43,0-.86-.14-1.23-.42l-14.08-10.99c-.87-.68-1.03-1.94-.35-2.81.68-.87,1.94-1.02,2.81-.35l14.08,10.99c.87.68,1.03,1.94.35,2.81-.39.51-.98.77-1.58.77Z"/>
  <path class="cls-2" d="M74.88,53.16l5.48,2.48c8.14,2.3,22.7,4.52,33.05-.67l5.29-2.65v21.96c0,12.15-9.85,21.99-21.99,21.99h0c-12.21,0-22.09-9.95-21.99-22.16l.16-20.94Z"/>
  <path class="cls-3" d="M96.71,99.64c-3.47,0-6.83-.72-9.96-2.15-1.01-.46-1.45-1.64-.99-2.65.46-1,1.65-1.45,2.65-.99,2.61,1.19,5.41,1.79,8.3,1.79,6.76,0,12.28-3.38,16.41-10.04,3.21-5.18,4.34-10.48,4.35-10.53.16-.78.77-1.39,1.55-1.55l4.92-1.03v-5.06c0-1.1.89-2,2-2h0c1.1,0,2,.89,2,2v6.68c0,.95-.66,1.76-1.58,1.96l-5.28,1.11c-.56,2.05-1.9,6.23-4.49,10.43-4.84,7.87-11.72,12.04-19.88,12.04Z"/>
  <path class="cls-3" d="M95.9,60.09c-1.1,0-1.99-.89-2-1.99,0-1.1.88-2,1.99-2.01.01,0,1.19,0,2.98-.13,1.11-.08,2.06.76,2.13,1.86.08,1.1-.76,2.06-1.86,2.13-1.93.13-3.18.14-3.23.14h-.01Z"/>
  <path class="cls-3" d="M118.7,67.79c-1.1,0-2-.9-2-2v-10.56l-2.39,1.2c-2.19,1.09-4.95,1.96-8.21,2.6-1.09.21-2.14-.49-2.35-1.58-.21-1.08.49-2.13,1.58-2.35,2.92-.57,5.34-1.33,7.2-2.26l5.28-2.64c.62-.31,1.36-.28,1.95.09.59.36.95,1.01.95,1.7v13.8c0,1.1-.9,2-2,2Z"/>
  <g>
    <path class="cls-3" d="M88,67.26h-.02c-2.06,0-4.07.82-5.5,2.25-.78.78-.78,2.05,0,2.83.78.78,2.05.78,2.83,0,.69-.69,1.66-1.08,2.67-1.08h0c1.04,0,2.03.42,2.79,1.19.39.39.91.59,1.42.59s1.02-.19,1.41-.58c.78-.78.79-2.04.01-2.83-1.51-1.52-3.51-2.37-5.62-2.37Z"/>
    <path class="cls-3" d="M111.16,69.63c-1.51-1.52-3.51-2.37-5.62-2.37h-.02c-2.06,0-4.07.82-5.5,2.25-.78.78-.78,2.05,0,2.83.78.78,2.05.78,2.83,0,.69-.69,1.66-1.08,2.67-1.08h0c1.04,0,2.03.42,2.79,1.19.39.39.91.59,1.42.59s1.02-.19,1.41-.58c.78-.78.79-2.04.01-2.83Z"/>
  </g>
  <path class="cls-3" d="M96.74,87.84c-3.08,0-6.16-.9-8.87-2.73l-.46-.31c-.92-.62-1.16-1.86-.54-2.78.62-.92,1.86-1.16,2.78-.54l.46.31c4.35,2.93,10.01,2.69,14.09-.62.86-.69,2.12-.56,2.81.3.7.86.56,2.12-.29,2.81-2.92,2.36-6.44,3.56-9.97,3.56Z"/>
  <path class="cls-3" d="M87.18,55.64s-3.27-.56-6.54-1.67l-5-2.08c-.62-.26-1.32-.19-1.88.18-.56.37-.89,1-.89,1.66v17.35c0,10.92-9.13,15.38-18.81,20.1-.44.21-.88.43-1.31.64.07-6.69.11-12.98.11-13.48,0-.6-.26-1.18-.73-1.56l-14.67-12.05c-.6-.49-1.42-.59-2.12-.26-.7.33-1.15,1.03-1.15,1.81v17.69c-1.21-.72-2.62-1.14-4.13-1.14-4.49,0-8.15,3.66-8.15,8.15s3.66,8.15,8.15,8.15,8.15-3.66,8.15-8.15c0-.12-.01-.23-.02-.35v-20.13l10.67,8.76c-.02,2.32-.06,8.53-.13,14.6-6.61,3.55-12.2,7.84-12.2,15.36,0,6.34,3.74,9.75,7.43,9.83.05,0,.1,0,.15,0,3.93,0,8.01-3.54,8.38-11.52.08-1.82.16-6.31.21-11.23,1.01-.51,2.05-1.02,3.12-1.54,9.87-4.82,21.06-10.27,21.06-23.69v-14.35s2.29.95,2.29.95c.04.02.08.03.12.05,3.61,1.23,7.07,1.83,7.22,1.85,1.1.19,2.12-.55,2.31-1.64.18-1.09-.55-2.12-1.64-2.31ZM30.06,94.84c-2.12,0-3.85-1.73-3.85-3.85s1.73-3.85,3.85-3.85,3.85,1.73,3.85,3.85-1.73,3.85-3.85,3.85ZM48.5,107.37c-.24,5.36-2.49,7.7-4.44,7.7-1.75-.04-3.52-2.06-3.52-5.83,0-4.82,3.37-7.97,8.14-10.76-.05,3.99-.11,7.4-.18,8.89Z"/>
  <circle class="cls-3" cx="86.03" cy="30.94" r="4"/>
  <path class="cls-3" d="M77.74,41.98c-.54,0-1.09-.22-1.48-.65l-.36-.39c-4.75-5.23-4.57-13.24.42-18.25.78-.78,2.05-.78,2.83,0,.78.78.79,2.05,0,2.83-3.48,3.49-3.61,9.09-.29,12.73l.36.39c.74.82.68,2.08-.14,2.83-.38.35-.86.52-1.34.52Z"/>
  <path class="cls-3" d="M70.7,48.02c-.63,0-1.25-.29-1.64-.85l-.6-.85c-6.35-9-6.12-20.91.58-29.66.67-.88,1.93-1.04,2.8-.37.88.67,1.04,1.93.37,2.8-5.63,7.35-5.83,17.36-.49,24.92l.6.85c.64.9.42,2.15-.48,2.79-.35.25-.75.37-1.15.37Z"/>
  <path class="cls-3" d="M94.19,41.7c-.51,0-1.02-.19-1.41-.58-.78-.78-.79-2.05,0-2.83,3.48-3.49,3.61-9.09.29-12.74l-.36-.39c-.74-.82-.68-2.08.13-2.83.82-.75,2.08-.68,2.83.13l.36.39c4.75,5.23,4.57,13.24-.42,18.25-.39.39-.9.59-1.42.59Z"/>
  <path class="cls-3" d="M101.3,47.91c-.42,0-.85-.13-1.22-.41-.88-.67-1.04-1.93-.37-2.8,5.63-7.34,5.83-17.36.49-24.92l-.6-.85c-.64-.9-.42-2.15.48-2.79.9-.64,2.15-.42,2.79.48l.6.85c6.35,9,6.12,20.91-.58,29.66-.39.51-.99.78-1.59.78Z"/>
  <path class="cls-3" d="M41.54,58.61h-5.97c-1.1,0-2-.9-2-2s.9-2,2-2h5.97c1.1,0,2,.9,2,2s-.9,2-2,2Z"/>
  <path class="cls-3" d="M96.99,125.39h-5.19c-1.1,0-2-.9-2-2s.9-2,2-2h5.19c1.1,0,2,.9,2,2s-.9,2-2,2Z"/>
  <path class="cls-3" d="M128.8,103.12c-.44,0-.89-.15-1.26-.45-3.89-3.16-9.38-3.51-13.65-.88-.94.58-2.17.29-2.75-.65-.58-.94-.29-2.17.65-2.75,5.72-3.52,13.06-3.04,18.27,1.18.86.7.99,1.96.29,2.81-.4.49-.97.74-1.55.74Z"/>
</svg>