<?xml version="1.0" encoding="UTF-8"?>
<svg id="Pictograms" xmlns="http://www.w3.org/2000/svg" viewBox="0 0 160 160">
  <defs>
    <style>
      .cls-1 {
        fill: #adedff;
      }

      .cls-2 {
        fill: #2954ff;
      }

      .cls-3 {
        fill: #0e0a7f;
      }

      .cls-4 {
        fill: #00c8ff;
      }
    </style>
  </defs>
  <rect class="cls-2" x="12.51" y="46.83" width="67.51" height="11.26" transform="translate(-15.15 18.99) rotate(-20)"/>
  <path class="cls-1" d="M142.88,55.39l-6.75,16.28-9.74,23.51-13.12,31.69c-3.29.87-6.83,1.11-10.24.65-1.52,3.56-3.94,6.49-6.92,8.81l-15.08-6.25-14.56-6.03c-3.34-1.38-4.93-5.22-3.55-8.57l32.96-79.56c1.39-3.34,5.23-4.93,8.57-3.55l34.88,14.45c3.35,1.39,4.94,5.23,3.55,8.57Z"/>
  <circle class="cls-4" cx="121.49" cy="79.37" r="16.55"/>
  <g>
    <path class="cls-4" d="M43.09,77.48l-2.54-6.97c-.14-.37-.42-.68-.78-.85-.36-.17-.77-.19-1.15-.05l-10.54,3.84c-.78.28-1.18,1.14-.9,1.92l2.54,6.97c.14.37.42.68.78.85.2.09.42.14.63.14.17,0,.35-.03.51-.09l10.54-3.84c.78-.28,1.18-1.14.9-1.92Z"/>
    <path class="cls-4" d="M45.57,84.29c-.14-.37-.42-.68-.78-.85-.36-.17-.77-.19-1.15-.05l-10.54,3.84c-.37.14-.68.42-.85.78s-.19.77-.05,1.15l2.54,6.97c.22.61.8.99,1.41.99.17,0,.34-.03.51-.09l10.54-3.83c.37-.14.68-.42.85-.78s.19-.77.05-1.15l-2.54-6.97Z"/>
    <path class="cls-4" d="M60.56,72.25c.17-.36.19-.77.05-1.15l-2.54-6.97c-.14-.37-.42-.68-.78-.85-.36-.17-.77-.19-1.15-.05l-10.54,3.84c-.37.14-.68.42-.85.78s-.19.77-.05,1.15l2.54,6.97c.22.61.8.99,1.41.99.17,0,.34-.03.51-.09l10.54-3.83c.37-.14.68-.42.85-.78Z"/>
    <path class="cls-4" d="M63.09,77.92c-.14-.37-.42-.68-.78-.85-.36-.17-.77-.19-1.15-.05l-10.54,3.84c-.78.28-1.18,1.14-.9,1.92l2.54,6.97c.14.37.42.68.78.85.2.09.42.14.63.14.17,0,.35-.03.51-.09l10.54-3.84c.78-.28,1.18-1.14.9-1.92l-2.54-6.97Z"/>
    <path class="cls-4" d="M78.13,64.73l-2.54-6.97c-.14-.37-.42-.68-.78-.85-.36-.17-.77-.19-1.15-.05l-10.54,3.84c-.78.28-1.18,1.14-.9,1.92l2.54,6.97c.14.37.42.68.78.85.2.09.42.14.63.14.17,0,.35-.03.51-.09l10.54-3.84c.78-.28,1.18-1.14.9-1.92Z"/>
  </g>
  <g>
    <path class="cls-3" d="M80.3,53.14c.38,1.04,1.53,1.57,2.56,1.2,1.04-.38,1.57-1.53,1.2-2.56l-2.28-6.26s0,0,0,0l-3.85-10.57c-.38-1.04-1.53-1.58-2.56-1.19l-13.1,4.77-1.77-4.86c-.38-1.04-1.53-1.58-2.56-1.2-1.04.38-1.57,1.53-1.2,2.56l1.77,4.86-29.73,10.82-1.77-4.86c-.38-1.04-1.53-1.57-2.56-1.2-1.04.38-1.57,1.53-1.2,2.56l1.77,4.86-13.1,4.77c-1.04.38-1.57,1.53-1.2,2.56l3.85,10.58c.06.18.16.34.27.49.02.03.05.07.07.1.11.14.24.26.38.36.02.02.05.03.07.04.08.05.15.1.23.14.05.02.11.04.17.06.05.02.1.04.15.05.17.05.34.08.51.08,0,0,.01,0,.02,0,.23,0,.46-.04.68-.12l61.56-22.41,1.59,4.38ZM28.27,55.14s0,0,0,0c0,0,0,0,0,0l46.58-16.95,2.48,6.82-59.68,21.72-2.48-6.82,13.09-4.77Z"/>
    <path class="cls-3" d="M57,95.89l-5.86,2.13c-1.04.38-1.57,1.53-1.2,2.56.3.81,1.06,1.32,1.88,1.32.23,0,.46-.04.68-.12l5.86-2.13c1.04-.38,1.57-1.53,1.2-2.56-.38-1.04-1.53-1.57-2.56-1.2Z"/>
    <path class="cls-3" d="M44.29,104.77c1.04-.38,1.57-1.53,1.2-2.56-.38-1.04-1.53-1.58-2.56-1.2l-11.29,4.11-9.62-26.43c-.38-1.04-1.53-1.58-2.56-1.2-1.04.38-1.57,1.53-1.2,2.56l10.3,28.31c.18.5.55.91,1.03,1.13.27.12.56.19.85.19.23,0,.46-.04.68-.12l13.17-4.79Z"/>
    <path class="cls-3" d="M43.61,34.41c.47,0,.94-.17,1.32-.5,9.92-8.76,22.16-13.9,35.4-14.88,5.72-.42,11.44-.04,17,1.14,3.14.67,6.25,1.59,9.25,2.76,2.78,1.08,5.51,2.39,8.12,3.88.96.55,2.18.22,2.73-.74.55-.96.22-2.18-.74-2.73-2.77-1.59-5.69-2.98-8.65-4.13-3.2-1.24-6.52-2.23-9.87-2.94-5.93-1.26-12.02-1.67-18.12-1.21-14.11,1.04-27.17,6.54-37.75,15.88-.83.73-.91,1.99-.18,2.82.39.45.95.68,1.5.68Z"/>
    <path class="cls-3" d="M140.09,44.97l-34.88-14.45c-2.11-.88-4.44-.88-6.55,0-2.11.88-3.76,2.52-4.63,4.63l-32.96,79.56c-1.81,4.36.27,9.38,4.63,11.19l14.56,6.03c.25.1.51.15.76.15.79,0,1.53-.47,1.85-1.24.42-1.02-.06-2.19-1.08-2.61l-14.56-6.03c-1.13-.47-2-1.34-2.47-2.47-.47-1.13-.47-2.37,0-3.49l32.96-79.56c.96-2.32,3.64-3.43,5.96-2.47l34.88,14.45c2.32.96,3.43,3.64,2.47,5.96-.42,1.02.06,2.19,1.08,2.61,1.02.42,2.19-.06,2.61-1.08,1.81-4.36-.27-9.38-4.63-11.19Z"/>
    <path class="cls-3" d="M137.23,103.71c-1-.46-2.19-.02-2.65.99-.95,2.08-2.05,4.08-3.27,5.92-4.35,6.6-10.18,11.38-16.84,13.79-.57.2-1.13.37-1.71.53-2.25.6-4.61.87-6.94.8,1.05-3.31,1.39-6.74.98-9.97-.41-4.62-3.03-9.39-6.52-11.86-2.53-1.79-5.36-2.35-8.23-1.6-3.31.91-5.7,3.3-6.73,6.72-1.25,4.17-.19,9.16,2.64,12.45,2.89,3.7,7.11,6.31,12.08,7.51-1.29,2.16-3.01,4.09-5.16,5.76-6.29,4.92-16.05,7.3-24.86,6.08-12.33-1.72-24.06-9.54-30.51-20.16l7.59,3c1.03.4,2.19-.1,2.6-1.12.41-1.03-.1-2.19-1.12-2.6l-13.14-5.2c-.57-.22-1.21-.18-1.74.13-.53.31-.89.84-.97,1.45l-2.16,15.39c-.15,1.09.61,2.1,1.7,2.26.09.01.19.02.28.02.98,0,1.84-.72,1.98-1.72l1.38-9.86c7.07,11.94,19.73,20.44,33.56,22.37,1.76.25,3.55.37,5.33.37,8.32,0,16.61-2.61,22.54-7.25,2.99-2.33,5.3-5.1,6.9-8.25,3.18.25,6.45-.04,9.55-.86.64-.17,1.29-.37,2.01-.62,7.51-2.72,14.03-8.03,18.85-15.36,1.33-2.02,2.53-4.19,3.56-6.46.46-1,.02-2.19-.99-2.65ZM101.75,125.28c-4.45-.91-8.19-3.11-10.67-6.3-.02-.03-.05-.06-.07-.09-1.96-2.26-2.73-5.84-1.87-8.71.44-1.46,1.48-3.33,3.93-4.01.47-.12.95-.18,1.41-.18,1.19,0,2.36.4,3.48,1.19,2.55,1.8,4.54,5.48,4.85,9.02.38,2.96,0,6.08-1.07,9.08Z"/>
    <path class="cls-3" d="M112.14,78.42c-.79.77-.81,2.04-.03,2.83l4.96,5.08c.38.38.89.6,1.43.6h0c.54,0,1.05-.21,1.42-.6l10.95-11.11c.78-.79.77-2.05-.02-2.83-.79-.78-2.05-.77-2.83.02l-9.52,9.66-3.54-3.62c-.77-.79-2.04-.8-2.83-.03Z"/>
    <path class="cls-3" d="M121.49,60.83c-1.1,0-2,.9-2,2s.9,2,2,2c8.02,0,14.55,6.53,14.55,14.55s-6.53,14.55-14.55,14.55c-4.22,0-8.23-1.83-11-5.02-.72-.83-1.99-.92-2.82-.2-.83.72-.92,1.99-.2,2.82,3.53,4.07,8.64,6.4,14.02,6.4,10.23,0,18.55-8.32,18.55-18.55s-8.32-18.55-18.55-18.55Z"/>
    <path class="cls-3" d="M124.58,51.36c.8,0,1.56-.47,1.89-1.26.43-1.04-.07-2.23-1.11-2.66l-11.87-4.9c-1.04-.43-2.23.07-2.66,1.11-.43,1.04.07,2.23,1.11,2.66l11.87,4.9c.25.1.52.15.78.15Z"/>
  </g>
</svg>