<?xml version="1.0" encoding="UTF-8"?>
<svg id="Pictograms" xmlns="http://www.w3.org/2000/svg" viewBox="0 0 160 160">
  <defs>
    <style>
      .cls-1 {
        fill: #adedff;
      }

      .cls-2 {
        fill: #2954ff;
      }

      .cls-3 {
        fill: #0e0a7f;
      }

      .cls-4 {
        fill: #00c8ff;
      }
    </style>
  </defs>
  <rect class="cls-4" x="35.02" y="25.83" width="43.4" height="84.66" rx="6" ry="6" transform="translate(-25.2 34.22) rotate(-27.73)"/>
  <path class="cls-3" d="M23.33,51.2c-.73,0-1.44-.4-1.81-1.09-.52-1-.14-2.23.86-2.75l37.06-19.42c1-.52,2.23-.14,2.75.86.52,1,.14,2.23-.86,2.75l-37.06,19.42c-.3.16-.63.23-.95.23Z"/>
  <rect class="cls-1" x="62.83" y="22.65" width="54.27" height="105.87" rx="7" ry="7" transform="translate(35.78 -28.68) rotate(22.5)"/>
  <path class="cls-3" d="M113.53,38.21c-.26,0-.52-.05-.78-.16l-12.66-5.23c-1.04-.43-1.54-1.62-1.11-2.66.43-1.04,1.62-1.54,2.66-1.11l12.66,5.23c1.04.43,1.54,1.62,1.11,2.66-.33.79-1.08,1.26-1.89,1.26Z"/>
  <path class="cls-3" d="M67.65,125c-.26,0-.52-.05-.78-.16l-16.42-6.78c-2.27-.94-4.04-2.7-4.97-4.96-.93-2.26-.93-4.75,0-7l8.85-21.3c.43-1.04,1.62-1.53,2.67-1.1,1.04.43,1.53,1.63,1.1,2.67l-8.85,21.3c-.52,1.25-.52,2.63,0,3.88.52,1.26,1.5,2.23,2.76,2.76l16.42,6.78c1.04.43,1.54,1.62,1.11,2.66-.33.79-1.08,1.26-1.89,1.26Z"/>
  <path class="cls-2" d="M119.91,91.85l-28.26-14.87-11.87,29.64,11.76-4.01c8.94,31.15-51.35,58.07-67.72,11.3,3.04,9.37,9.12,17.81,17.83,22.35,35.18,18.34,76.48-8.41,67.38-40.11l10.88-4.3Z"/>
  <path class="cls-3" d="M65.35,143.93c-8.14,0-16.61-2.03-24.6-6.89-2.85-1.73-5.47-3.75-7.84-6.01-2.54-2.35-4.89-5.17-6.97-8.5-1.85-2.92-3.4-6.08-4.62-9.44-.38-1.05.16-2.22,1.21-2.61,1.05-.39,2.22.15,2.62,1.19,8.85,23.51,28.98,28.33,44.99,22.67,12.71-4.48,23.26-15.98,20.02-29.73l-9.73,3.3c-.75.26-1.59.05-2.14-.53-.55-.58-.71-1.42-.41-2.16l11.87-29.56c.21-.54.65-.95,1.19-1.15.54-.2,1.14-.16,1.65.11l28.26,14.83c.71.37,1.13,1.12,1.09,1.92-.04.8-.55,1.5-1.29,1.79l-9.2,3.62c3.09,13.46-2.45,27.07-15.09,36.72-8.03,6.13-19.18,10.42-31.01,10.42ZM65.38,139.85h0c10.87,0,21.12-3.95,28.51-9.59,11.81-9.02,16.74-21.79,13.18-34.15-.29-1.01.23-2.08,1.21-2.46l6.73-2.65-22.31-11.71-9.37,23.34,7.55-2.57c.51-.18,1.08-.14,1.57.11.49.24.86.67,1.03,1.19,2.58,7.83,1.5,15.67-3.13,22.69-4.16,6.3-10.85,11.33-18.84,14.15-1.99.7-4.04,1.26-6.13,1.66Z"/>
  <g>
    <path class="cls-3" d="M133.73,62.19c-.26,0-.53-.05-.78-.16-1.04-.43-1.53-1.63-1.1-2.67l2.92-7.03c.43-1.04,1.62-1.53,2.67-1.1,1.04.43,1.53,1.63,1.1,2.67l-2.92,7.03c-.33.78-1.08,1.26-1.88,1.26Z"/>
    <path class="cls-3" d="M125.67,63.24c-.61,0-1.22-.27-1.62-.8l-4.65-6.04c-.69-.89-.52-2.17.37-2.86.89-.69,2.17-.52,2.86.37l4.65,6.04c.69.89.52,2.17-.37,2.86-.37.29-.81.42-1.24.42Z"/>
    <path class="cls-3" d="M114.99,71.73c-1.01,0-1.88-.75-2.02-1.77-.15-1.12.64-2.14,1.76-2.29l7.57-.99c1.1-.15,2.14.64,2.29,1.76.15,1.12-.64,2.14-1.76,2.29l-7.57.99c-.09.01-.18.02-.27.02Z"/>
    <path class="cls-3" d="M124.59,84.2c-.26,0-.53-.05-.78-.16-1.04-.43-1.53-1.63-1.1-2.67l2.92-7.03c.43-1.04,1.62-1.53,2.67-1.1,1.04.43,1.53,1.63,1.1,2.67l-2.92,7.03c-.33.78-1.08,1.26-1.88,1.26Z"/>
    <path class="cls-3" d="M140.22,82.15c-.61,0-1.22-.27-1.62-.8l-4.64-6.04c-.69-.89-.52-2.17.37-2.86.89-.69,2.17-.52,2.86.37l4.64,6.04c.69.89.52,2.17-.37,2.86-.37.29-.81.42-1.24.42Z"/>
    <path class="cls-3" d="M138.68,68.62c-1.01,0-1.88-.75-2.02-1.77-.15-1.12.64-2.14,1.76-2.29l7.57-.99c1.11-.15,2.14.64,2.29,1.76.15,1.12-.64,2.14-1.76,2.29l-7.57.99c-.09.01-.18.02-.27.02Z"/>
  </g>
  <path class="cls-3" d="M134.45,36.99c-.94-2.26-2.7-4.03-4.97-4.96l-36.95-15.26c-4.67-1.93-10.05.29-11.99,4.95l-9.35,22.49-10.31-19.55c-2.09-3.97-7.04-5.5-11.02-3.42l-27.58,14.46c-1.93,1.01-3.35,2.72-4,4.79-.65,2.08-.44,4.28.57,6.2l7.85,14.88c.37.69,1.07,1.09,1.81,1.09.32,0,.65-.08.95-.24,1-.53,1.38-1.76.85-2.76l-7.85-14.88c-.5-.96-.61-2.06-.29-3.09.32-1.04,1.03-1.89,2-2.39l27.58-14.46c1.99-1.04,4.47-.28,5.51,1.71l11.02,20.91c.3.56.58,1.12.85,1.66-5.71,13.99-7.05,22.96-4.09,27.4.94,1.41,2.81,3.09,6.35,3.09,2.72,0,4.88-1.19,6.24-3.44,3.07-5.08,1.46-15.51-4.04-27.17l10.69-25.73c1.08-2.59,4.06-3.82,6.67-2.75l36.95,15.26c1.26.52,2.24,1.5,2.76,2.75.52,1.25.52,2.63,0,3.88-.43,1.04.06,2.23,1.1,2.67,1.04.43,2.23-.06,2.67-1.1.94-2.26.94-4.75,0-7ZM74.16,74.08c-.61,1.02-1.46,1.47-2.75,1.47-1.88,0-2.59-.73-2.95-1.28-1.11-1.67-2.04-6.44,3.05-19.98,4.05,9.82,4.37,16.93,2.65,19.78Z"/>
  <path class="cls-3" d="M23.12,86.1c-.22,0-.44-.04-.66-.11-1.07-.36-1.64-1.52-1.27-2.59,2.95-8.65,8.39-16.15,15.73-21.68.9-.68,2.18-.5,2.86.4.68.9.5,2.18-.4,2.86-6.69,5.04-11.64,11.87-14.33,19.74-.29.85-1.08,1.38-1.93,1.38Z"/>
  <path class="cls-3" d="M21.1,105.08c-1.03,0-1.92-.78-2.03-1.83-.31-3.1-.35-6.25-.11-9.37.09-1.12,1.04-1.96,2.19-1.88,1.12.09,1.96,1.07,1.87,2.19-.22,2.88-.19,5.78.1,8.64.11,1.12-.7,2.12-1.82,2.24-.07,0-.14.01-.21.01Z"/>
</svg>