<?xml version="1.0" encoding="UTF-8"?>
<svg id="Pictograms" xmlns="http://www.w3.org/2000/svg" viewBox="0 0 160 160">
  <defs>
    <style>
      .cls-1 {
        fill: #adedff;
      }

      .cls-2 {
        fill: #2954ff;
      }

      .cls-3 {
        fill: #0e0a7f;
      }

      .cls-4 {
        fill: #00c8ff;
      }
    </style>
  </defs>
  <path class="cls-4" d="M56.53,75.73h-12.5c-4.91,0-7.34-5.96-3.83-9.39l10.59-10.38h5.74v19.77Z"/>
  <path class="cls-1" d="M121.95,139.03H38.05c-6.47,0-11.24-6.04-9.77-12.33l.57-2.43c1.79-7.6,6.89-13.7,13.56-16.95v-6.49c0-7.03,5.7-12.73,12.73-12.73h10.07v16.61l14.78,13.66,14.78-13.66v-16.61h10.07c1.92,0,3.75.43,5.38,1.19.26.12.54.25.83.37.02,0,.03,0,.05.02,2.75,1.44,5.03,3.78,6.48,6.58,1.88,3.61,2.44,7.78,2.1,11.85,3.22,1.49,5.92,4.09,7.83,7.1,1.52,2.4,2.57,5.03,3.37,7.76l.84,3.73c1.48,6.29-3.3,12.33-9.77,12.33Z"/>
  <path class="cls-4" d="M109.21,55.96c0-16.13-13.08-29.21-29.21-29.21h0c-16.13,0-29.21,13.08-29.21,29.21h18.76v-2.56c0-5.77,4.68-10.45,10.45-10.45s10.45,4.68,10.45,10.45v2.56h18.76Z"/>
  <g>
    <path class="cls-2" d="M89.79,127.38c-2.12,0-3.84-1.72-3.84-3.84s1.72-3.84,3.84-3.84,3.84,1.72,3.84,3.84-1.72,3.84-3.84,3.84Z"/>
    <path class="cls-2" d="M70.21,127.38c-2.12,0-3.84-1.72-3.84-3.84s1.72-3.84,3.84-3.84,3.84,1.72,3.84,3.84-1.72,3.84-3.84,3.84Z"/>
  </g>
  <g>
    <path class="cls-3" d="M48.85,103.14c-10.82,1.87-19.43,9.98-21.94,20.68-.25,1.08.41,2.15,1.49,2.41.15.04.31.05.46.05.91,0,1.73-.62,1.95-1.54,2.15-9.13,9.5-16.06,18.73-17.65,1.09-.19,1.82-1.22,1.63-2.31-.19-1.09-1.22-1.82-2.31-1.63Z"/>
    <path class="cls-3" d="M80.75,120.21c.22-.1.42-.23.61-.38l22.07-20.47c.81-.75.86-2.02.11-2.83-.75-.81-2.02-.86-2.83-.11l-20.71,19.21-12.79-11.86v-10.55c3.76,2.19,8.13,3.46,12.79,3.46,14.04,0,25.47-11.42,25.47-25.47,0-1.1-.9-2-2-2s-2,.9-2,2c0,11.84-9.63,21.47-21.47,21.47s-21.47-9.63-21.47-21.47v-7.29c0-1.1-.9-2-2-2s-2,.9-2,2v7.29c0,.85.04,1.69.13,2.52h-10.62c-1.46,0-2.67-.81-3.22-2.16-.55-1.35-.26-2.77.79-3.8l10.01-9.81h38.84c1.1,0,2-.9,2-2v-2.56c0-6.87-5.58-12.45-12.45-12.45s-12.45,5.58-12.45,12.45v.56h-16.76s-.06,0-.09,0c-.1,0-.2.01-.29.03-.05.01-.11.03-.16.05-.07.02-.14.04-.21.07-.06.02-.11.06-.17.09-.06.03-.12.06-.17.09-.07.05-.14.1-.2.16-.03.03-.07.05-.1.08l-10.59,10.38c-2.21,2.17-2.86,5.3-1.69,8.17,1.17,2.87,3.82,4.65,6.92,4.65h11.35c1.31,4.96,4.09,9.32,7.83,12.61v9.73l-3.93-3.64c-.81-.75-2.08-.7-2.83.11-.75.81-.7,2.08.11,2.83l22.07,20.47c.57.51,1.4.68,2.11.38ZM71.55,53.4c0-4.66,3.79-8.45,8.45-8.45s8.45,3.79,8.45,8.45v.56h-16.9v-.56Z"/>
    <path class="cls-3" d="M52.31,46.43c.25.11.52.16.78.16.78,0,1.52-.46,1.84-1.22.7-1.65,1.57-3.24,2.57-4.72.62-.91.39-2.16-.53-2.78-.91-.62-2.16-.39-2.78.53-1.16,1.7-2.15,3.52-2.95,5.41-.43,1.02.04,2.19,1.06,2.62Z"/>
    <path class="cls-3" d="M63.19,34.57c4.83-3.8,10.65-5.82,16.81-5.82,14.33,0,26.11,11.14,27.13,25.21h-7.27c-1.1,0-2,.9-2,2s.9,2,2,2h9.34c1.1,0,2-.9,2-2,0-17.21-14-31.21-31.21-31.21-7.07,0-13.74,2.31-19.29,6.67-.87.68-1.02,1.94-.33,2.81s1.94,1.02,2.81.33Z"/>
    <path class="cls-3" d="M133.17,123.76c-.12-.46-.24-.92-.37-1.34-.94-3.24-2.12-5.95-3.6-8.28-1.96-3.07-4.56-5.59-7.45-7.21.16-4.26-.66-8.24-2.4-11.58-1.63-3.15-4.19-5.77-7.3-7.42h0s-.1-.05-.15-.08c-.29-.16-.59-.3-.9-.43-1.02-.43-2.19.05-2.62,1.07-.43,1.02.05,2.19,1.07,2.62.21.09.42.2.62.31.06.03.11.06.17.08,2.32,1.24,4.28,3.26,5.54,5.69,1.22,2.34,1.88,5.11,1.96,8.11-.04-.01-.08-.02-.13-.03-4.52-1.16-9.87.08-13.31,3.09-2.19,1.92-3.44,4.83-3.34,7.77.09,2.71,1.29,5.1,3.38,6.71,1.82,1.4,4.16,1.99,6.44,1.61,1.8-.3,3.6-1.23,5.19-2.69,2.66-2.44,4.42-5.93,5.27-10.39,1.73,1.26,3.3,2.95,4.56,4.92,1.27,2,2.3,4.37,3.14,7.27.12.39.23.79.33,1.19.23.9,1.04,1.51,1.94,1.51.16,0,.33-.02.5-.06,1.07-.27,1.72-1.36,1.44-2.43ZM117.5,109.64c-.42,2.79-1.49,6.65-4.21,9.15-.71.65-1.83,1.47-3.14,1.69-1.16.2-2.41-.12-3.34-.83-1.13-.87-1.77-2.17-1.82-3.67-.06-1.73.71-3.51,1.98-4.63,1.84-1.61,4.55-2.53,7.16-2.53.86,0,1.7.1,2.51.3.31.08.6.17.9.27-.01.08-.02.16-.03.25Z"/>
  </g>
</svg>