<?xml version="1.0" encoding="UTF-8"?>
<svg id="Pictograms" xmlns="http://www.w3.org/2000/svg" viewBox="0 0 160 160">
  <defs>
    <style>
      .cls-1 {
        fill: #adedff;
      }

      .cls-2 {
        fill: #2954ff;
      }

      .cls-3 {
        fill: #0e0a7f;
      }

      .cls-4 {
        fill: #00c8ff;
      }
    </style>
  </defs>
  <path class="cls-4" d="M131.72,126.7l-.84-3.73c-.79-2.73-1.84-5.36-3.37-7.76-1.92-3.01-4.61-5.62-7.83-7.1.35-4.07-.22-8.24-2.1-11.85-1.45-2.8-3.73-5.14-6.48-6.58-.02,0-.03-.02-.05-.02-.29-.13-.57-.26-.83-.37-1.63-.76-3.46-1.19-5.38-1.19h-11.07v17.53l-13.78,12.74-13.78-12.74v-17.53h-11.07c-7.03,0-12.73,5.7-12.73,12.73v6.49c-6.67,3.26-11.77,9.36-13.56,16.95l-.57,2.43c-1.48,6.29,3.3,12.33,9.77,12.33h83.9c6.47,0,11.24-6.04,9.77-12.33Z"/>
  <g>
    <g>
      <circle class="cls-1" cx="53.12" cy="31.73" r="14.04"/>
      <circle class="cls-1" cx="106.88" cy="31.73" r="14.04"/>
    </g>
    <path class="cls-1" d="M80,26.75h0c-17.24,0-31.21,13.97-31.21,31.21,0,6.27,3.09,10.9,7.83,14.3-.05-.65-.09-.39-.09-1.05v-12.5s8.66,1.42,16.06-3.97c7.4-5.38,7.4-12.46,7.4-12.46h0s0,7.08,7.4,12.46c7.4,5.38,16.06,3.97,16.06,3.97v12.5c0,.66-.03.4-.09,1.05,4.73-3.4,7.83-8.03,7.83-14.3,0-17.24-13.97-31.21-31.21-31.21Z"/>
    <g>
      <path class="cls-2" d="M89.79,127.38c-2.12,0-3.84-1.72-3.84-3.84s1.72-3.84,3.84-3.84,3.84,1.72,3.84,3.84-1.72,3.84-3.84,3.84Z"/>
      <path class="cls-2" d="M70.21,127.38c-2.12,0-3.84-1.72-3.84-3.84s1.72-3.84,3.84-3.84,3.84,1.72,3.84,3.84-1.72,3.84-3.84,3.84Z"/>
    </g>
    <g>
      <path class="cls-3" d="M48.85,103.14c-10.82,1.87-19.43,9.98-21.94,20.68-.25,1.08.41,2.15,1.49,2.41.15.04.31.05.46.05.91,0,1.73-.62,1.95-1.54,2.15-9.13,9.5-16.06,18.73-17.65,1.09-.19,1.82-1.22,1.63-2.31-.19-1.09-1.21-1.82-2.31-1.63Z"/>
      <path class="cls-3" d="M80.75,120.21c.22-.1.42-.23.61-.38l22.07-20.47c.81-.75.86-2.02.11-2.83-.75-.81-2.02-.86-2.83-.11l-20.71,19.21-11.78-10.93v-10.93c3.53,1.85,7.53,2.9,11.78,2.9,7.43,0,14.47-3.23,19.32-8.87.72-.84.62-2.1-.21-2.82-.84-.72-2.1-.62-2.82.21-4.09,4.75-10.02,7.48-16.29,7.48-11.84,0-21.47-9.63-21.47-21.47v-12.5c0-1.1-.9-2-2-2s-2,.9-2,2v12.5c0,8.09,3.79,15.3,9.69,19.97v9.82l-4.93-4.57c-.81-.75-2.07-.7-2.83.11-.75.81-.7,2.08.11,2.83l22.07,20.47c.57.51,1.4.68,2.11.38Z"/>
      <path class="cls-3" d="M103.47,73.21c1.1,0,2-.9,2-2v-12.5c0-1.2-1.14-2.17-2.32-1.97-.08.01-7.97,1.19-14.57-3.61-6.42-4.67-6.58-10.61-6.58-10.85,0-1.1-.9-2-2-2s-2,.9-2,2c0,.33.09,8.17,8.23,14.08,5.29,3.84,11.1,4.52,14.54,4.52.25,0,.48,0,.7-.01v10.34c0,1.1.9,2,2,2Z"/>
      <path class="cls-3" d="M39.07,33.73c1.1,0,2-.9,2-2,0-6.64,5.4-12.04,12.04-12.04,6.05,0,11.03,4.29,11.85,10.2,0,.03.02.06.02.08.01.07.03.14.05.2.02.07.04.13.07.19.01.03.02.06.03.09.01.02.03.04.04.06.07.14.15.27.25.38.02.03.04.05.06.08.1.11.21.2.33.28.05.04.1.07.16.1.1.06.21.1.32.14.05.02.09.04.13.05.15.04.3.06.46.07.02,0,.04,0,.06,0,.05,0,.09-.01.14-.01.05,0,.09,0,.14,0,.03,0,.05-.01.08-.02.06-.01.12-.03.18-.04.08-.02.16-.05.23-.08.03-.01.05-.01.08-.03,3.84-1.77,7.95-2.67,12.22-2.67,16.1,0,29.21,13.1,29.21,29.21,0,1.1.9,2,2,2s2-.9,2-2c0-3.8-.65-7.44-1.83-10.84,6.72-1.97,11.55-8.19,11.55-15.39,0-5.89-3.22-11.29-8.39-14.11-.97-.53-2.19-.17-2.71.8-.53.97-.17,2.18.8,2.71,3.89,2.11,6.3,6.17,6.3,10.59,0,5.55-3.82,10.34-9.09,11.67-5.41-11.03-16.75-18.65-29.84-18.65-4.02,0-7.92.71-11.63,2.1-2-6.6-8.06-11.17-15.25-11.17-8.85,0-16.04,7.2-16.04,16.04,0,1.1.9,2,2,2Z"/>
      <path class="cls-3" d="M97.25,23.5c.49,0,.99-.18,1.37-.54,1.65-1.55,3.69-2.6,5.89-3.04,1.08-.22,1.79-1.27,1.57-2.35-.22-1.08-1.26-1.78-2.35-1.57-2.94.59-5.66,1.99-7.86,4.06-.8.76-.84,2.02-.08,2.83.39.42.92.63,1.46.63Z"/>
      <path class="cls-3" d="M59.34,34.49c-.78-.78-2.05-.78-2.83,0-4.63,4.63-7.76,10.46-9.06,16.84-.22,1.08.48,2.14,1.56,2.36.13.03.27.04.4.04.93,0,1.77-.65,1.96-1.6,1.14-5.61,3.89-10.73,7.97-14.81.78-.78.78-2.05,0-2.83Z"/>
      <path class="cls-3" d="M133.17,123.74c-1.04-3.91-2.3-6.96-3.97-9.6-1.99-3.14-4.55-5.61-7.44-7.22.13-3.46-.35-7.62-2.41-11.58-1.84-3.54-4.79-6.35-8.3-7.91-1.01-.45-2.19,0-2.64,1.02-.45,1.01,0,2.19,1.02,2.64,2.68,1.19,4.95,3.36,6.37,6.1,1.4,2.69,1.9,5.55,1.97,8.1-.04-.01-.09-.02-.14-.04-4.53-1.16-9.87.08-13.3,3.09-2.19,1.92-3.44,4.83-3.35,7.77.09,2.72,1.29,5.1,3.38,6.71,1.82,1.4,4.17,1.99,6.44,1.61,1.81-.3,3.6-1.23,5.19-2.69,2.62-2.41,4.42-5.98,5.27-10.38,1.73,1.26,3.3,2.94,4.56,4.93,1.45,2.28,2.55,4.97,3.48,8.48.24.9,1.05,1.49,1.93,1.49.17,0,.34-.02.51-.07,1.07-.28,1.7-1.38,1.42-2.45ZM117.5,109.65c-.42,2.79-1.48,6.65-4.21,9.15-.71.65-1.82,1.47-3.14,1.69-1.16.19-2.41-.12-3.34-.84-1.13-.87-1.77-2.17-1.82-3.66-.06-1.73.71-3.51,1.99-4.63,1.84-1.62,4.55-2.53,7.16-2.53.86,0,1.71.1,2.51.31.3.08.59.16.89.26-.01.09-.02.17-.04.25Z"/>
    </g>
  </g>
</svg>