<?xml version="1.0" encoding="UTF-8"?>
<svg id="Pictograms" xmlns="http://www.w3.org/2000/svg" viewBox="0 0 160 160">
  <defs>
    <style>
      .cls-1 {
        fill: #adedff;
      }

      .cls-2 {
        fill: #2954ff;
      }

      .cls-3 {
        fill: #0e0a7f;
      }

      .cls-4 {
        fill: #00c8ff;
      }
    </style>
  </defs>
  <polygon class="cls-1" points="67.47 47.91 24.3 71.59 24.3 140.11 36.33 140.11 36.33 77.83 98.61 77.83 98.61 140.11 110.64 140.11 110.64 71.59 67.47 47.91"/>
  <rect class="cls-2" x="46.54" y="119.18" width="20.93" height="20.93"/>
  <rect class="cls-2" x="67.47" y="119.18" width="20.93" height="20.93"/>
  <rect class="cls-2" x="57.01" y="98.25" width="20.93" height="20.93"/>
  <path class="cls-4" d="M111.32,39.36h18.44v22.94h-13.04c-2.98,0-5.4-2.42-5.4-5.4v-17.54h0Z"/>
  <g>
    <path class="cls-3" d="M139.04,122.8c-1.1,0-2,.9-2,2v7.85c0,1.1.9,2,2,2s2-.9,2-2v-7.85c0-1.1-.9-2-2-2Z"/>
    <path class="cls-3" d="M147.31,29.92c0-.06,0-.12-.02-.19-.28-1.99-1.43-3.74-3.24-4.92-1.99-1.3-4.5-1.71-6.73-1.07-5.27,1.56-8.36,6.17-9.07,13.4-1.81.03-39.33.13-46.25.22-1.1.01-1.99.92-1.98,2.02.01,1.1.91,1.98,2,1.98h.03c6.9-.08,25.91-.15,27.26-.16v15.7c0,4.08,3.32,7.4,7.4,7.4h3.94v11.71l-52.22-28.48c-.6-.33-1.32-.33-1.91,0l-53.3,29c-.97.53-1.33,1.74-.8,2.71.53.97,1.74,1.33,2.71.8l52.34-28.48,53.18,29.01v14.06c0,1.1.9,2,2,2s2-.9,2-2v-30.32h3.34c0,.79,0,1.59,0,2.4-.05,13.29-.11,28.29-.23,37.62h-17.12c-1.1,0-2,.9-2,2v31.8h-8.03v-60.28c0-1.1-.9-2-2-2h-62.28c-1.1,0-2,.9-2,2v49.42c0,1.1.9,2,2,2s2-.9,2-2v-39.04h50.07c1.1,0,2-.9,2-2s-.9-2-2-2h-50.07v-4.38h58.28v58.28h-6.21v-18.93c0-1.1-.9-2-2-2h-8.47v-18.93c0-1.1-.9-2-2-2h-20.93c-1.1,0-2,.9-2,2v18.93h-8.47c-1.1,0-2,.9-2,2v18.93h-18.24v-27.3c0-1.1-.9-2-2-2s-2,.9-2,2v29.3c0,1.1.9,2,2,2h102.67c1.1,0,2-.9,2-2s-.9-2-2-2h-14.33v-29.8h24.4v7.5c0,1.1.9,2,2,2s2-.9,2-2v-9.5c0-1.1-.9-2-2-2h-7.28c.12-9.34,0-63.32,0-63.32,5.12-.35,10.3-1.39,13.13-4.31,1.72-1.78,2.54-4.05,2.42-6.77ZM59.01,100.25h6.47v6.07c0,1.1.9,2,2,2s2-.9,2-2v-6.07h6.46v16.93h-16.93v-16.93ZM48.54,121.18h6.47v6.07c0,1.1.9,2,2,2s2-.9,2-2v-6.07h6.47v16.93h-16.93v-16.93ZM69.47,138.11v-16.93h6.47v6.07c0,1.1.9,2,2,2s2-.9,2-2v-6.07h6.47v16.93h-16.93ZM127.75,60.3h-11.04c-1.88,0-3.4-1.53-3.4-3.4v-15.54h14.44v18.94ZM142.02,33.9c-1.89,1.95-5.63,2.75-9.71,3.07.52-4.24,2.14-8.21,6.13-9.39.33-.09.67-.14,1.02-.14.83,0,1.69.25,2.41.72.47.3,1.26.97,1.45,2.03.05,1.55-.38,2.76-1.29,3.71Z"/>
    <path class="cls-3" d="M117.64,48.99h5.79c1.1,0,2-.9,2-2s-.9-2-2-2h-5.79c-1.1,0-2,.9-2,2s.9,2,2,2Z"/>
  </g>
</svg>