<?xml version="1.0" encoding="UTF-8"?>
<svg id="Pictograms" xmlns="http://www.w3.org/2000/svg" viewBox="0 0 160 160">
  <defs>
    <style>
      .cls-1 {
        fill: #adedff;
      }

      .cls-2 {
        fill: #2954ff;
      }

      .cls-3 {
        fill: #0e0a7f;
      }

      .cls-4 {
        fill: #00c8ff;
      }
    </style>
  </defs>
  <path class="cls-1" d="M124.71,118.26c-2.12-9.08-10.22-15.5-19.54-15.5h-12.11v1.52c0,7.22-5.85,13.07-13.07,13.07h0c-7.22,0-13.07-5.85-13.07-13.07v-1.52h-12.11c-9.32,0-17.42,6.42-19.54,15.5l-2.1,8.99c-1.41,6.02,3.16,11.78,9.35,11.78h87.03l-4.85-20.77Z"/>
  <g>
    <path class="cls-4" d="M79.99,20.97c-16.95,0-30.74,13.79-30.74,30.74v10.57c-5.45-.36-11,2.2-14.25,6.59-3.29,4.42-4.11,10.56-2.12,15.7.08.21.17.42.27.63-.31.14-.61.3-.91.46-5.64,3.07-9.03,9.81-8.16,16.17.86,6.26,5.81,11.76,11.93,13.3l.25.09c3.04-7.44,10.32-12.47,18.56-12.47h12.11v-13.25c-5.84-4.11-9.65-10.9-9.65-18.58v-13.88h17.18c12.55,0,18.42-8.69,19.6-23.18,5.27,4.16,8.65,10.6,8.65,17.83v19.22c0,7.68-3.82,14.47-9.65,18.58v9.24c10.44-4.92,17.68-15.54,17.68-27.82v-19.22c0-16.95-13.79-30.74-30.74-30.74Z"/>
    <path class="cls-2" d="M102.84,75.55c-2.39,0-4.32-1.93-4.32-4.32s1.93-4.32,4.32-4.32,4.32,1.93,4.32,4.32-1.93,4.32-4.32,4.32Z"/>
  </g>
  <g>
    <path class="cls-3" d="M66.93,59.05h7.53c12.98,0,20.25-8.42,21.6-25.01.09-1.1-.73-2.07-1.83-2.16-1.12-.11-2.07.73-2.16,1.83-1.73,21.34-13.68,21.34-17.61,21.34h-7.53c-1.1,0-2,.9-2,2s.9,2,2,2Z"/>
    <path class="cls-3" d="M102.18,81.84c.49-.99.08-2.19-.91-2.68-.99-.49-2.19-.08-2.68.91-3.52,7.14-10.64,11.58-18.6,11.58-11.42,0-20.72-9.29-20.72-20.72v-13.88c0-1.1-.9-2-2-2s-2,.9-2,2v13.88c0,13.63,11.09,24.72,24.72,24.72,3.94,0,7.7-.92,11.07-2.6v11.23c0,6.1-4.96,11.07-11.07,11.07s-11.07-4.96-11.07-11.07v-1.51s0,0,0,0c0-1.1-.9-2-2-2h-12.11c-5.99,0-11.8,2.48-15.94,6.81-.76.8-.74,2.06.06,2.83.39.37.89.56,1.38.56.53,0,1.05-.21,1.44-.62,3.39-3.54,8.15-5.57,13.05-5.57h10.13c.26,8.08,6.9,14.58,15.04,14.58s15.07-6.76,15.07-15.07v-13.74c2.94-2.27,5.4-5.21,7.12-8.71Z"/>
    <path class="cls-3" d="M36.42,114.78c-6.09-2.25-12.51-8.06-10.55-17,.78-3.54,2.99-7.11,6.55-9.51,1.23,1.83,2.83,3.5,4.78,4.93,3.18,2.52,9.13,4.26,13.21,2.69,2.36-.91,3.9-2.85,4.34-5.45.01-.08.02-.17.03-.26.19-5.4-5.24-8.52-10.36-8.71-3.89-.3-7.31.24-10.25,1.38-.88-2.64-.87-5.52.11-8.41,2.13-6.31,8.04-10.28,15.11-10.15h.04c1.08,0,1.98-.87,2-1.96.02-1.1-.85-2.02-1.96-2.04-.15,0-.3,0-.44,0-8.5,0-15.92,5.13-18.54,12.87-1.33,3.92-1.24,7.91.1,11.51-4.67,3-7.59,7.65-8.6,12.26-1.58,7.16.9,17.12,13.07,21.61.23.08.46.12.69.12.81,0,1.58-.5,1.88-1.31.38-1.04-.15-2.19-1.18-2.57ZM44.17,85.46c2.68.1,6.59,1.58,6.6,4.46-.22,1.14-.8,1.86-1.81,2.25-2.55.98-7.01-.29-9.35-2.14-1.45-1.06-2.65-2.26-3.59-3.56,2.34-.84,5.07-1.24,8.15-.99Z"/>
    <path class="cls-3" d="M69.79,24.84c3.26-1.24,6.69-1.87,10.21-1.87,15.85,0,28.74,12.89,28.74,28.74v6.67c0,1.1.9,2,2,2s2-.9,2-2v-6.67c0-18.06-14.69-32.74-32.74-32.74-4,0-7.91.72-11.63,2.13-1.03.39-1.55,1.55-1.16,2.58.39,1.03,1.55,1.55,2.58,1.16Z"/>
    <path class="cls-3" d="M56.52,33.87c.54,0,1.08-.22,1.48-.65,1.11-1.21,2.8-2.93,3.76-3.72.85-.7.98-1.96.27-2.82s-1.96-.97-2.82-.27c-1.35,1.11-3.32,3.17-4.18,4.11-.74.82-.69,2.08.13,2.83.38.35.87.52,1.35.52Z"/>
    <path class="cls-3" d="M131.31,137.75l-4.66-19.94c-2.34-10.04-11.18-17.04-21.49-17.04h-3.82c-1.1,0-2,.9-2,2s.9,2,2,2h3.82c8.44,0,15.67,5.74,17.59,13.95l4.66,19.94c.21.92,1.04,1.54,1.95,1.54.15,0,.3-.02.46-.05,1.08-.25,1.74-1.33,1.49-2.4Z"/>
  </g>
</svg>