<?xml version="1.0" encoding="UTF-8"?>
<svg id="Pictograms" xmlns="http://www.w3.org/2000/svg" viewBox="0 0 160 160">
  <defs>
    <style>
      .cls-1 {
        fill: none;
      }

      .cls-2 {
        fill: #adedff;
      }

      .cls-3 {
        fill: #2954ff;
      }

      .cls-4 {
        fill: #0e0a7f;
      }

      .cls-5 {
        fill: #00c8ff;
      }
    </style>
  </defs>
  <path class="cls-1" d="M66.24,87.9l1.62,4.78c-.55-1.64-1.1-3.25-1.62-4.78Z"/>
  <path class="cls-2" d="M67.87,92.68c1.94,5.78,3.84,12.1,4.4,18.31"/>
  <path class="cls-2" d="M72.26,110.98c-.55-6.2-2.46-12.53-4.4-18.31l-13.75-40.5-21.73,64h26.23c.71-.63,1.47-1.2,2.28-1.68,3.5-2.08,7.39-3.06,11.37-3.51Z"/>
  <path class="cls-5" d="M78.83,65.45c0-11.46,9.33-20.79,20.79-20.79s20.79,9.33,20.79,20.79v5h-41.58v-5Z"/>
  <g>
    <path class="cls-4" d="M28.43,25.91c.48,0,.96-.17,1.34-.52,1.82-1.66,3.82-3.13,5.93-4.38.95-.56,1.27-1.79.7-2.74-.56-.95-1.79-1.27-2.74-.7-2.35,1.39-4.56,3.03-6.59,4.87-.82.74-.88,2.01-.13,2.83.39.43.94.65,1.48.65Z"/>
    <path class="cls-4" d="M24.02,72.3c-3.99-5.96-6.1-12.92-6.1-20.12s2.16-14.32,6.24-20.33c.62-.91.38-2.16-.53-2.78-.91-.62-2.16-.38-2.78.53-4.54,6.67-6.94,14.48-6.94,22.58s2.34,15.73,6.78,22.35c.39.58,1.02.89,1.66.89.38,0,.77-.11,1.11-.34.92-.61,1.16-1.86.55-2.77Z"/>
    <path class="cls-4" d="M44,114.18h-6.48l16.58-15.22,6.1,5.6c.38.35.87.53,1.35.53.54,0,1.08-.22,1.47-.65.75-.81.69-2.08-.12-2.83l-5.85-5.37,9.79-8.98s0,0,0,0l.02-.02s.05-.06.08-.09c.06-.06.12-.12.17-.19.04-.05.07-.11.1-.16.03-.06.07-.11.1-.17.03-.06.05-.12.07-.18.02-.06.05-.12.06-.18.02-.06.02-.12.03-.19.01-.06.02-.13.03-.19,0-.07,0-.14,0-.2,0-.06,0-.12,0-.18-.01-.09-.04-.18-.06-.26-.01-.04-.01-.07-.02-.11v-.02s-.01,0-.01,0l-11.4-33.56c-.35-1.04-1.49-1.61-2.54-1.25-1.05.35-1.61,1.49-1.25,2.54l10.99,32.36-9.1,8.35-9.09-8.34,3.83-11.29c.36-1.05-.2-2.18-1.25-2.54-1.04-.36-2.18.21-2.54,1.25l-4.19,12.34c-.05.12-.1.24-.12.37l-9.8,28.86h-5.45c-1.1,0-2,.9-2,2s.9,2,2,2h6.87s0,0,0,0c0,0,0,0,0,0h11.61c1.1,0,2-.9,2-2s-.9-2-2-2ZM51.15,96.25l-14.36,13.17,6.82-20.09,7.54,6.92Z"/>
    <path class="cls-4" d="M43.99,58.96c.39.58,1.02.89,1.66.89.38,0,.77-.11,1.11-.34.92-.61,1.16-1.86.55-2.77-.9-1.35-1.38-2.92-1.38-4.55,0-4.51,3.67-8.19,8.19-8.19s8.19,3.67,8.19,8.19c0,1.1.9,2,2,2s2-.9,2-2c0-6.72-5.47-12.19-12.19-12.19s-12.19,5.47-12.19,12.19c0,2.42.71,4.77,2.06,6.78Z"/>
    <path class="cls-4" d="M65.4,33.06c4.08,2.42,7.34,6.15,9.18,10.51.32.76,1.06,1.22,1.84,1.22.26,0,.52-.05.78-.16,1.02-.43,1.5-1.6,1.07-2.62-2.17-5.15-6.01-9.55-10.83-12.4-.95-.56-2.18-.25-2.74.7-.56.95-.25,2.18.7,2.74Z"/>
    <path class="cls-4" d="M27.92,52.18c0,5.21,1.53,10.25,4.42,14.57.39.58,1.02.89,1.66.89.38,0,.77-.11,1.11-.34.92-.61,1.16-1.86.55-2.77-2.45-3.66-3.74-7.92-3.74-12.34,0-7.81,4.18-15.13,10.91-19.12.95-.56,1.27-1.79.7-2.74-.56-.95-1.79-1.26-2.74-.7-7.94,4.7-12.87,13.34-12.87,22.56Z"/>
    <path class="cls-4" d="M72.52,21c6.17,3.65,11.07,8.98,14.19,15.42.34.71,1.06,1.13,1.8,1.13.29,0,.59-.06.87-.2.99-.48,1.41-1.68.93-2.67-3.46-7.15-8.91-13.07-15.75-17.12-.95-.56-2.18-.25-2.74.7-.56.95-.25,2.18.7,2.74Z"/>
    <path class="cls-4" d="M146.02,140.22l-4.43-17.31c-2.13-8.34-9.63-14.16-18.24-14.16h-12.11s-.09.01-.14.01c-.07,0-.14,0-.22.02-.07.01-.13.03-.19.05-.06.02-.12.03-.18.06-.06.03-.12.06-.19.09-.05.03-.11.05-.16.09-.06.04-.12.09-.18.13-.04.03-.08.05-.11.09l-10.26,9.61-9.63-9.02v-8.94c2.88,1.53,6.15,2.4,9.63,2.4,11.36,0,20.6-9.24,20.6-20.61v-10.29h4.96c1.1,0,2-.9,2-2s-.9-2-2-2h-51.12c-1.1,0-2,.9-2,2s.9,2,2,2h42.17v10.29c0,9.16-7.45,16.61-16.6,16.61s-16.61-7.45-16.61-16.61v-4.07c0-1.1-.9-2-2-2s-2,.9-2,2v4.07c0,6.14,2.71,11.64,6.98,15.42v12.6s0,.02,0,.03c0,.08.01.16.02.24,0,.05,0,.11.02.16.01.07.04.13.06.2.02.06.03.11.06.17.03.06.06.11.09.17.03.06.06.12.1.17.03.05.07.09.11.13.05.06.09.12.15.17,0,0,.01.02.02.03l10.99,10.3v18.21c0,1.1.9,2,2,2s2-.9,2-2v-18.21l10.42-9.76h11.32c6.78,0,12.69,4.59,14.37,11.15l4.43,17.31c.23.9,1.04,1.5,1.94,1.5.16,0,.33-.02.5-.06,1.07-.27,1.72-1.36,1.44-2.43Z"/>
    <path class="cls-4" d="M99.62,42.66c-2.57,0-5.03.45-7.35,1.25-.23.04-.44.11-.63.22-8.1,3.06-14.1,10.6-14.75,19.66-.08,1.1.75,2.06,1.85,2.14.05,0,.1,0,.15,0,1.04,0,1.92-.8,1.99-1.86.48-6.68,4.49-12.37,10.11-15.3l2.14,15.43c.14.99.98,1.72,1.98,1.72h9.01c1,0,1.84-.74,1.98-1.72l2.14-15.43c5.62,2.93,9.63,8.62,10.11,15.3.08,1.1,1.03,1.92,2.14,1.85,1.1-.08,1.93-1.04,1.85-2.14-.65-9.06-6.66-16.61-14.76-19.67-.19-.1-.39-.18-.62-.22-2.32-.8-4.79-1.25-7.35-1.25ZM102.38,61.93h-5.53l-2.03-14.63c1.54-.41,3.14-.64,4.8-.64s3.26.23,4.8.64l-2.03,14.63Z"/>
    <path class="cls-4" d="M80.6,108.61c-2.11,0-4.32.03-6.56.2-.67-5.1-2.12-10.19-3.66-14.91-.34-1.05-1.47-1.62-2.52-1.28-1.05.34-1.62,1.47-1.28,2.52,1.46,4.5,2.85,9.34,3.49,14.12-3.51.57-6.99,1.61-10.19,3.51-3.33,1.98-5.66,4.81-6.58,7.98-1.11,3.85.14,8.12,3.04,10.37,1.55,1.2,3.51,1.81,5.52,1.81,1.71,0,3.46-.44,5.05-1.33,2.82-1.58,5.02-4.43,6.18-8.02,1.12-3.46,1.47-7.11,1.31-10.8,2.11-.16,4.21-.19,6.21-.19,1.1,0,2-.9,2-2s-.9-2-2-2ZM69.28,122.36c-.85,2.63-2.39,4.68-4.33,5.76-2.04,1.14-4.57,1.08-6.17-.16-1.61-1.25-2.31-3.81-1.65-6.09.63-2.19,2.33-4.2,4.78-5.65,2.6-1.55,5.51-2.44,8.49-2.95.11,3.15-.2,6.22-1.13,9.09Z"/>
  </g>
  <rect class="cls-3" x="110.23" y="127.76" width="19.58" height="10.65" rx="2" ry="2"/>
</svg>